G04*
G04 #@! TF.GenerationSoftware,Altium Limited,Altium Designer,21.6.4 (81)*
G04*
G04 Layer_Physical_Order=3*
G04 Layer_Color=16440176*
%FSLAX24Y24*%
%MOIN*%
G70*
G04*
G04 #@! TF.SameCoordinates,18F95803-63CF-49D0-9880-B3B199DA49BA*
G04*
G04*
G04 #@! TF.FilePolarity,Positive*
G04*
G01*
G75*
%ADD11C,0.0080*%
%ADD12C,0.0150*%
%ADD60O,0.0984X0.0394*%
%ADD61C,0.0180*%
G36*
X10500Y15418D02*
X12491D01*
X12516Y15368D01*
X12500Y15330D01*
Y15270D01*
X12523Y15215D01*
X12565Y15173D01*
X12620Y15150D01*
X12680D01*
X12735Y15173D01*
X12777Y15215D01*
X12800Y15270D01*
Y15330D01*
X12784Y15368D01*
X12809Y15418D01*
X20786Y15418D01*
X20813Y15368D01*
X20799Y15333D01*
Y15274D01*
X20821Y15219D01*
X20864Y15176D01*
X20919Y15153D01*
X20978D01*
X21034Y15176D01*
X21076Y15219D01*
X21099Y15274D01*
Y15333D01*
X21084Y15368D01*
X21111Y15418D01*
X22000D01*
X22000Y15419D01*
X22108Y15404D01*
X22209Y15362D01*
X22296Y15296D01*
X22362Y15209D01*
X22404Y15108D01*
X22419Y15000D01*
X22418Y15000D01*
Y14166D01*
X22368Y14141D01*
X22333Y14156D01*
X22277D01*
X22226Y14135D01*
X22187Y14095D01*
X22165Y14044D01*
Y13988D01*
X22187Y13937D01*
X22226Y13897D01*
X22277Y13876D01*
X22333D01*
X22368Y13891D01*
X22418Y13866D01*
Y10500D01*
X22419Y10500D01*
X22404Y10392D01*
X22362Y10291D01*
X22296Y10204D01*
X22209Y10137D01*
X22108Y10096D01*
X22000Y10081D01*
X22000Y10082D01*
X15119Y10082D01*
X15086Y10132D01*
X15090Y10142D01*
Y10198D01*
X15069Y10249D01*
X15029Y10289D01*
X14978Y10310D01*
X14922D01*
X14871Y10289D01*
X14831Y10249D01*
X14810Y10198D01*
Y10142D01*
X14814Y10132D01*
X14781Y10082D01*
X10550D01*
X10549Y10082D01*
X10500Y10082D01*
X10453Y10088D01*
X10392Y10096D01*
X10291Y10137D01*
X10204Y10204D01*
X10137Y10291D01*
X10096Y10392D01*
X10081Y10500D01*
X10082Y10500D01*
X10082Y15000D01*
X10081Y15000D01*
X10096Y15108D01*
X10137Y15209D01*
X10204Y15296D01*
X10291Y15362D01*
X10392Y15404D01*
X10500Y15419D01*
X10500Y15418D01*
D02*
G37*
%LPC*%
G36*
X19138Y15250D02*
X19082D01*
X19031Y15229D01*
X18992Y15189D01*
X18970Y15138D01*
Y15082D01*
X18992Y15031D01*
X19004Y15018D01*
X19007Y15009D01*
X19010Y15006D01*
X19010Y15006D01*
X19011Y15004D01*
X19012Y15002D01*
X19013Y15000D01*
X19014Y14997D01*
X19014Y14995D01*
X19013Y14971D01*
X19010Y14968D01*
X18956Y14967D01*
X18917Y15006D01*
X18865Y15028D01*
X18810D01*
X18758Y15006D01*
X18719Y14967D01*
X18698Y14915D01*
Y14860D01*
X18719Y14808D01*
X18758Y14769D01*
X18791Y14756D01*
X18804Y14704D01*
X18804Y14700D01*
X18783Y14680D01*
X18762Y14628D01*
Y14572D01*
X18783Y14521D01*
X18823Y14482D01*
X18874Y14460D01*
X18930D01*
X18981Y14482D01*
X19006Y14506D01*
X19025Y14520D01*
X19070Y14510D01*
X19237Y14344D01*
X19233Y14324D01*
X19202Y14309D01*
X19179Y14304D01*
X19134Y14322D01*
X19078D01*
X19027Y14301D01*
X18987Y14262D01*
X18966Y14210D01*
Y14154D01*
X18981Y14118D01*
X18979Y14115D01*
X18927Y14094D01*
X18888Y14054D01*
X18867Y14003D01*
Y13947D01*
X18888Y13896D01*
X18927Y13856D01*
X18979Y13835D01*
X18988Y13821D01*
X18981Y13803D01*
Y13747D01*
X19002Y13696D01*
X19042Y13657D01*
X19093Y13635D01*
X19149D01*
X19200Y13657D01*
X19239Y13696D01*
X19240Y13697D01*
X19303Y13718D01*
X19322Y13710D01*
X19378D01*
X19429Y13731D01*
X19469Y13771D01*
X19490Y13822D01*
Y13878D01*
X19469Y13929D01*
X19456Y13942D01*
X19453Y13951D01*
X19450Y13954D01*
X19450Y13954D01*
X19449Y13956D01*
X19448Y13957D01*
X19447Y13960D01*
X19446Y13963D01*
X19445Y13967D01*
X19445Y13972D01*
X19444Y13978D01*
X19444Y13986D01*
X19442Y13991D01*
Y14360D01*
X19435Y14395D01*
X19415Y14425D01*
X19202Y14638D01*
Y14969D01*
X19204Y14974D01*
X19205Y14982D01*
X19205Y14988D01*
X19206Y14993D01*
X19207Y14997D01*
X19207Y15000D01*
X19208Y15002D01*
X19209Y15004D01*
X19210Y15006D01*
X19211Y15006D01*
X19213Y15009D01*
X19216Y15018D01*
X19224Y15026D01*
X19255Y15026D01*
X19279Y15023D01*
X19319Y14983D01*
X19370Y14962D01*
X19426D01*
X19477Y14983D01*
X19517Y15023D01*
X19538Y15074D01*
Y15130D01*
X19517Y15181D01*
X19477Y15221D01*
X19426Y15242D01*
X19370D01*
X19319Y15221D01*
X19284Y15186D01*
X19253Y15185D01*
X19229Y15189D01*
X19190Y15229D01*
X19138Y15250D01*
D02*
G37*
G36*
X14028Y15140D02*
X13972D01*
X13921Y15119D01*
X13881Y15079D01*
X13860Y15028D01*
Y14972D01*
X13881Y14921D01*
X13921Y14881D01*
X13972Y14860D01*
X14028D01*
X14079Y14881D01*
X14119Y14921D01*
X14140Y14972D01*
Y15028D01*
X14119Y15079D01*
X14079Y15119D01*
X14028Y15140D01*
D02*
G37*
G36*
X16678Y15190D02*
X16622D01*
X16571Y15169D01*
X16531Y15129D01*
X16510Y15078D01*
Y15022D01*
X16531Y14971D01*
X16544Y14958D01*
X16547Y14949D01*
X16550Y14946D01*
X16550Y14946D01*
X16551Y14944D01*
X16552Y14943D01*
X16553Y14940D01*
X16554Y14937D01*
X16555Y14933D01*
X16555Y14928D01*
X16556Y14922D01*
X16556Y14914D01*
X16558Y14909D01*
Y14400D01*
X16565Y14365D01*
X16585Y14335D01*
X16808Y14112D01*
Y12400D01*
X16815Y12365D01*
X16835Y12335D01*
X16985Y12185D01*
X17015Y12165D01*
X17050Y12158D01*
X18995D01*
X18996Y12157D01*
X19010Y12108D01*
X18981Y12079D01*
X18960Y12028D01*
Y11972D01*
X18939Y11940D01*
X18922D01*
X18871Y11919D01*
X18831Y11879D01*
X18810Y11828D01*
Y11772D01*
X18831Y11721D01*
X18871Y11681D01*
X18922Y11660D01*
X18969D01*
X18992Y11642D01*
X19010Y11619D01*
Y11572D01*
X19031Y11521D01*
X19071Y11481D01*
X19122Y11460D01*
X19178D01*
X19229Y11481D01*
X19269Y11521D01*
X19290Y11572D01*
Y11628D01*
X19269Y11679D01*
X19229Y11719D01*
X19178Y11740D01*
X19131D01*
X19108Y11758D01*
X19090Y11781D01*
Y11828D01*
X19111Y11860D01*
X19128D01*
X19179Y11881D01*
X19219Y11921D01*
X19240Y11972D01*
Y12028D01*
X19219Y12079D01*
X19190Y12108D01*
X19204Y12157D01*
X19205Y12158D01*
X19362D01*
X19458Y12062D01*
Y12041D01*
X19456Y12036D01*
X19456Y12028D01*
X19455Y12022D01*
X19455Y12017D01*
X19454Y12013D01*
X19453Y12010D01*
X19452Y12007D01*
X19451Y12006D01*
X19450Y12004D01*
X19450Y12004D01*
X19447Y12001D01*
X19444Y11992D01*
X19431Y11979D01*
X19410Y11928D01*
Y11872D01*
X19431Y11821D01*
X19471Y11781D01*
X19522Y11760D01*
X19578D01*
X19629Y11781D01*
X19669Y11821D01*
X19690Y11872D01*
Y11928D01*
X19686Y11938D01*
X19724Y11977D01*
X19747Y11967D01*
X19803D01*
X19854Y11988D01*
X19894Y12028D01*
X19915Y12079D01*
Y12135D01*
X19894Y12186D01*
X19854Y12226D01*
X19803Y12247D01*
X19747D01*
X19696Y12226D01*
X19659Y12189D01*
X19653Y12186D01*
X19600Y12180D01*
X19465Y12315D01*
X19435Y12335D01*
X19400Y12342D01*
X17088D01*
X16992Y12438D01*
Y14150D01*
X16985Y14185D01*
X16965Y14215D01*
X16742Y14438D01*
Y14853D01*
X16792Y14874D01*
X16804Y14861D01*
X16856Y14840D01*
X16912D01*
X16963Y14861D01*
X17002Y14901D01*
X17024Y14952D01*
Y15008D01*
X17002Y15059D01*
X16963Y15099D01*
X16912Y15120D01*
X16856D01*
X16831Y15110D01*
X16770Y15128D01*
X16767Y15131D01*
X16729Y15169D01*
X16678Y15190D01*
D02*
G37*
G36*
X16269Y15100D02*
X16213D01*
X16162Y15079D01*
X16122Y15039D01*
X16101Y14988D01*
Y14932D01*
X16122Y14881D01*
X16162Y14841D01*
X16213Y14820D01*
X16269D01*
X16320Y14841D01*
X16360Y14881D01*
X16381Y14932D01*
Y14988D01*
X16360Y15039D01*
X16320Y15079D01*
X16269Y15100D01*
D02*
G37*
G36*
X12078Y14990D02*
X12022D01*
X11971Y14969D01*
X11931Y14929D01*
X11910Y14878D01*
Y14822D01*
X11931Y14771D01*
X11971Y14731D01*
X12022Y14710D01*
X12078D01*
X12129Y14731D01*
X12169Y14771D01*
X12190Y14822D01*
Y14878D01*
X12169Y14929D01*
X12129Y14969D01*
X12078Y14990D01*
D02*
G37*
G36*
X17575Y14975D02*
X17519D01*
X17468Y14953D01*
X17429Y14914D01*
X17407Y14862D01*
Y14807D01*
X17429Y14755D01*
X17468Y14716D01*
X17519Y14695D01*
X17575D01*
X17627Y14716D01*
X17666Y14755D01*
X17687Y14807D01*
Y14862D01*
X17666Y14914D01*
X17627Y14953D01*
X17575Y14975D01*
D02*
G37*
G36*
X18571Y14645D02*
X18515D01*
X18464Y14624D01*
X18424Y14585D01*
X18403Y14533D01*
Y14478D01*
X18424Y14426D01*
X18464Y14387D01*
X18515Y14365D01*
X18571D01*
X18622Y14387D01*
X18662Y14426D01*
X18683Y14478D01*
Y14533D01*
X18662Y14585D01*
X18622Y14624D01*
X18571Y14645D01*
D02*
G37*
G36*
X15078Y14640D02*
X15022D01*
X14971Y14619D01*
X14931Y14579D01*
X14910Y14528D01*
Y14472D01*
X14931Y14421D01*
X14971Y14381D01*
X15022Y14360D01*
X15078D01*
X15129Y14381D01*
X15169Y14421D01*
X15190Y14472D01*
Y14528D01*
X15169Y14579D01*
X15129Y14619D01*
X15078Y14640D01*
D02*
G37*
G36*
X12188Y14290D02*
X12112D01*
X12042Y14261D01*
X11989Y14208D01*
X11960Y14138D01*
Y14062D01*
X11989Y13992D01*
X12042Y13939D01*
X12112Y13910D01*
X12188D01*
X12258Y13939D01*
X12311Y13992D01*
X12340Y14062D01*
Y14138D01*
X12311Y14208D01*
X12258Y14261D01*
X12188Y14290D01*
D02*
G37*
G36*
X15693Y14090D02*
X15637D01*
X15586Y14069D01*
X15546Y14029D01*
X15525Y13978D01*
Y13922D01*
X15546Y13871D01*
X15586Y13831D01*
X15637Y13810D01*
X15693D01*
X15744Y13831D01*
X15784Y13871D01*
X15805Y13922D01*
Y13978D01*
X15784Y14029D01*
X15744Y14069D01*
X15693Y14090D01*
D02*
G37*
G36*
X20428Y14010D02*
X20372D01*
X20321Y13989D01*
X20281Y13949D01*
X20260Y13898D01*
Y13842D01*
X20281Y13791D01*
X20321Y13751D01*
X20372Y13730D01*
X20428D01*
X20479Y13751D01*
X20519Y13791D01*
X20540Y13842D01*
Y13898D01*
X20519Y13949D01*
X20479Y13989D01*
X20428Y14010D01*
D02*
G37*
G36*
X15363Y13940D02*
X15307D01*
X15256Y13919D01*
X15216Y13879D01*
X15195Y13828D01*
Y13772D01*
X15216Y13721D01*
X15256Y13681D01*
X15307Y13660D01*
X15363D01*
X15414Y13681D01*
X15454Y13721D01*
X15475Y13772D01*
Y13828D01*
X15454Y13879D01*
X15414Y13919D01*
X15363Y13940D01*
D02*
G37*
G36*
X19228Y13540D02*
X19172D01*
X19121Y13519D01*
X19108Y13506D01*
X19075Y13484D01*
X19042Y13506D01*
X19029Y13519D01*
X18978Y13540D01*
X18922D01*
X18871Y13519D01*
X18831Y13479D01*
X18810Y13428D01*
Y13372D01*
X18831Y13321D01*
X18871Y13281D01*
X18922Y13260D01*
X18978D01*
X19029Y13281D01*
X19042Y13294D01*
X19075Y13316D01*
X19108Y13294D01*
X19121Y13281D01*
X19172Y13260D01*
X19228D01*
X19279Y13281D01*
X19319Y13321D01*
X19340Y13372D01*
Y13428D01*
X19319Y13479D01*
X19279Y13519D01*
X19228Y13540D01*
D02*
G37*
G36*
X14375Y13686D02*
X14319D01*
X14268Y13664D01*
X14229Y13625D01*
X14207Y13574D01*
Y13518D01*
X14229Y13466D01*
X14268Y13427D01*
X14319Y13406D01*
X14375D01*
X14427Y13427D01*
X14466Y13466D01*
X14487Y13518D01*
Y13574D01*
X14466Y13625D01*
X14427Y13664D01*
X14375Y13686D01*
D02*
G37*
G36*
X15593Y13685D02*
X15537D01*
X15486Y13663D01*
X15446Y13624D01*
X15425Y13572D01*
Y13517D01*
X15446Y13465D01*
X15486Y13426D01*
X15507Y13417D01*
X15512Y13399D01*
X15513Y13361D01*
X15481Y13329D01*
X15460Y13278D01*
Y13222D01*
X15481Y13171D01*
X15521Y13131D01*
X15572Y13110D01*
X15628D01*
X15679Y13131D01*
X15719Y13171D01*
X15740Y13222D01*
Y13278D01*
X15719Y13329D01*
X15679Y13369D01*
X15658Y13378D01*
X15653Y13396D01*
X15652Y13434D01*
X15684Y13465D01*
X15705Y13517D01*
Y13572D01*
X15684Y13624D01*
X15644Y13663D01*
X15593Y13685D01*
D02*
G37*
G36*
X14698Y13300D02*
X14642D01*
X14591Y13279D01*
X14551Y13239D01*
X14530Y13188D01*
Y13132D01*
X14551Y13081D01*
X14591Y13041D01*
X14642Y13020D01*
X14698D01*
X14749Y13041D01*
X14789Y13081D01*
X14810Y13132D01*
Y13188D01*
X14789Y13239D01*
X14749Y13279D01*
X14698Y13300D01*
D02*
G37*
G36*
X12058Y13251D02*
X12002D01*
X11951Y13230D01*
X11912Y13191D01*
X11890Y13139D01*
Y13083D01*
X11912Y13032D01*
X11951Y12993D01*
X12002Y12971D01*
X12058D01*
X12110Y12993D01*
X12149Y13032D01*
X12170Y13083D01*
Y13139D01*
X12149Y13191D01*
X12110Y13230D01*
X12058Y13251D01*
D02*
G37*
G36*
X11378Y13240D02*
X11322D01*
X11271Y13219D01*
X11231Y13179D01*
X11210Y13128D01*
Y13072D01*
X11231Y13021D01*
X11271Y12981D01*
X11322Y12960D01*
X11378D01*
X11429Y12981D01*
X11469Y13021D01*
X11490Y13072D01*
Y13128D01*
X11469Y13179D01*
X11429Y13219D01*
X11378Y13240D01*
D02*
G37*
G36*
X20558Y13201D02*
X20502D01*
X20451Y13180D01*
X20412Y13141D01*
X20390Y13089D01*
Y13033D01*
X20412Y12982D01*
X20451Y12943D01*
X20502Y12921D01*
X20558D01*
X20610Y12943D01*
X20649Y12982D01*
X20670Y13033D01*
Y13089D01*
X20649Y13141D01*
X20610Y13180D01*
X20558Y13201D01*
D02*
G37*
G36*
X21378Y13190D02*
X21322D01*
X21271Y13169D01*
X21231Y13129D01*
X21210Y13078D01*
Y13022D01*
X21231Y12971D01*
X21271Y12931D01*
X21322Y12910D01*
X21378D01*
X21429Y12931D01*
X21469Y12971D01*
X21490Y13022D01*
Y13078D01*
X21469Y13129D01*
X21429Y13169D01*
X21378Y13190D01*
D02*
G37*
G36*
X12478Y12890D02*
X12422D01*
X12371Y12869D01*
X12331Y12829D01*
X12310Y12778D01*
Y12722D01*
X12331Y12671D01*
X12371Y12631D01*
X12422Y12610D01*
X12478D01*
X12529Y12631D01*
X12569Y12671D01*
X12590Y12722D01*
Y12778D01*
X12569Y12829D01*
X12529Y12869D01*
X12478Y12890D01*
D02*
G37*
G36*
X21378Y12590D02*
X21322D01*
X21271Y12569D01*
X21231Y12529D01*
X21210Y12478D01*
Y12422D01*
X21231Y12371D01*
X21271Y12331D01*
X21322Y12310D01*
X21378D01*
X21429Y12331D01*
X21469Y12371D01*
X21490Y12422D01*
Y12478D01*
X21469Y12529D01*
X21429Y12569D01*
X21378Y12590D01*
D02*
G37*
G36*
X11390Y12496D02*
X11334D01*
X11282Y12475D01*
X11243Y12435D01*
X11222Y12384D01*
Y12328D01*
X11243Y12277D01*
X11282Y12237D01*
X11334Y12216D01*
X11390D01*
X11441Y12237D01*
X11480Y12277D01*
X11502Y12328D01*
Y12384D01*
X11480Y12435D01*
X11441Y12475D01*
X11390Y12496D01*
D02*
G37*
G36*
X21877Y12386D02*
X21821D01*
X21770Y12365D01*
X21730Y12326D01*
X21709Y12274D01*
Y12219D01*
X21730Y12167D01*
X21770Y12128D01*
X21821Y12106D01*
X21877D01*
X21928Y12128D01*
X21968Y12167D01*
X21989Y12219D01*
Y12274D01*
X21968Y12326D01*
X21928Y12365D01*
X21877Y12386D01*
D02*
G37*
G36*
X12208Y12351D02*
X12152D01*
X12101Y12330D01*
X12062Y12291D01*
X12040Y12239D01*
Y12183D01*
X12062Y12132D01*
X12101Y12093D01*
X12152Y12071D01*
X12208D01*
X12260Y12093D01*
X12299Y12132D01*
X12320Y12183D01*
Y12239D01*
X12299Y12291D01*
X12260Y12330D01*
X12208Y12351D01*
D02*
G37*
G36*
X21428Y11990D02*
X21372D01*
X21321Y11969D01*
X21281Y11929D01*
X21260Y11878D01*
Y11822D01*
X21281Y11771D01*
X21321Y11731D01*
X21372Y11710D01*
X21428D01*
X21479Y11731D01*
X21519Y11771D01*
X21540Y11822D01*
Y11878D01*
X21519Y11929D01*
X21479Y11969D01*
X21428Y11990D01*
D02*
G37*
G36*
X21708Y11501D02*
X21652D01*
X21601Y11480D01*
X21562Y11441D01*
X21540Y11389D01*
Y11333D01*
X21562Y11282D01*
X21601Y11243D01*
X21652Y11221D01*
X21708D01*
X21760Y11243D01*
X21799Y11282D01*
X21820Y11333D01*
Y11389D01*
X21799Y11441D01*
X21760Y11480D01*
X21708Y11501D01*
D02*
G37*
G36*
X15830Y10919D02*
X15774D01*
X15723Y10897D01*
X15683Y10858D01*
X15662Y10807D01*
Y10751D01*
X15683Y10699D01*
X15723Y10660D01*
X15774Y10639D01*
X15830D01*
X15881Y10660D01*
X15921Y10699D01*
X15942Y10751D01*
Y10807D01*
X15921Y10858D01*
X15881Y10897D01*
X15830Y10919D01*
D02*
G37*
G36*
X17627Y10886D02*
X17571D01*
X17520Y10865D01*
X17480Y10826D01*
X17459Y10774D01*
Y10719D01*
X17480Y10667D01*
X17520Y10628D01*
X17571Y10606D01*
X17627D01*
X17678Y10628D01*
X17718Y10667D01*
X17739Y10719D01*
Y10774D01*
X17718Y10826D01*
X17678Y10865D01*
X17627Y10886D01*
D02*
G37*
G36*
X20578Y10740D02*
X20522D01*
X20471Y10719D01*
X20431Y10679D01*
X20410Y10628D01*
Y10572D01*
X20431Y10521D01*
X20471Y10481D01*
X20522Y10460D01*
X20578D01*
X20629Y10481D01*
X20669Y10521D01*
X20690Y10572D01*
Y10628D01*
X20669Y10679D01*
X20629Y10719D01*
X20578Y10740D01*
D02*
G37*
G36*
X21708Y10701D02*
X21652D01*
X21601Y10680D01*
X21562Y10641D01*
X21540Y10589D01*
Y10533D01*
X21562Y10482D01*
X21601Y10443D01*
X21652Y10421D01*
X21708D01*
X21760Y10443D01*
X21799Y10482D01*
X21820Y10533D01*
Y10589D01*
X21799Y10641D01*
X21760Y10680D01*
X21708Y10701D01*
D02*
G37*
G36*
X11978Y10440D02*
X11922D01*
X11871Y10419D01*
X11831Y10379D01*
X11810Y10328D01*
Y10272D01*
X11831Y10221D01*
X11871Y10181D01*
X11922Y10160D01*
X11978D01*
X12029Y10181D01*
X12069Y10221D01*
X12090Y10272D01*
Y10328D01*
X12069Y10379D01*
X12029Y10419D01*
X11978Y10440D01*
D02*
G37*
%LPD*%
G36*
X19169Y15041D02*
X19165Y15036D01*
X19162Y15030D01*
X19159Y15024D01*
X19156Y15017D01*
X19154Y15010D01*
X19152Y15002D01*
X19151Y14993D01*
X19150Y14985D01*
X19150Y14975D01*
X19070D01*
X19070Y14985D01*
X19069Y14993D01*
X19068Y15002D01*
X19067Y15010D01*
X19065Y15017D01*
X19062Y15024D01*
X19059Y15030D01*
X19056Y15036D01*
X19052Y15041D01*
X19047Y15046D01*
X19173D01*
X19169Y15041D01*
D02*
G37*
G36*
X19390Y13975D02*
X19391Y13967D01*
X19392Y13958D01*
X19394Y13950D01*
X19396Y13943D01*
X19398Y13936D01*
X19401Y13930D01*
X19405Y13924D01*
X19409Y13919D01*
X19413Y13914D01*
X19287D01*
X19291Y13919D01*
X19295Y13924D01*
X19299Y13930D01*
X19302Y13936D01*
X19304Y13943D01*
X19306Y13950D01*
X19308Y13958D01*
X19309Y13967D01*
X19310Y13975D01*
X19310Y13985D01*
X19390D01*
X19390Y13975D01*
D02*
G37*
G36*
X16709Y14981D02*
X16705Y14976D01*
X16701Y14970D01*
X16698Y14964D01*
X16696Y14957D01*
X16694Y14950D01*
X16692Y14942D01*
X16691Y14933D01*
X16690Y14925D01*
X16690Y14915D01*
X16610D01*
X16610Y14925D01*
X16609Y14933D01*
X16608Y14942D01*
X16606Y14950D01*
X16604Y14957D01*
X16602Y14964D01*
X16599Y14970D01*
X16595Y14976D01*
X16591Y14981D01*
X16587Y14986D01*
X16713D01*
X16709Y14981D01*
D02*
G37*
G36*
X19590Y12025D02*
X19591Y12017D01*
X19592Y12008D01*
X19594Y12000D01*
X19596Y11993D01*
X19598Y11986D01*
X19601Y11980D01*
X19605Y11974D01*
X19609Y11969D01*
X19613Y11964D01*
X19487D01*
X19491Y11969D01*
X19495Y11974D01*
X19499Y11980D01*
X19502Y11986D01*
X19504Y11993D01*
X19506Y12000D01*
X19508Y12008D01*
X19509Y12017D01*
X19510Y12025D01*
X19510Y12035D01*
X19590D01*
X19590Y12025D01*
D02*
G37*
D11*
X16650Y14400D02*
X16900Y14150D01*
X16650Y14400D02*
Y15050D01*
X16900Y12400D02*
X17050Y12250D01*
X16900Y12400D02*
Y14150D01*
X10645Y10448D02*
Y11715D01*
X10499Y10296D02*
Y10302D01*
X10790Y11860D02*
X10900D01*
X10645Y11715D02*
X10790Y11860D01*
X10499Y10302D02*
X10645Y10448D01*
X19400Y12250D02*
X19550Y12100D01*
Y11900D02*
Y12100D01*
X17050Y12250D02*
X19400D01*
X19110Y14600D02*
Y15110D01*
Y14600D02*
X19350Y14360D01*
Y13850D02*
Y14360D01*
D12*
X13728Y10680D02*
X15545D01*
X13608Y10800D02*
X13728Y10680D01*
X17829Y13056D02*
X17835Y13050D01*
X17829Y13056D02*
Y13074D01*
X17649Y13255D02*
X17829Y13074D01*
X17649Y13255D02*
Y13946D01*
X12200Y11450D02*
X12208D01*
X11605D02*
X12200D01*
X16999Y10596D02*
X17445D01*
X16150Y10400D02*
X16365Y10615D01*
X16999D01*
X11600Y13800D02*
Y14045D01*
X10499Y15146D02*
X11600Y14045D01*
Y13800D02*
X11854Y13546D01*
X12399D01*
X12899Y13338D02*
Y13346D01*
X12850Y11500D02*
Y13290D01*
X12899Y13338D01*
X12405Y13541D02*
X12446D01*
X12399Y13546D02*
X12405Y13541D01*
X12641Y13346D02*
X12899D01*
X12446Y13541D02*
X12641Y13346D01*
X11195Y11860D02*
X11605Y11450D01*
X10900Y11860D02*
X11195D01*
X12208Y11450D02*
X12258Y11500D01*
X12850D01*
X12906Y11494D02*
X13600Y10800D01*
X12856Y11494D02*
X12906D01*
X12850Y11500D02*
X12856Y11494D01*
X13600Y10800D02*
X13608D01*
X15800Y10400D02*
X16150D01*
X15550Y10650D02*
X15800Y10400D01*
X17445Y10596D02*
X17641Y10400D01*
X18650D01*
X19350Y11100D01*
X19950Y11588D02*
X19999Y11636D01*
X19950Y11100D02*
Y11588D01*
X19999Y11636D02*
Y11644D01*
X19460Y11106D02*
X19999Y11644D01*
X19950Y13800D02*
Y14511D01*
X19606Y14856D02*
X19950Y14511D01*
X21700Y13900D02*
Y14700D01*
X21150Y13700D02*
X21350Y13900D01*
X21700D01*
X21150Y13150D02*
Y13700D01*
X20806Y13056D02*
X21056D01*
X21150Y13150D01*
X20800Y13050D02*
X20806Y13056D01*
X19950Y12558D02*
Y13800D01*
X19850Y12458D02*
X19950Y12558D01*
X19850Y12450D02*
Y12458D01*
X20300Y13450D02*
X20600D01*
X19950Y13800D02*
X20300Y13450D01*
X20794Y13056D02*
Y13256D01*
X20600Y13450D02*
X20794Y13256D01*
Y13056D02*
X20800Y13050D01*
X20750Y12992D02*
X20800Y13042D01*
Y13050D01*
X20750Y12300D02*
Y12992D01*
Y12300D02*
X21143Y11907D01*
Y11852D02*
Y11907D01*
Y11852D02*
X21149Y11846D01*
X20709D02*
X21149D01*
X20507Y11644D02*
X20709Y11846D01*
X20499Y11644D02*
X20507D01*
X19999D02*
X20499D01*
X20544Y11406D02*
Y11591D01*
X20499Y11636D02*
Y11644D01*
X20544Y11406D02*
X20550Y11400D01*
X20499Y11636D02*
X20544Y11591D01*
X15780Y15300D02*
X18055D01*
X15577Y15096D02*
X15780Y15300D01*
X14749Y15096D02*
X15577D01*
X18055Y15300D02*
X18100Y15345D01*
X19600D01*
X19750Y15195D01*
Y15000D02*
Y15195D01*
X19606Y14856D02*
X19750Y15000D01*
X19406Y14856D02*
X19606D01*
X19400Y14850D02*
X19406Y14856D01*
D60*
X10900Y13600D02*
D03*
Y11860D02*
D03*
D61*
X15545Y10680D02*
D03*
X17835Y13050D02*
D03*
X12200Y11450D02*
D03*
X16999Y10615D02*
D03*
X11000Y11350D02*
D03*
Y11100D02*
D03*
X10950Y14300D02*
D03*
X12850Y11500D02*
D03*
X19950Y11100D02*
D03*
X19350D02*
D03*
X10499Y10296D02*
D03*
Y15146D02*
D03*
X19110Y15110D02*
D03*
X16650Y15050D02*
D03*
X17649Y13946D02*
D03*
Y13696D02*
D03*
X10950Y14050D02*
D03*
X12899Y13346D02*
D03*
X14749Y15096D02*
D03*
X19850Y12450D02*
D03*
X19950Y13800D02*
D03*
X19550Y11900D02*
D03*
X19400Y14850D02*
D03*
X15950Y14750D02*
D03*
X15499Y14496D02*
D03*
X13149Y14246D02*
D03*
X20550Y11400D02*
D03*
X13600Y10800D02*
D03*
X21700Y14700D02*
D03*
Y13900D02*
D03*
X20800Y13050D02*
D03*
X20750Y12300D02*
D03*
X19350Y13850D02*
D03*
M02*
