G04*
G04 #@! TF.GenerationSoftware,Altium Limited,Altium Designer,21.6.4 (81)*
G04*
G04 Layer_Color=65535*
%FSLAX24Y24*%
%MOIN*%
G70*
G04*
G04 #@! TF.SameCoordinates,18F95803-63CF-49D0-9880-B3B199DA49BA*
G04*
G04*
G04 #@! TF.FilePolarity,Positive*
G04*
G01*
G75*
%ADD10C,0.0118*%
%ADD11C,0.0080*%
%ADD12C,0.0150*%
%ADD13C,0.0098*%
%ADD14C,0.0070*%
%ADD15C,0.0060*%
%ADD16C,0.0079*%
%ADD17C,0.0059*%
%ADD18C,0.0010*%
G36*
X11815Y15210D02*
X11685D01*
Y15245D01*
X11815D01*
Y15210D01*
D02*
G37*
G36*
X16115Y15160D02*
X16080D01*
Y15340D01*
X16115D01*
Y15160D01*
D02*
G37*
G36*
X16020D02*
X15985D01*
Y15340D01*
X16020D01*
Y15160D01*
D02*
G37*
G36*
X11815Y15055D02*
X11685D01*
X11685Y15090D01*
X11815D01*
X11815Y15055D01*
D02*
G37*
G36*
X11005Y15045D02*
X10965D01*
Y15125D01*
X10895D01*
Y15175D01*
X10965D01*
Y15255D01*
X11005D01*
Y15045D01*
D02*
G37*
G36*
X19445Y14985D02*
X19410Y14985D01*
Y15115D01*
X19445Y15115D01*
Y14985D01*
D02*
G37*
G36*
X19290D02*
X19255D01*
Y15115D01*
X19290D01*
Y14985D01*
D02*
G37*
G36*
X13240Y14830D02*
X13060D01*
Y14865D01*
X13240D01*
Y14830D01*
D02*
G37*
G36*
X12840D02*
X12660D01*
Y14865D01*
X12840D01*
Y14830D01*
D02*
G37*
G36*
X13240Y14735D02*
X13060D01*
Y14770D01*
X13240D01*
Y14735D01*
D02*
G37*
G36*
X12840D02*
X12660D01*
Y14770D01*
X12840D01*
Y14735D01*
D02*
G37*
G36*
X19440Y14330D02*
X19260D01*
Y14365D01*
X19440D01*
Y14330D01*
D02*
G37*
G36*
Y14235D02*
X19260D01*
Y14270D01*
X19440D01*
Y14235D01*
D02*
G37*
G36*
X13240Y14080D02*
X13060D01*
Y14115D01*
X13240D01*
Y14080D01*
D02*
G37*
G36*
X12840D02*
X12660D01*
Y14115D01*
X12840D01*
Y14080D01*
D02*
G37*
G36*
X13240Y13985D02*
X13060D01*
Y14020D01*
X13240D01*
Y13985D01*
D02*
G37*
G36*
X12840D02*
X12660D01*
Y14020D01*
X12840D01*
Y13985D01*
D02*
G37*
G36*
X15365Y12910D02*
X15235D01*
Y12945D01*
X15365D01*
Y12910D01*
D02*
G37*
G36*
Y12755D02*
X15235D01*
X15235Y12790D01*
X15365D01*
X15365Y12755D01*
D02*
G37*
G36*
Y12560D02*
X15235D01*
Y12595D01*
X15365D01*
Y12560D01*
D02*
G37*
G36*
X12845Y12535D02*
X12810Y12535D01*
Y12665D01*
X12845Y12665D01*
Y12535D01*
D02*
G37*
G36*
X12690D02*
X12655D01*
Y12665D01*
X12690D01*
Y12535D01*
D02*
G37*
G36*
X15365Y12405D02*
X15235D01*
X15235Y12440D01*
X15365D01*
X15365Y12405D01*
D02*
G37*
G36*
X19490Y12035D02*
X19455D01*
Y12165D01*
X19490D01*
Y12035D01*
D02*
G37*
G36*
X15645Y11135D02*
X15610D01*
Y11265D01*
X15645D01*
Y11135D01*
D02*
G37*
G36*
X15490Y11265D02*
Y11135D01*
X15455Y11135D01*
Y11265D01*
X15490Y11265D01*
D02*
G37*
G36*
X17690Y10480D02*
X17510D01*
Y10515D01*
X17690D01*
Y10480D01*
D02*
G37*
G36*
X15640D02*
X15460D01*
Y10515D01*
X15640D01*
Y10480D01*
D02*
G37*
G36*
X17690Y10385D02*
X17510D01*
Y10420D01*
X17690D01*
Y10385D01*
D02*
G37*
G36*
X15640D02*
X15460D01*
Y10420D01*
X15640D01*
Y10385D01*
D02*
G37*
G36*
X12615Y10360D02*
X12485D01*
X12485Y10395D01*
X12615D01*
X12615Y10360D01*
D02*
G37*
G36*
X11815D02*
X11685D01*
Y10395D01*
X11815D01*
Y10360D01*
D02*
G37*
G36*
X12615Y10205D02*
X12485D01*
Y10240D01*
X12615D01*
Y10205D01*
D02*
G37*
G36*
X11815D02*
X11685D01*
X11685Y10240D01*
X11815D01*
X11815Y10205D01*
D02*
G37*
G36*
X11005Y10195D02*
X10965D01*
Y10275D01*
X10895D01*
Y10325D01*
X10965D01*
Y10405D01*
X11005D01*
Y10195D01*
D02*
G37*
G36*
X21915Y12755D02*
X21785D01*
X21785Y12790D01*
X21915D01*
X21915Y12755D01*
D02*
G37*
G36*
X20665Y12560D02*
X20630D01*
Y12740D01*
X20665D01*
Y12560D01*
D02*
G37*
G36*
X20570D02*
X20535D01*
Y12740D01*
X20570D01*
Y12560D01*
D02*
G37*
G36*
X21915Y12510D02*
X21785D01*
Y12545D01*
X21915D01*
Y12510D01*
D02*
G37*
G36*
Y12355D02*
X21785D01*
X21785Y12390D01*
X21915D01*
X21915Y12355D01*
D02*
G37*
G36*
X20840Y12130D02*
X20660D01*
Y12165D01*
X20840D01*
Y12130D01*
D02*
G37*
G36*
X20440D02*
X20260D01*
Y12165D01*
X20440D01*
Y12130D01*
D02*
G37*
G36*
X20040D02*
X19860D01*
Y12165D01*
X20040D01*
Y12130D01*
D02*
G37*
G36*
X20840Y12035D02*
X20660D01*
Y12070D01*
X20840D01*
Y12035D01*
D02*
G37*
G36*
X20440D02*
X20260D01*
Y12070D01*
X20440D01*
Y12035D01*
D02*
G37*
G36*
X20040D02*
X19860D01*
Y12070D01*
X20040D01*
Y12035D01*
D02*
G37*
G36*
X19645D02*
X19610Y12035D01*
Y12165D01*
X19645Y12165D01*
Y12035D01*
D02*
G37*
G36*
X21915Y11960D02*
X21880D01*
Y12140D01*
X21915D01*
Y11960D01*
D02*
G37*
G36*
X21820D02*
X21785D01*
Y12140D01*
X21820D01*
Y11960D01*
D02*
G37*
G36*
X20640Y11230D02*
X20460D01*
Y11265D01*
X20640D01*
Y11230D01*
D02*
G37*
G36*
Y11135D02*
X20460D01*
Y11170D01*
X20640D01*
Y11135D01*
D02*
G37*
G36*
X20645Y10335D02*
X20610Y10335D01*
Y10465D01*
X20645Y10465D01*
Y10335D01*
D02*
G37*
G36*
X20490D02*
X20455D01*
Y10465D01*
X20490D01*
Y10335D01*
D02*
G37*
G36*
X20570Y13660D02*
X20535D01*
Y13840D01*
X20570D01*
Y13660D01*
D02*
G37*
G36*
X19865D02*
X19830D01*
Y13840D01*
X19865D01*
Y13660D01*
D02*
G37*
G36*
X19770D02*
X19735D01*
Y13840D01*
X19770D01*
Y13660D01*
D02*
G37*
G36*
X20570Y13310D02*
X20535D01*
Y13490D01*
X20570D01*
Y13310D01*
D02*
G37*
G36*
X19865D02*
X19830D01*
Y13490D01*
X19865D01*
Y13310D01*
D02*
G37*
G36*
X19770D02*
X19735D01*
Y13490D01*
X19770D01*
Y13310D01*
D02*
G37*
G36*
X20570Y12960D02*
X20535D01*
Y13140D01*
X20570D01*
Y12960D01*
D02*
G37*
G36*
X19865D02*
X19830D01*
Y13140D01*
X19865D01*
Y12960D01*
D02*
G37*
G36*
X19770D02*
X19735D01*
Y13140D01*
X19770D01*
Y12960D01*
D02*
G37*
G36*
X20665Y13660D02*
X20630D01*
Y13840D01*
X20665D01*
Y13660D01*
D02*
G37*
G36*
X22140Y13480D02*
X21960D01*
Y13515D01*
X22140D01*
Y13480D01*
D02*
G37*
G36*
X21740D02*
X21560D01*
Y13515D01*
X21740D01*
Y13480D01*
D02*
G37*
G36*
X22140Y13385D02*
X21960D01*
Y13420D01*
X22140D01*
Y13385D01*
D02*
G37*
G36*
X21740D02*
X21560D01*
Y13420D01*
X21740D01*
Y13385D01*
D02*
G37*
G36*
X20665Y13310D02*
X20630D01*
Y13490D01*
X20665D01*
Y13310D01*
D02*
G37*
G36*
Y12960D02*
X20630D01*
Y13140D01*
X20665D01*
Y12960D01*
D02*
G37*
G36*
X21915Y12910D02*
X21785D01*
Y12945D01*
X21915D01*
Y12910D01*
D02*
G37*
G36*
X20995Y10770D02*
X20958D01*
Y10842D01*
X20995D01*
Y10770D01*
D02*
G37*
G36*
X21046Y10612D02*
X20856D01*
Y10651D01*
X21014D01*
Y10747D01*
X21046D01*
Y10612D01*
D02*
G37*
G36*
Y10541D02*
X20956Y10488D01*
X20989Y10456D01*
X21046D01*
Y10418D01*
X20855D01*
Y10456D01*
X20940D01*
X20855Y10535D01*
Y10587D01*
X20930Y10515D01*
X21046Y10591D01*
Y10541D01*
D02*
G37*
G36*
X20918Y10385D02*
X20920D01*
X20924Y10385D01*
X20929Y10384D01*
X20934Y10383D01*
X20939Y10381D01*
X20944Y10379D01*
X20944Y10379D01*
X20946Y10378D01*
X20948Y10377D01*
X20951Y10375D01*
X20953Y10372D01*
X20957Y10369D01*
X20960Y10366D01*
X20962Y10363D01*
X20963Y10362D01*
X20964Y10361D01*
X20965Y10359D01*
X20966Y10357D01*
X20968Y10354D01*
X20969Y10350D01*
X20970Y10347D01*
X20972Y10343D01*
Y10342D01*
X20972Y10341D01*
Y10340D01*
X20972Y10339D01*
X20972Y10337D01*
X20973Y10335D01*
Y10333D01*
X20973Y10330D01*
X20973Y10327D01*
X20974Y10324D01*
X20974Y10320D01*
Y10316D01*
X20974Y10312D01*
Y10278D01*
X21046D01*
Y10239D01*
X20855D01*
Y10310D01*
X20855Y10313D01*
Y10320D01*
X20856Y10328D01*
X20856Y10335D01*
X20856Y10339D01*
X20857Y10342D01*
X20857Y10345D01*
X20858Y10347D01*
Y10347D01*
X20858Y10348D01*
X20858Y10349D01*
X20859Y10350D01*
X20860Y10353D01*
X20862Y10357D01*
X20864Y10361D01*
X20867Y10366D01*
X20872Y10370D01*
X20877Y10374D01*
X20877D01*
X20877Y10375D01*
X20878Y10375D01*
X20879Y10376D01*
X20881Y10377D01*
X20882Y10378D01*
X20884Y10379D01*
X20887Y10380D01*
X20892Y10382D01*
X20898Y10384D01*
X20906Y10385D01*
X20914Y10386D01*
X20914D01*
X20915D01*
X20915D01*
X20917D01*
X20918Y10385D01*
D02*
G37*
G36*
X20995Y10206D02*
X20997Y10205D01*
X21001Y10205D01*
X21006Y10204D01*
X21011Y10202D01*
X21016Y10200D01*
X21022Y10197D01*
X21022D01*
X21022Y10196D01*
X21024Y10195D01*
X21027Y10193D01*
X21030Y10190D01*
X21033Y10186D01*
X21037Y10182D01*
X21040Y10177D01*
X21043Y10170D01*
Y10170D01*
X21043Y10170D01*
X21044Y10169D01*
X21044Y10167D01*
X21045Y10166D01*
X21045Y10164D01*
X21046Y10162D01*
X21046Y10159D01*
X21047Y10156D01*
X21048Y10153D01*
X21049Y10146D01*
X21050Y10138D01*
X21050Y10129D01*
Y10125D01*
X21050Y10123D01*
X21049Y10120D01*
X21049Y10116D01*
X21049Y10113D01*
X21048Y10108D01*
X21046Y10099D01*
X21044Y10095D01*
X21043Y10090D01*
X21041Y10085D01*
X21039Y10081D01*
X21036Y10077D01*
X21033Y10073D01*
X21033Y10073D01*
X21033Y10072D01*
X21032Y10071D01*
X21030Y10070D01*
X21028Y10068D01*
X21026Y10067D01*
X21024Y10065D01*
X21021Y10063D01*
X21018Y10061D01*
X21014Y10059D01*
X21010Y10057D01*
X21005Y10055D01*
X21001Y10054D01*
X20995Y10052D01*
X20990Y10051D01*
X20984Y10050D01*
X20980Y10088D01*
X20981D01*
X20981Y10088D01*
X20982D01*
X20984Y10088D01*
X20987Y10089D01*
X20991Y10091D01*
X20996Y10092D01*
X21000Y10095D01*
X21005Y10098D01*
X21008Y10101D01*
X21009Y10102D01*
X21010Y10103D01*
X21011Y10105D01*
X21013Y10109D01*
X21015Y10113D01*
X21016Y10118D01*
X21017Y10123D01*
X21017Y10129D01*
Y10133D01*
X21017Y10136D01*
X21016Y10140D01*
X21015Y10144D01*
X21014Y10149D01*
X21012Y10154D01*
X21010Y10157D01*
X21009Y10158D01*
X21008Y10159D01*
X21007Y10161D01*
X21004Y10162D01*
X21002Y10164D01*
X20998Y10166D01*
X20995Y10167D01*
X20991Y10167D01*
X20991D01*
X20990D01*
X20989Y10167D01*
X20987Y10167D01*
X20985Y10166D01*
X20983Y10166D01*
X20981Y10164D01*
X20979Y10163D01*
X20979Y10163D01*
X20979Y10162D01*
X20978Y10161D01*
X20977Y10160D01*
X20975Y10158D01*
X20974Y10156D01*
X20972Y10153D01*
X20971Y10149D01*
Y10149D01*
X20970Y10148D01*
X20970Y10146D01*
X20969Y10144D01*
X20969Y10143D01*
X20969Y10141D01*
X20968Y10139D01*
X20967Y10136D01*
X20966Y10133D01*
X20966Y10130D01*
X20965Y10126D01*
X20964Y10123D01*
X20962Y10118D01*
Y10118D01*
X20962Y10117D01*
X20962Y10115D01*
X20961Y10113D01*
X20960Y10111D01*
X20959Y10108D01*
X20958Y10105D01*
X20957Y10101D01*
X20954Y10094D01*
X20951Y10087D01*
X20949Y10083D01*
X20948Y10080D01*
X20946Y10077D01*
X20944Y10075D01*
X20943Y10074D01*
X20943Y10074D01*
X20942Y10073D01*
X20941Y10072D01*
X20939Y10071D01*
X20937Y10069D01*
X20935Y10067D01*
X20933Y10066D01*
X20927Y10063D01*
X20920Y10060D01*
X20917Y10059D01*
X20913Y10058D01*
X20909Y10057D01*
X20905Y10057D01*
X20905D01*
X20904D01*
X20903D01*
X20902D01*
X20900Y10058D01*
X20896Y10058D01*
X20892Y10059D01*
X20887Y10061D01*
X20882Y10062D01*
X20877Y10065D01*
X20877D01*
X20877Y10066D01*
X20875Y10067D01*
X20873Y10069D01*
X20870Y10071D01*
X20867Y10075D01*
X20864Y10079D01*
X20861Y10084D01*
X20858Y10089D01*
Y10089D01*
X20858Y10090D01*
X20857Y10091D01*
X20857Y10092D01*
X20856Y10093D01*
X20856Y10095D01*
X20855Y10097D01*
X20854Y10100D01*
X20853Y10105D01*
X20852Y10112D01*
X20851Y10119D01*
X20851Y10127D01*
Y10130D01*
X20851Y10133D01*
X20852Y10136D01*
X20852Y10139D01*
X20852Y10143D01*
X20853Y10147D01*
X20855Y10156D01*
X20856Y10161D01*
X20858Y10165D01*
X20860Y10169D01*
X20862Y10174D01*
X20864Y10177D01*
X20867Y10181D01*
X20867Y10181D01*
X20868Y10182D01*
X20869Y10183D01*
X20870Y10184D01*
X20872Y10185D01*
X20874Y10187D01*
X20876Y10188D01*
X20878Y10190D01*
X20881Y10192D01*
X20884Y10194D01*
X20888Y10195D01*
X20892Y10197D01*
X20896Y10198D01*
X20900Y10199D01*
X20905Y10200D01*
X20910Y10200D01*
X20911Y10162D01*
X20911D01*
X20910D01*
X20908Y10161D01*
X20906Y10161D01*
X20903Y10159D01*
X20899Y10158D01*
X20896Y10156D01*
X20893Y10154D01*
X20890Y10151D01*
X20890Y10151D01*
X20889Y10149D01*
X20888Y10148D01*
X20887Y10145D01*
X20885Y10141D01*
X20884Y10137D01*
X20884Y10132D01*
X20883Y10126D01*
Y10124D01*
X20884Y10121D01*
X20884Y10117D01*
X20885Y10113D01*
X20886Y10108D01*
X20888Y10104D01*
X20890Y10100D01*
X20891Y10100D01*
X20891Y10100D01*
X20892Y10098D01*
X20893Y10097D01*
X20895Y10096D01*
X20897Y10095D01*
X20900Y10095D01*
X20902Y10094D01*
X20903D01*
X20903D01*
X20905Y10095D01*
X20906Y10095D01*
X20908Y10096D01*
X20910Y10097D01*
X20912Y10098D01*
X20914Y10100D01*
X20914Y10100D01*
X20915Y10102D01*
X20916Y10102D01*
X20916Y10104D01*
X20917Y10105D01*
X20918Y10107D01*
X20919Y10109D01*
X20920Y10112D01*
X20921Y10115D01*
X20922Y10118D01*
X20923Y10122D01*
X20924Y10126D01*
X20925Y10130D01*
X20927Y10135D01*
Y10136D01*
X20927Y10137D01*
X20927Y10138D01*
X20928Y10140D01*
X20928Y10142D01*
X20929Y10145D01*
X20930Y10148D01*
X20931Y10151D01*
X20933Y10158D01*
X20935Y10165D01*
X20938Y10171D01*
X20939Y10174D01*
X20941Y10177D01*
Y10177D01*
X20941Y10177D01*
X20942Y10179D01*
X20944Y10182D01*
X20946Y10185D01*
X20949Y10188D01*
X20952Y10192D01*
X20956Y10195D01*
X20960Y10198D01*
X20961Y10198D01*
X20962Y10199D01*
X20965Y10201D01*
X20969Y10202D01*
X20973Y10203D01*
X20978Y10205D01*
X20984Y10206D01*
X20991Y10206D01*
X20991D01*
X20992D01*
X20992D01*
X20993D01*
X20995Y10206D01*
D02*
G37*
G36*
X20969Y11750D02*
X21019D01*
Y11716D01*
X20969D01*
Y11666D01*
X20935D01*
Y11716D01*
X20885D01*
Y11750D01*
X20935D01*
Y11800D01*
X20969D01*
Y11750D01*
D02*
G37*
G36*
X21046Y11512D02*
X20856D01*
Y11551D01*
X21014D01*
Y11647D01*
X21046D01*
Y11512D01*
D02*
G37*
G36*
Y11441D02*
X20956Y11388D01*
X20989Y11356D01*
X21046D01*
Y11318D01*
X20855D01*
Y11356D01*
X20940D01*
X20855Y11435D01*
Y11487D01*
X20930Y11415D01*
X21046Y11491D01*
Y11441D01*
D02*
G37*
G36*
X20918Y11285D02*
X20920D01*
X20924Y11285D01*
X20929Y11284D01*
X20934Y11283D01*
X20939Y11281D01*
X20944Y11279D01*
X20944Y11279D01*
X20946Y11278D01*
X20948Y11277D01*
X20951Y11275D01*
X20953Y11272D01*
X20957Y11269D01*
X20960Y11266D01*
X20962Y11263D01*
X20963Y11262D01*
X20964Y11261D01*
X20965Y11259D01*
X20966Y11257D01*
X20968Y11254D01*
X20969Y11250D01*
X20970Y11247D01*
X20972Y11243D01*
Y11242D01*
X20972Y11241D01*
Y11240D01*
X20972Y11239D01*
X20972Y11237D01*
X20973Y11235D01*
Y11233D01*
X20973Y11230D01*
X20973Y11227D01*
X20974Y11224D01*
X20974Y11220D01*
Y11216D01*
X20974Y11212D01*
Y11178D01*
X21046D01*
Y11139D01*
X20855D01*
Y11210D01*
X20855Y11213D01*
Y11220D01*
X20856Y11228D01*
X20856Y11235D01*
X20856Y11239D01*
X20857Y11242D01*
X20857Y11245D01*
X20858Y11247D01*
Y11247D01*
X20858Y11248D01*
X20858Y11249D01*
X20859Y11250D01*
X20860Y11253D01*
X20862Y11257D01*
X20864Y11261D01*
X20867Y11265D01*
X20872Y11270D01*
X20877Y11274D01*
X20877D01*
X20877Y11275D01*
X20878Y11275D01*
X20879Y11276D01*
X20881Y11277D01*
X20882Y11278D01*
X20884Y11279D01*
X20887Y11280D01*
X20892Y11282D01*
X20898Y11284D01*
X20906Y11285D01*
X20914Y11286D01*
X20914D01*
X20915D01*
X20915D01*
X20917D01*
X20918Y11285D01*
D02*
G37*
G36*
X20995Y11106D02*
X20997Y11105D01*
X21001Y11105D01*
X21006Y11104D01*
X21011Y11102D01*
X21016Y11100D01*
X21022Y11097D01*
X21022D01*
X21022Y11096D01*
X21024Y11095D01*
X21027Y11093D01*
X21030Y11090D01*
X21033Y11086D01*
X21037Y11082D01*
X21040Y11077D01*
X21043Y11070D01*
Y11070D01*
X21043Y11070D01*
X21044Y11069D01*
X21044Y11067D01*
X21045Y11066D01*
X21045Y11064D01*
X21046Y11062D01*
X21046Y11059D01*
X21047Y11056D01*
X21048Y11053D01*
X21049Y11046D01*
X21050Y11038D01*
X21050Y11029D01*
Y11025D01*
X21050Y11023D01*
X21049Y11020D01*
X21049Y11016D01*
X21049Y11013D01*
X21048Y11008D01*
X21046Y10999D01*
X21044Y10995D01*
X21043Y10990D01*
X21041Y10985D01*
X21039Y10981D01*
X21036Y10977D01*
X21033Y10973D01*
X21033Y10973D01*
X21033Y10972D01*
X21032Y10971D01*
X21030Y10970D01*
X21028Y10968D01*
X21026Y10967D01*
X21024Y10965D01*
X21021Y10963D01*
X21018Y10961D01*
X21014Y10959D01*
X21010Y10957D01*
X21005Y10955D01*
X21001Y10954D01*
X20995Y10952D01*
X20990Y10951D01*
X20984Y10950D01*
X20980Y10988D01*
X20981D01*
X20981Y10988D01*
X20982D01*
X20984Y10988D01*
X20987Y10989D01*
X20991Y10991D01*
X20996Y10992D01*
X21000Y10995D01*
X21005Y10998D01*
X21008Y11001D01*
X21009Y11002D01*
X21010Y11003D01*
X21011Y11005D01*
X21013Y11009D01*
X21015Y11013D01*
X21016Y11018D01*
X21017Y11023D01*
X21017Y11029D01*
Y11033D01*
X21017Y11036D01*
X21016Y11040D01*
X21015Y11044D01*
X21014Y11049D01*
X21012Y11054D01*
X21010Y11057D01*
X21009Y11058D01*
X21008Y11059D01*
X21007Y11061D01*
X21004Y11062D01*
X21002Y11064D01*
X20998Y11066D01*
X20995Y11067D01*
X20991Y11067D01*
X20991D01*
X20990D01*
X20989Y11067D01*
X20987Y11067D01*
X20985Y11066D01*
X20983Y11066D01*
X20981Y11064D01*
X20979Y11063D01*
X20979Y11063D01*
X20979Y11062D01*
X20978Y11061D01*
X20977Y11060D01*
X20975Y11058D01*
X20974Y11056D01*
X20972Y11053D01*
X20971Y11049D01*
Y11049D01*
X20970Y11048D01*
X20970Y11046D01*
X20969Y11044D01*
X20969Y11043D01*
X20969Y11041D01*
X20968Y11039D01*
X20967Y11036D01*
X20966Y11033D01*
X20966Y11030D01*
X20965Y11026D01*
X20964Y11023D01*
X20962Y11018D01*
Y11018D01*
X20962Y11017D01*
X20962Y11015D01*
X20961Y11013D01*
X20960Y11011D01*
X20959Y11008D01*
X20958Y11005D01*
X20957Y11001D01*
X20954Y10994D01*
X20951Y10987D01*
X20949Y10983D01*
X20948Y10980D01*
X20946Y10977D01*
X20944Y10975D01*
X20943Y10974D01*
X20943Y10974D01*
X20942Y10973D01*
X20941Y10972D01*
X20939Y10970D01*
X20937Y10969D01*
X20935Y10967D01*
X20933Y10966D01*
X20927Y10963D01*
X20920Y10960D01*
X20917Y10959D01*
X20913Y10958D01*
X20909Y10957D01*
X20905Y10957D01*
X20905D01*
X20904D01*
X20903D01*
X20902D01*
X20900Y10958D01*
X20896Y10958D01*
X20892Y10959D01*
X20887Y10961D01*
X20882Y10962D01*
X20877Y10965D01*
X20877D01*
X20877Y10966D01*
X20875Y10967D01*
X20873Y10969D01*
X20870Y10971D01*
X20867Y10975D01*
X20864Y10979D01*
X20861Y10984D01*
X20858Y10989D01*
Y10989D01*
X20858Y10990D01*
X20857Y10991D01*
X20857Y10992D01*
X20856Y10993D01*
X20856Y10995D01*
X20855Y10997D01*
X20854Y11000D01*
X20853Y11005D01*
X20852Y11012D01*
X20851Y11019D01*
X20851Y11027D01*
Y11030D01*
X20851Y11033D01*
X20852Y11036D01*
X20852Y11039D01*
X20852Y11043D01*
X20853Y11047D01*
X20855Y11056D01*
X20856Y11061D01*
X20858Y11065D01*
X20860Y11069D01*
X20862Y11074D01*
X20864Y11077D01*
X20867Y11081D01*
X20867Y11081D01*
X20868Y11082D01*
X20869Y11083D01*
X20870Y11084D01*
X20872Y11085D01*
X20874Y11087D01*
X20876Y11089D01*
X20878Y11090D01*
X20881Y11092D01*
X20884Y11094D01*
X20888Y11095D01*
X20892Y11097D01*
X20896Y11098D01*
X20900Y11099D01*
X20905Y11100D01*
X20910Y11100D01*
X20911Y11062D01*
X20911D01*
X20910D01*
X20908Y11061D01*
X20906Y11061D01*
X20903Y11059D01*
X20899Y11058D01*
X20896Y11056D01*
X20893Y11054D01*
X20890Y11051D01*
X20890Y11051D01*
X20889Y11049D01*
X20888Y11048D01*
X20887Y11045D01*
X20885Y11041D01*
X20884Y11037D01*
X20884Y11032D01*
X20883Y11026D01*
Y11024D01*
X20884Y11021D01*
X20884Y11017D01*
X20885Y11013D01*
X20886Y11008D01*
X20888Y11004D01*
X20890Y11000D01*
X20891Y11000D01*
X20891Y11000D01*
X20892Y10998D01*
X20893Y10997D01*
X20895Y10996D01*
X20897Y10995D01*
X20900Y10995D01*
X20902Y10994D01*
X20903D01*
X20903D01*
X20905Y10995D01*
X20906Y10995D01*
X20908Y10996D01*
X20910Y10997D01*
X20912Y10998D01*
X20914Y11000D01*
X20914Y11000D01*
X20915Y11002D01*
X20916Y11002D01*
X20916Y11004D01*
X20917Y11005D01*
X20918Y11007D01*
X20919Y11009D01*
X20920Y11012D01*
X20921Y11015D01*
X20922Y11018D01*
X20923Y11022D01*
X20924Y11026D01*
X20925Y11030D01*
X20927Y11035D01*
Y11036D01*
X20927Y11037D01*
X20927Y11038D01*
X20928Y11040D01*
X20928Y11042D01*
X20929Y11045D01*
X20930Y11048D01*
X20931Y11051D01*
X20933Y11058D01*
X20935Y11065D01*
X20938Y11071D01*
X20939Y11074D01*
X20941Y11077D01*
Y11077D01*
X20941Y11077D01*
X20942Y11079D01*
X20944Y11082D01*
X20946Y11085D01*
X20949Y11088D01*
X20952Y11092D01*
X20956Y11095D01*
X20960Y11098D01*
X20961Y11098D01*
X20962Y11099D01*
X20965Y11101D01*
X20969Y11102D01*
X20973Y11103D01*
X20978Y11105D01*
X20984Y11106D01*
X20991Y11106D01*
X20991D01*
X20992D01*
X20992D01*
X20993D01*
X20995Y11106D01*
D02*
G37*
G36*
X12497Y14366D02*
X12213Y14269D01*
X12497Y14175D01*
Y14092D01*
X12113Y14229D01*
Y14312D01*
X12497Y14450D01*
Y14366D01*
D02*
G37*
G36*
X12263Y14070D02*
X12266D01*
X12270Y14069D01*
X12279Y14068D01*
X12290Y14066D01*
X12301Y14063D01*
X12314Y14059D01*
X12327Y14053D01*
X12327D01*
X12329Y14052D01*
X12330Y14051D01*
X12332Y14049D01*
X12339Y14045D01*
X12346Y14039D01*
X12355Y14032D01*
X12364Y14023D01*
X12372Y14013D01*
X12380Y14002D01*
Y14001D01*
X12380Y14000D01*
X12381Y13998D01*
X12382Y13995D01*
X12384Y13993D01*
X12385Y13989D01*
X12387Y13984D01*
X12389Y13980D01*
X12392Y13969D01*
X12395Y13956D01*
X12397Y13942D01*
X12398Y13927D01*
Y13921D01*
X12397Y13917D01*
X12397Y13911D01*
X12396Y13905D01*
X12395Y13898D01*
X12393Y13891D01*
X12391Y13882D01*
X12388Y13874D01*
X12385Y13866D01*
X12381Y13857D01*
X12376Y13848D01*
X12370Y13839D01*
X12364Y13831D01*
X12357Y13823D01*
X12356Y13823D01*
X12355Y13822D01*
X12352Y13820D01*
X12350Y13817D01*
X12345Y13814D01*
X12341Y13811D01*
X12335Y13807D01*
X12329Y13803D01*
X12321Y13800D01*
X12314Y13796D01*
X12305Y13792D01*
X12296Y13789D01*
X12286Y13787D01*
X12276Y13785D01*
X12265Y13783D01*
X12253Y13783D01*
X12253D01*
X12250D01*
X12247D01*
X12243Y13783D01*
X12237Y13784D01*
X12231Y13785D01*
X12224Y13786D01*
X12216Y13788D01*
X12208Y13790D01*
X12200Y13793D01*
X12191Y13796D01*
X12182Y13800D01*
X12173Y13805D01*
X12165Y13811D01*
X12157Y13817D01*
X12148Y13824D01*
X12148Y13825D01*
X12147Y13826D01*
X12144Y13828D01*
X12142Y13831D01*
X12139Y13835D01*
X12135Y13840D01*
X12132Y13846D01*
X12128Y13852D01*
X12124Y13859D01*
X12120Y13867D01*
X12117Y13875D01*
X12114Y13884D01*
X12111Y13894D01*
X12109Y13904D01*
X12108Y13915D01*
X12107Y13927D01*
Y13931D01*
X12108Y13933D01*
Y13937D01*
X12108Y13941D01*
X12109Y13950D01*
X12112Y13962D01*
X12114Y13974D01*
X12119Y13987D01*
X12124Y14000D01*
Y14000D01*
X12125Y14002D01*
X12126Y14003D01*
X12128Y14005D01*
X12132Y14012D01*
X12137Y14019D01*
X12144Y14028D01*
X12153Y14037D01*
X12163Y14045D01*
X12175Y14053D01*
X12175D01*
X12176Y14053D01*
X12178Y14054D01*
X12181Y14055D01*
X12184Y14057D01*
X12188Y14058D01*
X12193Y14060D01*
X12198Y14061D01*
X12203Y14063D01*
X12209Y14065D01*
X12223Y14068D01*
X12239Y14070D01*
X12256Y14070D01*
X12257D01*
X12258D01*
X12260D01*
X12263Y14070D01*
D02*
G37*
G36*
X12497Y13652D02*
X12429D01*
Y13726D01*
X12497D01*
Y13652D01*
D02*
G37*
G36*
X12392D02*
X12113D01*
Y13726D01*
X12392D01*
Y13652D01*
D02*
G37*
G36*
X12263Y13592D02*
X12269Y13591D01*
X12276Y13591D01*
X12283Y13590D01*
X12291Y13588D01*
X12309Y13584D01*
X12317Y13581D01*
X12326Y13578D01*
X12335Y13573D01*
X12344Y13568D01*
X12351Y13563D01*
X12359Y13556D01*
X12360Y13556D01*
X12361Y13555D01*
X12362Y13553D01*
X12365Y13550D01*
X12368Y13546D01*
X12371Y13541D01*
X12375Y13536D01*
X12379Y13530D01*
X12382Y13524D01*
X12386Y13516D01*
X12389Y13508D01*
X12392Y13499D01*
X12395Y13490D01*
X12396Y13480D01*
X12397Y13469D01*
X12398Y13458D01*
Y13453D01*
X12397Y13450D01*
Y13445D01*
X12397Y13440D01*
X12396Y13435D01*
X12395Y13429D01*
X12392Y13416D01*
X12388Y13403D01*
X12383Y13389D01*
X12376Y13377D01*
Y13377D01*
X12375Y13376D01*
X12374Y13374D01*
X12372Y13372D01*
X12367Y13367D01*
X12360Y13361D01*
X12350Y13353D01*
X12339Y13346D01*
X12326Y13339D01*
X12310Y13334D01*
X12297Y13407D01*
X12298D01*
X12300Y13407D01*
X12304Y13408D01*
X12309Y13410D01*
X12314Y13413D01*
X12320Y13415D01*
X12325Y13419D01*
X12329Y13424D01*
X12330Y13424D01*
X12331Y13426D01*
X12332Y13429D01*
X12335Y13433D01*
X12337Y13438D01*
X12339Y13443D01*
X12340Y13450D01*
X12340Y13457D01*
Y13458D01*
X12340Y13462D01*
X12339Y13467D01*
X12338Y13473D01*
X12335Y13480D01*
X12332Y13487D01*
X12327Y13494D01*
X12321Y13501D01*
X12320Y13501D01*
X12317Y13503D01*
X12312Y13506D01*
X12306Y13509D01*
X12297Y13512D01*
X12292Y13513D01*
X12286Y13514D01*
X12280Y13515D01*
X12273Y13516D01*
X12265Y13517D01*
X12258D01*
X12257D01*
X12255D01*
X12253D01*
X12249Y13516D01*
X12245D01*
X12241Y13516D01*
X12230Y13515D01*
X12218Y13513D01*
X12206Y13510D01*
X12196Y13506D01*
X12191Y13503D01*
X12187Y13500D01*
X12186Y13500D01*
X12184Y13497D01*
X12181Y13494D01*
X12177Y13489D01*
X12173Y13482D01*
X12170Y13475D01*
X12168Y13466D01*
X12167Y13456D01*
Y13453D01*
X12168Y13449D01*
X12169Y13444D01*
X12170Y13438D01*
X12172Y13433D01*
X12175Y13427D01*
X12179Y13422D01*
X12179Y13421D01*
X12181Y13419D01*
X12184Y13417D01*
X12188Y13414D01*
X12194Y13410D01*
X12201Y13408D01*
X12210Y13404D01*
X12220Y13402D01*
X12208Y13330D01*
X12207D01*
X12205Y13331D01*
X12203Y13331D01*
X12199Y13332D01*
X12195Y13334D01*
X12190Y13336D01*
X12179Y13340D01*
X12167Y13346D01*
X12155Y13353D01*
X12143Y13363D01*
X12137Y13368D01*
X12132Y13374D01*
Y13374D01*
X12131Y13376D01*
X12130Y13377D01*
X12128Y13379D01*
X12127Y13383D01*
X12124Y13387D01*
X12122Y13391D01*
X12120Y13397D01*
X12117Y13402D01*
X12115Y13409D01*
X12113Y13415D01*
X12111Y13423D01*
X12109Y13432D01*
X12108Y13440D01*
X12108Y13449D01*
X12107Y13459D01*
Y13465D01*
X12108Y13469D01*
X12108Y13474D01*
X12109Y13480D01*
X12110Y13487D01*
X12112Y13494D01*
X12114Y13502D01*
X12117Y13510D01*
X12119Y13518D01*
X12123Y13526D01*
X12128Y13534D01*
X12133Y13542D01*
X12139Y13549D01*
X12145Y13556D01*
X12146Y13557D01*
X12147Y13558D01*
X12149Y13560D01*
X12153Y13562D01*
X12157Y13565D01*
X12161Y13568D01*
X12167Y13571D01*
X12173Y13574D01*
X12180Y13578D01*
X12188Y13581D01*
X12197Y13584D01*
X12206Y13587D01*
X12217Y13589D01*
X12228Y13591D01*
X12240Y13592D01*
X12252Y13593D01*
X12253D01*
X12255D01*
X12259D01*
X12263Y13592D01*
D02*
G37*
G36*
X12262Y13298D02*
X12268Y13298D01*
X12274Y13297D01*
X12281Y13296D01*
X12290Y13294D01*
X12307Y13290D01*
X12316Y13287D01*
X12325Y13284D01*
X12334Y13280D01*
X12342Y13275D01*
X12351Y13269D01*
X12359Y13263D01*
X12359Y13262D01*
X12360Y13261D01*
X12362Y13259D01*
X12365Y13256D01*
X12367Y13253D01*
X12371Y13248D01*
X12375Y13243D01*
X12379Y13238D01*
X12382Y13232D01*
X12386Y13225D01*
X12389Y13217D01*
X12392Y13209D01*
X12394Y13201D01*
X12396Y13191D01*
X12397Y13182D01*
X12398Y13172D01*
Y13166D01*
X12397Y13161D01*
X12397Y13156D01*
X12396Y13150D01*
X12395Y13144D01*
X12393Y13136D01*
X12391Y13129D01*
X12388Y13121D01*
X12385Y13112D01*
X12380Y13104D01*
X12376Y13096D01*
X12370Y13089D01*
X12364Y13081D01*
X12356Y13074D01*
X12356Y13074D01*
X12355Y13072D01*
X12352Y13071D01*
X12349Y13069D01*
X12344Y13066D01*
X12339Y13063D01*
X12332Y13060D01*
X12325Y13056D01*
X12317Y13053D01*
X12307Y13050D01*
X12297Y13047D01*
X12286Y13044D01*
X12274Y13042D01*
X12260Y13040D01*
X12246Y13039D01*
X12231D01*
Y13223D01*
X12230D01*
X12229D01*
X12228D01*
X12225Y13223D01*
X12220Y13222D01*
X12212Y13221D01*
X12204Y13219D01*
X12195Y13216D01*
X12187Y13212D01*
X12180Y13206D01*
X12179Y13206D01*
X12177Y13203D01*
X12174Y13200D01*
X12171Y13195D01*
X12168Y13188D01*
X12165Y13181D01*
X12163Y13172D01*
X12162Y13164D01*
Y13161D01*
X12163Y13157D01*
X12163Y13154D01*
X12164Y13149D01*
X12166Y13144D01*
X12168Y13139D01*
X12171Y13135D01*
X12172Y13134D01*
X12173Y13132D01*
X12175Y13130D01*
X12179Y13128D01*
X12183Y13125D01*
X12188Y13122D01*
X12195Y13119D01*
X12202Y13116D01*
X12190Y13043D01*
X12189D01*
X12188Y13044D01*
X12186Y13045D01*
X12183Y13046D01*
X12180Y13048D01*
X12176Y13049D01*
X12167Y13054D01*
X12157Y13060D01*
X12147Y13068D01*
X12137Y13077D01*
X12128Y13088D01*
Y13089D01*
X12127Y13089D01*
X12127Y13091D01*
X12125Y13094D01*
X12123Y13096D01*
X12122Y13100D01*
X12120Y13104D01*
X12118Y13109D01*
X12114Y13120D01*
X12110Y13133D01*
X12108Y13148D01*
X12107Y13164D01*
Y13167D01*
X12108Y13171D01*
Y13176D01*
X12109Y13182D01*
X12110Y13189D01*
X12111Y13197D01*
X12113Y13205D01*
X12115Y13213D01*
X12119Y13222D01*
X12123Y13231D01*
X12127Y13240D01*
X12133Y13249D01*
X12139Y13257D01*
X12146Y13265D01*
X12154Y13272D01*
X12155Y13272D01*
X12156Y13273D01*
X12158Y13274D01*
X12161Y13276D01*
X12165Y13278D01*
X12169Y13280D01*
X12174Y13283D01*
X12180Y13285D01*
X12187Y13288D01*
X12194Y13290D01*
X12202Y13293D01*
X12211Y13294D01*
X12220Y13296D01*
X12229Y13298D01*
X12240Y13298D01*
X12250Y13299D01*
X12251D01*
X12253D01*
X12257D01*
X12262Y13298D01*
D02*
G37*
G36*
X12290Y12843D02*
X12216D01*
Y12988D01*
X12290D01*
Y12843D01*
D02*
G37*
G36*
X12316Y12813D02*
X12322D01*
X12328Y12812D01*
X12335Y12811D01*
X12342Y12810D01*
X12359Y12807D01*
X12377Y12803D01*
X12395Y12797D01*
X12404Y12793D01*
X12413Y12788D01*
X12413Y12788D01*
X12415Y12787D01*
X12417Y12786D01*
X12421Y12784D01*
X12425Y12781D01*
X12429Y12778D01*
X12434Y12774D01*
X12440Y12770D01*
X12445Y12765D01*
X12451Y12759D01*
X12457Y12753D01*
X12463Y12747D01*
X12469Y12739D01*
X12475Y12732D01*
X12485Y12715D01*
Y12715D01*
X12486Y12713D01*
X12487Y12711D01*
X12488Y12708D01*
X12490Y12705D01*
X12491Y12701D01*
X12493Y12695D01*
X12495Y12690D01*
X12497Y12683D01*
X12498Y12676D01*
X12500Y12668D01*
X12502Y12661D01*
X12504Y12643D01*
X12504Y12623D01*
Y12616D01*
X12504Y12611D01*
X12503Y12605D01*
X12503Y12598D01*
X12502Y12590D01*
X12501Y12582D01*
X12497Y12564D01*
X12492Y12546D01*
X12488Y12536D01*
X12485Y12527D01*
X12480Y12519D01*
X12475Y12511D01*
X12474Y12511D01*
X12473Y12510D01*
X12471Y12507D01*
X12469Y12505D01*
X12466Y12501D01*
X12462Y12498D01*
X12458Y12494D01*
X12453Y12490D01*
X12447Y12485D01*
X12441Y12481D01*
X12435Y12476D01*
X12427Y12473D01*
X12419Y12468D01*
X12411Y12465D01*
X12401Y12461D01*
X12392Y12459D01*
X12377Y12536D01*
X12378D01*
X12379Y12537D01*
X12382Y12538D01*
X12387Y12540D01*
X12393Y12544D01*
X12401Y12547D01*
X12408Y12553D01*
X12415Y12560D01*
X12422Y12567D01*
X12422Y12569D01*
X12425Y12571D01*
X12427Y12576D01*
X12430Y12582D01*
X12433Y12591D01*
X12436Y12600D01*
X12438Y12611D01*
X12438Y12623D01*
Y12628D01*
X12438Y12631D01*
X12437Y12636D01*
X12437Y12641D01*
X12436Y12646D01*
X12435Y12652D01*
X12431Y12665D01*
X12428Y12672D01*
X12425Y12678D01*
X12421Y12685D01*
X12417Y12692D01*
X12411Y12698D01*
X12406Y12704D01*
X12405Y12705D01*
X12404Y12705D01*
X12402Y12707D01*
X12400Y12708D01*
X12396Y12711D01*
X12392Y12713D01*
X12387Y12716D01*
X12382Y12718D01*
X12375Y12721D01*
X12368Y12724D01*
X12360Y12727D01*
X12352Y12729D01*
X12342Y12731D01*
X12332Y12732D01*
X12321Y12733D01*
X12310Y12733D01*
X12309D01*
X12307D01*
X12303D01*
X12299Y12733D01*
X12292Y12732D01*
X12286Y12732D01*
X12279Y12731D01*
X12271Y12730D01*
X12254Y12726D01*
X12237Y12721D01*
X12229Y12717D01*
X12221Y12713D01*
X12213Y12708D01*
X12206Y12703D01*
X12206Y12703D01*
X12205Y12702D01*
X12203Y12700D01*
X12201Y12698D01*
X12199Y12695D01*
X12195Y12691D01*
X12193Y12687D01*
X12189Y12682D01*
X12186Y12676D01*
X12183Y12671D01*
X12178Y12657D01*
X12175Y12649D01*
X12174Y12641D01*
X12173Y12632D01*
X12172Y12623D01*
Y12619D01*
X12173Y12615D01*
X12173Y12608D01*
X12174Y12601D01*
X12176Y12592D01*
X12178Y12584D01*
X12181Y12575D01*
Y12574D01*
X12182Y12574D01*
X12183Y12571D01*
X12185Y12566D01*
X12188Y12560D01*
X12191Y12554D01*
X12195Y12546D01*
X12200Y12539D01*
X12205Y12532D01*
X12254D01*
Y12621D01*
X12319D01*
Y12454D01*
X12165D01*
X12164Y12455D01*
X12163Y12457D01*
X12161Y12459D01*
X12159Y12461D01*
X12157Y12464D01*
X12151Y12472D01*
X12145Y12483D01*
X12138Y12495D01*
X12130Y12509D01*
X12124Y12525D01*
Y12526D01*
X12123Y12527D01*
X12122Y12530D01*
X12121Y12533D01*
X12120Y12537D01*
X12118Y12542D01*
X12117Y12548D01*
X12115Y12554D01*
X12112Y12568D01*
X12109Y12584D01*
X12107Y12601D01*
X12106Y12618D01*
Y12625D01*
X12107Y12628D01*
Y12634D01*
X12107Y12640D01*
X12108Y12647D01*
X12109Y12655D01*
X12112Y12671D01*
X12117Y12688D01*
X12123Y12707D01*
X12127Y12715D01*
X12131Y12724D01*
X12132Y12724D01*
X12132Y12726D01*
X12134Y12728D01*
X12136Y12731D01*
X12138Y12735D01*
X12142Y12739D01*
X12145Y12744D01*
X12150Y12749D01*
X12160Y12760D01*
X12173Y12771D01*
X12187Y12782D01*
X12204Y12791D01*
X12204D01*
X12206Y12792D01*
X12209Y12793D01*
X12212Y12794D01*
X12216Y12796D01*
X12221Y12798D01*
X12228Y12800D01*
X12234Y12802D01*
X12241Y12804D01*
X12250Y12806D01*
X12267Y12810D01*
X12286Y12812D01*
X12306Y12813D01*
X12307D01*
X12309D01*
X12312D01*
X12316Y12813D01*
D02*
G37*
G36*
X12197Y12402D02*
X12203Y12401D01*
X12209Y12400D01*
X12216Y12398D01*
X12223Y12395D01*
X12230Y12392D01*
X12231Y12391D01*
X12234Y12389D01*
X12237Y12387D01*
X12241Y12383D01*
X12245Y12379D01*
X12250Y12374D01*
X12255Y12368D01*
X12259Y12360D01*
X12259Y12359D01*
X12260Y12357D01*
X12262Y12352D01*
X12265Y12345D01*
X12268Y12337D01*
X12270Y12327D01*
X12273Y12315D01*
X12276Y12302D01*
Y12301D01*
X12276Y12299D01*
X12277Y12297D01*
X12277Y12293D01*
X12278Y12289D01*
X12279Y12284D01*
X12282Y12273D01*
X12285Y12261D01*
X12287Y12249D01*
X12291Y12238D01*
X12292Y12233D01*
X12294Y12229D01*
X12301D01*
X12302D01*
X12305D01*
X12309Y12230D01*
X12314Y12231D01*
X12319Y12232D01*
X12324Y12234D01*
X12328Y12237D01*
X12332Y12241D01*
X12332Y12241D01*
X12334Y12243D01*
X12335Y12246D01*
X12337Y12249D01*
X12339Y12255D01*
X12340Y12262D01*
X12341Y12270D01*
X12341Y12280D01*
Y12283D01*
X12341Y12287D01*
X12340Y12291D01*
X12339Y12296D01*
X12338Y12302D01*
X12336Y12307D01*
X12333Y12311D01*
X12332Y12312D01*
X12331Y12313D01*
X12330Y12315D01*
X12327Y12317D01*
X12323Y12320D01*
X12318Y12323D01*
X12312Y12326D01*
X12306Y12329D01*
X12318Y12395D01*
X12319D01*
X12320Y12394D01*
X12322Y12394D01*
X12325Y12393D01*
X12328Y12392D01*
X12332Y12390D01*
X12341Y12386D01*
X12350Y12380D01*
X12360Y12374D01*
X12370Y12366D01*
X12378Y12357D01*
Y12356D01*
X12379Y12355D01*
X12380Y12354D01*
X12381Y12352D01*
X12382Y12348D01*
X12384Y12345D01*
X12386Y12340D01*
X12388Y12336D01*
X12390Y12330D01*
X12392Y12324D01*
X12393Y12318D01*
X12395Y12310D01*
X12396Y12302D01*
X12397Y12293D01*
X12398Y12284D01*
Y12266D01*
X12397Y12262D01*
Y12258D01*
X12396Y12247D01*
X12395Y12235D01*
X12393Y12223D01*
X12390Y12211D01*
X12388Y12206D01*
X12386Y12201D01*
Y12201D01*
X12385Y12200D01*
X12384Y12197D01*
X12381Y12193D01*
X12378Y12188D01*
X12374Y12182D01*
X12369Y12176D01*
X12362Y12171D01*
X12356Y12167D01*
X12355Y12166D01*
X12353Y12165D01*
X12348Y12163D01*
X12345Y12163D01*
X12341Y12162D01*
X12337Y12161D01*
X12332Y12160D01*
X12327Y12159D01*
X12321Y12158D01*
X12314Y12158D01*
X12307Y12157D01*
X12299Y12157D01*
X12290D01*
X12204Y12158D01*
X12204D01*
X12203D01*
X12201D01*
X12198D01*
X12191D01*
X12184Y12157D01*
X12175D01*
X12166Y12156D01*
X12157Y12156D01*
X12150Y12155D01*
X12149D01*
X12147Y12154D01*
X12143Y12153D01*
X12139Y12152D01*
X12133Y12150D01*
X12127Y12147D01*
X12120Y12145D01*
X12113Y12141D01*
Y12214D01*
X12114D01*
X12114Y12214D01*
X12117Y12215D01*
X12119Y12216D01*
X12122Y12217D01*
X12125Y12218D01*
X12130Y12219D01*
X12135Y12221D01*
X12135D01*
X12136Y12222D01*
X12138Y12222D01*
X12141Y12223D01*
X12143Y12224D01*
X12143Y12225D01*
X12140Y12227D01*
X12137Y12231D01*
X12133Y12236D01*
X12129Y12242D01*
X12124Y12249D01*
X12120Y12257D01*
X12116Y12264D01*
X12115Y12266D01*
X12115Y12268D01*
X12113Y12273D01*
X12112Y12278D01*
X12110Y12285D01*
X12109Y12293D01*
X12108Y12302D01*
X12107Y12310D01*
Y12314D01*
X12108Y12318D01*
Y12321D01*
X12108Y12325D01*
X12110Y12335D01*
X12113Y12346D01*
X12117Y12357D01*
X12122Y12368D01*
X12130Y12378D01*
X12130D01*
X12131Y12379D01*
X12134Y12382D01*
X12139Y12386D01*
X12146Y12390D01*
X12154Y12395D01*
X12164Y12399D01*
X12176Y12401D01*
X12182Y12402D01*
X12189Y12403D01*
X12190D01*
X12193D01*
X12197Y12402D01*
D02*
G37*
G36*
X12265Y12100D02*
X12271Y12100D01*
X12277Y12099D01*
X12285Y12098D01*
X12293Y12097D01*
X12311Y12093D01*
X12320Y12090D01*
X12329Y12087D01*
X12337Y12083D01*
X12346Y12078D01*
X12354Y12073D01*
X12361Y12068D01*
X12361Y12067D01*
X12362Y12066D01*
X12364Y12065D01*
X12367Y12062D01*
X12370Y12059D01*
X12372Y12055D01*
X12376Y12050D01*
X12380Y12045D01*
X12383Y12039D01*
X12386Y12032D01*
X12392Y12019D01*
X12395Y12010D01*
X12396Y12002D01*
X12397Y11993D01*
X12398Y11984D01*
Y11979D01*
X12397Y11976D01*
X12397Y11972D01*
X12396Y11967D01*
X12395Y11962D01*
X12393Y11956D01*
X12391Y11950D01*
X12388Y11943D01*
X12385Y11936D01*
X12382Y11930D01*
X12377Y11923D01*
X12372Y11916D01*
X12366Y11909D01*
X12359Y11903D01*
X12497D01*
Y11829D01*
X12113D01*
Y11897D01*
X12154D01*
X12153Y11898D01*
X12150Y11900D01*
X12145Y11904D01*
X12140Y11909D01*
X12135Y11914D01*
X12129Y11921D01*
X12123Y11929D01*
X12118Y11938D01*
X12118Y11939D01*
X12117Y11941D01*
X12115Y11946D01*
X12113Y11952D01*
X12110Y11959D01*
X12109Y11967D01*
X12108Y11976D01*
X12107Y11985D01*
Y11989D01*
X12108Y11992D01*
X12108Y11997D01*
X12109Y12001D01*
X12110Y12007D01*
X12112Y12013D01*
X12114Y12019D01*
X12117Y12026D01*
X12119Y12032D01*
X12123Y12040D01*
X12128Y12046D01*
X12133Y12054D01*
X12139Y12060D01*
X12145Y12067D01*
X12146Y12067D01*
X12147Y12069D01*
X12149Y12070D01*
X12153Y12072D01*
X12157Y12075D01*
X12162Y12077D01*
X12167Y12081D01*
X12174Y12083D01*
X12181Y12087D01*
X12189Y12090D01*
X12198Y12093D01*
X12207Y12095D01*
X12218Y12097D01*
X12229Y12099D01*
X12240Y12100D01*
X12253Y12101D01*
X12254D01*
X12256D01*
X12260D01*
X12265Y12100D01*
D02*
G37*
G36*
X12265Y11772D02*
X12271Y11772D01*
X12277Y11771D01*
X12285Y11770D01*
X12293Y11768D01*
X12311Y11764D01*
X12320Y11762D01*
X12329Y11759D01*
X12337Y11755D01*
X12346Y11750D01*
X12354Y11745D01*
X12361Y11739D01*
X12361Y11739D01*
X12362Y11738D01*
X12364Y11736D01*
X12367Y11733D01*
X12370Y11730D01*
X12372Y11726D01*
X12376Y11722D01*
X12380Y11716D01*
X12383Y11711D01*
X12386Y11704D01*
X12392Y11690D01*
X12395Y11682D01*
X12396Y11673D01*
X12397Y11664D01*
X12398Y11656D01*
Y11653D01*
X12397Y11651D01*
Y11647D01*
X12396Y11643D01*
X12396Y11637D01*
X12394Y11632D01*
X12392Y11626D01*
X12390Y11619D01*
X12387Y11612D01*
X12383Y11605D01*
X12379Y11598D01*
X12374Y11591D01*
X12367Y11583D01*
X12360Y11577D01*
X12352Y11570D01*
X12392D01*
Y11501D01*
X12142D01*
X12141D01*
X12139D01*
X12137D01*
X12134D01*
X12129D01*
X12125Y11502D01*
X12114Y11502D01*
X12102Y11504D01*
X12090Y11505D01*
X12078Y11507D01*
X12073Y11508D01*
X12068Y11510D01*
X12067Y11510D01*
X12064Y11511D01*
X12060Y11513D01*
X12054Y11516D01*
X12048Y11519D01*
X12042Y11523D01*
X12036Y11527D01*
X12030Y11533D01*
X12029Y11533D01*
X12028Y11536D01*
X12025Y11539D01*
X12022Y11543D01*
X12019Y11548D01*
X12015Y11555D01*
X12012Y11563D01*
X12008Y11572D01*
X12008Y11573D01*
X12007Y11576D01*
X12006Y11581D01*
X12004Y11588D01*
X12003Y11598D01*
X12001Y11608D01*
X12001Y11621D01*
X12000Y11634D01*
Y11641D01*
X12001Y11646D01*
Y11651D01*
X12001Y11658D01*
X12002Y11665D01*
X12003Y11673D01*
X12006Y11689D01*
X12011Y11706D01*
X12013Y11714D01*
X12017Y11722D01*
X12020Y11728D01*
X12024Y11734D01*
X12025Y11735D01*
X12026Y11736D01*
X12029Y11739D01*
X12034Y11744D01*
X12041Y11749D01*
X12050Y11754D01*
X12061Y11759D01*
X12073Y11763D01*
X12079Y11763D01*
X12086Y11764D01*
X12087D01*
X12089D01*
X12092D01*
X12095Y11763D01*
X12085Y11679D01*
X12084D01*
X12083Y11678D01*
X12080Y11678D01*
X12077Y11677D01*
X12070Y11674D01*
X12067Y11672D01*
X12065Y11669D01*
X12064Y11669D01*
X12064Y11667D01*
X12062Y11665D01*
X12061Y11661D01*
X12059Y11657D01*
X12058Y11651D01*
X12057Y11644D01*
X12057Y11637D01*
Y11632D01*
X12057Y11627D01*
X12058Y11621D01*
X12059Y11613D01*
X12061Y11606D01*
X12063Y11600D01*
X12065Y11593D01*
X12066Y11593D01*
X12067Y11592D01*
X12068Y11590D01*
X12070Y11588D01*
X12073Y11586D01*
X12076Y11583D01*
X12080Y11581D01*
X12084Y11579D01*
X12085D01*
X12086Y11578D01*
X12088Y11578D01*
X12092Y11577D01*
X12097Y11576D01*
X12102Y11576D01*
X12109Y11575D01*
X12118D01*
X12158D01*
X12158Y11576D01*
X12157Y11577D01*
X12154Y11578D01*
X12151Y11581D01*
X12148Y11584D01*
X12144Y11588D01*
X12140Y11593D01*
X12136Y11598D01*
X12132Y11603D01*
X12128Y11610D01*
X12120Y11624D01*
X12118Y11632D01*
X12115Y11640D01*
X12114Y11649D01*
X12113Y11658D01*
Y11661D01*
X12114Y11664D01*
Y11668D01*
X12115Y11672D01*
X12116Y11678D01*
X12117Y11684D01*
X12119Y11691D01*
X12122Y11697D01*
X12125Y11704D01*
X12129Y11712D01*
X12133Y11719D01*
X12139Y11727D01*
X12145Y11734D01*
X12152Y11740D01*
X12160Y11747D01*
X12161D01*
X12162Y11748D01*
X12164Y11749D01*
X12167Y11751D01*
X12171Y11753D01*
X12175Y11755D01*
X12180Y11758D01*
X12186Y11760D01*
X12193Y11762D01*
X12200Y11764D01*
X12208Y11767D01*
X12216Y11769D01*
X12234Y11772D01*
X12244Y11772D01*
X12254Y11773D01*
X12254D01*
X12257D01*
X12260D01*
X12265Y11772D01*
D02*
G37*
G36*
X12262Y11449D02*
X12268Y11449D01*
X12274Y11448D01*
X12281Y11447D01*
X12290Y11445D01*
X12307Y11441D01*
X12316Y11438D01*
X12325Y11435D01*
X12334Y11430D01*
X12342Y11425D01*
X12351Y11420D01*
X12359Y11414D01*
X12359Y11413D01*
X12360Y11412D01*
X12362Y11410D01*
X12365Y11407D01*
X12367Y11404D01*
X12371Y11399D01*
X12375Y11394D01*
X12379Y11389D01*
X12382Y11383D01*
X12386Y11375D01*
X12389Y11368D01*
X12392Y11360D01*
X12394Y11351D01*
X12396Y11342D01*
X12397Y11333D01*
X12398Y11323D01*
Y11316D01*
X12397Y11312D01*
X12397Y11307D01*
X12396Y11301D01*
X12395Y11294D01*
X12393Y11287D01*
X12391Y11279D01*
X12388Y11272D01*
X12385Y11263D01*
X12380Y11255D01*
X12376Y11247D01*
X12370Y11239D01*
X12364Y11232D01*
X12356Y11225D01*
X12356Y11224D01*
X12355Y11223D01*
X12352Y11222D01*
X12349Y11219D01*
X12344Y11217D01*
X12339Y11214D01*
X12332Y11210D01*
X12325Y11207D01*
X12317Y11204D01*
X12307Y11200D01*
X12297Y11198D01*
X12286Y11195D01*
X12274Y11193D01*
X12260Y11191D01*
X12246Y11190D01*
X12231D01*
Y11374D01*
X12230D01*
X12229D01*
X12228D01*
X12225Y11374D01*
X12220Y11373D01*
X12212Y11372D01*
X12204Y11370D01*
X12195Y11366D01*
X12187Y11363D01*
X12180Y11357D01*
X12179Y11356D01*
X12177Y11354D01*
X12174Y11350D01*
X12171Y11345D01*
X12168Y11339D01*
X12165Y11331D01*
X12163Y11323D01*
X12162Y11314D01*
Y11311D01*
X12163Y11308D01*
X12163Y11304D01*
X12164Y11300D01*
X12166Y11295D01*
X12168Y11290D01*
X12171Y11285D01*
X12172Y11285D01*
X12173Y11283D01*
X12175Y11281D01*
X12179Y11279D01*
X12183Y11275D01*
X12188Y11273D01*
X12195Y11270D01*
X12202Y11267D01*
X12190Y11194D01*
X12189D01*
X12188Y11194D01*
X12186Y11195D01*
X12183Y11197D01*
X12180Y11198D01*
X12176Y11200D01*
X12167Y11205D01*
X12157Y11211D01*
X12147Y11219D01*
X12137Y11228D01*
X12128Y11239D01*
Y11239D01*
X12127Y11240D01*
X12127Y11242D01*
X12125Y11244D01*
X12123Y11247D01*
X12122Y11251D01*
X12120Y11255D01*
X12118Y11260D01*
X12114Y11271D01*
X12110Y11284D01*
X12108Y11299D01*
X12107Y11315D01*
Y11318D01*
X12108Y11321D01*
Y11326D01*
X12109Y11333D01*
X12110Y11340D01*
X12111Y11348D01*
X12113Y11355D01*
X12115Y11364D01*
X12119Y11373D01*
X12123Y11382D01*
X12127Y11391D01*
X12133Y11400D01*
X12139Y11408D01*
X12146Y11415D01*
X12154Y11422D01*
X12155Y11423D01*
X12156Y11424D01*
X12158Y11425D01*
X12161Y11427D01*
X12165Y11429D01*
X12169Y11431D01*
X12174Y11434D01*
X12180Y11436D01*
X12187Y11439D01*
X12194Y11441D01*
X12202Y11444D01*
X12211Y11445D01*
X12220Y11447D01*
X12229Y11449D01*
X12240Y11449D01*
X12250Y11450D01*
X12251D01*
X12253D01*
X12257D01*
X12262Y11449D01*
D02*
G37*
G36*
X12392Y11126D02*
X12447D01*
X12491Y11052D01*
X12392D01*
Y11002D01*
X12333D01*
Y11052D01*
X12220D01*
X12220D01*
X12219D01*
X12217D01*
X12215D01*
X12209D01*
X12203D01*
X12196Y11052D01*
X12189D01*
X12184D01*
X12182Y11051D01*
X12181D01*
X12180Y11051D01*
X12178Y11050D01*
X12175Y11048D01*
X12171Y11045D01*
X12171Y11043D01*
X12170Y11041D01*
X12169Y11037D01*
X12168Y11032D01*
Y11030D01*
X12169Y11028D01*
X12169Y11025D01*
X12170Y11020D01*
X12171Y11015D01*
X12173Y11009D01*
X12175Y11002D01*
X12118Y10996D01*
Y10996D01*
X12117Y10997D01*
X12116Y11000D01*
X12114Y11006D01*
X12113Y11013D01*
X12110Y11021D01*
X12109Y11031D01*
X12108Y11042D01*
X12107Y11054D01*
Y11057D01*
X12108Y11061D01*
X12108Y11066D01*
X12109Y11072D01*
X12110Y11078D01*
X12112Y11084D01*
X12114Y11090D01*
X12114Y11091D01*
X12115Y11093D01*
X12117Y11096D01*
X12118Y11099D01*
X12124Y11107D01*
X12127Y11111D01*
X12131Y11114D01*
X12132Y11114D01*
X12133Y11115D01*
X12135Y11116D01*
X12139Y11118D01*
X12143Y11119D01*
X12148Y11121D01*
X12153Y11123D01*
X12159Y11124D01*
X12160D01*
X12162Y11124D01*
X12165D01*
X12171Y11125D01*
X12178Y11126D01*
X12187D01*
X12192Y11126D01*
X12198D01*
X12204D01*
X12211D01*
X12333D01*
Y11160D01*
X12392D01*
Y11126D01*
D02*
G37*
G36*
X15640Y14253D02*
X15613D01*
X15539Y14445D01*
X15566D01*
X15616Y14306D01*
Y14305D01*
X15617Y14305D01*
X15617Y14304D01*
X15617Y14303D01*
X15618Y14301D01*
X15618Y14300D01*
X15620Y14295D01*
X15621Y14291D01*
X15623Y14285D01*
X15626Y14274D01*
Y14275D01*
X15627Y14275D01*
X15627Y14276D01*
X15627Y14277D01*
X15628Y14280D01*
X15629Y14284D01*
X15631Y14289D01*
X15632Y14294D01*
X15634Y14300D01*
X15637Y14306D01*
X15689Y14445D01*
X15714D01*
X15640Y14253D01*
D02*
G37*
G36*
X15518Y14420D02*
X15441D01*
X15431Y14368D01*
X15431Y14369D01*
X15432Y14369D01*
X15433Y14369D01*
X15434Y14370D01*
X15436Y14371D01*
X15438Y14372D01*
X15442Y14374D01*
X15448Y14377D01*
X15454Y14379D01*
X15460Y14380D01*
X15464Y14380D01*
X15470D01*
X15471Y14380D01*
X15474Y14380D01*
X15476Y14380D01*
X15479Y14379D01*
X15482Y14378D01*
X15489Y14376D01*
X15492Y14375D01*
X15496Y14373D01*
X15499Y14371D01*
X15503Y14369D01*
X15506Y14366D01*
X15510Y14363D01*
X15510Y14363D01*
X15511Y14362D01*
X15511Y14361D01*
X15512Y14360D01*
X15514Y14358D01*
X15515Y14356D01*
X15517Y14354D01*
X15519Y14351D01*
X15520Y14348D01*
X15522Y14344D01*
X15523Y14341D01*
X15524Y14337D01*
X15525Y14333D01*
X15526Y14328D01*
X15527Y14323D01*
X15527Y14318D01*
Y14318D01*
Y14317D01*
Y14316D01*
X15527Y14314D01*
X15527Y14311D01*
X15526Y14309D01*
X15526Y14306D01*
X15525Y14303D01*
X15524Y14296D01*
X15521Y14288D01*
X15519Y14284D01*
X15517Y14281D01*
X15515Y14277D01*
X15512Y14273D01*
X15512Y14273D01*
X15511Y14272D01*
X15510Y14271D01*
X15509Y14270D01*
X15507Y14268D01*
X15504Y14266D01*
X15502Y14264D01*
X15499Y14262D01*
X15495Y14259D01*
X15491Y14257D01*
X15487Y14256D01*
X15483Y14254D01*
X15478Y14252D01*
X15473Y14251D01*
X15467Y14250D01*
X15461Y14250D01*
X15459D01*
X15457Y14250D01*
X15455Y14251D01*
X15452Y14251D01*
X15449Y14251D01*
X15446Y14252D01*
X15439Y14254D01*
X15432Y14256D01*
X15429Y14258D01*
X15425Y14260D01*
X15422Y14262D01*
X15419Y14264D01*
X15418Y14265D01*
X15418Y14265D01*
X15417Y14266D01*
X15416Y14267D01*
X15415Y14269D01*
X15413Y14270D01*
X15412Y14272D01*
X15410Y14275D01*
X15409Y14277D01*
X15407Y14280D01*
X15404Y14287D01*
X15401Y14295D01*
X15401Y14299D01*
X15400Y14303D01*
X15425Y14305D01*
Y14305D01*
Y14305D01*
X15425Y14304D01*
X15425Y14302D01*
X15426Y14299D01*
X15427Y14295D01*
X15429Y14291D01*
X15431Y14286D01*
X15434Y14282D01*
X15437Y14278D01*
X15438Y14278D01*
X15439Y14277D01*
X15441Y14275D01*
X15444Y14274D01*
X15447Y14272D01*
X15452Y14271D01*
X15456Y14270D01*
X15461Y14269D01*
X15463D01*
X15464Y14270D01*
X15468Y14270D01*
X15471Y14271D01*
X15476Y14272D01*
X15481Y14275D01*
X15486Y14278D01*
X15488Y14280D01*
X15490Y14282D01*
X15491Y14282D01*
X15491Y14283D01*
X15491Y14284D01*
X15492Y14284D01*
X15494Y14287D01*
X15496Y14291D01*
X15498Y14296D01*
X15500Y14302D01*
X15502Y14309D01*
X15502Y14312D01*
Y14316D01*
Y14316D01*
Y14317D01*
Y14318D01*
X15502Y14320D01*
Y14321D01*
X15502Y14323D01*
X15501Y14328D01*
X15499Y14333D01*
X15497Y14338D01*
X15495Y14343D01*
X15491Y14348D01*
Y14348D01*
X15490Y14348D01*
X15489Y14350D01*
X15486Y14352D01*
X15483Y14354D01*
X15479Y14356D01*
X15474Y14358D01*
X15468Y14359D01*
X15465Y14360D01*
X15459D01*
X15457Y14359D01*
X15454Y14359D01*
X15451Y14358D01*
X15448Y14357D01*
X15444Y14356D01*
X15440Y14354D01*
X15440Y14354D01*
X15439Y14354D01*
X15437Y14352D01*
X15435Y14351D01*
X15433Y14349D01*
X15431Y14346D01*
X15428Y14344D01*
X15426Y14341D01*
X15404Y14344D01*
X15423Y14443D01*
X15518D01*
Y14420D01*
D02*
G37*
G36*
X15622Y14700D02*
X15595D01*
X15521Y14892D01*
X15548D01*
X15598Y14752D01*
Y14752D01*
X15599Y14752D01*
X15599Y14751D01*
X15599Y14750D01*
X15600Y14748D01*
X15600Y14746D01*
X15602Y14742D01*
X15603Y14737D01*
X15605Y14732D01*
X15608Y14721D01*
Y14721D01*
X15609Y14722D01*
X15609Y14723D01*
X15609Y14724D01*
X15610Y14727D01*
X15611Y14731D01*
X15613Y14736D01*
X15614Y14741D01*
X15616Y14747D01*
X15619Y14752D01*
X15671Y14892D01*
X15696D01*
X15622Y14700D01*
D02*
G37*
G36*
X15778Y14892D02*
X15780Y14892D01*
X15783Y14892D01*
X15786Y14891D01*
X15789Y14891D01*
X15796Y14889D01*
X15803Y14886D01*
X15807Y14884D01*
X15811Y14882D01*
X15814Y14880D01*
X15817Y14877D01*
X15817Y14877D01*
X15818Y14876D01*
X15818Y14875D01*
X15819Y14874D01*
X15821Y14873D01*
X15822Y14871D01*
X15824Y14869D01*
X15825Y14866D01*
X15828Y14861D01*
X15831Y14855D01*
X15832Y14851D01*
X15832Y14847D01*
X15833Y14843D01*
X15833Y14839D01*
Y14839D01*
Y14837D01*
X15833Y14835D01*
X15833Y14832D01*
X15832Y14829D01*
X15831Y14825D01*
X15830Y14821D01*
X15828Y14817D01*
X15828Y14816D01*
X15827Y14815D01*
X15826Y14812D01*
X15825Y14809D01*
X15822Y14806D01*
X15820Y14802D01*
X15816Y14798D01*
X15812Y14793D01*
X15812Y14793D01*
X15811Y14791D01*
X15809Y14789D01*
X15808Y14788D01*
X15806Y14786D01*
X15804Y14784D01*
X15802Y14782D01*
X15799Y14779D01*
X15796Y14777D01*
X15793Y14774D01*
X15789Y14771D01*
X15785Y14767D01*
X15781Y14763D01*
X15776Y14760D01*
X15776Y14759D01*
X15776Y14759D01*
X15775Y14758D01*
X15773Y14757D01*
X15771Y14755D01*
X15770Y14753D01*
X15765Y14750D01*
X15760Y14746D01*
X15756Y14742D01*
X15752Y14738D01*
X15750Y14737D01*
X15749Y14735D01*
X15749Y14735D01*
X15748Y14734D01*
X15747Y14733D01*
X15745Y14731D01*
X15744Y14729D01*
X15742Y14727D01*
X15739Y14723D01*
X15834D01*
Y14700D01*
X15706D01*
Y14700D01*
Y14701D01*
Y14703D01*
X15707Y14705D01*
X15707Y14708D01*
X15707Y14711D01*
X15708Y14713D01*
X15709Y14716D01*
Y14717D01*
X15709Y14717D01*
X15710Y14719D01*
X15711Y14721D01*
X15713Y14724D01*
X15715Y14728D01*
X15718Y14733D01*
X15721Y14737D01*
X15725Y14742D01*
Y14742D01*
X15725Y14742D01*
X15727Y14744D01*
X15729Y14747D01*
X15733Y14750D01*
X15737Y14754D01*
X15742Y14759D01*
X15748Y14765D01*
X15755Y14771D01*
X15756Y14771D01*
X15757Y14772D01*
X15758Y14773D01*
X15760Y14775D01*
X15763Y14777D01*
X15766Y14779D01*
X15769Y14782D01*
X15773Y14785D01*
X15779Y14792D01*
X15786Y14799D01*
X15790Y14802D01*
X15793Y14805D01*
X15796Y14808D01*
X15798Y14811D01*
Y14812D01*
X15798Y14812D01*
X15799Y14813D01*
X15799Y14814D01*
X15801Y14817D01*
X15804Y14820D01*
X15806Y14825D01*
X15807Y14830D01*
X15809Y14835D01*
X15809Y14840D01*
Y14840D01*
Y14840D01*
X15809Y14842D01*
X15809Y14845D01*
X15808Y14848D01*
X15807Y14852D01*
X15805Y14856D01*
X15802Y14860D01*
X15799Y14863D01*
X15798Y14864D01*
X15797Y14865D01*
X15795Y14866D01*
X15792Y14868D01*
X15788Y14870D01*
X15784Y14872D01*
X15778Y14873D01*
X15773Y14873D01*
X15771D01*
X15770Y14873D01*
X15766Y14873D01*
X15763Y14872D01*
X15758Y14871D01*
X15754Y14869D01*
X15749Y14866D01*
X15745Y14863D01*
X15745Y14862D01*
X15743Y14861D01*
X15742Y14859D01*
X15740Y14855D01*
X15738Y14852D01*
X15737Y14847D01*
X15735Y14841D01*
X15735Y14835D01*
X15711Y14837D01*
Y14837D01*
X15711Y14838D01*
Y14840D01*
X15711Y14842D01*
X15712Y14844D01*
X15712Y14846D01*
X15713Y14849D01*
X15714Y14852D01*
X15716Y14859D01*
X15720Y14866D01*
X15722Y14869D01*
X15724Y14872D01*
X15727Y14875D01*
X15729Y14878D01*
X15730Y14878D01*
X15730Y14879D01*
X15731Y14879D01*
X15732Y14880D01*
X15734Y14881D01*
X15736Y14883D01*
X15738Y14884D01*
X15741Y14885D01*
X15744Y14887D01*
X15747Y14888D01*
X15751Y14889D01*
X15755Y14890D01*
X15759Y14891D01*
X15763Y14892D01*
X15768Y14892D01*
X15773Y14893D01*
X15776D01*
X15778Y14892D01*
D02*
G37*
G36*
X15471Y14700D02*
X15447D01*
Y14850D01*
X15447Y14850D01*
X15445Y14848D01*
X15444Y14847D01*
X15441Y14845D01*
X15438Y14842D01*
X15434Y14840D01*
X15430Y14837D01*
X15425Y14834D01*
X15424D01*
X15424Y14833D01*
X15422Y14832D01*
X15420Y14831D01*
X15416Y14829D01*
X15412Y14827D01*
X15408Y14825D01*
X15404Y14823D01*
X15400Y14822D01*
Y14844D01*
X15400D01*
X15401Y14845D01*
X15402Y14845D01*
X15403Y14846D01*
X15405Y14847D01*
X15407Y14848D01*
X15412Y14851D01*
X15417Y14854D01*
X15423Y14858D01*
X15429Y14862D01*
X15434Y14867D01*
X15435Y14867D01*
X15435Y14867D01*
X15436Y14868D01*
X15437Y14869D01*
X15439Y14872D01*
X15443Y14875D01*
X15446Y14879D01*
X15450Y14883D01*
X15453Y14888D01*
X15455Y14893D01*
X15471D01*
Y14700D01*
D02*
G37*
G36*
X15043Y15296D02*
X15047Y15295D01*
X15051Y15294D01*
X15056Y15293D01*
X15061Y15291D01*
X15066Y15289D01*
X15067D01*
X15067Y15289D01*
X15069Y15288D01*
X15071Y15286D01*
X15074Y15284D01*
X15077Y15281D01*
X15080Y15278D01*
X15084Y15275D01*
X15087Y15271D01*
X15087Y15270D01*
X15088Y15269D01*
X15089Y15266D01*
X15090Y15263D01*
X15092Y15260D01*
X15093Y15255D01*
X15093Y15251D01*
X15094Y15246D01*
Y15245D01*
Y15244D01*
X15093Y15242D01*
X15093Y15238D01*
X15092Y15235D01*
X15091Y15231D01*
X15089Y15227D01*
X15087Y15223D01*
X15087Y15223D01*
X15086Y15222D01*
X15084Y15220D01*
X15082Y15217D01*
X15079Y15215D01*
X15076Y15212D01*
X15072Y15210D01*
X15067Y15207D01*
X15067D01*
X15068Y15207D01*
X15069Y15207D01*
X15070Y15206D01*
X15073Y15205D01*
X15077Y15204D01*
X15081Y15201D01*
X15086Y15199D01*
X15090Y15195D01*
X15094Y15191D01*
X15094Y15190D01*
X15095Y15189D01*
X15097Y15186D01*
X15098Y15182D01*
X15100Y15178D01*
X15102Y15173D01*
X15103Y15166D01*
X15103Y15160D01*
Y15160D01*
Y15159D01*
Y15157D01*
X15103Y15156D01*
X15103Y15153D01*
X15102Y15151D01*
X15102Y15148D01*
X15101Y15145D01*
X15099Y15138D01*
X15097Y15135D01*
X15095Y15132D01*
X15093Y15128D01*
X15091Y15124D01*
X15088Y15121D01*
X15085Y15117D01*
X15084Y15117D01*
X15084Y15117D01*
X15083Y15116D01*
X15081Y15115D01*
X15080Y15113D01*
X15077Y15112D01*
X15075Y15110D01*
X15072Y15109D01*
X15069Y15107D01*
X15065Y15106D01*
X15062Y15104D01*
X15057Y15103D01*
X15053Y15102D01*
X15048Y15101D01*
X15044Y15100D01*
X15038Y15100D01*
X15036D01*
X15034Y15100D01*
X15032Y15101D01*
X15029Y15101D01*
X15027Y15101D01*
X15024Y15102D01*
X15017Y15104D01*
X15010Y15106D01*
X15007Y15108D01*
X15003Y15110D01*
X15000Y15112D01*
X14997Y15115D01*
X14996Y15115D01*
X14996Y15116D01*
X14995Y15117D01*
X14994Y15118D01*
X14993Y15119D01*
X14991Y15121D01*
X14990Y15123D01*
X14988Y15125D01*
X14986Y15128D01*
X14985Y15131D01*
X14982Y15138D01*
X14979Y15145D01*
X14978Y15150D01*
X14978Y15154D01*
X15001Y15157D01*
Y15157D01*
X15002Y15156D01*
X15002Y15155D01*
X15002Y15154D01*
X15002Y15152D01*
X15003Y15150D01*
X15004Y15146D01*
X15006Y15141D01*
X15009Y15136D01*
X15011Y15132D01*
X15015Y15128D01*
X15015Y15128D01*
X15016Y15127D01*
X15019Y15125D01*
X15021Y15124D01*
X15025Y15122D01*
X15029Y15121D01*
X15034Y15120D01*
X15039Y15119D01*
X15040D01*
X15041Y15120D01*
X15044Y15120D01*
X15048Y15121D01*
X15053Y15122D01*
X15057Y15124D01*
X15062Y15127D01*
X15067Y15131D01*
X15067Y15131D01*
X15069Y15133D01*
X15070Y15135D01*
X15072Y15139D01*
X15075Y15143D01*
X15076Y15148D01*
X15078Y15153D01*
X15078Y15159D01*
Y15160D01*
Y15160D01*
Y15161D01*
X15078Y15162D01*
X15078Y15165D01*
X15077Y15169D01*
X15076Y15173D01*
X15074Y15178D01*
X15071Y15182D01*
X15067Y15186D01*
X15067Y15187D01*
X15065Y15188D01*
X15063Y15189D01*
X15060Y15191D01*
X15056Y15193D01*
X15052Y15195D01*
X15046Y15196D01*
X15041Y15197D01*
X15038D01*
X15036Y15196D01*
X15034Y15196D01*
X15031Y15196D01*
X15028Y15195D01*
X15024Y15194D01*
X15027Y15215D01*
X15028D01*
X15029Y15215D01*
X15033D01*
X15036Y15215D01*
X15039Y15216D01*
X15044Y15217D01*
X15048Y15218D01*
X15053Y15220D01*
X15057Y15222D01*
X15058D01*
X15058Y15223D01*
X15059Y15224D01*
X15061Y15226D01*
X15064Y15228D01*
X15066Y15232D01*
X15068Y15236D01*
X15069Y15241D01*
X15070Y15243D01*
Y15247D01*
Y15247D01*
Y15247D01*
Y15249D01*
X15069Y15251D01*
X15069Y15254D01*
X15067Y15257D01*
X15066Y15261D01*
X15064Y15265D01*
X15061Y15268D01*
X15061Y15268D01*
X15059Y15269D01*
X15057Y15271D01*
X15055Y15272D01*
X15051Y15274D01*
X15047Y15275D01*
X15043Y15276D01*
X15038Y15276D01*
X15036D01*
X15033Y15276D01*
X15030Y15275D01*
X15026Y15274D01*
X15023Y15273D01*
X15019Y15271D01*
X15015Y15268D01*
X15015Y15268D01*
X15014Y15266D01*
X15012Y15264D01*
X15010Y15261D01*
X15008Y15258D01*
X15007Y15253D01*
X15005Y15248D01*
X15004Y15242D01*
X14980Y15246D01*
Y15247D01*
X14980Y15247D01*
X14981Y15248D01*
X14981Y15250D01*
X14982Y15252D01*
X14982Y15254D01*
X14984Y15260D01*
X14987Y15266D01*
X14990Y15272D01*
X14994Y15278D01*
X15000Y15283D01*
X15000Y15283D01*
X15000Y15283D01*
X15001Y15284D01*
X15002Y15285D01*
X15004Y15286D01*
X15006Y15287D01*
X15008Y15288D01*
X15010Y15289D01*
X15016Y15292D01*
X15022Y15294D01*
X15029Y15295D01*
X15033Y15296D01*
X15040D01*
X15043Y15296D01*
D02*
G37*
G36*
X14716D02*
X14719Y15295D01*
X14724Y15294D01*
X14729Y15293D01*
X14734Y15291D01*
X14739Y15289D01*
X14739D01*
X14739Y15289D01*
X14741Y15288D01*
X14743Y15286D01*
X14746Y15284D01*
X14749Y15281D01*
X14753Y15278D01*
X14756Y15275D01*
X14759Y15271D01*
X14759Y15270D01*
X14760Y15269D01*
X14761Y15266D01*
X14762Y15263D01*
X14764Y15260D01*
X14765Y15255D01*
X14766Y15251D01*
X14766Y15246D01*
Y15245D01*
Y15244D01*
X14766Y15242D01*
X14765Y15238D01*
X14764Y15235D01*
X14763Y15231D01*
X14761Y15227D01*
X14759Y15223D01*
X14759Y15223D01*
X14758Y15222D01*
X14756Y15220D01*
X14754Y15217D01*
X14751Y15215D01*
X14748Y15212D01*
X14744Y15210D01*
X14739Y15207D01*
X14740D01*
X14740Y15207D01*
X14741Y15207D01*
X14742Y15206D01*
X14745Y15205D01*
X14749Y15204D01*
X14754Y15201D01*
X14758Y15199D01*
X14762Y15195D01*
X14766Y15191D01*
X14766Y15190D01*
X14767Y15189D01*
X14769Y15186D01*
X14771Y15182D01*
X14772Y15178D01*
X14774Y15173D01*
X14775Y15166D01*
X14775Y15160D01*
Y15160D01*
Y15159D01*
Y15157D01*
X14775Y15156D01*
X14775Y15153D01*
X14774Y15151D01*
X14774Y15148D01*
X14773Y15145D01*
X14771Y15138D01*
X14769Y15135D01*
X14768Y15132D01*
X14766Y15128D01*
X14763Y15124D01*
X14760Y15121D01*
X14757Y15117D01*
X14757Y15117D01*
X14756Y15117D01*
X14755Y15116D01*
X14754Y15115D01*
X14752Y15113D01*
X14750Y15112D01*
X14747Y15110D01*
X14744Y15109D01*
X14741Y15107D01*
X14738Y15106D01*
X14734Y15104D01*
X14730Y15103D01*
X14725Y15102D01*
X14721Y15101D01*
X14716Y15100D01*
X14711Y15100D01*
X14708D01*
X14707Y15100D01*
X14704Y15101D01*
X14702Y15101D01*
X14699Y15101D01*
X14696Y15102D01*
X14689Y15104D01*
X14682Y15106D01*
X14679Y15108D01*
X14675Y15110D01*
X14672Y15112D01*
X14669Y15115D01*
X14669Y15115D01*
X14668Y15116D01*
X14667Y15117D01*
X14666Y15118D01*
X14665Y15119D01*
X14664Y15121D01*
X14662Y15123D01*
X14660Y15125D01*
X14659Y15128D01*
X14657Y15131D01*
X14654Y15138D01*
X14651Y15145D01*
X14651Y15150D01*
X14650Y15154D01*
X14674Y15157D01*
Y15157D01*
X14674Y15156D01*
X14674Y15155D01*
X14674Y15154D01*
X14675Y15152D01*
X14675Y15150D01*
X14677Y15146D01*
X14679Y15141D01*
X14681Y15136D01*
X14684Y15132D01*
X14687Y15128D01*
X14688Y15128D01*
X14689Y15127D01*
X14691Y15125D01*
X14694Y15124D01*
X14697Y15122D01*
X14701Y15121D01*
X14706Y15120D01*
X14711Y15119D01*
X14713D01*
X14714Y15120D01*
X14717Y15120D01*
X14721Y15121D01*
X14725Y15122D01*
X14730Y15124D01*
X14734Y15127D01*
X14739Y15131D01*
X14739Y15131D01*
X14741Y15133D01*
X14743Y15135D01*
X14745Y15139D01*
X14747Y15143D01*
X14749Y15148D01*
X14750Y15153D01*
X14751Y15159D01*
Y15160D01*
Y15160D01*
Y15161D01*
X14750Y15162D01*
X14750Y15165D01*
X14749Y15169D01*
X14748Y15173D01*
X14746Y15178D01*
X14743Y15182D01*
X14740Y15186D01*
X14739Y15187D01*
X14738Y15188D01*
X14736Y15189D01*
X14733Y15191D01*
X14729Y15193D01*
X14724Y15195D01*
X14719Y15196D01*
X14713Y15197D01*
X14710D01*
X14708Y15196D01*
X14706Y15196D01*
X14703Y15196D01*
X14700Y15195D01*
X14696Y15194D01*
X14699Y15215D01*
X14700D01*
X14702Y15215D01*
X14705D01*
X14708Y15215D01*
X14712Y15216D01*
X14716Y15217D01*
X14721Y15218D01*
X14725Y15220D01*
X14730Y15222D01*
X14730D01*
X14730Y15223D01*
X14732Y15224D01*
X14734Y15226D01*
X14736Y15228D01*
X14738Y15232D01*
X14740Y15236D01*
X14741Y15241D01*
X14742Y15243D01*
Y15247D01*
Y15247D01*
Y15247D01*
Y15249D01*
X14741Y15251D01*
X14741Y15254D01*
X14740Y15257D01*
X14738Y15261D01*
X14736Y15265D01*
X14733Y15268D01*
X14733Y15268D01*
X14731Y15269D01*
X14729Y15271D01*
X14727Y15272D01*
X14724Y15274D01*
X14720Y15275D01*
X14715Y15276D01*
X14710Y15276D01*
X14708D01*
X14706Y15276D01*
X14702Y15275D01*
X14699Y15274D01*
X14695Y15273D01*
X14691Y15271D01*
X14688Y15268D01*
X14687Y15268D01*
X14686Y15266D01*
X14685Y15264D01*
X14683Y15261D01*
X14681Y15258D01*
X14679Y15253D01*
X14677Y15248D01*
X14676Y15242D01*
X14652Y15246D01*
Y15247D01*
X14653Y15247D01*
X14653Y15248D01*
X14653Y15250D01*
X14654Y15252D01*
X14655Y15254D01*
X14656Y15260D01*
X14659Y15266D01*
X14662Y15272D01*
X14667Y15278D01*
X14672Y15283D01*
X14672Y15283D01*
X14673Y15283D01*
X14674Y15284D01*
X14675Y15285D01*
X14676Y15286D01*
X14678Y15287D01*
X14680Y15288D01*
X14682Y15289D01*
X14688Y15292D01*
X14694Y15294D01*
X14702Y15295D01*
X14706Y15296D01*
X14713D01*
X14716Y15296D01*
D02*
G37*
G36*
X14889Y15103D02*
X14863D01*
X14789Y15295D01*
X14816D01*
X14866Y15156D01*
Y15155D01*
X14866Y15155D01*
X14867Y15154D01*
X14867Y15153D01*
X14867Y15151D01*
X14868Y15150D01*
X14869Y15145D01*
X14871Y15141D01*
X14873Y15135D01*
X14876Y15124D01*
Y15125D01*
X14876Y15125D01*
X14877Y15126D01*
X14877Y15127D01*
X14878Y15130D01*
X14879Y15134D01*
X14880Y15139D01*
X14882Y15144D01*
X14884Y15150D01*
X14886Y15156D01*
X14938Y15295D01*
X14964D01*
X14889Y15103D01*
D02*
G37*
G36*
X17805Y11615D02*
X17809Y11615D01*
X17814Y11615D01*
X17819Y11614D01*
X17824Y11613D01*
X17836Y11610D01*
X17842Y11609D01*
X17848Y11607D01*
X17854Y11604D01*
X17860Y11601D01*
X17865Y11598D01*
X17870Y11594D01*
X17870Y11594D01*
X17871Y11593D01*
X17872Y11592D01*
X17873Y11590D01*
X17875Y11588D01*
X17877Y11586D01*
X17880Y11583D01*
X17882Y11579D01*
X17884Y11575D01*
X17887Y11571D01*
X17889Y11566D01*
X17891Y11561D01*
X17893Y11556D01*
X17894Y11550D01*
X17895Y11544D01*
X17895Y11538D01*
X17844Y11536D01*
Y11536D01*
Y11536D01*
X17843Y11539D01*
X17842Y11542D01*
X17841Y11546D01*
X17839Y11551D01*
X17836Y11556D01*
X17833Y11560D01*
X17829Y11564D01*
X17829Y11564D01*
X17827Y11565D01*
X17825Y11567D01*
X17821Y11568D01*
X17817Y11570D01*
X17811Y11571D01*
X17804Y11572D01*
X17797Y11573D01*
X17793D01*
X17789Y11572D01*
X17784Y11572D01*
X17779Y11571D01*
X17773Y11569D01*
X17767Y11566D01*
X17762Y11563D01*
X17762Y11563D01*
X17761Y11562D01*
X17759Y11561D01*
X17758Y11559D01*
X17756Y11557D01*
X17755Y11554D01*
X17754Y11551D01*
X17754Y11547D01*
Y11547D01*
Y11546D01*
X17754Y11544D01*
X17755Y11542D01*
X17756Y11539D01*
X17757Y11537D01*
X17759Y11534D01*
X17761Y11532D01*
X17762Y11531D01*
X17763Y11530D01*
X17765Y11529D01*
X17766Y11529D01*
X17768Y11528D01*
X17771Y11526D01*
X17774Y11525D01*
X17777Y11524D01*
X17781Y11522D01*
X17785Y11521D01*
X17790Y11519D01*
X17796Y11518D01*
X17802Y11516D01*
X17809Y11515D01*
X17809D01*
X17810Y11514D01*
X17812Y11514D01*
X17815Y11513D01*
X17818Y11512D01*
X17821Y11511D01*
X17826Y11510D01*
X17830Y11509D01*
X17838Y11506D01*
X17848Y11503D01*
X17857Y11500D01*
X17860Y11498D01*
X17864Y11496D01*
X17864D01*
X17865Y11496D01*
X17867Y11494D01*
X17870Y11492D01*
X17874Y11489D01*
X17879Y11485D01*
X17884Y11481D01*
X17888Y11476D01*
X17893Y11470D01*
X17893Y11469D01*
X17894Y11467D01*
X17896Y11464D01*
X17898Y11459D01*
X17900Y11453D01*
X17901Y11446D01*
X17903Y11438D01*
X17903Y11429D01*
Y11429D01*
Y11428D01*
Y11427D01*
Y11425D01*
X17903Y11424D01*
X17902Y11421D01*
X17901Y11416D01*
X17900Y11409D01*
X17898Y11402D01*
X17894Y11395D01*
X17890Y11388D01*
Y11387D01*
X17890Y11387D01*
X17888Y11385D01*
X17885Y11381D01*
X17881Y11377D01*
X17877Y11372D01*
X17870Y11368D01*
X17864Y11363D01*
X17856Y11359D01*
X17855D01*
X17854Y11359D01*
X17853Y11359D01*
X17851Y11358D01*
X17849Y11357D01*
X17847Y11356D01*
X17844Y11356D01*
X17840Y11355D01*
X17836Y11354D01*
X17832Y11353D01*
X17823Y11351D01*
X17812Y11350D01*
X17800Y11350D01*
X17795D01*
X17792Y11350D01*
X17788Y11351D01*
X17783Y11351D01*
X17778Y11352D01*
X17773Y11353D01*
X17760Y11356D01*
X17754Y11357D01*
X17748Y11359D01*
X17742Y11362D01*
X17736Y11365D01*
X17730Y11368D01*
X17725Y11372D01*
X17725Y11373D01*
X17724Y11373D01*
X17723Y11374D01*
X17721Y11376D01*
X17719Y11379D01*
X17717Y11382D01*
X17714Y11385D01*
X17712Y11389D01*
X17709Y11393D01*
X17706Y11398D01*
X17704Y11404D01*
X17701Y11410D01*
X17699Y11416D01*
X17697Y11423D01*
X17696Y11430D01*
X17695Y11438D01*
X17745Y11443D01*
Y11443D01*
X17745Y11442D01*
Y11440D01*
X17746Y11439D01*
X17747Y11434D01*
X17749Y11429D01*
X17751Y11423D01*
X17755Y11416D01*
X17758Y11411D01*
X17763Y11406D01*
X17764Y11405D01*
X17766Y11404D01*
X17769Y11402D01*
X17773Y11400D01*
X17779Y11397D01*
X17785Y11396D01*
X17792Y11394D01*
X17801Y11394D01*
X17805D01*
X17809Y11394D01*
X17815Y11395D01*
X17821Y11396D01*
X17827Y11398D01*
X17833Y11401D01*
X17838Y11404D01*
X17839Y11404D01*
X17840Y11406D01*
X17842Y11408D01*
X17845Y11411D01*
X17847Y11415D01*
X17849Y11419D01*
X17851Y11424D01*
X17851Y11429D01*
Y11429D01*
Y11430D01*
X17851Y11432D01*
X17850Y11434D01*
X17850Y11437D01*
X17849Y11439D01*
X17847Y11442D01*
X17846Y11444D01*
X17845Y11445D01*
X17844Y11445D01*
X17843Y11447D01*
X17841Y11448D01*
X17839Y11450D01*
X17836Y11452D01*
X17832Y11454D01*
X17827Y11455D01*
X17827D01*
X17825Y11456D01*
X17823Y11457D01*
X17821Y11458D01*
X17819Y11458D01*
X17816Y11459D01*
X17813Y11460D01*
X17810Y11461D01*
X17806Y11462D01*
X17802Y11463D01*
X17797Y11464D01*
X17792Y11465D01*
X17786Y11467D01*
X17785D01*
X17784Y11467D01*
X17782Y11468D01*
X17779Y11469D01*
X17776Y11470D01*
X17772Y11471D01*
X17767Y11472D01*
X17763Y11474D01*
X17753Y11478D01*
X17744Y11482D01*
X17739Y11484D01*
X17735Y11487D01*
X17731Y11489D01*
X17728Y11492D01*
X17727Y11492D01*
X17726Y11493D01*
X17725Y11494D01*
X17724Y11496D01*
X17722Y11498D01*
X17720Y11501D01*
X17718Y11503D01*
X17716Y11507D01*
X17712Y11514D01*
X17708Y11523D01*
X17706Y11528D01*
X17705Y11533D01*
X17705Y11538D01*
X17704Y11544D01*
Y11544D01*
Y11545D01*
Y11546D01*
Y11547D01*
X17705Y11551D01*
X17706Y11556D01*
X17707Y11561D01*
X17709Y11568D01*
X17711Y11574D01*
X17715Y11581D01*
Y11581D01*
X17715Y11581D01*
X17717Y11583D01*
X17719Y11586D01*
X17723Y11590D01*
X17728Y11594D01*
X17733Y11599D01*
X17739Y11603D01*
X17747Y11606D01*
X17747D01*
X17748Y11607D01*
X17749Y11607D01*
X17750Y11608D01*
X17753Y11609D01*
X17755Y11609D01*
X17758Y11610D01*
X17761Y11611D01*
X17769Y11613D01*
X17777Y11614D01*
X17787Y11615D01*
X17797Y11616D01*
X17802D01*
X17805Y11615D01*
D02*
G37*
G36*
X18132Y11568D02*
X18056D01*
Y11355D01*
X18005D01*
Y11568D01*
X17929D01*
Y11611D01*
X18132D01*
Y11568D01*
D02*
G37*
G36*
X17569Y11610D02*
X17573D01*
X17577Y11610D01*
X17582D01*
X17591Y11609D01*
X17601Y11608D01*
X17611Y11606D01*
X17615Y11605D01*
X17618Y11604D01*
X17619D01*
X17619Y11603D01*
X17621Y11602D01*
X17625Y11600D01*
X17629Y11598D01*
X17634Y11595D01*
X17639Y11590D01*
X17644Y11585D01*
X17648Y11579D01*
Y11579D01*
X17648Y11578D01*
X17649Y11577D01*
X17650Y11576D01*
X17652Y11572D01*
X17654Y11568D01*
X17656Y11562D01*
X17658Y11555D01*
X17659Y11547D01*
X17659Y11539D01*
Y11539D01*
Y11538D01*
Y11536D01*
X17659Y11534D01*
Y11532D01*
X17659Y11529D01*
X17657Y11522D01*
X17655Y11515D01*
X17652Y11507D01*
X17648Y11499D01*
X17645Y11495D01*
X17642Y11491D01*
X17642Y11491D01*
X17642Y11491D01*
X17641Y11489D01*
X17639Y11488D01*
X17638Y11487D01*
X17635Y11485D01*
X17633Y11483D01*
X17630Y11481D01*
X17626Y11479D01*
X17622Y11477D01*
X17618Y11475D01*
X17614Y11474D01*
X17609Y11472D01*
X17604Y11470D01*
X17598Y11469D01*
X17592Y11468D01*
X17592D01*
X17592Y11467D01*
X17595Y11466D01*
X17598Y11464D01*
X17601Y11461D01*
X17606Y11458D01*
X17610Y11455D01*
X17615Y11451D01*
X17619Y11446D01*
X17619Y11446D01*
X17621Y11444D01*
X17624Y11441D01*
X17627Y11437D01*
X17631Y11431D01*
X17634Y11427D01*
X17636Y11424D01*
X17639Y11420D01*
X17642Y11415D01*
X17645Y11410D01*
X17649Y11405D01*
X17680Y11355D01*
X17618D01*
X17581Y11410D01*
X17581Y11411D01*
X17580Y11412D01*
X17579Y11413D01*
X17578Y11415D01*
X17576Y11417D01*
X17574Y11420D01*
X17570Y11426D01*
X17565Y11433D01*
X17561Y11439D01*
X17557Y11444D01*
X17555Y11446D01*
X17554Y11448D01*
X17553Y11448D01*
X17552Y11449D01*
X17551Y11451D01*
X17549Y11452D01*
X17547Y11454D01*
X17544Y11456D01*
X17541Y11457D01*
X17538Y11459D01*
X17538D01*
X17537Y11459D01*
X17535Y11460D01*
X17532Y11460D01*
X17528Y11461D01*
X17524Y11461D01*
X17518Y11462D01*
X17502D01*
Y11355D01*
X17450D01*
Y11611D01*
X17565D01*
X17569Y11610D01*
D02*
G37*
G36*
X11189Y10506D02*
X11119D01*
X11005Y10826D01*
X11075D01*
X11156Y10589D01*
X11234Y10826D01*
X11303D01*
X11189Y10506D01*
D02*
G37*
G36*
X10883Y10827D02*
X10887Y10827D01*
X10892Y10826D01*
X10897Y10825D01*
X10902Y10824D01*
X10913Y10821D01*
X10919Y10818D01*
X10926Y10815D01*
X10932Y10812D01*
X10937Y10808D01*
X10943Y10804D01*
X10948Y10798D01*
X10949Y10798D01*
X10949Y10798D01*
X10951Y10796D01*
X10952Y10794D01*
X10956Y10790D01*
X10960Y10783D01*
X10964Y10775D01*
X10967Y10766D01*
X10970Y10756D01*
X10971Y10751D01*
X10971Y10745D01*
Y10745D01*
Y10743D01*
X10971Y10741D01*
X10970Y10738D01*
X10970Y10735D01*
X10969Y10731D01*
X10967Y10726D01*
X10965Y10721D01*
X10963Y10716D01*
X10960Y10710D01*
X10956Y10705D01*
X10952Y10699D01*
X10946Y10694D01*
X10940Y10688D01*
X10933Y10683D01*
X10925Y10678D01*
X10925D01*
X10926Y10677D01*
X10928D01*
X10929Y10676D01*
X10935Y10675D01*
X10941Y10672D01*
X10947Y10669D01*
X10955Y10664D01*
X10962Y10658D01*
X10969Y10651D01*
X10970Y10650D01*
X10971Y10647D01*
X10974Y10643D01*
X10977Y10637D01*
X10980Y10630D01*
X10983Y10622D01*
X10984Y10612D01*
X10985Y10602D01*
Y10601D01*
Y10600D01*
Y10597D01*
X10985Y10595D01*
X10984Y10591D01*
X10984Y10587D01*
X10983Y10582D01*
X10982Y10577D01*
X10978Y10566D01*
X10975Y10560D01*
X10972Y10553D01*
X10969Y10547D01*
X10965Y10541D01*
X10960Y10535D01*
X10954Y10530D01*
X10954Y10529D01*
X10953Y10528D01*
X10951Y10527D01*
X10949Y10525D01*
X10946Y10523D01*
X10942Y10520D01*
X10938Y10518D01*
X10933Y10515D01*
X10928Y10512D01*
X10922Y10509D01*
X10916Y10507D01*
X10909Y10505D01*
X10902Y10503D01*
X10894Y10501D01*
X10886Y10500D01*
X10878Y10500D01*
X10874D01*
X10870Y10500D01*
X10867Y10501D01*
X10862Y10501D01*
X10858Y10502D01*
X10852Y10503D01*
X10841Y10506D01*
X10829Y10511D01*
X10823Y10513D01*
X10817Y10517D01*
X10811Y10521D01*
X10806Y10525D01*
X10805Y10525D01*
X10804Y10526D01*
X10803Y10528D01*
X10801Y10530D01*
X10799Y10532D01*
X10796Y10535D01*
X10794Y10538D01*
X10791Y10543D01*
X10788Y10547D01*
X10785Y10552D01*
X10780Y10563D01*
X10776Y10576D01*
X10774Y10583D01*
X10773Y10590D01*
X10832Y10597D01*
Y10597D01*
Y10597D01*
X10832Y10594D01*
X10833Y10590D01*
X10835Y10585D01*
X10837Y10579D01*
X10839Y10573D01*
X10843Y10567D01*
X10847Y10562D01*
X10848Y10562D01*
X10850Y10561D01*
X10852Y10559D01*
X10856Y10557D01*
X10860Y10555D01*
X10865Y10553D01*
X10871Y10551D01*
X10877Y10551D01*
X10878D01*
X10880Y10551D01*
X10884Y10552D01*
X10888Y10553D01*
X10893Y10555D01*
X10898Y10557D01*
X10904Y10561D01*
X10909Y10565D01*
X10910Y10566D01*
X10911Y10568D01*
X10913Y10571D01*
X10916Y10575D01*
X10918Y10581D01*
X10921Y10588D01*
X10922Y10596D01*
X10923Y10604D01*
Y10605D01*
Y10605D01*
Y10608D01*
X10922Y10612D01*
X10921Y10618D01*
X10919Y10624D01*
X10917Y10630D01*
X10914Y10636D01*
X10910Y10641D01*
X10909Y10642D01*
X10907Y10644D01*
X10905Y10646D01*
X10901Y10648D01*
X10897Y10651D01*
X10892Y10653D01*
X10886Y10655D01*
X10880Y10655D01*
X10875D01*
X10872Y10655D01*
X10868Y10654D01*
X10862Y10653D01*
X10857Y10652D01*
X10851Y10651D01*
X10858Y10700D01*
X10862D01*
X10867Y10701D01*
X10872Y10701D01*
X10878Y10702D01*
X10885Y10704D01*
X10891Y10707D01*
X10896Y10711D01*
X10897Y10711D01*
X10898Y10713D01*
X10900Y10715D01*
X10903Y10719D01*
X10905Y10723D01*
X10908Y10728D01*
X10909Y10734D01*
X10910Y10741D01*
Y10742D01*
Y10744D01*
X10909Y10747D01*
X10908Y10750D01*
X10907Y10755D01*
X10905Y10759D01*
X10903Y10763D01*
X10900Y10767D01*
X10899Y10768D01*
X10898Y10768D01*
X10896Y10770D01*
X10893Y10772D01*
X10889Y10774D01*
X10885Y10775D01*
X10880Y10776D01*
X10874Y10777D01*
X10871D01*
X10868Y10776D01*
X10865Y10775D01*
X10861Y10774D01*
X10856Y10772D01*
X10851Y10769D01*
X10847Y10766D01*
X10847Y10765D01*
X10845Y10764D01*
X10844Y10761D01*
X10841Y10757D01*
X10839Y10753D01*
X10837Y10748D01*
X10835Y10741D01*
X10834Y10734D01*
X10777Y10743D01*
Y10743D01*
X10778Y10744D01*
Y10746D01*
X10778Y10748D01*
X10780Y10753D01*
X10782Y10760D01*
X10784Y10768D01*
X10787Y10775D01*
X10791Y10783D01*
X10795Y10790D01*
X10795Y10791D01*
X10797Y10792D01*
X10800Y10796D01*
X10804Y10800D01*
X10808Y10804D01*
X10814Y10809D01*
X10821Y10813D01*
X10828Y10817D01*
X10829D01*
X10829Y10818D01*
X10832Y10819D01*
X10837Y10821D01*
X10842Y10822D01*
X10849Y10824D01*
X10857Y10826D01*
X10866Y10827D01*
X10876Y10828D01*
X10880D01*
X10883Y10827D01*
D02*
G37*
G36*
X10510D02*
X10515Y10827D01*
X10519Y10826D01*
X10524Y10825D01*
X10529Y10824D01*
X10540Y10821D01*
X10546Y10818D01*
X10553Y10815D01*
X10559Y10812D01*
X10564Y10808D01*
X10570Y10804D01*
X10576Y10798D01*
X10576Y10798D01*
X10576Y10798D01*
X10578Y10796D01*
X10579Y10794D01*
X10583Y10790D01*
X10587Y10783D01*
X10591Y10775D01*
X10595Y10766D01*
X10597Y10756D01*
X10598Y10751D01*
X10598Y10745D01*
Y10745D01*
Y10743D01*
X10598Y10741D01*
X10597Y10738D01*
X10597Y10735D01*
X10596Y10731D01*
X10595Y10726D01*
X10593Y10721D01*
X10590Y10716D01*
X10587Y10710D01*
X10583Y10705D01*
X10579Y10699D01*
X10573Y10694D01*
X10567Y10688D01*
X10560Y10683D01*
X10552Y10678D01*
X10552D01*
X10553Y10677D01*
X10555D01*
X10557Y10676D01*
X10562Y10675D01*
X10568Y10672D01*
X10575Y10669D01*
X10582Y10664D01*
X10589Y10658D01*
X10596Y10651D01*
X10597Y10650D01*
X10599Y10647D01*
X10601Y10643D01*
X10604Y10637D01*
X10607Y10630D01*
X10610Y10622D01*
X10612Y10612D01*
X10613Y10602D01*
Y10601D01*
Y10600D01*
Y10597D01*
X10612Y10595D01*
X10612Y10591D01*
X10611Y10587D01*
X10610Y10582D01*
X10609Y10577D01*
X10605Y10566D01*
X10602Y10560D01*
X10600Y10553D01*
X10596Y10547D01*
X10592Y10541D01*
X10587Y10535D01*
X10582Y10530D01*
X10581Y10529D01*
X10580Y10528D01*
X10578Y10527D01*
X10576Y10525D01*
X10573Y10523D01*
X10570Y10520D01*
X10565Y10518D01*
X10560Y10515D01*
X10555Y10512D01*
X10549Y10509D01*
X10543Y10507D01*
X10536Y10505D01*
X10529Y10503D01*
X10522Y10501D01*
X10513Y10500D01*
X10505Y10500D01*
X10501D01*
X10497Y10500D01*
X10494Y10501D01*
X10490Y10501D01*
X10485Y10502D01*
X10479Y10503D01*
X10468Y10506D01*
X10456Y10511D01*
X10450Y10513D01*
X10444Y10517D01*
X10438Y10521D01*
X10433Y10525D01*
X10432Y10525D01*
X10431Y10526D01*
X10430Y10528D01*
X10428Y10530D01*
X10426Y10532D01*
X10424Y10535D01*
X10421Y10538D01*
X10418Y10543D01*
X10415Y10547D01*
X10412Y10552D01*
X10407Y10563D01*
X10403Y10576D01*
X10401Y10583D01*
X10400Y10590D01*
X10459Y10597D01*
Y10597D01*
Y10597D01*
X10460Y10594D01*
X10461Y10590D01*
X10462Y10585D01*
X10464Y10579D01*
X10467Y10573D01*
X10470Y10567D01*
X10474Y10562D01*
X10475Y10562D01*
X10477Y10561D01*
X10479Y10559D01*
X10483Y10557D01*
X10487Y10555D01*
X10492Y10553D01*
X10498Y10551D01*
X10504Y10551D01*
X10505D01*
X10508Y10551D01*
X10511Y10552D01*
X10516Y10553D01*
X10521Y10555D01*
X10526Y10557D01*
X10531Y10561D01*
X10536Y10565D01*
X10537Y10566D01*
X10539Y10568D01*
X10540Y10571D01*
X10543Y10575D01*
X10546Y10581D01*
X10548Y10588D01*
X10549Y10596D01*
X10550Y10604D01*
Y10605D01*
Y10605D01*
Y10608D01*
X10549Y10612D01*
X10548Y10618D01*
X10546Y10624D01*
X10544Y10630D01*
X10541Y10636D01*
X10537Y10641D01*
X10536Y10642D01*
X10534Y10644D01*
X10532Y10646D01*
X10528Y10648D01*
X10524Y10651D01*
X10519Y10653D01*
X10513Y10655D01*
X10507Y10655D01*
X10502D01*
X10499Y10655D01*
X10495Y10654D01*
X10490Y10653D01*
X10485Y10652D01*
X10479Y10651D01*
X10485Y10700D01*
X10489D01*
X10494Y10701D01*
X10499Y10701D01*
X10505Y10702D01*
X10512Y10704D01*
X10518Y10707D01*
X10523Y10711D01*
X10524Y10711D01*
X10526Y10713D01*
X10528Y10715D01*
X10530Y10719D01*
X10533Y10723D01*
X10535Y10728D01*
X10536Y10734D01*
X10537Y10741D01*
Y10742D01*
Y10744D01*
X10536Y10747D01*
X10535Y10750D01*
X10534Y10755D01*
X10533Y10759D01*
X10530Y10763D01*
X10527Y10767D01*
X10527Y10768D01*
X10525Y10768D01*
X10523Y10770D01*
X10520Y10772D01*
X10516Y10774D01*
X10512Y10775D01*
X10507Y10776D01*
X10501Y10777D01*
X10498D01*
X10496Y10776D01*
X10492Y10775D01*
X10488Y10774D01*
X10483Y10772D01*
X10479Y10769D01*
X10474Y10766D01*
X10474Y10765D01*
X10473Y10764D01*
X10471Y10761D01*
X10468Y10757D01*
X10466Y10753D01*
X10464Y10748D01*
X10462Y10741D01*
X10461Y10734D01*
X10405Y10743D01*
Y10743D01*
X10405Y10744D01*
Y10746D01*
X10406Y10748D01*
X10407Y10753D01*
X10409Y10760D01*
X10412Y10768D01*
X10414Y10775D01*
X10418Y10783D01*
X10422Y10790D01*
X10423Y10791D01*
X10424Y10792D01*
X10427Y10796D01*
X10431Y10800D01*
X10436Y10804D01*
X10441Y10809D01*
X10448Y10813D01*
X10455Y10817D01*
X10456D01*
X10456Y10818D01*
X10459Y10819D01*
X10464Y10821D01*
X10469Y10822D01*
X10476Y10824D01*
X10485Y10826D01*
X10493Y10827D01*
X10503Y10828D01*
X10507D01*
X10510Y10827D01*
D02*
G37*
G36*
X10725Y10506D02*
X10664D01*
Y10567D01*
X10725D01*
Y10506D01*
D02*
G37*
G36*
X11113Y14656D02*
X11043D01*
X10929Y14976D01*
X10998D01*
X11080Y14739D01*
X11158Y14976D01*
X11227D01*
X11113Y14656D01*
D02*
G37*
G36*
X10901Y14914D02*
X10785D01*
X10775Y14860D01*
X10776D01*
X10776Y14860D01*
X10779Y14862D01*
X10783Y14863D01*
X10788Y14865D01*
X10795Y14867D01*
X10802Y14869D01*
X10809Y14870D01*
X10817Y14870D01*
X10822D01*
X10824Y14870D01*
X10828Y14869D01*
X10832Y14869D01*
X10836Y14868D01*
X10841Y14867D01*
X10852Y14863D01*
X10858Y14861D01*
X10864Y14858D01*
X10870Y14854D01*
X10876Y14850D01*
X10881Y14845D01*
X10887Y14840D01*
X10887Y14840D01*
X10888Y14839D01*
X10889Y14837D01*
X10891Y14835D01*
X10893Y14832D01*
X10896Y14828D01*
X10898Y14824D01*
X10901Y14820D01*
X10904Y14814D01*
X10906Y14808D01*
X10909Y14802D01*
X10911Y14796D01*
X10913Y14788D01*
X10914Y14780D01*
X10915Y14772D01*
X10915Y14763D01*
Y14763D01*
Y14761D01*
Y14759D01*
X10915Y14757D01*
Y14753D01*
X10914Y14749D01*
X10913Y14744D01*
X10913Y14740D01*
X10910Y14729D01*
X10906Y14717D01*
X10903Y14710D01*
X10900Y14704D01*
X10896Y14698D01*
X10892Y14692D01*
X10892Y14692D01*
X10891Y14690D01*
X10889Y14688D01*
X10887Y14686D01*
X10883Y14682D01*
X10879Y14679D01*
X10875Y14675D01*
X10870Y14671D01*
X10864Y14667D01*
X10857Y14663D01*
X10850Y14660D01*
X10842Y14656D01*
X10834Y14654D01*
X10825Y14652D01*
X10816Y14650D01*
X10805Y14650D01*
X10801D01*
X10798Y14650D01*
X10794Y14651D01*
X10790Y14651D01*
X10785Y14652D01*
X10779Y14653D01*
X10768Y14656D01*
X10756Y14660D01*
X10750Y14662D01*
X10744Y14666D01*
X10738Y14669D01*
X10733Y14674D01*
X10732Y14674D01*
X10731Y14674D01*
X10730Y14676D01*
X10728Y14678D01*
X10726Y14680D01*
X10724Y14683D01*
X10721Y14686D01*
X10718Y14690D01*
X10715Y14695D01*
X10712Y14699D01*
X10707Y14711D01*
X10703Y14723D01*
X10701Y14730D01*
X10700Y14737D01*
X10761Y14744D01*
Y14743D01*
X10761Y14741D01*
X10762Y14736D01*
X10764Y14732D01*
X10766Y14727D01*
X10768Y14721D01*
X10772Y14716D01*
X10776Y14711D01*
X10777Y14711D01*
X10779Y14709D01*
X10781Y14707D01*
X10785Y14705D01*
X10789Y14703D01*
X10794Y14701D01*
X10800Y14699D01*
X10806Y14699D01*
X10807D01*
X10809Y14699D01*
X10813Y14700D01*
X10818Y14701D01*
X10823Y14703D01*
X10828Y14705D01*
X10834Y14710D01*
X10839Y14715D01*
X10840Y14716D01*
X10841Y14717D01*
X10843Y14721D01*
X10846Y14727D01*
X10848Y14733D01*
X10851Y14741D01*
X10852Y14751D01*
X10852Y14762D01*
Y14762D01*
Y14763D01*
Y14765D01*
Y14767D01*
X10852Y14772D01*
X10851Y14778D01*
X10849Y14786D01*
X10847Y14793D01*
X10844Y14800D01*
X10839Y14806D01*
X10839Y14807D01*
X10837Y14808D01*
X10834Y14811D01*
X10830Y14814D01*
X10825Y14817D01*
X10819Y14819D01*
X10812Y14821D01*
X10804Y14821D01*
X10802D01*
X10800Y14821D01*
X10795Y14820D01*
X10789Y14819D01*
X10781Y14816D01*
X10773Y14812D01*
X10769Y14809D01*
X10765Y14806D01*
X10761Y14802D01*
X10757Y14798D01*
X10707Y14805D01*
X10739Y14972D01*
X10901D01*
Y14914D01*
D02*
G37*
%LPC*%
G36*
X20915Y10346D02*
X20914D01*
X20913D01*
X20911Y10346D01*
X20908Y10345D01*
X20906Y10344D01*
X20903Y10343D01*
X20900Y10342D01*
X20897Y10339D01*
X20897Y10339D01*
X20896Y10338D01*
X20895Y10337D01*
X20893Y10335D01*
X20892Y10333D01*
X20890Y10330D01*
X20889Y10327D01*
X20889Y10324D01*
Y10324D01*
X20888Y10323D01*
X20888Y10321D01*
X20888Y10318D01*
Y10314D01*
X20887Y10312D01*
Y10309D01*
X20887Y10307D01*
Y10278D01*
X20942D01*
Y10304D01*
X20941Y10306D01*
Y10311D01*
X20941Y10316D01*
X20941Y10321D01*
X20940Y10326D01*
X20939Y10328D01*
X20939Y10329D01*
X20939Y10329D01*
X20938Y10331D01*
X20938Y10332D01*
X20937Y10334D01*
X20935Y10336D01*
X20934Y10338D01*
X20932Y10340D01*
X20930Y10341D01*
X20929Y10342D01*
X20928Y10342D01*
X20927Y10343D01*
X20925Y10344D01*
X20923Y10344D01*
X20920Y10345D01*
X20918Y10346D01*
X20915Y10346D01*
D02*
G37*
G36*
Y11246D02*
X20914D01*
X20913D01*
X20911Y11246D01*
X20908Y11245D01*
X20906Y11244D01*
X20903Y11243D01*
X20900Y11242D01*
X20897Y11239D01*
X20897Y11239D01*
X20896Y11238D01*
X20895Y11237D01*
X20893Y11235D01*
X20892Y11233D01*
X20890Y11230D01*
X20889Y11227D01*
X20889Y11224D01*
Y11224D01*
X20888Y11223D01*
X20888Y11221D01*
X20888Y11218D01*
Y11214D01*
X20887Y11212D01*
Y11209D01*
X20887Y11207D01*
Y11178D01*
X20942D01*
Y11204D01*
X20941Y11206D01*
Y11211D01*
X20941Y11216D01*
X20941Y11221D01*
X20940Y11226D01*
X20939Y11228D01*
X20939Y11229D01*
X20939Y11229D01*
X20938Y11231D01*
X20938Y11232D01*
X20937Y11234D01*
X20935Y11236D01*
X20934Y11238D01*
X20932Y11240D01*
X20930Y11241D01*
X20929Y11242D01*
X20928Y11242D01*
X20927Y11243D01*
X20925Y11244D01*
X20923Y11244D01*
X20920Y11245D01*
X20918Y11246D01*
X20915Y11246D01*
D02*
G37*
G36*
X12253Y13995D02*
X12252D01*
X12251D01*
X12249D01*
X12246Y13994D01*
X12242D01*
X12238Y13994D01*
X12229Y13993D01*
X12219Y13990D01*
X12208Y13987D01*
X12198Y13982D01*
X12189Y13975D01*
X12188Y13974D01*
X12185Y13972D01*
X12182Y13968D01*
X12178Y13962D01*
X12174Y13955D01*
X12170Y13947D01*
X12168Y13937D01*
X12167Y13927D01*
Y13924D01*
X12168Y13922D01*
X12168Y13917D01*
X12170Y13910D01*
X12173Y13902D01*
X12176Y13894D01*
X12181Y13886D01*
X12189Y13878D01*
X12190Y13877D01*
X12193Y13875D01*
X12198Y13872D01*
X12205Y13868D01*
X12214Y13864D01*
X12225Y13862D01*
X12238Y13859D01*
X12253Y13858D01*
X12253D01*
X12254D01*
X12256D01*
X12259Y13859D01*
X12263D01*
X12267Y13859D01*
X12276Y13861D01*
X12286Y13863D01*
X12296Y13867D01*
X12307Y13872D01*
X12316Y13878D01*
X12317Y13879D01*
X12319Y13882D01*
X12323Y13886D01*
X12327Y13892D01*
X12331Y13899D01*
X12335Y13907D01*
X12337Y13916D01*
X12338Y13927D01*
Y13929D01*
X12337Y13932D01*
X12337Y13937D01*
X12335Y13943D01*
X12332Y13951D01*
X12329Y13959D01*
X12323Y13968D01*
X12316Y13975D01*
X12315Y13976D01*
X12312Y13978D01*
X12306Y13982D01*
X12300Y13985D01*
X12291Y13989D01*
X12280Y13992D01*
X12267Y13994D01*
X12253Y13995D01*
D02*
G37*
G36*
X12276Y13222D02*
Y13112D01*
X12276D01*
X12277D01*
X12279D01*
X12281Y13113D01*
X12287Y13114D01*
X12294Y13115D01*
X12301Y13117D01*
X12310Y13120D01*
X12317Y13124D01*
X12324Y13129D01*
X12325Y13130D01*
X12327Y13132D01*
X12330Y13135D01*
X12333Y13140D01*
X12336Y13145D01*
X12339Y13152D01*
X12341Y13159D01*
X12341Y13167D01*
Y13171D01*
X12340Y13176D01*
X12339Y13181D01*
X12337Y13187D01*
X12334Y13194D01*
X12330Y13201D01*
X12324Y13207D01*
X12323Y13207D01*
X12320Y13209D01*
X12316Y13212D01*
X12311Y13215D01*
X12304Y13218D01*
X12296Y13220D01*
X12286Y13222D01*
X12276Y13222D01*
D02*
G37*
G36*
X12196Y12329D02*
X12196D01*
X12194D01*
X12191Y12328D01*
X12188Y12327D01*
X12183Y12326D01*
X12179Y12324D01*
X12174Y12322D01*
X12170Y12318D01*
X12169Y12317D01*
X12168Y12315D01*
X12167Y12313D01*
X12164Y12309D01*
X12162Y12305D01*
X12160Y12300D01*
X12159Y12294D01*
X12159Y12288D01*
Y12285D01*
X12159Y12281D01*
X12160Y12276D01*
X12162Y12270D01*
X12164Y12264D01*
X12167Y12257D01*
X12171Y12250D01*
X12172Y12249D01*
X12173Y12248D01*
X12175Y12246D01*
X12178Y12243D01*
X12182Y12240D01*
X12186Y12237D01*
X12191Y12234D01*
X12196Y12233D01*
X12196D01*
X12198Y12232D01*
X12200Y12232D01*
X12204Y12231D01*
X12209Y12231D01*
X12215Y12230D01*
X12223Y12229D01*
X12231D01*
X12246D01*
Y12230D01*
X12245Y12232D01*
X12245Y12236D01*
X12243Y12241D01*
X12241Y12247D01*
X12239Y12255D01*
X12237Y12264D01*
X12235Y12275D01*
Y12276D01*
X12234Y12278D01*
X12234Y12280D01*
X12233Y12285D01*
X12231Y12292D01*
X12229Y12298D01*
X12227Y12305D01*
X12224Y12310D01*
X12222Y12315D01*
X12221Y12315D01*
X12220Y12317D01*
X12218Y12319D01*
X12215Y12322D01*
X12211Y12324D01*
X12207Y12327D01*
X12202Y12328D01*
X12196Y12329D01*
D02*
G37*
G36*
X12258Y12025D02*
X12258D01*
X12256D01*
X12254D01*
X12251D01*
X12247Y12025D01*
X12243D01*
X12234Y12024D01*
X12223Y12022D01*
X12212Y12020D01*
X12202Y12017D01*
X12198Y12015D01*
X12194Y12013D01*
X12193D01*
X12193Y12012D01*
X12189Y12010D01*
X12185Y12006D01*
X12180Y12000D01*
X12174Y11993D01*
X12170Y11985D01*
X12167Y11975D01*
X12166Y11969D01*
X12165Y11964D01*
Y11962D01*
X12166Y11959D01*
X12167Y11955D01*
X12168Y11949D01*
X12170Y11942D01*
X12174Y11935D01*
X12179Y11928D01*
X12186Y11920D01*
X12188Y11920D01*
X12190Y11918D01*
X12195Y11915D01*
X12203Y11911D01*
X12211Y11908D01*
X12223Y11905D01*
X12236Y11903D01*
X12251Y11903D01*
X12251D01*
X12253D01*
X12255D01*
X12259D01*
X12263Y11903D01*
X12268Y11904D01*
X12277Y11905D01*
X12289Y11907D01*
X12300Y11910D01*
X12311Y11914D01*
X12316Y11917D01*
X12320Y11920D01*
X12321Y11921D01*
X12324Y11924D01*
X12327Y11927D01*
X12331Y11932D01*
X12335Y11939D01*
X12338Y11946D01*
X12340Y11955D01*
X12341Y11964D01*
Y11965D01*
X12341Y11969D01*
X12340Y11974D01*
X12339Y11979D01*
X12336Y11986D01*
X12332Y11994D01*
X12327Y12001D01*
X12320Y12008D01*
X12319Y12009D01*
X12316Y12011D01*
X12311Y12014D01*
X12305Y12016D01*
X12296Y12020D01*
X12285Y12022D01*
X12273Y12025D01*
X12258Y12025D01*
D02*
G37*
G36*
X12258Y11697D02*
X12257D01*
X12256D01*
X12253D01*
X12250Y11697D01*
X12247D01*
X12243Y11696D01*
X12233Y11695D01*
X12223Y11693D01*
X12212Y11690D01*
X12202Y11686D01*
X12193Y11681D01*
X12192Y11680D01*
X12190Y11677D01*
X12186Y11674D01*
X12183Y11669D01*
X12179Y11663D01*
X12176Y11656D01*
X12174Y11647D01*
X12173Y11638D01*
Y11637D01*
X12173Y11634D01*
X12174Y11629D01*
X12175Y11622D01*
X12178Y11615D01*
X12181Y11608D01*
X12186Y11600D01*
X12194Y11593D01*
X12195Y11592D01*
X12198Y11590D01*
X12203Y11587D01*
X12209Y11583D01*
X12218Y11580D01*
X12229Y11577D01*
X12241Y11575D01*
X12256Y11574D01*
X12256D01*
X12258D01*
X12260D01*
X12263D01*
X12266Y11575D01*
X12271Y11575D01*
X12280Y11576D01*
X12291Y11578D01*
X12301Y11581D01*
X12311Y11586D01*
X12320Y11592D01*
X12321Y11592D01*
X12324Y11595D01*
X12327Y11599D01*
X12331Y11604D01*
X12335Y11611D01*
X12338Y11618D01*
X12340Y11627D01*
X12341Y11637D01*
Y11638D01*
X12341Y11641D01*
X12340Y11646D01*
X12339Y11652D01*
X12336Y11659D01*
X12332Y11667D01*
X12327Y11674D01*
X12320Y11681D01*
X12319Y11681D01*
X12316Y11683D01*
X12311Y11686D01*
X12305Y11689D01*
X12296Y11692D01*
X12285Y11694D01*
X12273Y11697D01*
X12258Y11697D01*
D02*
G37*
G36*
X12276Y11373D02*
Y11263D01*
X12276D01*
X12277D01*
X12279D01*
X12281Y11264D01*
X12287Y11264D01*
X12294Y11265D01*
X12301Y11268D01*
X12310Y11270D01*
X12317Y11275D01*
X12324Y11280D01*
X12325Y11280D01*
X12327Y11283D01*
X12330Y11286D01*
X12333Y11290D01*
X12336Y11296D01*
X12339Y11303D01*
X12341Y11310D01*
X12341Y11318D01*
Y11322D01*
X12340Y11326D01*
X12339Y11332D01*
X12337Y11338D01*
X12334Y11345D01*
X12330Y11351D01*
X12324Y11358D01*
X12323Y11358D01*
X12320Y11360D01*
X12316Y11363D01*
X12311Y11365D01*
X12304Y11369D01*
X12296Y11371D01*
X12286Y11373D01*
X12276Y11373D01*
D02*
G37*
G36*
X17561Y11568D02*
X17502D01*
Y11502D01*
X17552D01*
X17560Y11503D01*
X17567Y11503D01*
X17575Y11504D01*
X17578Y11504D01*
X17581Y11504D01*
X17584Y11505D01*
X17586Y11505D01*
X17587D01*
X17588Y11506D01*
X17589Y11507D01*
X17591Y11508D01*
X17596Y11511D01*
X17598Y11514D01*
X17601Y11516D01*
X17601Y11516D01*
X17601Y11518D01*
X17602Y11519D01*
X17604Y11521D01*
X17604Y11524D01*
X17605Y11528D01*
X17606Y11531D01*
X17606Y11535D01*
Y11536D01*
Y11538D01*
X17606Y11540D01*
X17605Y11543D01*
X17604Y11546D01*
X17603Y11549D01*
X17601Y11553D01*
X17599Y11556D01*
X17599Y11556D01*
X17598Y11558D01*
X17596Y11559D01*
X17594Y11561D01*
X17591Y11562D01*
X17588Y11564D01*
X17584Y11565D01*
X17579Y11566D01*
X17579D01*
X17578Y11567D01*
X17576D01*
X17572Y11567D01*
X17564D01*
X17561Y11568D01*
D02*
G37*
%LPD*%
D10*
X18850Y14914D02*
G03*
X18850Y14914I-59J0D01*
G01*
D11*
X20967Y14862D02*
G03*
X21167Y15062I0J200D01*
G01*
X20773D02*
G03*
X20973Y14862I200J0D01*
G01*
X21169Y15062D02*
X21462D01*
X20438D02*
X20769D01*
D12*
X20046Y15305D02*
G03*
X20046Y15305I-61J0D01*
G01*
X11650Y11000D02*
Y14350D01*
D13*
X12699Y11900D02*
G03*
X12699Y11900I-49J0D01*
G01*
D14*
X18693Y11883D02*
X18889D01*
Y12080D01*
X16055Y11883D02*
Y12080D01*
Y11883D02*
X16252D01*
X16055Y14717D02*
X16252D01*
X16055Y14520D02*
Y14717D01*
X18693D02*
X18889D01*
Y14520D02*
Y14717D01*
D15*
X11900Y11000D02*
Y14350D01*
X10850Y12750D02*
X10900Y12650D01*
X10850Y12750D02*
X10950Y12700D01*
X10850Y12600D02*
X10950Y12700D01*
X10864Y12855D02*
X10929Y12801D01*
X10857Y12802D02*
X11000Y12800D01*
X10795Y12934D02*
X10803Y12556D01*
X10698Y12491D02*
X10707Y13014D01*
X10850Y12600D02*
Y12900D01*
X10750Y12500D02*
Y13000D01*
X10591Y13076D02*
X10606Y12412D01*
X10650Y12450D02*
Y13050D01*
X10550Y12400D02*
Y13100D01*
X10500Y12350D02*
Y13150D01*
X10450Y12300D02*
Y13200D01*
X10400Y12250D02*
X11100Y12750D01*
X10400Y13250D02*
X11100Y12750D01*
X10400D02*
X11100D01*
X10400Y12250D02*
Y13250D01*
X10500Y11150D02*
X11250D01*
X10500Y11300D02*
X11250D01*
Y11150D02*
Y11300D01*
X10500Y11225D02*
X11250D01*
X10521Y11185D02*
X11250Y11187D01*
X10500Y11265D02*
X11230Y11268D01*
X10498Y11377D02*
X10500Y11300D01*
Y11050D02*
Y11150D01*
X10331Y11226D02*
X10500Y11225D01*
X10331Y11226D02*
X10500Y11050D01*
X10331Y11226D02*
X10498Y11377D01*
X10414Y11301D02*
X10500Y11265D01*
X10399Y11267D02*
X10500Y11265D01*
X10394Y11185D02*
X10521Y11185D01*
X10415Y11138D02*
X10500Y11185D01*
X10415Y11138D02*
X10500Y11100D01*
X11050Y14300D02*
X11135Y14262D01*
X11050Y14215D02*
X11135Y14262D01*
X11029Y14215D02*
X11156Y14215D01*
X11050Y14135D02*
X11151Y14133D01*
X11050Y14135D02*
X11136Y14099D01*
X11050Y14100D02*
X11136Y14099D01*
X11052Y14023D02*
X11219Y14174D01*
X11050Y14350D02*
X11219Y14174D01*
X11050Y14175D02*
X11219Y14174D01*
X11050Y14250D02*
Y14350D01*
Y14100D02*
X11052Y14023D01*
X10320Y14132D02*
X11050Y14135D01*
X10300Y14212D02*
X11029Y14215D01*
X10300Y14175D02*
X11050D01*
X10300D02*
Y14250D01*
Y14100D02*
Y14250D01*
Y14100D02*
X11050D01*
Y14250D01*
X10300D02*
X11050D01*
X19960Y10210D02*
X20000Y10250D01*
X19970Y11390D02*
X20010Y11350D01*
X18230Y11390D02*
X19970D01*
X18190Y11350D02*
X18230Y11390D01*
X18240Y10210D02*
X19960D01*
X18200Y10250D02*
X18240Y10210D01*
X13015Y10315D02*
Y10518D01*
Y12082D02*
Y12285D01*
X14782D02*
X14985D01*
Y10315D02*
Y10518D01*
X13015Y10315D02*
X13218D01*
X13015Y12285D02*
X13218D01*
X14782Y10315D02*
X14985D01*
Y12082D02*
Y12285D01*
D16*
X15800Y10110D02*
X16250D01*
X15800Y10120D02*
Y10560D01*
X20438Y14038D02*
X21462D01*
Y15062D01*
X20438Y14038D02*
Y15062D01*
X13490Y14371D02*
Y14804D01*
X13824D01*
X14710Y14371D02*
Y14804D01*
X14376D02*
X14710D01*
D17*
X15850Y10150D02*
Y11450D01*
Y10150D02*
X17350D01*
Y11450D01*
X15850D02*
X17350D01*
D18*
X17510Y10385D02*
Y10420D01*
X17690Y10385D02*
Y10420D01*
X17510D02*
X17690D01*
X17510Y10385D02*
X17690D01*
X17510Y10515D02*
X17690D01*
X17510Y10480D02*
X17690D01*
X17510D02*
Y10515D01*
X17690Y10480D02*
Y10515D01*
X15640Y10480D02*
Y10515D01*
X15460Y10480D02*
Y10515D01*
Y10480D02*
X15640D01*
X15460Y10515D02*
X15640D01*
X15460Y10385D02*
X15640D01*
X15460Y10420D02*
X15640D01*
Y10385D02*
Y10420D01*
X15460Y10385D02*
Y10420D01*
X20040Y12130D02*
Y12165D01*
X19860Y12130D02*
Y12165D01*
Y12130D02*
X20040D01*
X19860Y12165D02*
X20040D01*
X19860Y12035D02*
X20040D01*
X19860Y12070D02*
X20040D01*
Y12035D02*
Y12070D01*
X19860Y12035D02*
Y12070D01*
X19830Y13660D02*
X19865D01*
X19830Y13840D02*
X19865D01*
X19830Y13660D02*
Y13840D01*
X19865Y13660D02*
Y13840D01*
X19735Y13660D02*
Y13840D01*
X19770Y13660D02*
Y13840D01*
X19735Y13660D02*
X19770D01*
X19735Y13840D02*
X19770D01*
X15985Y15340D02*
X16020D01*
X15985Y15160D02*
X16020D01*
Y15340D01*
X15985Y15160D02*
Y15340D01*
X16115Y15160D02*
Y15340D01*
X16080Y15160D02*
Y15340D01*
X16115D01*
X16080Y15160D02*
X16115D01*
X19455Y12035D02*
Y12165D01*
X19490D01*
Y12035D02*
Y12165D01*
X19455Y12035D02*
X19490D01*
X19610Y12165D02*
X19645Y12165D01*
X19610Y12035D02*
Y12165D01*
Y12035D02*
X19645Y12035D01*
Y12165D01*
X20640Y11230D02*
Y11265D01*
X20460Y11230D02*
Y11265D01*
Y11230D02*
X20640D01*
X20460Y11265D02*
X20640D01*
X20460Y11135D02*
X20640D01*
X20460Y11170D02*
X20640D01*
Y11135D02*
Y11170D01*
X20460Y11135D02*
Y11170D01*
X20455Y10335D02*
Y10465D01*
X20490D01*
Y10335D02*
Y10465D01*
X20455Y10335D02*
X20490D01*
X20610Y10465D02*
X20645Y10465D01*
X20610Y10335D02*
Y10465D01*
Y10335D02*
X20645Y10335D01*
Y10465D01*
X20660Y12035D02*
Y12070D01*
X20840Y12035D02*
Y12070D01*
X20660D02*
X20840D01*
X20660Y12035D02*
X20840D01*
X20660Y12165D02*
X20840D01*
X20660Y12130D02*
X20840D01*
X20660D02*
Y12165D01*
X20840Y12130D02*
Y12165D01*
X19735Y13140D02*
X19770D01*
X19735Y12960D02*
X19770D01*
Y13140D01*
X19735Y12960D02*
Y13140D01*
X19865Y12960D02*
Y13140D01*
X19830Y12960D02*
Y13140D01*
X19865D01*
X19830Y12960D02*
X19865D01*
X20260Y12035D02*
Y12070D01*
X20440Y12035D02*
Y12070D01*
X20260D02*
X20440D01*
X20260Y12035D02*
X20440D01*
X20260Y12165D02*
X20440D01*
X20260Y12130D02*
X20440D01*
X20260D02*
Y12165D01*
X20440Y12130D02*
Y12165D01*
X20630Y12560D02*
X20665D01*
X20630Y12740D02*
X20665D01*
X20630Y12560D02*
Y12740D01*
X20665Y12560D02*
Y12740D01*
X20535Y12560D02*
Y12740D01*
X20570Y12560D02*
Y12740D01*
X20535Y12560D02*
X20570D01*
X20535Y12740D02*
X20570D01*
X19735Y13490D02*
X19770D01*
X19735Y13310D02*
X19770D01*
Y13490D01*
X19735Y13310D02*
Y13490D01*
X19865Y13310D02*
Y13490D01*
X19830Y13310D02*
Y13490D01*
X19865D01*
X19830Y13310D02*
X19865D01*
X20630D02*
X20665D01*
X20630Y13490D02*
X20665D01*
X20630Y13310D02*
Y13490D01*
X20665Y13310D02*
Y13490D01*
X20535Y13310D02*
Y13490D01*
X20570Y13310D02*
Y13490D01*
X20535Y13310D02*
X20570D01*
X20535Y13490D02*
X20570D01*
X20630Y12960D02*
X20665D01*
X20630Y13140D02*
X20665D01*
X20630Y12960D02*
Y13140D01*
X20665Y12960D02*
Y13140D01*
X20535Y12960D02*
Y13140D01*
X20570Y12960D02*
Y13140D01*
X20535Y12960D02*
X20570D01*
X20535Y13140D02*
X20570D01*
X15235Y12945D02*
X15365D01*
Y12910D02*
Y12945D01*
X15235Y12910D02*
X15365D01*
X15235D02*
Y12945D01*
X15365Y12790D02*
X15365Y12755D01*
X15235Y12790D02*
X15365D01*
X15235Y12755D02*
X15235Y12790D01*
X15235Y12755D02*
X15365D01*
X15235Y12595D02*
X15365D01*
Y12560D02*
Y12595D01*
X15235Y12560D02*
X15365D01*
X15235D02*
Y12595D01*
X15365Y12440D02*
X15365Y12405D01*
X15235Y12440D02*
X15365D01*
X15235Y12405D02*
X15235Y12440D01*
X15235Y12405D02*
X15365D01*
X15645Y11135D02*
Y11265D01*
X15610Y11135D02*
X15645D01*
X15610D02*
Y11265D01*
X15645D01*
X15455Y11135D02*
X15490Y11135D01*
Y11265D01*
X15455Y11265D02*
X15490Y11265D01*
X15455Y11135D02*
Y11265D01*
X20630Y13660D02*
X20665D01*
X20630Y13840D02*
X20665D01*
X20630Y13660D02*
Y13840D01*
X20665Y13660D02*
Y13840D01*
X20535Y13660D02*
Y13840D01*
X20570Y13660D02*
Y13840D01*
X20535Y13660D02*
X20570D01*
X20535Y13840D02*
X20570D01*
X19255Y14985D02*
Y15115D01*
X19290D01*
Y14985D02*
Y15115D01*
X19255Y14985D02*
X19290D01*
X19410Y15115D02*
X19445Y15115D01*
X19410Y14985D02*
Y15115D01*
Y14985D02*
X19445Y14985D01*
Y15115D01*
X21560Y13385D02*
Y13420D01*
X21740Y13385D02*
Y13420D01*
X21560D02*
X21740D01*
X21560Y13385D02*
X21740D01*
X21560Y13515D02*
X21740D01*
X21560Y13480D02*
X21740D01*
X21560D02*
Y13515D01*
X21740Y13480D02*
Y13515D01*
X21960Y13385D02*
Y13420D01*
X22140Y13385D02*
Y13420D01*
X21960D02*
X22140D01*
X21960Y13385D02*
X22140D01*
X21960Y13515D02*
X22140D01*
X21960Y13480D02*
X22140D01*
X21960D02*
Y13515D01*
X22140Y13480D02*
Y13515D01*
X19440Y14330D02*
Y14365D01*
X19260Y14330D02*
Y14365D01*
Y14330D02*
X19440D01*
X19260Y14365D02*
X19440D01*
X19260Y14235D02*
X19440D01*
X19260Y14270D02*
X19440D01*
Y14235D02*
Y14270D01*
X19260Y14235D02*
Y14270D01*
X21785Y12945D02*
X21915D01*
Y12910D02*
Y12945D01*
X21785Y12910D02*
X21915D01*
X21785D02*
Y12945D01*
X21915Y12790D02*
X21915Y12755D01*
X21785Y12790D02*
X21915D01*
X21785Y12755D02*
X21785Y12790D01*
X21785Y12755D02*
X21915D01*
X21785Y12545D02*
X21915D01*
Y12510D02*
Y12545D01*
X21785Y12510D02*
X21915D01*
X21785D02*
Y12545D01*
X21915Y12390D02*
X21915Y12355D01*
X21785Y12390D02*
X21915D01*
X21785Y12355D02*
X21785Y12390D01*
X21785Y12355D02*
X21915D01*
X12485Y10205D02*
X12615D01*
X12485D02*
Y10240D01*
X12615D01*
Y10205D02*
Y10240D01*
X12485Y10395D02*
X12485Y10360D01*
X12615D01*
X12615Y10395D01*
X12485D02*
X12615D01*
X21785Y12140D02*
X21820D01*
X21785Y11960D02*
X21820D01*
Y12140D01*
X21785Y11960D02*
Y12140D01*
X21915Y11960D02*
Y12140D01*
X21880Y11960D02*
Y12140D01*
X21915D01*
X21880Y11960D02*
X21915D01*
X12840Y14830D02*
Y14865D01*
X12660Y14830D02*
Y14865D01*
Y14830D02*
X12840D01*
X12660Y14865D02*
X12840D01*
X12660Y14735D02*
X12840D01*
X12660Y14770D02*
X12840D01*
Y14735D02*
Y14770D01*
X12660Y14735D02*
Y14770D01*
X13240Y14830D02*
Y14865D01*
X13060Y14830D02*
Y14865D01*
Y14830D02*
X13240D01*
X13060Y14865D02*
X13240D01*
X13060Y14735D02*
X13240D01*
X13060Y14770D02*
X13240D01*
Y14735D02*
Y14770D01*
X13060Y14735D02*
Y14770D01*
X13240Y14080D02*
Y14115D01*
X13060Y14080D02*
Y14115D01*
Y14080D02*
X13240D01*
X13060Y14115D02*
X13240D01*
X13060Y13985D02*
X13240D01*
X13060Y14020D02*
X13240D01*
Y13985D02*
Y14020D01*
X13060Y13985D02*
Y14020D01*
X12655Y12535D02*
Y12665D01*
X12690D01*
Y12535D02*
Y12665D01*
X12655Y12535D02*
X12690D01*
X12810Y12665D02*
X12845Y12665D01*
X12810Y12535D02*
Y12665D01*
Y12535D02*
X12845Y12535D01*
Y12665D01*
X12660Y13985D02*
Y14020D01*
X12840Y13985D02*
Y14020D01*
X12660D02*
X12840D01*
X12660Y13985D02*
X12840D01*
X12660Y14115D02*
X12840D01*
X12660Y14080D02*
X12840D01*
X12660D02*
Y14115D01*
X12840Y14080D02*
Y14115D01*
X11005Y10195D02*
Y10405D01*
X10965Y10195D02*
Y10275D01*
X10895D02*
Y10325D01*
X10965D02*
Y10405D01*
X11005D01*
X10895Y10275D02*
X10965D01*
X10895Y10325D02*
X10965D01*
Y10195D02*
X11005D01*
X11685Y10395D02*
X11815D01*
Y10360D02*
Y10395D01*
X11685Y10360D02*
X11815D01*
X11685D02*
Y10395D01*
X11815Y10240D02*
X11815Y10205D01*
X11685Y10240D02*
X11815D01*
X11685Y10205D02*
X11685Y10240D01*
X11685Y10205D02*
X11815D01*
X11005Y15045D02*
Y15255D01*
X10965Y15045D02*
Y15125D01*
X10895D02*
Y15175D01*
X10965D02*
Y15255D01*
X11005D01*
X10895Y15125D02*
X10965D01*
X10895Y15175D02*
X10965D01*
Y15045D02*
X11005D01*
X11685Y15245D02*
X11815D01*
Y15210D02*
Y15245D01*
X11685Y15210D02*
X11815D01*
X11685D02*
Y15245D01*
X11815Y15090D02*
X11815Y15055D01*
X11685Y15090D02*
X11815D01*
X11685Y15055D02*
X11685Y15090D01*
X11685Y15055D02*
X11815D01*
M02*
