G04*
G04 #@! TF.GenerationSoftware,Altium Limited,Altium Designer,21.6.4 (81)*
G04*
G04 Layer_Physical_Order=4*
G04 Layer_Color=16711680*
%FSLAX24Y24*%
%MOIN*%
G70*
G04*
G04 #@! TF.SameCoordinates,18F95803-63CF-49D0-9880-B3B199DA49BA*
G04*
G04*
G04 #@! TF.FilePolarity,Positive*
G04*
G01*
G75*
%ADD11C,0.0080*%
%ADD12C,0.0150*%
%ADD15C,0.0060*%
G04:AMPARAMS|DCode=28|XSize=20mil|YSize=20mil|CornerRadius=5mil|HoleSize=0mil|Usage=FLASHONLY|Rotation=180.000|XOffset=0mil|YOffset=0mil|HoleType=Round|Shape=RoundedRectangle|*
%AMROUNDEDRECTD28*
21,1,0.0200,0.0100,0,0,180.0*
21,1,0.0100,0.0200,0,0,180.0*
1,1,0.0100,-0.0050,0.0050*
1,1,0.0100,0.0050,0.0050*
1,1,0.0100,0.0050,-0.0050*
1,1,0.0100,-0.0050,-0.0050*
%
%ADD28ROUNDEDRECTD28*%
G04:AMPARAMS|DCode=29|XSize=20mil|YSize=20mil|CornerRadius=5mil|HoleSize=0mil|Usage=FLASHONLY|Rotation=270.000|XOffset=0mil|YOffset=0mil|HoleType=Round|Shape=RoundedRectangle|*
%AMROUNDEDRECTD29*
21,1,0.0200,0.0100,0,0,270.0*
21,1,0.0100,0.0200,0,0,270.0*
1,1,0.0100,-0.0050,-0.0050*
1,1,0.0100,-0.0050,0.0050*
1,1,0.0100,0.0050,0.0050*
1,1,0.0100,0.0050,-0.0050*
%
%ADD29ROUNDEDRECTD29*%
G04:AMPARAMS|DCode=37|XSize=23.6mil|YSize=35mil|CornerRadius=5.9mil|HoleSize=0mil|Usage=FLASHONLY|Rotation=180.000|XOffset=0mil|YOffset=0mil|HoleType=Round|Shape=RoundedRectangle|*
%AMROUNDEDRECTD37*
21,1,0.0236,0.0232,0,0,180.0*
21,1,0.0118,0.0350,0,0,180.0*
1,1,0.0118,-0.0059,0.0116*
1,1,0.0118,0.0059,0.0116*
1,1,0.0118,0.0059,-0.0116*
1,1,0.0118,-0.0059,-0.0116*
%
%ADD37ROUNDEDRECTD37*%
%ADD58C,0.0040*%
%ADD59C,0.0050*%
%ADD60O,0.0984X0.0394*%
%ADD61C,0.0180*%
%ADD62C,0.0200*%
%ADD63C,0.0280*%
%ADD64R,0.0787X0.0472*%
G04:AMPARAMS|DCode=65|XSize=25mil|YSize=40mil|CornerRadius=6.3mil|HoleSize=0mil|Usage=FLASHONLY|Rotation=0.000|XOffset=0mil|YOffset=0mil|HoleType=Round|Shape=RoundedRectangle|*
%AMROUNDEDRECTD65*
21,1,0.0250,0.0275,0,0,0.0*
21,1,0.0125,0.0400,0,0,0.0*
1,1,0.0125,0.0063,-0.0138*
1,1,0.0125,-0.0063,-0.0138*
1,1,0.0125,-0.0063,0.0138*
1,1,0.0125,0.0063,0.0138*
%
%ADD65ROUNDEDRECTD65*%
%ADD66R,0.3700X0.2000*%
G04:AMPARAMS|DCode=67|XSize=260mil|YSize=35mil|CornerRadius=8.8mil|HoleSize=0mil|Usage=FLASHONLY|Rotation=90.000|XOffset=0mil|YOffset=0mil|HoleType=Round|Shape=RoundedRectangle|*
%AMROUNDEDRECTD67*
21,1,0.2600,0.0175,0,0,90.0*
21,1,0.2425,0.0350,0,0,90.0*
1,1,0.0175,0.0088,0.1213*
1,1,0.0175,0.0088,-0.1213*
1,1,0.0175,-0.0088,-0.1213*
1,1,0.0175,-0.0088,0.1213*
%
%ADD67ROUNDEDRECTD67*%
G04:AMPARAMS|DCode=68|XSize=27.6mil|YSize=59.1mil|CornerRadius=6.9mil|HoleSize=0mil|Usage=FLASHONLY|Rotation=0.000|XOffset=0mil|YOffset=0mil|HoleType=Round|Shape=RoundedRectangle|*
%AMROUNDEDRECTD68*
21,1,0.0276,0.0453,0,0,0.0*
21,1,0.0138,0.0591,0,0,0.0*
1,1,0.0138,0.0069,-0.0226*
1,1,0.0138,-0.0069,-0.0226*
1,1,0.0138,-0.0069,0.0226*
1,1,0.0138,0.0069,0.0226*
%
%ADD68ROUNDEDRECTD68*%
G04:AMPARAMS|DCode=69|XSize=44mil|YSize=40mil|CornerRadius=10mil|HoleSize=0mil|Usage=FLASHONLY|Rotation=0.000|XOffset=0mil|YOffset=0mil|HoleType=Round|Shape=RoundedRectangle|*
%AMROUNDEDRECTD69*
21,1,0.0440,0.0200,0,0,0.0*
21,1,0.0240,0.0400,0,0,0.0*
1,1,0.0200,0.0120,-0.0100*
1,1,0.0200,-0.0120,-0.0100*
1,1,0.0200,-0.0120,0.0100*
1,1,0.0200,0.0120,0.0100*
%
%ADD69ROUNDEDRECTD69*%
%ADD70C,0.0354*%
G04:AMPARAMS|DCode=71|XSize=17.7mil|YSize=29.5mil|CornerRadius=4.4mil|HoleSize=0mil|Usage=FLASHONLY|Rotation=90.000|XOffset=0mil|YOffset=0mil|HoleType=Round|Shape=RoundedRectangle|*
%AMROUNDEDRECTD71*
21,1,0.0177,0.0207,0,0,90.0*
21,1,0.0089,0.0295,0,0,90.0*
1,1,0.0089,0.0103,0.0044*
1,1,0.0089,0.0103,-0.0044*
1,1,0.0089,-0.0103,-0.0044*
1,1,0.0089,-0.0103,0.0044*
%
%ADD71ROUNDEDRECTD71*%
G04:AMPARAMS|DCode=72|XSize=17.7mil|YSize=29.5mil|CornerRadius=4.4mil|HoleSize=0mil|Usage=FLASHONLY|Rotation=0.000|XOffset=0mil|YOffset=0mil|HoleType=Round|Shape=RoundedRectangle|*
%AMROUNDEDRECTD72*
21,1,0.0177,0.0207,0,0,0.0*
21,1,0.0089,0.0295,0,0,0.0*
1,1,0.0089,0.0044,-0.0103*
1,1,0.0089,-0.0044,-0.0103*
1,1,0.0089,-0.0044,0.0103*
1,1,0.0089,0.0044,0.0103*
%
%ADD72ROUNDEDRECTD72*%
G36*
X22108Y15404D02*
X22209Y15362D01*
X22296Y15296D01*
X22362Y15209D01*
X22404Y15108D01*
X22419Y15000D01*
X22418Y15000D01*
Y14166D01*
X22368Y14141D01*
X22333Y14156D01*
X22277D01*
X22226Y14135D01*
X22187Y14095D01*
X22165Y14044D01*
Y13988D01*
X22187Y13937D01*
X22200Y13924D01*
X22203Y13914D01*
X22210Y13908D01*
X22214Y13903D01*
X22217Y13898D01*
X22220Y13894D01*
X22222Y13890D01*
X22224Y13886D01*
X22225Y13883D01*
X22226Y13881D01*
X22226Y13878D01*
X22226Y13873D01*
X22229Y13867D01*
Y13618D01*
X22179Y13591D01*
X22179Y13591D01*
X22120Y13603D01*
X21880D01*
X21821Y13591D01*
X21772Y13558D01*
X21739Y13509D01*
X21727Y13450D01*
Y13250D01*
X21739Y13191D01*
X21752Y13171D01*
X21725Y13121D01*
X21500D01*
X21495Y13124D01*
X21491Y13124D01*
X21490Y13125D01*
X21488Y13125D01*
X21485Y13126D01*
X21481Y13128D01*
X21477Y13131D01*
X21472Y13134D01*
X21459Y13145D01*
X21452Y13152D01*
X21442Y13156D01*
X21429Y13169D01*
X21378Y13190D01*
X21322D01*
X21271Y13169D01*
X21231Y13129D01*
X21210Y13078D01*
Y13022D01*
X21231Y12971D01*
X21271Y12931D01*
X21322Y12910D01*
X21378D01*
X21429Y12931D01*
X21442Y12944D01*
X21452Y12948D01*
X21460Y12956D01*
X21466Y12961D01*
X21471Y12966D01*
X21477Y12969D01*
X21481Y12972D01*
X21485Y12974D01*
X21488Y12975D01*
X21490Y12975D01*
X21491Y12976D01*
X21495Y12976D01*
X21500Y12979D01*
X21787D01*
X21803Y12929D01*
X21772Y12908D01*
X21739Y12859D01*
X21727Y12800D01*
Y12600D01*
X21734Y12565D01*
X21734Y12563D01*
X21735Y12560D01*
X21735Y12560D01*
X21734Y12559D01*
X21730Y12555D01*
X21728Y12549D01*
X21700Y12521D01*
X21500D01*
X21495Y12524D01*
X21491Y12524D01*
X21490Y12524D01*
X21488Y12525D01*
X21485Y12526D01*
X21481Y12528D01*
X21477Y12531D01*
X21472Y12534D01*
X21459Y12545D01*
X21452Y12552D01*
X21442Y12556D01*
X21429Y12569D01*
X21378Y12590D01*
X21322D01*
X21271Y12569D01*
X21231Y12529D01*
X21210Y12478D01*
Y12422D01*
X21231Y12371D01*
X21271Y12331D01*
X21322Y12310D01*
X21378D01*
X21429Y12331D01*
X21442Y12344D01*
X21452Y12348D01*
X21460Y12356D01*
X21466Y12361D01*
X21471Y12366D01*
X21477Y12369D01*
X21481Y12372D01*
X21485Y12374D01*
X21488Y12375D01*
X21490Y12376D01*
X21491Y12376D01*
X21495Y12376D01*
X21500Y12379D01*
X21712D01*
X21735Y12331D01*
X21735Y12331D01*
X21730Y12326D01*
X21709Y12274D01*
Y12219D01*
X21730Y12167D01*
X21730Y12167D01*
X21727Y12150D01*
Y11950D01*
X21739Y11891D01*
X21772Y11842D01*
X21821Y11809D01*
X21880Y11797D01*
X22120D01*
X22179Y11809D01*
X22179Y11809D01*
X22229Y11782D01*
Y11487D01*
X22168Y11426D01*
X21834D01*
X21830Y11429D01*
X21828Y11428D01*
X21826Y11429D01*
X21821Y11429D01*
X21819Y11430D01*
X21817Y11430D01*
X21814Y11431D01*
X21812Y11432D01*
X21809Y11434D01*
X21806Y11436D01*
X21803Y11440D01*
X21799Y11444D01*
X21794Y11450D01*
X21785Y11455D01*
X21760Y11480D01*
X21708Y11501D01*
X21652D01*
X21601Y11480D01*
X21588Y11467D01*
X21578Y11463D01*
X21572Y11457D01*
X21567Y11453D01*
X21562Y11449D01*
X21558Y11446D01*
X21554Y11444D01*
X21551Y11443D01*
X21548Y11442D01*
X21545Y11441D01*
X21542Y11441D01*
X21537Y11440D01*
X21532Y11438D01*
X20806D01*
X20806Y11438D01*
X20776Y11432D01*
X20752Y11415D01*
X20752Y11415D01*
X19963Y10626D01*
X18457D01*
X18391Y10692D01*
X18388Y10699D01*
X18381Y10706D01*
X18376Y10712D01*
X18373Y10715D01*
X18374Y10720D01*
X18376Y10723D01*
X18375Y10724D01*
X18378Y10738D01*
Y12006D01*
X18424Y12025D01*
X18500Y11950D01*
X18523Y11934D01*
X18550Y11929D01*
X18810D01*
X18831Y11879D01*
X18810Y11828D01*
Y11772D01*
X18831Y11721D01*
X18871Y11681D01*
X18922Y11660D01*
X18969D01*
X18992Y11642D01*
X19010Y11619D01*
Y11572D01*
X19031Y11521D01*
X19071Y11481D01*
X19122Y11460D01*
X19178D01*
X19229Y11481D01*
X19269Y11521D01*
X19290Y11572D01*
Y11628D01*
X19269Y11679D01*
X19229Y11719D01*
X19178Y11740D01*
X19131D01*
X19108Y11758D01*
X19090Y11781D01*
Y11828D01*
X19111Y11860D01*
X19128D01*
X19179Y11881D01*
X19219Y11921D01*
X19240Y11972D01*
Y12028D01*
X19219Y12079D01*
X19179Y12119D01*
X19128Y12140D01*
X19072D01*
X19021Y12119D01*
X19008Y12106D01*
X18998Y12102D01*
X18990Y12094D01*
X18984Y12089D01*
X18979Y12084D01*
X18973Y12081D01*
X18969Y12078D01*
X18965Y12076D01*
X18962Y12075D01*
X18960Y12075D01*
X18959Y12074D01*
X18955Y12074D01*
X18950Y12071D01*
X18580D01*
X18476Y12175D01*
Y13232D01*
X18471Y13259D01*
X18455Y13282D01*
X18357Y13380D01*
X18334Y13396D01*
X18307Y13401D01*
X18090D01*
X18071Y13448D01*
X18121Y13498D01*
X18785D01*
X18818Y13448D01*
X18810Y13428D01*
Y13372D01*
X18831Y13321D01*
X18871Y13281D01*
X18922Y13260D01*
X18978D01*
X19029Y13281D01*
X19042Y13294D01*
X19075Y13316D01*
X19108Y13294D01*
X19121Y13281D01*
X19172Y13260D01*
X19228D01*
X19279Y13281D01*
X19319Y13321D01*
X19322Y13328D01*
X19322Y13328D01*
X19344Y13361D01*
X19352Y13400D01*
Y13500D01*
X19393Y13548D01*
X19910D01*
X19937Y13498D01*
X19927Y13450D01*
Y13250D01*
X19932Y13226D01*
X19931Y13225D01*
X19933Y13222D01*
X19934Y13217D01*
X19927Y13209D01*
X19920Y13202D01*
X19918Y13196D01*
X19898Y13176D01*
X19757D01*
X19751Y13179D01*
X19746Y13179D01*
X19744Y13189D01*
X19722Y13222D01*
X19689Y13244D01*
X19650Y13252D01*
X19550D01*
X19511Y13244D01*
X19478Y13222D01*
X19456Y13189D01*
X19448Y13150D01*
Y13050D01*
X19456Y13011D01*
X19478Y12978D01*
X19511Y12956D01*
X19550Y12948D01*
X19650D01*
X19689Y12956D01*
X19722Y12978D01*
X19744Y13011D01*
X19746Y13021D01*
X19751Y13021D01*
X19757Y13024D01*
X19930D01*
X19959Y13029D01*
X19984Y13046D01*
X20026Y13088D01*
X20032Y13090D01*
X20040Y13097D01*
X20045Y13102D01*
X20047Y13104D01*
X20052Y13103D01*
X20055Y13101D01*
X20056Y13102D01*
X20080Y13097D01*
X20320D01*
X20344Y13102D01*
X20347Y13101D01*
X20390Y13061D01*
Y13033D01*
X20412Y12982D01*
X20419Y12974D01*
X20388Y12935D01*
X20379Y12941D01*
X20320Y12953D01*
X20080D01*
X20021Y12941D01*
X19972Y12908D01*
X19939Y12859D01*
X19927Y12800D01*
Y12779D01*
X19922Y12776D01*
X19757D01*
X19751Y12779D01*
X19746Y12779D01*
X19744Y12789D01*
X19722Y12822D01*
X19689Y12844D01*
X19650Y12852D01*
X19550D01*
X19511Y12844D01*
X19478Y12822D01*
X19456Y12789D01*
X19448Y12750D01*
Y12650D01*
X19456Y12611D01*
X19478Y12578D01*
X19511Y12556D01*
X19550Y12548D01*
X19650D01*
X19689Y12556D01*
X19722Y12578D01*
X19744Y12611D01*
X19746Y12621D01*
X19751Y12621D01*
X19757Y12624D01*
X19922D01*
X19927Y12621D01*
Y12600D01*
X19939Y12541D01*
X19972Y12492D01*
X20021Y12459D01*
X20080Y12447D01*
X20320D01*
X20379Y12459D01*
X20428Y12492D01*
X20461Y12541D01*
X20473Y12600D01*
Y12800D01*
X20461Y12859D01*
X20438Y12894D01*
X20471Y12934D01*
X20502Y12921D01*
X20558D01*
X20610Y12943D01*
X20649Y12982D01*
X20670Y13033D01*
Y13089D01*
X20649Y13141D01*
X20636Y13153D01*
X20632Y13163D01*
X20627Y13168D01*
X20624Y13172D01*
X20622Y13175D01*
X20620Y13179D01*
X20618Y13182D01*
X20617Y13186D01*
X20616Y13189D01*
X20615Y13192D01*
X20615Y13196D01*
X20614Y13202D01*
X20612Y13208D01*
Y13570D01*
X20612Y13570D01*
X20606Y13601D01*
X20588Y13627D01*
X20528Y13688D01*
X20501Y13705D01*
X20499Y13706D01*
X20491Y13724D01*
X20487Y13759D01*
X20519Y13791D01*
X20540Y13842D01*
Y13898D01*
X20519Y13949D01*
X20479Y13989D01*
X20428Y14010D01*
X20372D01*
X20321Y13989D01*
X20281Y13949D01*
X20260Y13898D01*
Y13842D01*
X20281Y13791D01*
X20310Y13762D01*
X20297Y13714D01*
X20295Y13712D01*
X19480D01*
X19460Y13762D01*
X19469Y13771D01*
X19490Y13822D01*
Y13878D01*
X19469Y13929D01*
X19429Y13969D01*
X19378Y13990D01*
X19322D01*
X19271Y13969D01*
X19231Y13929D01*
X19231Y13929D01*
X19185Y13915D01*
X19158Y13937D01*
X19147Y13950D01*
Y14003D01*
X19132Y14039D01*
X19134Y14042D01*
X19185Y14064D01*
X19225Y14103D01*
X19246Y14154D01*
Y14210D01*
X19225Y14262D01*
X19185Y14301D01*
X19134Y14322D01*
X19078D01*
X19027Y14301D01*
X18987Y14262D01*
X18972Y14224D01*
X18922Y14234D01*
Y14353D01*
X18915Y14390D01*
X18901Y14410D01*
X18915Y14449D01*
X18923Y14460D01*
X18930D01*
X18981Y14482D01*
X19021Y14521D01*
X19042Y14572D01*
Y14628D01*
X19021Y14680D01*
X18981Y14719D01*
X18949Y14732D01*
X18935Y14783D01*
X18936Y14788D01*
X18956Y14808D01*
X18978Y14860D01*
Y14915D01*
X18956Y14967D01*
X18917Y15006D01*
X18865Y15028D01*
X18848D01*
X18839Y15032D01*
X18835Y15032D01*
X18834Y15032D01*
X18833Y15032D01*
X18831Y15033D01*
X18829Y15034D01*
X18826Y15036D01*
X18822Y15038D01*
X18818Y15041D01*
X18814Y15045D01*
X18808Y15050D01*
X18803Y15052D01*
X18694Y15161D01*
X18713Y15207D01*
X18945D01*
X18978Y15157D01*
X18970Y15138D01*
Y15082D01*
X18992Y15031D01*
X19031Y14991D01*
X19082Y14970D01*
X19138D01*
X19190Y14991D01*
X19224Y15026D01*
X19255Y15026D01*
X19279Y15023D01*
X19319Y14983D01*
X19370Y14962D01*
X19426D01*
X19477Y14983D01*
X19517Y15023D01*
X19538Y15074D01*
Y15130D01*
X19527Y15157D01*
X19556Y15207D01*
X20832D01*
X20864Y15176D01*
X20919Y15153D01*
X20978D01*
X21034Y15176D01*
X21076Y15219D01*
X21099Y15274D01*
Y15333D01*
X21084Y15368D01*
X21111Y15418D01*
X22000D01*
X22000Y15419D01*
X22108Y15404D01*
D02*
G37*
G36*
X16778Y15094D02*
X16771Y15088D01*
X16760Y15074D01*
X16755Y15068D01*
X16747Y15056D01*
X16744Y15049D01*
X16742Y15043D01*
X16740Y15038D01*
X16738Y15032D01*
X16670Y15138D01*
X16676Y15137D01*
X16683Y15137D01*
X16689Y15137D01*
X16695Y15139D01*
X16702Y15141D01*
X16708Y15144D01*
X16715Y15148D01*
X16722Y15153D01*
X16729Y15158D01*
X16735Y15165D01*
X16778Y15094D01*
D02*
G37*
G36*
X16590Y15167D02*
X16603Y15156D01*
X16610Y15151D01*
X16616Y15148D01*
X16622Y15145D01*
X16628Y15142D01*
X16634Y15141D01*
X16640Y15140D01*
X16645Y15140D01*
X16560Y15055D01*
X16560Y15060D01*
X16559Y15066D01*
X16558Y15072D01*
X16555Y15078D01*
X16552Y15084D01*
X16549Y15090D01*
X16544Y15097D01*
X16539Y15103D01*
X16533Y15110D01*
X16527Y15117D01*
X16583Y15173D01*
X16590Y15167D01*
D02*
G37*
G36*
X15769Y15161D02*
X15685Y15077D01*
X15665Y15047D01*
X15651Y15039D01*
X15611Y15030D01*
X15589Y15044D01*
X15550Y15052D01*
X15450D01*
X15411Y15044D01*
X15378Y15022D01*
X15356Y14989D01*
X15352Y14971D01*
X15198D01*
X15194Y14989D01*
X15172Y15022D01*
X15139Y15044D01*
X15100Y15052D01*
X15000D01*
X14961Y15044D01*
X14928Y15022D01*
X14906Y14989D01*
X14902Y14971D01*
X14543D01*
X14536Y15008D01*
X14512Y15044D01*
X14476Y15068D01*
X14433Y15077D01*
X14315D01*
X14272Y15068D01*
X14236Y15044D01*
X14212Y15008D01*
X14204Y14965D01*
Y14734D01*
X14212Y14691D01*
X14236Y14655D01*
X14272Y14631D01*
X14315Y14622D01*
X14433D01*
X14476Y14631D01*
X14512Y14655D01*
X14536Y14691D01*
X14544Y14734D01*
Y14829D01*
X14902D01*
X14906Y14811D01*
X14928Y14778D01*
X14961Y14756D01*
X14965Y14755D01*
X14988Y14699D01*
X14971Y14674D01*
X14965Y14645D01*
X14961Y14644D01*
X14928Y14622D01*
X14906Y14589D01*
X14898Y14550D01*
Y14450D01*
X14906Y14411D01*
X14928Y14378D01*
X14932Y14375D01*
X14932Y14374D01*
X14936Y14373D01*
X14952Y14362D01*
X14953Y14357D01*
X14955Y14348D01*
X14956Y14335D01*
X14956Y14319D01*
X14958Y14314D01*
Y14132D01*
X14956Y14127D01*
X14956Y14113D01*
X14955Y14102D01*
X14953Y14094D01*
X14953Y14093D01*
X14932Y14088D01*
X14893Y14062D01*
X14866Y14023D01*
X14857Y13976D01*
Y13524D01*
X14863Y13492D01*
X14834Y13442D01*
X14507D01*
X14476Y13491D01*
X14512Y13515D01*
X14536Y13551D01*
X14544Y13593D01*
Y13825D01*
X14536Y13868D01*
X14512Y13904D01*
X14476Y13928D01*
X14438Y13936D01*
X14426Y13994D01*
X14373Y14073D01*
X14294Y14126D01*
X14200Y14145D01*
Y14142D01*
X14150D01*
X14148Y14141D01*
X14108Y14158D01*
X14091Y14198D01*
X14092Y14200D01*
Y14641D01*
X14094Y14645D01*
X14092Y14652D01*
Y14859D01*
X14094Y14864D01*
X14094Y14872D01*
X14095Y14878D01*
X14095Y14883D01*
X14096Y14887D01*
X14097Y14890D01*
X14098Y14893D01*
X14099Y14894D01*
X14100Y14896D01*
X14100Y14896D01*
X14103Y14899D01*
X14106Y14908D01*
X14119Y14921D01*
X14140Y14972D01*
Y15028D01*
X14119Y15079D01*
X14079Y15119D01*
X14028Y15140D01*
X13972D01*
X13921Y15119D01*
X13881Y15079D01*
X13860Y15028D01*
Y14972D01*
X13881Y14921D01*
X13894Y14908D01*
X13897Y14899D01*
X13900Y14896D01*
X13900Y14896D01*
X13901Y14894D01*
X13902Y14893D01*
X13903Y14890D01*
X13904Y14887D01*
X13905Y14883D01*
X13905Y14878D01*
X13906Y14872D01*
X13906Y14864D01*
X13908Y14859D01*
Y14756D01*
X13906Y14752D01*
X13907Y14750D01*
X13906Y14749D01*
X13905Y14735D01*
X13904Y14724D01*
X13902Y14713D01*
X13899Y14703D01*
X13896Y14693D01*
X13891Y14684D01*
X13886Y14675D01*
X13880Y14666D01*
X13873Y14657D01*
X13864Y14647D01*
X13862Y14642D01*
X13815D01*
X13788Y14691D01*
X13796Y14734D01*
Y14965D01*
X13788Y15008D01*
X13764Y15044D01*
X13728Y15068D01*
X13685Y15077D01*
X13567D01*
X13524Y15068D01*
X13488Y15044D01*
X13484Y15038D01*
X13483Y15038D01*
X13482Y15035D01*
X13464Y15008D01*
X13462Y14995D01*
X13458Y14993D01*
X13447Y14989D01*
X13431Y14985D01*
X13411Y14982D01*
X13386Y14980D01*
X13357Y14979D01*
X13353Y14977D01*
X13130D01*
X13126Y14979D01*
X13099Y14980D01*
X13076Y14982D01*
X13058Y14985D01*
X13044Y14988D01*
X13034Y14992D01*
X13028Y14996D01*
X13026Y14998D01*
X13026Y14998D01*
X13026Y14998D01*
X13025Y15006D01*
X13023Y15010D01*
X13018Y15031D01*
X13000Y15059D01*
X12978Y15100D01*
X12978D01*
X12970Y15157D01*
X13007Y15207D01*
X15750D01*
X15769Y15161D01*
D02*
G37*
G36*
X18777Y15005D02*
X18784Y14999D01*
X18791Y14994D01*
X18797Y14990D01*
X18804Y14986D01*
X18811Y14983D01*
X18817Y14980D01*
X18824Y14979D01*
X18830Y14978D01*
X18837Y14978D01*
X18748Y14889D01*
X18747Y14895D01*
X18746Y14901D01*
X18745Y14908D01*
X18742Y14915D01*
X18739Y14921D01*
X18736Y14928D01*
X18731Y14934D01*
X18726Y14941D01*
X18721Y14948D01*
X18714Y14955D01*
X18771Y15011D01*
X18777Y15005D01*
D02*
G37*
G36*
X14059Y14931D02*
X14055Y14926D01*
X14051Y14920D01*
X14048Y14914D01*
X14046Y14907D01*
X14044Y14900D01*
X14042Y14892D01*
X14041Y14883D01*
X14040Y14875D01*
X14040Y14865D01*
X13960D01*
X13960Y14875D01*
X13959Y14883D01*
X13958Y14892D01*
X13956Y14900D01*
X13954Y14907D01*
X13952Y14914D01*
X13949Y14920D01*
X13945Y14926D01*
X13941Y14931D01*
X13937Y14936D01*
X14063D01*
X14059Y14931D01*
D02*
G37*
G36*
X15401Y14860D02*
X15401Y14864D01*
X15400Y14867D01*
X15398Y14870D01*
X15395Y14873D01*
X15391Y14875D01*
X15387Y14877D01*
X15381Y14878D01*
X15375Y14879D01*
X15368Y14880D01*
X15360Y14880D01*
Y14920D01*
X15368Y14920D01*
X15375Y14921D01*
X15381Y14922D01*
X15387Y14923D01*
X15391Y14925D01*
X15395Y14927D01*
X15398Y14930D01*
X15400Y14933D01*
X15401Y14936D01*
X15401Y14940D01*
Y14860D01*
D02*
G37*
G36*
X15149Y14936D02*
X15150Y14933D01*
X15152Y14930D01*
X15155Y14927D01*
X15159Y14925D01*
X15163Y14923D01*
X15169Y14922D01*
X15175Y14921D01*
X15182Y14920D01*
X15190Y14920D01*
Y14880D01*
X15182Y14880D01*
X15175Y14879D01*
X15169Y14878D01*
X15163Y14877D01*
X15159Y14875D01*
X15155Y14873D01*
X15152Y14870D01*
X15150Y14867D01*
X15149Y14864D01*
X15149Y14860D01*
Y14940D01*
X15149Y14936D01*
D02*
G37*
G36*
X14951Y14860D02*
X14951Y14864D01*
X14950Y14867D01*
X14948Y14870D01*
X14945Y14873D01*
X14941Y14875D01*
X14937Y14877D01*
X14931Y14878D01*
X14925Y14879D01*
X14918Y14880D01*
X14910Y14880D01*
Y14920D01*
X14918Y14920D01*
X14925Y14921D01*
X14931Y14922D01*
X14937Y14923D01*
X14941Y14925D01*
X14945Y14927D01*
X14948Y14930D01*
X14950Y14933D01*
X14951Y14936D01*
X14951Y14940D01*
Y14860D01*
D02*
G37*
G36*
X14491Y14936D02*
X14493Y14933D01*
X14495Y14930D01*
X14497Y14927D01*
X14501Y14925D01*
X14506Y14923D01*
X14511Y14922D01*
X14517Y14921D01*
X14524Y14920D01*
X14532Y14920D01*
Y14880D01*
X14524Y14880D01*
X14517Y14879D01*
X14511Y14878D01*
X14506Y14877D01*
X14501Y14875D01*
X14497Y14873D01*
X14495Y14870D01*
X14493Y14867D01*
X14491Y14864D01*
X14491Y14860D01*
Y14940D01*
X14491Y14936D01*
D02*
G37*
G36*
X12119Y14909D02*
X12124Y14905D01*
X12130Y14901D01*
X12136Y14898D01*
X12143Y14896D01*
X12150Y14894D01*
X12158Y14892D01*
X12167Y14891D01*
X12175Y14890D01*
X12185Y14890D01*
Y14810D01*
X12175Y14810D01*
X12167Y14809D01*
X12158Y14808D01*
X12150Y14806D01*
X12143Y14804D01*
X12136Y14802D01*
X12130Y14799D01*
X12124Y14795D01*
X12119Y14791D01*
X12114Y14787D01*
Y14913D01*
X12119Y14909D01*
D02*
G37*
G36*
X10500Y15418D02*
X12491D01*
X12516Y15368D01*
X12500Y15330D01*
Y15270D01*
X12523Y15215D01*
X12565Y15173D01*
X12620Y15150D01*
X12680D01*
X12718Y15115D01*
X12721Y15100D01*
X12700Y15059D01*
X12682Y15031D01*
X12673Y14987D01*
Y14741D01*
X12623Y14721D01*
X12428Y14915D01*
X12399Y14935D01*
X12364Y14942D01*
X12191D01*
X12186Y14944D01*
X12178Y14944D01*
X12172Y14945D01*
X12167Y14945D01*
X12163Y14946D01*
X12160Y14947D01*
X12157Y14948D01*
X12156Y14949D01*
X12154Y14950D01*
X12154Y14950D01*
X12151Y14953D01*
X12142Y14956D01*
X12129Y14969D01*
X12078Y14990D01*
X12022D01*
X11971Y14969D01*
X11931Y14929D01*
X11910Y14878D01*
Y14822D01*
X11931Y14771D01*
X11971Y14731D01*
X12022Y14710D01*
X12078D01*
X12129Y14731D01*
X12142Y14744D01*
X12151Y14747D01*
X12154Y14750D01*
X12154Y14750D01*
X12156Y14751D01*
X12157Y14752D01*
X12160Y14753D01*
X12163Y14754D01*
X12167Y14755D01*
X12172Y14755D01*
X12178Y14756D01*
X12186Y14756D01*
X12191Y14758D01*
X12326D01*
X12599Y14485D01*
X12628Y14465D01*
X12664Y14458D01*
X13900D01*
X13908Y14451D01*
Y14200D01*
X13905D01*
X13924Y14106D01*
X13977Y14027D01*
X14037Y13987D01*
X14022Y13937D01*
X13941D01*
X13898Y13928D01*
X13862Y13904D01*
X13839Y13869D01*
X13835Y13868D01*
X13791D01*
X13787Y13869D01*
X13764Y13904D01*
X13728Y13928D01*
X13685Y13937D01*
X13567D01*
X13524Y13928D01*
X13488Y13904D01*
X13464Y13868D01*
X13456Y13825D01*
Y13593D01*
X13464Y13551D01*
X13488Y13515D01*
X13524Y13491D01*
X13555Y13485D01*
Y13424D01*
X13560Y13397D01*
X13576Y13374D01*
X13629Y13320D01*
X13652Y13305D01*
X13679Y13299D01*
X14499D01*
X14526Y13276D01*
X14531Y13264D01*
X14532Y13249D01*
X14512Y13231D01*
X13760D01*
X13733Y13226D01*
X13710Y13210D01*
X13600Y13100D01*
X13584Y13077D01*
X13579Y13050D01*
Y11000D01*
X13584Y10973D01*
X13600Y10950D01*
X13760Y10790D01*
X13783Y10774D01*
X13810Y10769D01*
X15581D01*
X15597Y10753D01*
X15620Y10737D01*
X15641Y10733D01*
X15643Y10731D01*
X15648Y10732D01*
X15649D01*
X15655Y10729D01*
X15659Y10729D01*
X15659Y10729D01*
X15660Y10729D01*
X15661Y10728D01*
X15662Y10728D01*
X15664Y10726D01*
X15666Y10724D01*
X15669Y10720D01*
X15672Y10716D01*
X15676Y10708D01*
X15681Y10705D01*
X15683Y10699D01*
X15723Y10660D01*
X15774Y10639D01*
X15768Y10591D01*
X13456D01*
X13442Y10625D01*
X13439Y10641D01*
X13467Y10684D01*
X13478Y10738D01*
Y13162D01*
X13467Y13216D01*
X13437Y13262D01*
X13391Y13292D01*
X13338Y13303D01*
X13162D01*
X13109Y13292D01*
X13063Y13262D01*
X13033Y13216D01*
X13022Y13162D01*
Y10738D01*
X13033Y10684D01*
X13063Y10638D01*
X13109Y10608D01*
X13162Y10597D01*
X13171D01*
X13174Y10592D01*
Y10534D01*
X13179Y10505D01*
X13196Y10480D01*
X13215Y10461D01*
X13240Y10444D01*
X13253Y10442D01*
X13248Y10392D01*
X12091D01*
X12086Y10394D01*
X12078Y10394D01*
X12072Y10395D01*
X12067Y10395D01*
X12063Y10396D01*
X12060Y10397D01*
X12057Y10398D01*
X12056Y10399D01*
X12054Y10400D01*
X12054Y10400D01*
X12051Y10403D01*
X12042Y10406D01*
X12029Y10419D01*
X11978Y10440D01*
X11922D01*
X11871Y10419D01*
X11831Y10379D01*
X11810Y10328D01*
Y10272D01*
X11831Y10221D01*
X11871Y10181D01*
X11922Y10160D01*
X11978D01*
X12029Y10181D01*
X12042Y10194D01*
X12051Y10197D01*
X12054Y10200D01*
X12054Y10200D01*
X12056Y10201D01*
X12057Y10202D01*
X12060Y10203D01*
X12063Y10204D01*
X12067Y10205D01*
X12072Y10205D01*
X12078Y10206D01*
X12086Y10206D01*
X12091Y10208D01*
X13476D01*
X13511Y10215D01*
X13541Y10235D01*
X13614Y10308D01*
X14820D01*
X14840Y10258D01*
X14831Y10249D01*
X14810Y10198D01*
Y10142D01*
X14814Y10132D01*
X14781Y10082D01*
X10550D01*
X10549Y10082D01*
X10500Y10082D01*
X10453Y10088D01*
X10392Y10096D01*
X10291Y10137D01*
X10204Y10204D01*
X10137Y10291D01*
X10096Y10392D01*
X10081Y10500D01*
X10082Y10500D01*
X10082Y15000D01*
X10081Y15000D01*
X10096Y15108D01*
X10137Y15209D01*
X10204Y15296D01*
X10291Y15362D01*
X10392Y15404D01*
X10500Y15419D01*
X10500Y15418D01*
D02*
G37*
G36*
X13521Y14701D02*
X13519Y14715D01*
X13514Y14727D01*
X13506Y14739D01*
X13495Y14748D01*
X13480Y14756D01*
X13462Y14763D01*
X13441Y14768D01*
X13417Y14772D01*
X13389Y14774D01*
X13358Y14775D01*
Y14925D01*
X13389Y14926D01*
X13417Y14928D01*
X13441Y14932D01*
X13463Y14937D01*
X13480Y14944D01*
X13495Y14952D01*
X13507Y14961D01*
X13515Y14973D01*
X13520Y14985D01*
X13521Y14999D01*
X13521Y14701D01*
D02*
G37*
G36*
X12973Y14986D02*
X12977Y14973D01*
X12985Y14962D01*
X12996Y14952D01*
X13010Y14944D01*
X13027Y14937D01*
X13047Y14932D01*
X13070Y14928D01*
X13096Y14926D01*
X13125Y14925D01*
Y14775D01*
X13096Y14774D01*
X13070Y14772D01*
X13047Y14768D01*
X13027Y14763D01*
X13010Y14756D01*
X12996Y14748D01*
X12985Y14738D01*
X12977Y14727D01*
X12973Y14714D01*
X12971Y14700D01*
Y15000D01*
X12973Y14986D01*
D02*
G37*
G36*
X17327Y14763D02*
X17323Y14761D01*
X17320Y14757D01*
X17319Y14753D01*
X17319Y14747D01*
X17320Y14740D01*
X17322Y14732D01*
X17326Y14723D01*
X17331Y14713D01*
X17337Y14702D01*
X17266Y14697D01*
X17259Y14708D01*
X17246Y14726D01*
X17239Y14733D01*
X17233Y14739D01*
X17226Y14744D01*
X17220Y14748D01*
X17214Y14750D01*
X17207Y14751D01*
X17201Y14751D01*
X17332Y14764D01*
X17327Y14763D01*
D02*
G37*
G36*
X15790Y14797D02*
X15790Y14781D01*
X15791Y14744D01*
X15793Y14726D01*
X15794Y14720D01*
X15795Y14714D01*
X15797Y14711D01*
X15798Y14708D01*
X15742Y14652D01*
X15739Y14653D01*
X15736Y14655D01*
X15730Y14656D01*
X15669Y14660D01*
X15653Y14660D01*
X15630Y14740D01*
X15645Y14741D01*
X15659Y14743D01*
X15671Y14747D01*
X15681Y14753D01*
X15690Y14760D01*
X15697Y14769D01*
X15703Y14779D01*
X15707Y14791D01*
X15709Y14805D01*
X15710Y14820D01*
X15790Y14797D01*
D02*
G37*
G36*
X18445Y14741D02*
X18446Y14736D01*
X18448Y14732D01*
X18452Y14728D01*
X18457Y14724D01*
X18464Y14721D01*
X18473Y14719D01*
X18483Y14718D01*
X18494Y14717D01*
X18507Y14716D01*
X18495Y14656D01*
X18483Y14656D01*
X18447Y14654D01*
X18440Y14653D01*
X18433Y14652D01*
X18428Y14650D01*
X18424Y14649D01*
X18420Y14647D01*
X18446Y14747D01*
X18445Y14741D01*
D02*
G37*
G36*
X18815Y14699D02*
X18822Y14695D01*
X18828Y14692D01*
X18835Y14689D01*
X18843Y14687D01*
X18850Y14686D01*
X18858Y14686D01*
X18866Y14686D01*
X18874Y14687D01*
X18883Y14688D01*
X18812Y14603D01*
X18812Y14612D01*
X18811Y14620D01*
X18810Y14628D01*
X18808Y14636D01*
X18806Y14643D01*
X18803Y14650D01*
X18799Y14656D01*
X18794Y14662D01*
X18789Y14668D01*
X18784Y14673D01*
X18809Y14704D01*
X18815Y14699D01*
D02*
G37*
G36*
X14040Y14650D02*
X13960Y14473D01*
X13960Y14488D01*
X13959Y14501D01*
X13957Y14511D01*
X13955Y14520D01*
X13952Y14526D01*
X13949Y14529D01*
X13944Y14531D01*
X13940Y14530D01*
X13934Y14527D01*
X13928Y14522D01*
X13903Y14610D01*
X13914Y14622D01*
X13924Y14634D01*
X13932Y14646D01*
X13940Y14659D01*
X13946Y14672D01*
X13951Y14686D01*
X13955Y14701D01*
X13958Y14716D01*
X13959Y14731D01*
X13960Y14747D01*
X14040Y14650D01*
D02*
G37*
G36*
X16498Y14551D02*
X16500Y14546D01*
X16503Y14542D01*
X16507Y14538D01*
X16513Y14534D01*
X16520Y14532D01*
X16528Y14530D01*
X16537Y14528D01*
X16548Y14527D01*
X16560Y14527D01*
Y14467D01*
X16548Y14467D01*
X16537Y14466D01*
X16527Y14464D01*
X16519Y14462D01*
X16512Y14459D01*
X16506Y14456D01*
X16502Y14452D01*
X16499Y14448D01*
X16497Y14443D01*
X16496Y14437D01*
X16497Y14557D01*
X16498Y14551D01*
D02*
G37*
G36*
X18262Y14468D02*
X18275Y14452D01*
X18282Y14446D01*
X18288Y14440D01*
X18294Y14436D01*
X18300Y14432D01*
X18305Y14429D01*
X18311Y14427D01*
X18316Y14426D01*
X18200Y14396D01*
X18205Y14400D01*
X18209Y14405D01*
X18211Y14410D01*
X18213Y14416D01*
X18213Y14422D01*
X18211Y14429D01*
X18208Y14436D01*
X18204Y14443D01*
X18198Y14451D01*
X18192Y14460D01*
X18254Y14477D01*
X18262Y14468D01*
D02*
G37*
G36*
X18760Y14444D02*
X18762Y14433D01*
X18764Y14423D01*
X18767Y14414D01*
X18770Y14407D01*
X18774Y14402D01*
X18778Y14398D01*
X18783Y14396D01*
X18788Y14395D01*
X18794Y14396D01*
X18697Y14370D01*
X18698Y14373D01*
X18699Y14377D01*
X18700Y14382D01*
X18701Y14388D01*
X18701Y14394D01*
X18702Y14411D01*
X18701Y14431D01*
X18700Y14442D01*
X18759Y14457D01*
X18760Y14444D01*
D02*
G37*
G36*
X18608Y14442D02*
X18596Y14423D01*
X18591Y14414D01*
X18583Y14397D01*
X18581Y14389D01*
X18579Y14382D01*
X18578Y14375D01*
X18577Y14368D01*
X18537Y14362D01*
X18537Y14369D01*
X18535Y14376D01*
X18533Y14384D01*
X18530Y14391D01*
X18526Y14398D01*
X18521Y14405D01*
X18514Y14412D01*
X18508Y14419D01*
X18500Y14425D01*
X18491Y14432D01*
X18615Y14452D01*
X18608Y14442D01*
D02*
G37*
G36*
X15109Y14431D02*
X15105Y14426D01*
X15101Y14420D01*
X15098Y14414D01*
X15098Y14412D01*
X15129D01*
X15122Y14411D01*
X15115Y14409D01*
X15109Y14404D01*
X15104Y14398D01*
X15100Y14389D01*
X15096Y14379D01*
X15094Y14367D01*
X15092Y14353D01*
X15090Y14338D01*
X15090Y14320D01*
X15010D01*
X15010Y14338D01*
X15008Y14353D01*
X15006Y14367D01*
X15004Y14379D01*
X15000Y14389D01*
X14996Y14398D01*
X14991Y14404D01*
X14985Y14409D01*
X14978Y14411D01*
X14971Y14412D01*
X15002D01*
X15002Y14414D01*
X14999Y14420D01*
X14995Y14426D01*
X14991Y14431D01*
X14987Y14436D01*
X15113D01*
X15109Y14431D01*
D02*
G37*
G36*
X16908Y14380D02*
X16902Y14370D01*
X16897Y14359D01*
X16892Y14349D01*
X16889Y14338D01*
X16885Y14327D01*
X16883Y14317D01*
X16885Y14311D01*
X16887Y14307D01*
X16890Y14303D01*
X16893Y14301D01*
X16896Y14299D01*
X16900Y14299D01*
X16881D01*
X16880Y14292D01*
X16880Y14281D01*
X16864Y14299D01*
X16800D01*
X16804Y14299D01*
X16807Y14301D01*
X16810Y14303D01*
X16813Y14307D01*
X16815Y14311D01*
X16817Y14317D01*
X16818Y14324D01*
X16819Y14331D01*
X16820Y14340D01*
X16820Y14350D01*
X16850D01*
X16914Y14390D01*
X16908Y14380D01*
D02*
G37*
G36*
X17733Y14140D02*
X17732Y14146D01*
X17730Y14151D01*
X17727Y14155D01*
X17723Y14159D01*
X17717Y14163D01*
X17710Y14165D01*
X17702Y14167D01*
X17693Y14169D01*
X17682Y14170D01*
X17670Y14170D01*
Y14230D01*
X17682Y14230D01*
X17692Y14231D01*
X17702Y14233D01*
X17710Y14235D01*
X17716Y14238D01*
X17722Y14241D01*
X17726Y14245D01*
X17729Y14249D01*
X17731Y14254D01*
X17731Y14260D01*
X17733Y14140D01*
D02*
G37*
G36*
X17347Y14254D02*
X17349Y14249D01*
X17352Y14245D01*
X17357Y14241D01*
X17362Y14237D01*
X17369Y14235D01*
X17378Y14233D01*
X17387Y14231D01*
X17398Y14230D01*
X17410Y14230D01*
Y14170D01*
X17398Y14170D01*
X17387Y14169D01*
X17378Y14167D01*
X17369Y14165D01*
X17362Y14163D01*
X17357Y14159D01*
X17352Y14155D01*
X17349Y14151D01*
X17347Y14146D01*
X17347Y14140D01*
Y14260D01*
X17347Y14254D01*
D02*
G37*
G36*
X18823Y14104D02*
X18817Y14104D01*
X18811Y14103D01*
X18806Y14101D01*
X18800Y14097D01*
X18795Y14092D01*
X18789Y14085D01*
X18784Y14078D01*
X18779Y14069D01*
X18774Y14058D01*
X18769Y14046D01*
X18704Y14049D01*
X18709Y14062D01*
X18716Y14085D01*
X18717Y14094D01*
X18718Y14102D01*
X18717Y14109D01*
X18715Y14114D01*
X18712Y14119D01*
X18708Y14121D01*
X18703Y14123D01*
X18823Y14104D01*
D02*
G37*
G36*
X17892Y14121D02*
X17888Y14119D01*
X17885Y14114D01*
X17883Y14109D01*
X17882Y14102D01*
X17883Y14094D01*
X17884Y14085D01*
X17887Y14074D01*
X17891Y14062D01*
X17896Y14049D01*
X17831Y14046D01*
X17826Y14058D01*
X17821Y14069D01*
X17816Y14078D01*
X17810Y14085D01*
X17805Y14092D01*
X17800Y14097D01*
X17794Y14101D01*
X17789Y14103D01*
X17783Y14104D01*
X17777Y14104D01*
X17897Y14123D01*
X17892Y14121D01*
D02*
G37*
G36*
X15973Y14078D02*
X15974Y14071D01*
X15975Y14064D01*
X15976Y14059D01*
X15978Y14054D01*
X15980Y14051D01*
X15983Y14048D01*
X15986Y14046D01*
X15989Y14045D01*
X15993Y14044D01*
X15913D01*
X15917Y14045D01*
X15920Y14046D01*
X15923Y14048D01*
X15926Y14051D01*
X15928Y14054D01*
X15930Y14059D01*
X15931Y14064D01*
X15932Y14071D01*
X15933Y14078D01*
X15933Y14085D01*
X15973D01*
X15973Y14078D01*
D02*
G37*
G36*
X15090Y14109D02*
X15092Y14095D01*
X15094Y14083D01*
X15096Y14072D01*
X15100Y14063D01*
X15104Y14055D01*
X15109Y14049D01*
X15115Y14045D01*
X15122Y14042D01*
X15130Y14041D01*
X14970Y14043D01*
X14978Y14043D01*
X14985Y14046D01*
X14991Y14050D01*
X14996Y14056D01*
X15000Y14063D01*
X15004Y14072D01*
X15006Y14083D01*
X15008Y14095D01*
X15010Y14110D01*
X15010Y14125D01*
X15090D01*
X15090Y14109D01*
D02*
G37*
G36*
X17304Y14103D02*
X17299Y14101D01*
X17295Y14098D01*
X17291Y14093D01*
X17287Y14088D01*
X17285Y14081D01*
X17283Y14072D01*
X17281Y14063D01*
X17280Y14052D01*
X17280Y14040D01*
X17220D01*
X17220Y14052D01*
X17219Y14063D01*
X17217Y14072D01*
X17215Y14081D01*
X17213Y14088D01*
X17209Y14093D01*
X17205Y14098D01*
X17201Y14101D01*
X17196Y14103D01*
X17190Y14103D01*
X17310D01*
X17304Y14103D01*
D02*
G37*
G36*
X22361Y13944D02*
X22355Y13937D01*
X22349Y13929D01*
X22344Y13922D01*
X22340Y13914D01*
X22336Y13906D01*
X22334Y13899D01*
X22332Y13891D01*
X22331Y13883D01*
X22330Y13876D01*
X22280D01*
X22280Y13883D01*
X22279Y13891D01*
X22277Y13899D01*
X22274Y13906D01*
X22271Y13914D01*
X22267Y13922D01*
X22262Y13929D01*
X22256Y13937D01*
X22250Y13944D01*
X22242Y13952D01*
X22368D01*
X22361Y13944D01*
D02*
G37*
G36*
X15355Y13935D02*
X15357Y13927D01*
X15359Y13920D01*
X15362Y13912D01*
X15366Y13905D01*
X15371Y13897D01*
X15376Y13889D01*
X15383Y13881D01*
X15390Y13873D01*
X15398Y13864D01*
X15272D01*
X15280Y13873D01*
X15294Y13889D01*
X15300Y13897D01*
X15304Y13905D01*
X15308Y13912D01*
X15311Y13920D01*
X15313Y13927D01*
X15315Y13935D01*
X15315Y13942D01*
X15355D01*
X15355Y13935D01*
D02*
G37*
G36*
X16497Y13954D02*
X16499Y13949D01*
X16502Y13945D01*
X16507Y13941D01*
X16512Y13937D01*
X16519Y13935D01*
X16528Y13933D01*
X16537Y13931D01*
X16548Y13930D01*
X16560Y13930D01*
Y13870D01*
X16548Y13870D01*
X16537Y13869D01*
X16528Y13867D01*
X16519Y13865D01*
X16512Y13863D01*
X16507Y13859D01*
X16502Y13855D01*
X16499Y13851D01*
X16497Y13846D01*
X16497Y13840D01*
Y13960D01*
X16497Y13954D01*
D02*
G37*
G36*
X18154Y13727D02*
X18154Y13733D01*
X18153Y13739D01*
X18151Y13744D01*
X18147Y13750D01*
X18142Y13755D01*
X18135Y13761D01*
X18128Y13766D01*
X18119Y13771D01*
X18108Y13776D01*
X18096Y13781D01*
X18099Y13846D01*
X18112Y13841D01*
X18135Y13834D01*
X18144Y13833D01*
X18152Y13832D01*
X18159Y13833D01*
X18164Y13835D01*
X18168Y13838D01*
X18171Y13842D01*
X18173Y13847D01*
X18154Y13727D01*
D02*
G37*
G36*
X17271Y13929D02*
X17266Y13923D01*
X17262Y13917D01*
X17259Y13912D01*
X17257Y13906D01*
X17257Y13900D01*
X17257Y13894D01*
X17259Y13888D01*
X17262Y13883D01*
X17266Y13877D01*
X17271Y13871D01*
X17229Y13829D01*
X17220Y13837D01*
X17212Y13844D01*
X17202Y13850D01*
X17193Y13855D01*
X17183Y13860D01*
X17173Y13863D01*
X17162Y13866D01*
X17151Y13868D01*
X17139Y13870D01*
X17128Y13870D01*
Y13930D01*
X17139Y13930D01*
X17151Y13932D01*
X17162Y13934D01*
X17173Y13937D01*
X17183Y13940D01*
X17193Y13945D01*
X17202Y13950D01*
X17212Y13956D01*
X17220Y13963D01*
X17229Y13971D01*
X17271Y13929D01*
D02*
G37*
G36*
X15720Y13877D02*
X15706Y13861D01*
X15700Y13853D01*
X15696Y13845D01*
X15692Y13838D01*
X15689Y13830D01*
X15687Y13823D01*
X15685Y13815D01*
X15685Y13808D01*
X15645D01*
X15645Y13815D01*
X15643Y13823D01*
X15641Y13830D01*
X15638Y13838D01*
X15634Y13845D01*
X15629Y13853D01*
X15624Y13861D01*
X15617Y13869D01*
X15610Y13877D01*
X15602Y13886D01*
X15728D01*
X15720Y13877D01*
D02*
G37*
G36*
X18429Y13842D02*
X18431Y13838D01*
X18436Y13835D01*
X18441Y13833D01*
X18448Y13832D01*
X18456Y13833D01*
X18465Y13834D01*
X18476Y13837D01*
X18487Y13841D01*
X18501Y13846D01*
X18504Y13781D01*
X18492Y13776D01*
X18481Y13771D01*
X18472Y13766D01*
X18465Y13761D01*
X18458Y13755D01*
X18453Y13750D01*
X18449Y13744D01*
X18447Y13739D01*
X18446Y13733D01*
X18446Y13727D01*
X18427Y13847D01*
X18429Y13842D01*
D02*
G37*
G36*
X17280Y13748D02*
X17281Y13737D01*
X17283Y13728D01*
X17285Y13719D01*
X17287Y13712D01*
X17291Y13707D01*
X17295Y13702D01*
X17299Y13699D01*
X17304Y13697D01*
X17310Y13697D01*
X17190D01*
X17196Y13697D01*
X17201Y13699D01*
X17205Y13702D01*
X17209Y13707D01*
X17213Y13712D01*
X17215Y13719D01*
X17217Y13728D01*
X17219Y13737D01*
X17220Y13748D01*
X17220Y13760D01*
X17280D01*
X17280Y13748D01*
D02*
G37*
G36*
X19211Y13765D02*
X19212Y13757D01*
X19213Y13748D01*
X19215Y13740D01*
X19218Y13732D01*
X19221Y13725D01*
X19225Y13718D01*
X19229Y13711D01*
X19235Y13704D01*
X19240Y13698D01*
X19198Y13656D01*
X19192Y13662D01*
X19185Y13667D01*
X19178Y13671D01*
X19171Y13675D01*
X19164Y13678D01*
X19156Y13681D01*
X19148Y13683D01*
X19140Y13684D01*
X19131Y13685D01*
X19122Y13685D01*
X19211Y13774D01*
X19211Y13765D01*
D02*
G37*
G36*
X13662Y13535D02*
X13659Y13534D01*
X13656Y13532D01*
X13653Y13529D01*
X13651Y13525D01*
X13649Y13521D01*
X13648Y13516D01*
X13647Y13509D01*
X13646Y13502D01*
X13646Y13495D01*
X13606D01*
X13606Y13502D01*
X13605Y13509D01*
X13604Y13516D01*
X13603Y13521D01*
X13601Y13525D01*
X13599Y13529D01*
X13596Y13532D01*
X13593Y13534D01*
X13590Y13535D01*
X13586Y13536D01*
X13666D01*
X13662Y13535D01*
D02*
G37*
G36*
X17669Y14116D02*
X17679Y14116D01*
X17684Y14115D01*
X17685Y14110D01*
X17706Y14079D01*
X17737Y14058D01*
X17768Y14052D01*
X17770Y14049D01*
X17773Y14044D01*
X17776Y14036D01*
X17781Y14026D01*
X17788Y14018D01*
X17810Y13967D01*
X17900Y13850D01*
X18017Y13760D01*
X18068Y13738D01*
X18068Y13738D01*
X18067Y13687D01*
X18066Y13684D01*
X18059Y13677D01*
X18048Y13675D01*
X18018Y13655D01*
X17855Y13492D01*
X17437D01*
X17400Y13542D01*
X17402Y13550D01*
Y13650D01*
X17394Y13689D01*
X17372Y13722D01*
X17339Y13744D01*
X17335Y13745D01*
X17334Y13751D01*
X17334Y13761D01*
X17332Y13767D01*
Y13850D01*
X17332Y13850D01*
X17325Y13881D01*
X17315Y13896D01*
X17314Y13900D01*
X17315Y13904D01*
X17325Y13919D01*
X17332Y13950D01*
X17332Y13950D01*
Y14033D01*
X17334Y14039D01*
X17334Y14049D01*
X17335Y14055D01*
X17339Y14056D01*
X17372Y14078D01*
X17394Y14111D01*
X17395Y14115D01*
X17401Y14116D01*
X17411Y14116D01*
X17417Y14118D01*
X17663D01*
X17669Y14116D01*
D02*
G37*
G36*
X16499Y13536D02*
X16500Y13533D01*
X16502Y13530D01*
X16505Y13527D01*
X16509Y13525D01*
X16513Y13523D01*
X16519Y13522D01*
X16525Y13521D01*
X16532Y13520D01*
X16540Y13520D01*
Y13480D01*
X16532Y13480D01*
X16525Y13479D01*
X16519Y13478D01*
X16513Y13477D01*
X16509Y13475D01*
X16505Y13473D01*
X16502Y13470D01*
X16500Y13467D01*
X16499Y13464D01*
X16499Y13460D01*
Y13540D01*
X16499Y13536D01*
D02*
G37*
G36*
X16944Y13607D02*
X16942Y13600D01*
X16942Y13592D01*
X16945Y13582D01*
X16949Y13571D01*
X16956Y13559D01*
X16965Y13546D01*
X16977Y13532D01*
X17006Y13500D01*
X16950Y13444D01*
X16933Y13460D01*
X16904Y13485D01*
X16891Y13494D01*
X16879Y13501D01*
X16868Y13505D01*
X16858Y13508D01*
X16850Y13508D01*
X16843Y13506D01*
X16837Y13501D01*
X16949Y13613D01*
X16944Y13607D01*
D02*
G37*
G36*
X19112Y13590D02*
X19141Y13565D01*
X19155Y13555D01*
X19167Y13548D01*
X19177Y13544D01*
X19187Y13542D01*
X19195Y13542D01*
X19202Y13544D01*
X19208Y13549D01*
X19182Y13520D01*
X19205Y13499D01*
X19211Y13495D01*
X19221Y13489D01*
X19226Y13486D01*
X19231Y13485D01*
X19116Y13432D01*
X19118Y13438D01*
X19119Y13444D01*
X19119Y13450D01*
X19101Y13431D01*
X19106Y13438D01*
X19108Y13445D01*
X19107Y13454D01*
X19105Y13463D01*
X19100Y13474D01*
X19093Y13486D01*
X19084Y13499D01*
X19073Y13513D01*
X19044Y13544D01*
X19095Y13606D01*
X19112Y13590D01*
D02*
G37*
G36*
X16836Y13230D02*
X16859Y13214D01*
X16886Y13209D01*
X17892D01*
X17924Y13170D01*
X17922Y13162D01*
Y10738D01*
X17933Y10684D01*
X17963Y10638D01*
X18009Y10608D01*
X18062Y10597D01*
X18238D01*
X18271Y10569D01*
X18234Y10526D01*
X16719D01*
X16677Y10569D01*
X16652Y10586D01*
X16623Y10591D01*
X15836D01*
X15830Y10639D01*
X15881Y10660D01*
X15921Y10699D01*
X15942Y10751D01*
Y10807D01*
X15924Y10850D01*
X15937Y10881D01*
X15950Y10900D01*
X17484D01*
X17504Y10850D01*
X17480Y10826D01*
X17459Y10774D01*
Y10719D01*
X17480Y10667D01*
X17520Y10628D01*
X17571Y10606D01*
X17627D01*
X17678Y10628D01*
X17718Y10667D01*
X17739Y10719D01*
Y10731D01*
X17739Y10732D01*
X17739Y10733D01*
X17749Y10744D01*
X17753Y10748D01*
X17758Y10761D01*
X17766Y10773D01*
X17771Y10800D01*
Y12950D01*
X17766Y12977D01*
X17750Y13000D01*
X17650Y13100D01*
X17627Y13116D01*
X17600Y13121D01*
X16330D01*
X16271Y13180D01*
Y13322D01*
X16286Y13335D01*
X16321Y13354D01*
X16350Y13348D01*
X16450D01*
X16489Y13356D01*
X16522Y13378D01*
X16544Y13411D01*
X16548Y13429D01*
X16637D01*
X16836Y13230D01*
D02*
G37*
G36*
X20055Y13155D02*
X20051Y13158D01*
X20047Y13160D01*
X20043Y13160D01*
X20037Y13159D01*
X20031Y13157D01*
X20025Y13154D01*
X20018Y13150D01*
X20011Y13144D01*
X20003Y13137D01*
X19995Y13129D01*
X19959Y13165D01*
X19967Y13173D01*
X19980Y13188D01*
X19984Y13195D01*
X19987Y13201D01*
X19989Y13207D01*
X19990Y13213D01*
X19990Y13217D01*
X19988Y13221D01*
X19985Y13225D01*
X20055Y13155D01*
D02*
G37*
G36*
X20561Y13192D02*
X20562Y13184D01*
X20563Y13176D01*
X20566Y13168D01*
X20569Y13160D01*
X20572Y13153D01*
X20576Y13146D01*
X20581Y13139D01*
X20587Y13132D01*
X20593Y13126D01*
X20467D01*
X20474Y13132D01*
X20479Y13139D01*
X20484Y13146D01*
X20488Y13153D01*
X20492Y13160D01*
X20495Y13168D01*
X20497Y13176D01*
X20499Y13184D01*
X20500Y13192D01*
X20500Y13200D01*
X20560D01*
X20561Y13192D01*
D02*
G37*
G36*
X22036Y13150D02*
X22033Y13149D01*
X22030Y13147D01*
X22027Y13144D01*
X22025Y13140D01*
X22023Y13136D01*
X22022Y13130D01*
X22021Y13124D01*
X22020Y13117D01*
X22020Y13109D01*
X21980D01*
X21980Y13117D01*
X21979Y13124D01*
X21978Y13130D01*
X21977Y13136D01*
X21975Y13140D01*
X21973Y13144D01*
X21970Y13147D01*
X21967Y13149D01*
X21964Y13150D01*
X21960Y13150D01*
X22040D01*
X22036Y13150D01*
D02*
G37*
G36*
X14606Y13097D02*
X14597Y13105D01*
X14581Y13119D01*
X14573Y13125D01*
X14565Y13129D01*
X14558Y13133D01*
X14550Y13136D01*
X14543Y13138D01*
X14535Y13140D01*
X14528Y13140D01*
Y13180D01*
X14535Y13180D01*
X14543Y13182D01*
X14550Y13184D01*
X14558Y13187D01*
X14565Y13191D01*
X14573Y13195D01*
X14581Y13201D01*
X14589Y13208D01*
X14597Y13215D01*
X14606Y13223D01*
Y13097D01*
D02*
G37*
G36*
X19699Y13145D02*
X19701Y13141D01*
X19703Y13137D01*
X19707Y13134D01*
X19711Y13131D01*
X19717Y13129D01*
X19724Y13127D01*
X19731Y13126D01*
X19740Y13125D01*
X19750Y13125D01*
Y13075D01*
X19740Y13075D01*
X19731Y13074D01*
X19724Y13073D01*
X19717Y13071D01*
X19711Y13069D01*
X19707Y13066D01*
X19703Y13063D01*
X19701Y13059D01*
X19699Y13055D01*
X19699Y13050D01*
X19699Y13150D01*
X19699Y13145D01*
D02*
G37*
G36*
X21423Y13105D02*
X21439Y13091D01*
X21447Y13085D01*
X21455Y13081D01*
X21462Y13077D01*
X21470Y13074D01*
X21477Y13072D01*
X21485Y13070D01*
X21492Y13070D01*
Y13030D01*
X21485Y13030D01*
X21477Y13028D01*
X21470Y13026D01*
X21462Y13023D01*
X21455Y13019D01*
X21447Y13015D01*
X21439Y13009D01*
X21431Y13002D01*
X21423Y12995D01*
X21414Y12987D01*
Y13113D01*
X21423Y13105D01*
D02*
G37*
G36*
X19699Y12745D02*
X19701Y12741D01*
X19703Y12737D01*
X19707Y12734D01*
X19711Y12731D01*
X19717Y12729D01*
X19724Y12727D01*
X19731Y12726D01*
X19740Y12725D01*
X19750Y12725D01*
Y12675D01*
X19740Y12675D01*
X19731Y12674D01*
X19724Y12673D01*
X19717Y12671D01*
X19711Y12669D01*
X19707Y12666D01*
X19703Y12663D01*
X19701Y12659D01*
X19699Y12655D01*
X19699Y12650D01*
X19699Y12750D01*
X19699Y12745D01*
D02*
G37*
G36*
X19980Y12650D02*
X19980Y12655D01*
X19978Y12659D01*
X19976Y12663D01*
X19972Y12666D01*
X19968Y12669D01*
X19962Y12671D01*
X19955Y12673D01*
X19948Y12674D01*
X19939Y12675D01*
X19929Y12675D01*
Y12725D01*
X19939Y12725D01*
X19948Y12726D01*
X19955Y12727D01*
X19962Y12729D01*
X19968Y12731D01*
X19972Y12734D01*
X19976Y12737D01*
X19978Y12741D01*
X19980Y12745D01*
X19980Y12750D01*
Y12650D01*
D02*
G37*
G36*
X21843Y12508D02*
X21840Y12510D01*
X21837Y12511D01*
X21834Y12512D01*
X21829Y12511D01*
X21825Y12510D01*
X21820Y12508D01*
X21815Y12504D01*
X21810Y12500D01*
X21804Y12495D01*
X21797Y12489D01*
X21769Y12517D01*
X21775Y12524D01*
X21784Y12535D01*
X21788Y12540D01*
X21790Y12545D01*
X21791Y12549D01*
X21792Y12554D01*
X21791Y12557D01*
X21790Y12560D01*
X21788Y12563D01*
X21843Y12508D01*
D02*
G37*
G36*
X21423Y12505D02*
X21439Y12491D01*
X21447Y12485D01*
X21455Y12481D01*
X21462Y12477D01*
X21470Y12474D01*
X21477Y12472D01*
X21485Y12470D01*
X21492Y12470D01*
Y12430D01*
X21485Y12430D01*
X21477Y12428D01*
X21470Y12426D01*
X21462Y12423D01*
X21455Y12419D01*
X21447Y12415D01*
X21439Y12409D01*
X21431Y12402D01*
X21423Y12395D01*
X21414Y12387D01*
Y12513D01*
X21423Y12505D01*
D02*
G37*
G36*
X19036Y11937D02*
X19027Y11945D01*
X19011Y11959D01*
X19003Y11965D01*
X18995Y11969D01*
X18988Y11973D01*
X18980Y11976D01*
X18973Y11978D01*
X18965Y11980D01*
X18958Y11980D01*
Y12020D01*
X18965Y12020D01*
X18973Y12022D01*
X18980Y12024D01*
X18988Y12027D01*
X18995Y12031D01*
X19003Y12035D01*
X19011Y12041D01*
X19019Y12048D01*
X19027Y12055D01*
X19036Y12063D01*
Y11937D01*
D02*
G37*
G36*
X21616Y11298D02*
X21609Y11306D01*
X21601Y11312D01*
X21593Y11318D01*
X21586Y11323D01*
X21578Y11327D01*
X21571Y11330D01*
X21563Y11333D01*
X21555Y11335D01*
X21548Y11336D01*
X21540Y11336D01*
Y11386D01*
X21548Y11387D01*
X21555Y11388D01*
X21563Y11390D01*
X21571Y11392D01*
X21578Y11396D01*
X21586Y11400D01*
X21593Y11405D01*
X21601Y11411D01*
X21609Y11417D01*
X21616Y11424D01*
Y11298D01*
D02*
G37*
G36*
X21758Y11408D02*
X21765Y11401D01*
X21771Y11395D01*
X21778Y11390D01*
X21785Y11385D01*
X21792Y11382D01*
X21800Y11379D01*
X21807Y11377D01*
X21815Y11375D01*
X21823Y11375D01*
X21817Y11325D01*
X21809Y11325D01*
X21802Y11324D01*
X21794Y11322D01*
X21786Y11320D01*
X21778Y11316D01*
X21770Y11313D01*
X21762Y11308D01*
X21753Y11303D01*
X21736Y11291D01*
X21752Y11416D01*
X21758Y11408D01*
D02*
G37*
G36*
X22418Y11403D02*
Y10500D01*
X22419Y10500D01*
X22404Y10392D01*
X22362Y10291D01*
X22296Y10204D01*
X22209Y10137D01*
X22108Y10096D01*
X22000Y10081D01*
X22000Y10082D01*
X15119Y10082D01*
X15086Y10132D01*
X15090Y10142D01*
Y10198D01*
X15069Y10249D01*
X15060Y10258D01*
X15080Y10308D01*
X16537D01*
X16575Y10270D01*
X16605Y10250D01*
X16640Y10243D01*
X20472D01*
X20507Y10250D01*
X20537Y10270D01*
X20596Y10329D01*
X20616Y10358D01*
X20623Y10393D01*
Y10444D01*
X20623Y10446D01*
X20623Y10451D01*
Y10452D01*
X20625Y10457D01*
X20625Y10465D01*
X20626Y10470D01*
X20626Y10474D01*
X20627Y10476D01*
X20628Y10478D01*
X20628Y10479D01*
X20630Y10480D01*
X20632Y10484D01*
X20669Y10521D01*
X20690Y10572D01*
Y10628D01*
X20671Y10674D01*
X20681Y10700D01*
X20695Y10724D01*
X21418D01*
X21524Y10618D01*
X21526Y10613D01*
X21526Y10612D01*
X21526Y10612D01*
X21530Y10608D01*
X21531Y10606D01*
X21532Y10604D01*
X21534Y10602D01*
X21535Y10599D01*
X21536Y10595D01*
X21536Y10590D01*
X21537Y10585D01*
X21537Y10579D01*
X21536Y10571D01*
X21540Y10560D01*
Y10533D01*
X21562Y10482D01*
X21601Y10443D01*
X21652Y10421D01*
X21708D01*
X21760Y10443D01*
X21799Y10482D01*
X21820Y10533D01*
Y10589D01*
X21799Y10641D01*
X21760Y10680D01*
X21708Y10701D01*
X21697D01*
X21690Y10705D01*
X21681Y10706D01*
X21673Y10707D01*
X21667Y10708D01*
X21662Y10709D01*
X21657Y10711D01*
X21653Y10713D01*
X21649Y10714D01*
X21647Y10716D01*
X21644Y10718D01*
X21641Y10721D01*
X21635Y10723D01*
X21504Y10854D01*
X21479Y10871D01*
X21450Y10876D01*
X20494D01*
X20475Y10923D01*
X20837Y11285D01*
X21532D01*
X21537Y11282D01*
X21542Y11282D01*
X21545Y11282D01*
X21548Y11281D01*
X21551Y11280D01*
X21554Y11278D01*
X21558Y11276D01*
X21562Y11273D01*
X21567Y11270D01*
X21572Y11265D01*
X21578Y11259D01*
X21588Y11256D01*
X21601Y11243D01*
X21652Y11221D01*
X21708D01*
X21760Y11243D01*
X21763Y11246D01*
X21768Y11247D01*
X21783Y11258D01*
X21789Y11261D01*
X21794Y11264D01*
X21799Y11267D01*
X21804Y11268D01*
X21808Y11270D01*
X21811Y11270D01*
X21814Y11271D01*
X21819Y11271D01*
X21825Y11274D01*
X22200D01*
X22229Y11279D01*
X22254Y11296D01*
X22359Y11401D01*
X22368Y11415D01*
X22418Y11403D01*
D02*
G37*
G36*
X17714Y10786D02*
X17709Y10781D01*
X17695Y10764D01*
X17693Y10761D01*
X17691Y10758D01*
X17690Y10756D01*
X17689Y10754D01*
X17689Y10752D01*
X17665Y10807D01*
X17666Y10806D01*
X17668Y10805D01*
X17670Y10805D01*
X17672Y10805D01*
X17674Y10805D01*
X17676Y10806D01*
X17678Y10808D01*
X17681Y10809D01*
X17683Y10812D01*
X17686Y10814D01*
X17714Y10786D01*
D02*
G37*
G36*
X15723Y10736D02*
X15718Y10745D01*
X15712Y10753D01*
X15706Y10760D01*
X15700Y10766D01*
X15694Y10771D01*
X15687Y10776D01*
X15680Y10779D01*
X15673Y10781D01*
X15666Y10783D01*
X15658Y10783D01*
X15670Y10823D01*
X15676Y10824D01*
X15683Y10825D01*
X15690Y10826D01*
X15698Y10829D01*
X15706Y10832D01*
X15725Y10840D01*
X15746Y10850D01*
X15757Y10857D01*
X15723Y10736D01*
D02*
G37*
G36*
X18319Y10720D02*
X18317Y10715D01*
X18317Y10711D01*
X18318Y10705D01*
X18320Y10699D01*
X18323Y10693D01*
X18328Y10686D01*
X18334Y10678D01*
X18341Y10670D01*
X18349Y10661D01*
X18314Y10626D01*
X18305Y10634D01*
X18289Y10647D01*
X18282Y10652D01*
X18276Y10655D01*
X18270Y10657D01*
X18264Y10658D01*
X18260Y10658D01*
X18255Y10656D01*
X18252Y10654D01*
X18321Y10723D01*
X18319Y10720D01*
D02*
G37*
G36*
X13295Y10650D02*
X13291Y10649D01*
X13287Y10646D01*
X13284Y10643D01*
X13281Y10638D01*
X13279Y10632D01*
X13277Y10626D01*
X13276Y10618D01*
X13275Y10609D01*
X13275Y10600D01*
X13225D01*
X13225Y10609D01*
X13224Y10618D01*
X13223Y10626D01*
X13221Y10632D01*
X13219Y10638D01*
X13216Y10643D01*
X13213Y10646D01*
X13209Y10649D01*
X13205Y10650D01*
X13200Y10651D01*
X13300D01*
X13295Y10650D01*
D02*
G37*
G36*
X21610Y10676D02*
X21616Y10671D01*
X21623Y10667D01*
X21630Y10663D01*
X21638Y10660D01*
X21646Y10657D01*
X21655Y10655D01*
X21665Y10653D01*
X21675Y10652D01*
X21685Y10651D01*
X21591Y10568D01*
X21591Y10578D01*
X21591Y10588D01*
X21590Y10597D01*
X21589Y10606D01*
X21586Y10614D01*
X21584Y10622D01*
X21580Y10629D01*
X21576Y10636D01*
X21572Y10642D01*
X21566Y10648D01*
X21604Y10681D01*
X21610Y10676D01*
D02*
G37*
G36*
X20598Y10524D02*
X20593Y10520D01*
X20588Y10516D01*
X20584Y10511D01*
X20581Y10505D01*
X20578Y10499D01*
X20575Y10492D01*
X20573Y10485D01*
X20572Y10477D01*
X20571Y10468D01*
X20571Y10458D01*
X20491Y10478D01*
X20491Y10488D01*
X20489Y10505D01*
X20488Y10513D01*
X20485Y10527D01*
X20483Y10534D01*
X20481Y10540D01*
X20478Y10545D01*
X20475Y10551D01*
X20598Y10524D01*
D02*
G37*
G36*
X12019Y10359D02*
X12024Y10355D01*
X12030Y10351D01*
X12036Y10348D01*
X12043Y10346D01*
X12050Y10344D01*
X12058Y10342D01*
X12067Y10341D01*
X12075Y10340D01*
X12085Y10340D01*
Y10260D01*
X12075Y10260D01*
X12067Y10259D01*
X12058Y10258D01*
X12050Y10256D01*
X12043Y10254D01*
X12036Y10252D01*
X12030Y10249D01*
X12024Y10245D01*
X12019Y10241D01*
X12014Y10237D01*
Y10363D01*
X12019Y10359D01*
D02*
G37*
%LPC*%
G36*
X19650Y12452D02*
X19550D01*
X19511Y12444D01*
X19478Y12422D01*
X19456Y12389D01*
X19448Y12350D01*
Y12250D01*
X19456Y12211D01*
X19478Y12178D01*
X19511Y12156D01*
X19550Y12148D01*
X19626D01*
X19635Y12135D01*
Y12079D01*
X19639Y12069D01*
X19601Y12030D01*
X19578Y12040D01*
X19522D01*
X19471Y12019D01*
X19431Y11979D01*
X19410Y11928D01*
Y11872D01*
X19431Y11821D01*
X19471Y11781D01*
X19522Y11760D01*
X19578D01*
X19629Y11781D01*
X19669Y11821D01*
X19690Y11872D01*
Y11928D01*
X19686Y11938D01*
X19724Y11977D01*
X19747Y11967D01*
X19803D01*
X19854Y11988D01*
X19877Y12011D01*
X19927Y11990D01*
Y11950D01*
X19939Y11891D01*
X19972Y11842D01*
X20021Y11809D01*
X20080Y11797D01*
X20320D01*
X20379Y11809D01*
X20428Y11842D01*
X20461Y11891D01*
X20473Y11950D01*
Y12150D01*
X20461Y12209D01*
X20428Y12258D01*
X20379Y12291D01*
X20320Y12303D01*
X20080D01*
X20056Y12298D01*
X20055Y12299D01*
X20052Y12297D01*
X20047Y12296D01*
X20039Y12303D01*
X20032Y12310D01*
X20026Y12312D01*
X20010Y12328D01*
X19986Y12344D01*
X19956Y12350D01*
X19825D01*
X19821Y12354D01*
X19796Y12371D01*
X19767Y12376D01*
X19757D01*
X19751Y12379D01*
X19746Y12379D01*
X19744Y12389D01*
X19722Y12422D01*
X19689Y12444D01*
X19650Y12452D01*
D02*
G37*
G36*
X21428Y11990D02*
X21372D01*
X21321Y11969D01*
X21281Y11929D01*
X21260Y11878D01*
Y11822D01*
X21281Y11771D01*
X21321Y11731D01*
X21372Y11710D01*
X21428D01*
X21479Y11731D01*
X21519Y11771D01*
X21540Y11822D01*
Y11878D01*
X21519Y11929D01*
X21479Y11969D01*
X21428Y11990D01*
D02*
G37*
%LPD*%
G36*
X19699Y12345D02*
X19701Y12341D01*
X19703Y12337D01*
X19707Y12334D01*
X19711Y12331D01*
X19717Y12329D01*
X19724Y12327D01*
X19731Y12326D01*
X19740Y12325D01*
X19750Y12325D01*
Y12275D01*
X19740Y12275D01*
X19731Y12274D01*
X19724Y12273D01*
X19717Y12271D01*
X19711Y12269D01*
X19707Y12266D01*
X19703Y12263D01*
X19701Y12259D01*
X19699Y12255D01*
X19699Y12250D01*
X19699Y12350D01*
X19699Y12345D01*
D02*
G37*
G36*
X20003Y12263D02*
X20018Y12250D01*
X20025Y12246D01*
X20031Y12243D01*
X20037Y12241D01*
X20043Y12240D01*
X20047Y12240D01*
X20051Y12242D01*
X20055Y12245D01*
X19985Y12175D01*
X19988Y12179D01*
X19990Y12183D01*
X19990Y12187D01*
X19989Y12193D01*
X19987Y12199D01*
X19984Y12205D01*
X19980Y12212D01*
X19974Y12219D01*
X19967Y12227D01*
X19959Y12235D01*
X19995Y12271D01*
X20003Y12263D01*
D02*
G37*
%LPC*%
G36*
X12374Y14376D02*
X11486D01*
Y13804D01*
X12374D01*
Y13939D01*
X12376Y13944D01*
X12377Y13952D01*
X12377Y13953D01*
X12378Y13953D01*
X12379Y13955D01*
X12385Y13958D01*
X12394Y13962D01*
X12408Y13965D01*
X12425Y13968D01*
X12447Y13970D01*
X12474Y13971D01*
X12478Y13973D01*
X12522D01*
X12578Y13917D01*
X12579Y13913D01*
X12633Y13855D01*
X12652Y13831D01*
X12667Y13810D01*
X12673Y13800D01*
Y13740D01*
X12672Y13738D01*
X12673Y13736D01*
Y13730D01*
X12673Y13730D01*
X12673Y13729D01*
Y13613D01*
X12682Y13569D01*
X12706Y13531D01*
X12744Y13507D01*
X12787Y13498D01*
X12912D01*
X12956Y13507D01*
X12994Y13531D01*
X13018Y13569D01*
X13027Y13613D01*
Y13887D01*
X13018Y13931D01*
X12994Y13969D01*
X12976Y13980D01*
X12975Y13983D01*
X12966Y13987D01*
X12956Y13993D01*
X12954Y13994D01*
X12948Y13998D01*
X12925Y14003D01*
X12904Y14009D01*
X12884Y14016D01*
X12865Y14024D01*
X12846Y14033D01*
X12828Y14043D01*
X12811Y14055D01*
X12794Y14067D01*
X12779Y14080D01*
X12762Y14095D01*
X12758Y14097D01*
X12665Y14190D01*
X12624Y14218D01*
X12575Y14227D01*
X12478D01*
X12474Y14229D01*
X12447Y14230D01*
X12425Y14232D01*
X12408Y14235D01*
X12394Y14238D01*
X12385Y14242D01*
X12379Y14245D01*
X12378Y14247D01*
X12377Y14247D01*
X12377Y14248D01*
X12376Y14256D01*
X12374Y14260D01*
Y14376D01*
D02*
G37*
G36*
Y13396D02*
X11486D01*
Y13232D01*
X11436Y13212D01*
X11429Y13219D01*
X11378Y13240D01*
X11322D01*
X11271Y13219D01*
X11231Y13179D01*
X11210Y13128D01*
Y13072D01*
X11231Y13021D01*
X11271Y12981D01*
X11322Y12960D01*
X11378D01*
X11429Y12981D01*
X11436Y12988D01*
X11486Y12968D01*
Y12824D01*
X12284D01*
X12312Y12782D01*
X12310Y12778D01*
Y12722D01*
X12331Y12671D01*
X12338Y12664D01*
X12343Y12615D01*
X12335Y12596D01*
X12332Y12596D01*
X12332Y12596D01*
X12332Y12596D01*
X11486D01*
Y12500D01*
X11459Y12485D01*
X11436Y12477D01*
X11390Y12496D01*
X11334D01*
X11282Y12475D01*
X11243Y12435D01*
X11222Y12384D01*
Y12328D01*
X11243Y12277D01*
X11282Y12237D01*
X11334Y12216D01*
X11390D01*
X11436Y12235D01*
X11459Y12227D01*
X11486Y12212D01*
Y12024D01*
X12374D01*
X12374Y12576D01*
X12385Y12585D01*
X12423Y12610D01*
X12478D01*
X12529Y12631D01*
X12569Y12671D01*
X12590Y12722D01*
Y12778D01*
X12569Y12829D01*
X12529Y12869D01*
X12478Y12890D01*
X12422D01*
X12415Y12887D01*
X12374Y12915D01*
Y13396D01*
D02*
G37*
%LPD*%
G36*
X12324Y14236D02*
X12328Y14223D01*
X12336Y14212D01*
X12347Y14202D01*
X12360Y14194D01*
X12377Y14187D01*
X12396Y14182D01*
X12419Y14178D01*
X12444Y14176D01*
X12472Y14175D01*
Y14025D01*
X12444Y14024D01*
X12419Y14022D01*
X12396Y14018D01*
X12377Y14013D01*
X12360Y14006D01*
X12347Y13998D01*
X12336Y13988D01*
X12328Y13977D01*
X12324Y13964D01*
X12322Y13950D01*
Y14024D01*
X12298Y14021D01*
X12287Y14019D01*
X12277Y14017D01*
X12269Y14014D01*
X12261Y14010D01*
X12255Y14006D01*
X12250Y14002D01*
X12133Y14100D01*
X12250Y14198D01*
X12255Y14194D01*
X12261Y14190D01*
X12269Y14186D01*
X12277Y14183D01*
X12287Y14181D01*
X12298Y14179D01*
X12310Y14177D01*
X12322Y14176D01*
Y14250D01*
X12324Y14236D01*
D02*
G37*
G36*
X12133Y14100D02*
X12036Y14018D01*
X12035Y14020D01*
X12031Y14021D01*
X11964Y14025D01*
X11948Y14025D01*
Y14175D01*
X12002Y14176D01*
X12020Y14177D01*
X12026Y14178D01*
X12031Y14179D01*
X12035Y14180D01*
X12036Y14182D01*
X12133Y14100D01*
D02*
G37*
G36*
X12743Y14040D02*
X12761Y14024D01*
X12780Y14010D01*
X12800Y13997D01*
X12821Y13985D01*
X12842Y13975D01*
X12865Y13966D01*
X12888Y13958D01*
X12912Y13951D01*
X12936Y13945D01*
X12726Y13738D01*
X12735Y13749D01*
X12739Y13763D01*
X12739Y13779D01*
X12734Y13797D01*
X12726Y13817D01*
X12713Y13839D01*
X12696Y13864D01*
X12674Y13890D01*
X12619Y13950D01*
X12725Y14056D01*
X12743Y14040D01*
D02*
G37*
D11*
X15150Y14700D02*
G03*
X15050Y14600I0J-100D01*
G01*
X14350Y13900D02*
G03*
X14200Y14050I-150J0D01*
G01*
X14350Y13733D02*
G03*
X14374Y13709I24J0D01*
G01*
X14000Y14200D02*
G03*
X14150Y14050I150J0D01*
G01*
X13576Y10400D02*
X16575D01*
X16640Y10335D01*
X13476Y10300D02*
X13576Y10400D01*
X16640Y10335D02*
X20472D01*
X20531Y10581D02*
X20550Y10600D01*
X20472Y10335D02*
X20531Y10393D01*
Y10581D01*
X11950Y10300D02*
X13476D01*
X16550Y15150D02*
X16650Y15050D01*
X16677D02*
X16797Y15170D01*
X16650Y15050D02*
X16677D01*
X16797Y15170D02*
X18555D01*
X15888Y15150D02*
X16550D01*
X18555Y15170D02*
X18838Y14888D01*
X14000Y14200D02*
Y14650D01*
X15770Y14675D02*
X15945Y14500D01*
X15950D01*
X15750Y14700D02*
X15770Y14680D01*
Y14675D02*
Y14680D01*
X15150Y14700D02*
X15750D01*
X15050Y14500D02*
Y14600D01*
X15750Y15012D02*
X15888Y15150D01*
X15750Y14700D02*
Y15012D01*
X19055Y13590D02*
X19200Y13445D01*
X18083Y13590D02*
X19055D01*
X19200Y13400D02*
Y13445D01*
X17893Y13400D02*
X18083Y13590D01*
X17050Y13400D02*
X17893D01*
X16850Y13600D02*
X17050Y13400D01*
X15050Y13750D02*
Y14500D01*
X15047Y13750D02*
X15050D01*
X14150Y14050D02*
X14200D01*
X14350Y13733D02*
Y13900D01*
X14000Y14650D02*
Y15000D01*
X13900Y14550D02*
X14000Y14650D01*
X12664Y14550D02*
X13900D01*
X12050Y14850D02*
X12364D01*
X12664Y14550D01*
D12*
X12850Y15100D02*
G03*
X12650Y15300I-200J0D01*
G01*
X12698Y15335D02*
X20904D01*
X12650Y15300D02*
X12664D01*
X12698Y15335D01*
X20904D02*
X20935Y15303D01*
X20949D01*
X12850Y14850D02*
X13626D01*
X12850D02*
Y15100D01*
X13626Y14849D02*
Y14850D01*
X11940Y14100D02*
X12575D01*
X11930Y14090D02*
X11940Y14100D01*
X12575D02*
X12850Y13825D01*
Y13750D02*
Y13825D01*
D15*
X17063Y14600D02*
G03*
X17025Y14586I0J-60D01*
G01*
X17818Y14250D02*
G03*
X18300Y13769I481J0D01*
G01*
D02*
G03*
X18781Y14250I0J482D01*
G01*
X18300Y14250D02*
G03*
X17950Y14600I-350J0D01*
G01*
X17250Y14850D02*
G03*
X17500Y14600I250J0D01*
G01*
X20530Y13061D02*
Y13570D01*
X19121Y13775D02*
X19266Y13630D01*
X20470D01*
X20530Y13570D01*
X16990Y14551D02*
X17025Y14586D01*
X16850Y14350D02*
X16990Y14551D01*
X16400Y14500D02*
X16403Y14497D01*
X16850Y14350D02*
Y14412D01*
X16765Y14497D02*
X16850Y14412D01*
X16403Y14497D02*
X16765D01*
X17063Y14600D02*
X17500D01*
X16400Y13900D02*
X17200D01*
X17768Y14200D02*
X17818Y14250D01*
Y14250D02*
Y14250D01*
X17500Y14600D02*
X17950D01*
X18723Y14525D02*
X18737Y14353D01*
X18723Y14525D02*
Y14580D01*
X18403Y14687D02*
X18618Y14685D01*
X18300Y14732D02*
X18403Y14687D01*
X18618Y14685D02*
X18723Y14580D01*
X18737Y14353D02*
X18781Y14250D01*
X16850Y14200D02*
Y14350D01*
X17250Y14200D02*
X17768D01*
X17250Y13950D02*
Y14200D01*
X17200Y13900D02*
X17250Y13950D01*
Y13600D02*
Y13850D01*
X17200Y13900D02*
X17250Y13850D01*
D28*
X16400Y14500D02*
D03*
Y14900D02*
D03*
Y13900D02*
D03*
Y13500D02*
D03*
X15050Y14500D02*
D03*
Y14900D02*
D03*
X15500D02*
D03*
Y14500D02*
D03*
X15950D02*
D03*
Y14900D02*
D03*
D29*
X16850Y14850D02*
D03*
X17250D02*
D03*
Y13600D02*
D03*
X16850D02*
D03*
Y14200D02*
D03*
X17250D02*
D03*
X19200Y13450D02*
D03*
X19600D02*
D03*
X19200Y12700D02*
D03*
X19600D02*
D03*
X19200Y12300D02*
D03*
X19600D02*
D03*
X19200Y13100D02*
D03*
X19600D02*
D03*
D37*
X13626Y13709D02*
D03*
X14000D02*
D03*
X14374D02*
D03*
Y14849D02*
D03*
X13626D02*
D03*
D58*
X18000Y14446D02*
G03*
X17972Y14484I-40J0D01*
G01*
X17150Y14490D02*
G03*
X17050Y14390I0J-100D01*
G01*
X17958Y14488D02*
G03*
X17946Y14490I-12J-38D01*
G01*
X16983Y14010D02*
G03*
X17005Y14016I-0J40D01*
G01*
D02*
G03*
X17050Y14100I-55J84D01*
G01*
X15648Y10803D02*
X15778D01*
X13810Y10840D02*
X15611D01*
X13650Y11000D02*
X13810Y10840D01*
X15778Y10803D02*
X15802Y10779D01*
X15611Y10840D02*
X15648Y10803D01*
X17600Y10700D02*
X17700Y10800D01*
X16300Y13050D02*
X17600D01*
X17700Y10800D02*
Y12950D01*
X18000Y14050D02*
Y14446D01*
X17600Y13050D02*
X17700Y12950D01*
X17958Y14488D02*
X17972Y14484D01*
X13650Y11000D02*
Y13050D01*
X13760Y13160D02*
X14670D01*
X13650Y13050D02*
X13760Y13160D01*
X19200Y12126D02*
X19350Y11976D01*
X19200Y12126D02*
Y12300D01*
X19350Y11100D02*
Y11976D01*
X21950Y13050D02*
X22000Y13100D01*
X21350Y13050D02*
X21950D01*
X13679Y13371D02*
X15174D01*
X13626Y13424D02*
Y13709D01*
Y13424D02*
X13679Y13371D01*
X15665Y13685D02*
Y13950D01*
Y13685D02*
X15735Y13615D01*
X17146Y15030D02*
X18455D01*
X17050Y14934D02*
X17146Y15030D01*
X17050Y14766D02*
Y14934D01*
X19261Y13161D02*
X19311D01*
X19200Y13100D02*
X19261Y13161D01*
X19311D02*
X19600Y13450D01*
X19200Y12700D02*
Y13100D01*
Y12300D02*
Y12700D01*
X22000Y13100D02*
Y13350D01*
X21730Y12450D02*
X21980Y12700D01*
X21350Y12450D02*
X21730D01*
X21980Y12700D02*
X22000D01*
X17943Y13280D02*
X17993Y13330D01*
X18307D02*
X18405Y13232D01*
X16886Y13280D02*
X17943D01*
X17993Y13330D02*
X18307D01*
X18550Y12000D02*
X19100D01*
X18405Y12145D02*
X18550Y12000D01*
X16266Y14650D02*
X16280D01*
X16300Y14670D01*
X16680D01*
X16171Y14554D02*
X16266Y14650D01*
X16680Y14670D02*
X16710Y14640D01*
X16924D01*
X17050Y14766D01*
X16171Y14437D02*
Y14554D01*
X15468Y14300D02*
X16034D01*
X16171Y14437D01*
X15174Y13371D02*
X15339Y13536D01*
X15500Y13030D02*
X15700D01*
X15770Y13100D01*
X15505Y13725D02*
Y13870D01*
X15735Y13462D02*
Y13615D01*
X15339Y13559D02*
X15505Y13725D01*
X15735Y13462D02*
X15770Y13427D01*
X15339Y13536D02*
Y13559D01*
X15770Y13100D02*
Y13427D01*
X15335Y13800D02*
Y14168D01*
X15495Y14145D02*
X15550Y14200D01*
X15495Y13880D02*
Y14145D01*
Y13880D02*
X15505Y13870D01*
X15953Y13750D02*
Y14147D01*
X15900Y14200D02*
X15953Y14147D01*
X15550Y14200D02*
X15900D01*
X15335Y14168D02*
X15468Y14300D01*
X18405Y12145D02*
Y13232D01*
X16400Y13500D02*
X16666D01*
X16886Y13280D01*
X16200Y13150D02*
X16300Y13050D01*
X16200Y13150D02*
Y14000D01*
X16280Y14080D01*
X14374Y14849D02*
X14425Y14900D01*
X15050D01*
X15500D01*
X16983Y14010D02*
X16983D01*
X16565Y14080D02*
X16635Y14010D01*
X16280Y14080D02*
X16565D01*
X16635Y14010D02*
X16983D01*
X18100Y13950D02*
X18450D01*
X18000Y14050D02*
X18100Y13950D01*
X18450D02*
X18557Y14057D01*
X17150Y14490D02*
X17946D01*
X17050Y14100D02*
Y14390D01*
X18543Y14505D02*
X18557Y14491D01*
Y14057D02*
Y14491D01*
X18796Y14688D02*
X18902Y14600D01*
X18773Y14712D02*
X18796Y14688D01*
X18455Y15030D02*
X18773Y14712D01*
D59*
X16623Y10515D02*
X16688Y10450D01*
X13250Y10534D02*
X13269Y10515D01*
X16623D01*
X13250Y10534D02*
Y11950D01*
X20050Y10450D02*
X20400Y10800D01*
X16688Y10450D02*
X20050D01*
X18150Y10825D02*
X18425Y10550D01*
X19994D02*
X20806Y11361D01*
X18425Y10550D02*
X19994D01*
X19600Y12300D02*
X19767D01*
X19793Y12274D01*
X19956D01*
X20180Y12050D01*
X19105Y14183D02*
X19106Y14182D01*
X19600Y12700D02*
X20200D01*
X20180Y12050D02*
X20200D01*
X19930Y13100D02*
X20180Y13350D01*
X20200D01*
X19600Y13100D02*
X19930D01*
X20806Y11361D02*
X21680D01*
X20400Y10800D02*
X21450D01*
X21700Y10550D01*
X18150Y10825D02*
Y11950D01*
X21700Y11350D02*
X22200D01*
X22305Y11455D01*
Y14016D01*
D60*
X10900Y13600D02*
D03*
Y11860D02*
D03*
D61*
X20400Y13870D02*
D03*
X11350Y13100D02*
D03*
X11362Y12356D02*
D03*
X12450Y12750D02*
D03*
X15545Y10680D02*
D03*
X14950Y10170D02*
D03*
X17835Y13050D02*
D03*
X12030Y13111D02*
D03*
X12200Y11450D02*
D03*
X12180Y12211D02*
D03*
X19398Y15102D02*
D03*
X16999Y10615D02*
D03*
X11000Y11350D02*
D03*
Y11100D02*
D03*
X10950Y14300D02*
D03*
X12850Y11500D02*
D03*
X19950Y11100D02*
D03*
X19350D02*
D03*
X21350Y13050D02*
D03*
X20530Y13061D02*
D03*
X10499Y10296D02*
D03*
Y15146D02*
D03*
X19110Y15110D02*
D03*
X16650Y15050D02*
D03*
X16884Y14980D02*
D03*
X17649Y13946D02*
D03*
Y13696D02*
D03*
X16241Y14960D02*
D03*
X15665Y13950D02*
D03*
X10950Y14050D02*
D03*
X12899Y13346D02*
D03*
X14749Y15096D02*
D03*
X19850Y12450D02*
D03*
X19950Y13800D02*
D03*
X19550Y11900D02*
D03*
X19400Y14850D02*
D03*
X15950Y14750D02*
D03*
X15499Y14496D02*
D03*
X13149Y14246D02*
D03*
X20550Y11400D02*
D03*
X13600Y10800D02*
D03*
X21700Y14700D02*
D03*
Y13900D02*
D03*
X20800Y13050D02*
D03*
X20750Y12300D02*
D03*
X21350Y12450D02*
D03*
X21849Y12246D02*
D03*
X19106Y14182D02*
D03*
X19121Y13775D02*
D03*
X19007Y13975D02*
D03*
X21400Y11850D02*
D03*
X19775Y12107D02*
D03*
X18950Y13400D02*
D03*
X19350Y13850D02*
D03*
X17547Y14835D02*
D03*
X19150Y11600D02*
D03*
X18950Y11800D02*
D03*
X19100Y12000D02*
D03*
X14670Y13160D02*
D03*
X15565Y13545D02*
D03*
X15335Y13800D02*
D03*
X14347Y13546D02*
D03*
X15600Y13250D02*
D03*
X17599Y10746D02*
D03*
X18902Y14600D02*
D03*
X18543Y14505D02*
D03*
X15802Y10779D02*
D03*
X21680Y11361D02*
D03*
X22305Y14016D02*
D03*
X21680Y10561D02*
D03*
X18838Y14888D02*
D03*
X19200Y13400D02*
D03*
X15050Y14500D02*
D03*
X20550Y10600D02*
D03*
X11950Y10300D02*
D03*
X14000Y15000D02*
D03*
X12050Y14850D02*
D03*
D62*
X20949Y15303D02*
D03*
X12650Y15300D02*
D03*
D63*
X12150Y14100D02*
D03*
D64*
X11930Y14090D02*
D03*
Y13110D02*
D03*
Y12310D02*
D03*
Y11340D02*
D03*
D65*
X12850Y13750D02*
D03*
Y14850D02*
D03*
D66*
X15700Y11950D02*
D03*
D67*
X18150D02*
D03*
X13250D02*
D03*
D68*
X15047Y13750D02*
D03*
X15953D02*
D03*
D69*
X20200Y12050D02*
D03*
Y13350D02*
D03*
X22000D02*
D03*
Y12050D02*
D03*
X20200Y12700D02*
D03*
X22000D02*
D03*
D70*
X18300Y14250D02*
D03*
D71*
X18300Y14732D02*
D03*
Y13769D02*
D03*
D72*
X17818Y14250D02*
D03*
X18781D02*
D03*
M02*
