G04*
G04 #@! TF.GenerationSoftware,Altium Limited,Altium Designer,21.6.4 (81)*
G04*
G04 Layer_Color=8388736*
%FSLAX24Y24*%
%MOIN*%
G70*
G04*
G04 #@! TF.SameCoordinates,18F95803-63CF-49D0-9880-B3B199DA49BA*
G04*
G04*
G04 #@! TF.FilePolarity,Negative*
G04*
G01*
G75*
%ADD38O,0.0530X0.0220*%
%ADD39O,0.0560X0.0220*%
G04:AMPARAMS|DCode=40|XSize=22mil|YSize=53mil|CornerRadius=0mil|HoleSize=0mil|Usage=FLASHONLY|Rotation=180.000|XOffset=0mil|YOffset=0mil|HoleType=Round|Shape=Octagon|*
%AMOCTAGOND40*
4,1,8,0.0055,-0.0265,-0.0055,-0.0265,-0.0110,-0.0210,-0.0110,0.0210,-0.0055,0.0265,0.0055,0.0265,0.0110,0.0210,0.0110,-0.0210,0.0055,-0.0265,0.0*
%
%ADD40OCTAGOND40*%

%ADD41O,0.0220X0.0560*%
%ADD42O,0.0220X0.0530*%
%ADD43R,0.0434X0.0434*%
G04:AMPARAMS|DCode=44|XSize=40mil|YSize=40mil|CornerRadius=20mil|HoleSize=0mil|Usage=FLASHONLY|Rotation=60.000|XOffset=0mil|YOffset=0mil|HoleType=Round|Shape=RoundedRectangle|*
%AMROUNDEDRECTD44*
21,1,0.0400,0.0000,0,0,60.0*
21,1,0.0000,0.0400,0,0,60.0*
1,1,0.0400,0.0000,0.0000*
1,1,0.0400,0.0000,0.0000*
1,1,0.0400,0.0000,0.0000*
1,1,0.0400,0.0000,0.0000*
%
%ADD44ROUNDEDRECTD44*%
G04:AMPARAMS|DCode=45|XSize=24mil|YSize=24mil|CornerRadius=12mil|HoleSize=0mil|Usage=FLASHONLY|Rotation=180.000|XOffset=0mil|YOffset=0mil|HoleType=Round|Shape=RoundedRectangle|*
%AMROUNDEDRECTD45*
21,1,0.0240,0.0000,0,0,180.0*
21,1,0.0000,0.0240,0,0,180.0*
1,1,0.0240,0.0000,0.0000*
1,1,0.0240,0.0000,0.0000*
1,1,0.0240,0.0000,0.0000*
1,1,0.0240,0.0000,0.0000*
%
%ADD45ROUNDEDRECTD45*%
%ADD46R,0.0592X0.0552*%
G04:AMPARAMS|DCode=47|XSize=28mil|YSize=28mil|CornerRadius=9mil|HoleSize=0mil|Usage=FLASHONLY|Rotation=180.000|XOffset=0mil|YOffset=0mil|HoleType=Round|Shape=RoundedRectangle|*
%AMROUNDEDRECTD47*
21,1,0.0280,0.0100,0,0,180.0*
21,1,0.0100,0.0280,0,0,180.0*
1,1,0.0180,-0.0050,0.0050*
1,1,0.0180,0.0050,0.0050*
1,1,0.0180,0.0050,-0.0050*
1,1,0.0180,-0.0050,-0.0050*
%
%ADD47ROUNDEDRECTD47*%
G04:AMPARAMS|DCode=48|XSize=28mil|YSize=28mil|CornerRadius=9mil|HoleSize=0mil|Usage=FLASHONLY|Rotation=270.000|XOffset=0mil|YOffset=0mil|HoleType=Round|Shape=RoundedRectangle|*
%AMROUNDEDRECTD48*
21,1,0.0280,0.0100,0,0,270.0*
21,1,0.0100,0.0280,0,0,270.0*
1,1,0.0180,-0.0050,-0.0050*
1,1,0.0180,-0.0050,0.0050*
1,1,0.0180,0.0050,0.0050*
1,1,0.0180,0.0050,-0.0050*
%
%ADD48ROUNDEDRECTD48*%
G04:AMPARAMS|DCode=49|XSize=58mil|YSize=38mil|CornerRadius=11.5mil|HoleSize=0mil|Usage=FLASHONLY|Rotation=180.000|XOffset=0mil|YOffset=0mil|HoleType=Round|Shape=RoundedRectangle|*
%AMROUNDEDRECTD49*
21,1,0.0580,0.0150,0,0,180.0*
21,1,0.0350,0.0380,0,0,180.0*
1,1,0.0230,-0.0175,0.0075*
1,1,0.0230,0.0175,0.0075*
1,1,0.0230,0.0175,-0.0075*
1,1,0.0230,-0.0175,-0.0075*
%
%ADD49ROUNDEDRECTD49*%
%ADD50O,0.0671X0.0218*%
%ADD51R,0.0671X0.0218*%
%ADD52R,0.1143X0.1182*%
G04:AMPARAMS|DCode=53|XSize=22mil|YSize=48mil|CornerRadius=8mil|HoleSize=0mil|Usage=FLASHONLY|Rotation=180.000|XOffset=0mil|YOffset=0mil|HoleType=Round|Shape=RoundedRectangle|*
%AMROUNDEDRECTD53*
21,1,0.0220,0.0320,0,0,180.0*
21,1,0.0060,0.0480,0,0,180.0*
1,1,0.0160,-0.0030,0.0160*
1,1,0.0160,0.0030,0.0160*
1,1,0.0160,0.0030,-0.0160*
1,1,0.0160,-0.0030,-0.0160*
%
%ADD53ROUNDEDRECTD53*%
G04:AMPARAMS|DCode=54|XSize=22mil|YSize=48mil|CornerRadius=8mil|HoleSize=0mil|Usage=FLASHONLY|Rotation=270.000|XOffset=0mil|YOffset=0mil|HoleType=Round|Shape=RoundedRectangle|*
%AMROUNDEDRECTD54*
21,1,0.0220,0.0320,0,0,270.0*
21,1,0.0060,0.0480,0,0,270.0*
1,1,0.0160,-0.0160,-0.0030*
1,1,0.0160,-0.0160,0.0030*
1,1,0.0160,0.0160,0.0030*
1,1,0.0160,0.0160,-0.0030*
%
%ADD54ROUNDEDRECTD54*%
G04:AMPARAMS|DCode=55|XSize=68mil|YSize=108mil|CornerRadius=19mil|HoleSize=0mil|Usage=FLASHONLY|Rotation=90.000|XOffset=0mil|YOffset=0mil|HoleType=Round|Shape=RoundedRectangle|*
%AMROUNDEDRECTD55*
21,1,0.0680,0.0700,0,0,90.0*
21,1,0.0300,0.1080,0,0,90.0*
1,1,0.0380,0.0350,0.0150*
1,1,0.0380,0.0350,-0.0150*
1,1,0.0380,-0.0350,-0.0150*
1,1,0.0380,-0.0350,0.0150*
%
%ADD55ROUNDEDRECTD55*%
G04:AMPARAMS|DCode=56|XSize=31.6mil|YSize=43mil|CornerRadius=9.9mil|HoleSize=0mil|Usage=FLASHONLY|Rotation=180.000|XOffset=0mil|YOffset=0mil|HoleType=Round|Shape=RoundedRectangle|*
%AMROUNDEDRECTD56*
21,1,0.0316,0.0232,0,0,180.0*
21,1,0.0118,0.0430,0,0,180.0*
1,1,0.0198,-0.0059,0.0116*
1,1,0.0198,0.0059,0.0116*
1,1,0.0198,0.0059,-0.0116*
1,1,0.0198,-0.0059,-0.0116*
%
%ADD56ROUNDEDRECTD56*%
%ADD57O,0.1064X0.0474*%
G36*
X18372Y12400D02*
X16572D01*
Y14200D01*
X18372D01*
Y12400D01*
D02*
G37*
D38*
X16094Y14383D02*
D03*
Y12217D02*
D03*
X18850D02*
D03*
Y14383D02*
D03*
D39*
X16094Y14186D02*
D03*
Y13989D02*
D03*
Y13792D02*
D03*
Y13595D02*
D03*
Y13398D02*
D03*
Y13202D02*
D03*
Y13005D02*
D03*
Y12808D02*
D03*
Y12611D02*
D03*
Y12414D02*
D03*
X18850D02*
D03*
Y12611D02*
D03*
Y12808D02*
D03*
Y13005D02*
D03*
Y13202D02*
D03*
Y13398D02*
D03*
Y13595D02*
D03*
Y13792D02*
D03*
Y13989D02*
D03*
Y14186D02*
D03*
D40*
X18555Y14678D02*
D03*
D41*
X18358D02*
D03*
X18161D02*
D03*
X17964D02*
D03*
X17767D02*
D03*
X17570D02*
D03*
X17374D02*
D03*
X17177D02*
D03*
X16980D02*
D03*
X16783D02*
D03*
X16586D02*
D03*
X18358Y11922D02*
D03*
X18161D02*
D03*
X17964D02*
D03*
X17767D02*
D03*
X17570D02*
D03*
X17374D02*
D03*
X17177D02*
D03*
X16980D02*
D03*
X16783D02*
D03*
X16586D02*
D03*
D42*
X16389Y14678D02*
D03*
X18555Y11922D02*
D03*
X16389D02*
D03*
D43*
X17472Y13300D02*
D03*
D44*
X11050Y12400D02*
D03*
Y13100D02*
D03*
D45*
X15250Y15200D02*
D03*
Y14800D02*
D03*
Y14350D02*
D03*
D46*
X16187Y11135D02*
D03*
X17013D02*
D03*
Y10465D02*
D03*
X16187D02*
D03*
D47*
X17600Y10650D02*
D03*
Y10250D02*
D03*
X15550D02*
D03*
Y10650D02*
D03*
X19950Y11900D02*
D03*
Y12300D02*
D03*
X19550Y11900D02*
D03*
Y12300D02*
D03*
X20550Y11000D02*
D03*
Y11400D02*
D03*
Y10200D02*
D03*
Y10600D02*
D03*
X20750Y12300D02*
D03*
Y11900D02*
D03*
X20350Y12300D02*
D03*
Y11900D02*
D03*
X15550Y11400D02*
D03*
Y11000D02*
D03*
X19350Y14850D02*
D03*
Y15250D02*
D03*
X21650Y13650D02*
D03*
Y13250D02*
D03*
X22050Y13650D02*
D03*
Y13250D02*
D03*
X19350Y14100D02*
D03*
Y14500D02*
D03*
X12750Y14600D02*
D03*
Y15000D02*
D03*
X13150Y14600D02*
D03*
Y15000D02*
D03*
Y13850D02*
D03*
Y14250D02*
D03*
X12750Y12400D02*
D03*
Y12800D02*
D03*
Y14250D02*
D03*
Y13850D02*
D03*
D48*
X19600Y13750D02*
D03*
X20000D02*
D03*
X16250Y15250D02*
D03*
X15850D02*
D03*
X20000Y13050D02*
D03*
X19600D02*
D03*
X20400Y12650D02*
D03*
X20800D02*
D03*
X20000Y13400D02*
D03*
X19600D02*
D03*
X20400D02*
D03*
X20800D02*
D03*
X20400Y13050D02*
D03*
X20800D02*
D03*
X15100Y12850D02*
D03*
X15500D02*
D03*
X15100Y12500D02*
D03*
X15500D02*
D03*
X20400Y13750D02*
D03*
X20800D02*
D03*
X21650Y12850D02*
D03*
X22050D02*
D03*
X21650Y12450D02*
D03*
X22050D02*
D03*
X12750Y10300D02*
D03*
X12350D02*
D03*
X22050Y12050D02*
D03*
X21650D02*
D03*
X10750Y10300D02*
D03*
X11150D02*
D03*
X11550D02*
D03*
X11950D02*
D03*
X10750Y15150D02*
D03*
X11150D02*
D03*
X11550D02*
D03*
X11950D02*
D03*
D49*
X18250Y10480D02*
D03*
X19950D02*
D03*
X18250Y11120D02*
D03*
X19950D02*
D03*
D50*
X19985Y14422D02*
D03*
X21915Y14934D02*
D03*
Y14678D02*
D03*
Y14422D02*
D03*
Y14166D02*
D03*
X19985D02*
D03*
Y14678D02*
D03*
D51*
Y14934D02*
D03*
D52*
X14000Y11300D02*
D03*
D53*
X13409Y12215D02*
D03*
X13606D02*
D03*
X13803D02*
D03*
X14000D02*
D03*
X14197D02*
D03*
X14394D02*
D03*
X14591D02*
D03*
Y10385D02*
D03*
X14394D02*
D03*
X14197D02*
D03*
X14000D02*
D03*
X13803D02*
D03*
X13606D02*
D03*
X13409D02*
D03*
D54*
X14915Y11891D02*
D03*
Y11694D02*
D03*
Y11497D02*
D03*
Y11300D02*
D03*
Y11103D02*
D03*
Y10906D02*
D03*
Y10709D02*
D03*
X13085D02*
D03*
Y10906D02*
D03*
Y11103D02*
D03*
Y11300D02*
D03*
Y11497D02*
D03*
Y11694D02*
D03*
Y11891D02*
D03*
D55*
X21700Y11350D02*
D03*
Y10450D02*
D03*
D56*
X14474Y14999D02*
D03*
X13726D02*
D03*
Y13859D02*
D03*
X14100D02*
D03*
X14474D02*
D03*
D57*
X10900Y13600D02*
D03*
Y11860D02*
D03*
M02*
