G04*
G04 #@! TF.GenerationSoftware,Altium Limited,Altium Designer,21.6.4 (81)*
G04*
G04 Layer_Color=255*
%FSLAX24Y24*%
%MOIN*%
G70*
G04*
G04 #@! TF.SameCoordinates,18F95803-63CF-49D0-9880-B3B199DA49BA*
G04*
G04*
G04 #@! TF.FilePolarity,Positive*
G04*
G01*
G75*
%ADD19O,0.0450X0.0140*%
%ADD20O,0.0480X0.0140*%
G04:AMPARAMS|DCode=21|XSize=14mil|YSize=45mil|CornerRadius=0mil|HoleSize=0mil|Usage=FLASHONLY|Rotation=180.000|XOffset=0mil|YOffset=0mil|HoleType=Round|Shape=Octagon|*
%AMOCTAGOND21*
4,1,8,0.0035,-0.0225,-0.0035,-0.0225,-0.0070,-0.0190,-0.0070,0.0190,-0.0035,0.0225,0.0035,0.0225,0.0070,0.0190,0.0070,-0.0190,0.0035,-0.0225,0.0*
%
%ADD21OCTAGOND21*%

%ADD22O,0.0140X0.0480*%
%ADD23O,0.0140X0.0450*%
%ADD24R,0.0394X0.0394*%
G04:AMPARAMS|DCode=25|XSize=32mil|YSize=32mil|CornerRadius=16mil|HoleSize=0mil|Usage=FLASHONLY|Rotation=60.000|XOffset=0mil|YOffset=0mil|HoleType=Round|Shape=RoundedRectangle|*
%AMROUNDEDRECTD25*
21,1,0.0320,0.0000,0,0,60.0*
21,1,0.0000,0.0320,0,0,60.0*
1,1,0.0320,0.0000,0.0000*
1,1,0.0320,0.0000,0.0000*
1,1,0.0320,0.0000,0.0000*
1,1,0.0320,0.0000,0.0000*
%
%ADD25ROUNDEDRECTD25*%
G04:AMPARAMS|DCode=26|XSize=16mil|YSize=16mil|CornerRadius=8mil|HoleSize=0mil|Usage=FLASHONLY|Rotation=180.000|XOffset=0mil|YOffset=0mil|HoleType=Round|Shape=RoundedRectangle|*
%AMROUNDEDRECTD26*
21,1,0.0160,0.0000,0,0,180.0*
21,1,0.0000,0.0160,0,0,180.0*
1,1,0.0160,0.0000,0.0000*
1,1,0.0160,0.0000,0.0000*
1,1,0.0160,0.0000,0.0000*
1,1,0.0160,0.0000,0.0000*
%
%ADD26ROUNDEDRECTD26*%
%ADD27R,0.0512X0.0472*%
G04:AMPARAMS|DCode=28|XSize=20mil|YSize=20mil|CornerRadius=5mil|HoleSize=0mil|Usage=FLASHONLY|Rotation=180.000|XOffset=0mil|YOffset=0mil|HoleType=Round|Shape=RoundedRectangle|*
%AMROUNDEDRECTD28*
21,1,0.0200,0.0100,0,0,180.0*
21,1,0.0100,0.0200,0,0,180.0*
1,1,0.0100,-0.0050,0.0050*
1,1,0.0100,0.0050,0.0050*
1,1,0.0100,0.0050,-0.0050*
1,1,0.0100,-0.0050,-0.0050*
%
%ADD28ROUNDEDRECTD28*%
G04:AMPARAMS|DCode=29|XSize=20mil|YSize=20mil|CornerRadius=5mil|HoleSize=0mil|Usage=FLASHONLY|Rotation=270.000|XOffset=0mil|YOffset=0mil|HoleType=Round|Shape=RoundedRectangle|*
%AMROUNDEDRECTD29*
21,1,0.0200,0.0100,0,0,270.0*
21,1,0.0100,0.0200,0,0,270.0*
1,1,0.0100,-0.0050,-0.0050*
1,1,0.0100,-0.0050,0.0050*
1,1,0.0100,0.0050,0.0050*
1,1,0.0100,0.0050,-0.0050*
%
%ADD29ROUNDEDRECTD29*%
G04:AMPARAMS|DCode=30|XSize=50mil|YSize=30mil|CornerRadius=7.5mil|HoleSize=0mil|Usage=FLASHONLY|Rotation=180.000|XOffset=0mil|YOffset=0mil|HoleType=Round|Shape=RoundedRectangle|*
%AMROUNDEDRECTD30*
21,1,0.0500,0.0150,0,0,180.0*
21,1,0.0350,0.0300,0,0,180.0*
1,1,0.0150,-0.0175,0.0075*
1,1,0.0150,0.0175,0.0075*
1,1,0.0150,0.0175,-0.0075*
1,1,0.0150,-0.0175,-0.0075*
%
%ADD30ROUNDEDRECTD30*%
%ADD31O,0.0591X0.0138*%
%ADD32R,0.0591X0.0138*%
%ADD33R,0.1063X0.1102*%
G04:AMPARAMS|DCode=34|XSize=12mil|YSize=38mil|CornerRadius=3mil|HoleSize=0mil|Usage=FLASHONLY|Rotation=180.000|XOffset=0mil|YOffset=0mil|HoleType=Round|Shape=RoundedRectangle|*
%AMROUNDEDRECTD34*
21,1,0.0120,0.0320,0,0,180.0*
21,1,0.0060,0.0380,0,0,180.0*
1,1,0.0060,-0.0030,0.0160*
1,1,0.0060,0.0030,0.0160*
1,1,0.0060,0.0030,-0.0160*
1,1,0.0060,-0.0030,-0.0160*
%
%ADD34ROUNDEDRECTD34*%
G04:AMPARAMS|DCode=35|XSize=12mil|YSize=38mil|CornerRadius=3mil|HoleSize=0mil|Usage=FLASHONLY|Rotation=270.000|XOffset=0mil|YOffset=0mil|HoleType=Round|Shape=RoundedRectangle|*
%AMROUNDEDRECTD35*
21,1,0.0120,0.0320,0,0,270.0*
21,1,0.0060,0.0380,0,0,270.0*
1,1,0.0060,-0.0160,-0.0030*
1,1,0.0060,-0.0160,0.0030*
1,1,0.0060,0.0160,0.0030*
1,1,0.0060,0.0160,-0.0030*
%
%ADD35ROUNDEDRECTD35*%
G04:AMPARAMS|DCode=36|XSize=60mil|YSize=100mil|CornerRadius=15mil|HoleSize=0mil|Usage=FLASHONLY|Rotation=90.000|XOffset=0mil|YOffset=0mil|HoleType=Round|Shape=RoundedRectangle|*
%AMROUNDEDRECTD36*
21,1,0.0600,0.0700,0,0,90.0*
21,1,0.0300,0.1000,0,0,90.0*
1,1,0.0300,0.0350,0.0150*
1,1,0.0300,0.0350,-0.0150*
1,1,0.0300,-0.0350,-0.0150*
1,1,0.0300,-0.0350,0.0150*
%
%ADD36ROUNDEDRECTD36*%
G04:AMPARAMS|DCode=37|XSize=23.6mil|YSize=35mil|CornerRadius=5.9mil|HoleSize=0mil|Usage=FLASHONLY|Rotation=180.000|XOffset=0mil|YOffset=0mil|HoleType=Round|Shape=RoundedRectangle|*
%AMROUNDEDRECTD37*
21,1,0.0236,0.0232,0,0,180.0*
21,1,0.0118,0.0350,0,0,180.0*
1,1,0.0118,-0.0059,0.0116*
1,1,0.0118,0.0059,0.0116*
1,1,0.0118,0.0059,-0.0116*
1,1,0.0118,-0.0059,-0.0116*
%
%ADD37ROUNDEDRECTD37*%
%ADD60O,0.0984X0.0394*%
D19*
X16094Y14383D02*
D03*
Y12217D02*
D03*
X18850D02*
D03*
Y14383D02*
D03*
D20*
X16094Y14186D02*
D03*
Y13989D02*
D03*
Y13792D02*
D03*
Y13595D02*
D03*
Y13398D02*
D03*
Y13202D02*
D03*
Y13005D02*
D03*
Y12808D02*
D03*
Y12611D02*
D03*
Y12414D02*
D03*
X18850D02*
D03*
Y12611D02*
D03*
Y12808D02*
D03*
Y13005D02*
D03*
Y13202D02*
D03*
Y13398D02*
D03*
Y13595D02*
D03*
Y13792D02*
D03*
Y13989D02*
D03*
Y14186D02*
D03*
D21*
X18555Y14678D02*
D03*
D22*
X18358D02*
D03*
X18161D02*
D03*
X17964D02*
D03*
X17767D02*
D03*
X17570D02*
D03*
X17374D02*
D03*
X17177D02*
D03*
X16980D02*
D03*
X16783D02*
D03*
X16586D02*
D03*
X18358Y11922D02*
D03*
X18161D02*
D03*
X17964D02*
D03*
X17767D02*
D03*
X17570D02*
D03*
X17374D02*
D03*
X17177D02*
D03*
X16980D02*
D03*
X16783D02*
D03*
X16586D02*
D03*
D23*
X16389Y14678D02*
D03*
X18555Y11922D02*
D03*
X16389D02*
D03*
D24*
X17472Y13300D02*
D03*
D25*
X11050Y12400D02*
D03*
Y13100D02*
D03*
D26*
X15250Y15200D02*
D03*
Y14800D02*
D03*
Y14350D02*
D03*
D27*
X16187Y11135D02*
D03*
X17013D02*
D03*
Y10465D02*
D03*
X16187D02*
D03*
D28*
X17600Y10650D02*
D03*
Y10250D02*
D03*
X15550D02*
D03*
Y10650D02*
D03*
X19950Y11900D02*
D03*
Y12300D02*
D03*
X19550Y11900D02*
D03*
Y12300D02*
D03*
X20550Y11000D02*
D03*
Y11400D02*
D03*
Y10200D02*
D03*
Y10600D02*
D03*
X20750Y12300D02*
D03*
Y11900D02*
D03*
X20350Y12300D02*
D03*
Y11900D02*
D03*
X15550Y11400D02*
D03*
Y11000D02*
D03*
X19350Y14850D02*
D03*
Y15250D02*
D03*
X21650Y13650D02*
D03*
Y13250D02*
D03*
X22050Y13650D02*
D03*
Y13250D02*
D03*
X19350Y14100D02*
D03*
Y14500D02*
D03*
X12750Y14600D02*
D03*
Y15000D02*
D03*
X13150Y14600D02*
D03*
Y15000D02*
D03*
Y13850D02*
D03*
Y14250D02*
D03*
X12750Y12400D02*
D03*
Y12800D02*
D03*
Y14250D02*
D03*
Y13850D02*
D03*
D29*
X19600Y13750D02*
D03*
X20000D02*
D03*
X16250Y15250D02*
D03*
X15850D02*
D03*
X20000Y13050D02*
D03*
X19600D02*
D03*
X20400Y12650D02*
D03*
X20800D02*
D03*
X20000Y13400D02*
D03*
X19600D02*
D03*
X20400D02*
D03*
X20800D02*
D03*
X20400Y13050D02*
D03*
X20800D02*
D03*
X15100Y12850D02*
D03*
X15500D02*
D03*
X15100Y12500D02*
D03*
X15500D02*
D03*
X20400Y13750D02*
D03*
X20800D02*
D03*
X21650Y12850D02*
D03*
X22050D02*
D03*
X21650Y12450D02*
D03*
X22050D02*
D03*
X12750Y10300D02*
D03*
X12350D02*
D03*
X22050Y12050D02*
D03*
X21650D02*
D03*
X10750Y10300D02*
D03*
X11150D02*
D03*
X11550D02*
D03*
X11950D02*
D03*
X10750Y15150D02*
D03*
X11150D02*
D03*
X11550D02*
D03*
X11950D02*
D03*
D30*
X18250Y10480D02*
D03*
X19950D02*
D03*
X18250Y11120D02*
D03*
X19950D02*
D03*
D31*
X19985Y14422D02*
D03*
X21915Y14934D02*
D03*
Y14678D02*
D03*
Y14422D02*
D03*
Y14166D02*
D03*
X19985D02*
D03*
Y14678D02*
D03*
D32*
Y14934D02*
D03*
D33*
X14000Y11300D02*
D03*
D34*
X13409Y12215D02*
D03*
X13606D02*
D03*
X13803D02*
D03*
X14000D02*
D03*
X14197D02*
D03*
X14394D02*
D03*
X14591D02*
D03*
Y10385D02*
D03*
X14394D02*
D03*
X14197D02*
D03*
X14000D02*
D03*
X13803D02*
D03*
X13606D02*
D03*
X13409D02*
D03*
D35*
X14915Y11891D02*
D03*
Y11694D02*
D03*
Y11497D02*
D03*
Y11300D02*
D03*
Y11103D02*
D03*
Y10906D02*
D03*
Y10709D02*
D03*
X13085D02*
D03*
Y10906D02*
D03*
Y11103D02*
D03*
Y11300D02*
D03*
Y11497D02*
D03*
Y11694D02*
D03*
Y11891D02*
D03*
D36*
X21700Y11350D02*
D03*
Y10450D02*
D03*
D37*
X14474Y14999D02*
D03*
X13726D02*
D03*
Y13859D02*
D03*
X14100D02*
D03*
X14474D02*
D03*
D60*
X10900Y13600D02*
D03*
Y11860D02*
D03*
M02*
