G04*
G04 #@! TF.GenerationSoftware,Altium Limited,Altium Designer,21.6.4 (81)*
G04*
G04 Layer_Physical_Order=2*
G04 Layer_Color=36540*
%FSLAX24Y24*%
%MOIN*%
G70*
G04*
G04 #@! TF.SameCoordinates,18F95803-63CF-49D0-9880-B3B199DA49BA*
G04*
G04*
G04 #@! TF.FilePolarity,Positive*
G04*
G01*
G75*
%ADD12C,0.0150*%
%ADD15C,0.0060*%
%ADD58C,0.0040*%
%ADD59C,0.0050*%
%ADD60O,0.0984X0.0394*%
%ADD61C,0.0180*%
G36*
X10500Y15418D02*
X12491D01*
X12516Y15368D01*
X12500Y15330D01*
Y15270D01*
X12523Y15215D01*
X12565Y15173D01*
X12620Y15150D01*
X12680D01*
X12735Y15173D01*
X12777Y15215D01*
X12800Y15270D01*
Y15330D01*
X12784Y15368D01*
X12809Y15418D01*
X20786Y15418D01*
X20813Y15368D01*
X20799Y15333D01*
Y15274D01*
X20821Y15219D01*
X20864Y15176D01*
X20919Y15153D01*
X20978D01*
X21034Y15176D01*
X21076Y15219D01*
X21099Y15274D01*
Y15333D01*
X21084Y15368D01*
X21111Y15418D01*
X22000D01*
X22000Y15419D01*
X22108Y15404D01*
X22209Y15362D01*
X22296Y15296D01*
X22362Y15209D01*
X22404Y15108D01*
X22419Y15000D01*
X22418Y15000D01*
Y14166D01*
X22368Y14141D01*
X22333Y14156D01*
X22277D01*
X22226Y14135D01*
X22187Y14095D01*
X22165Y14044D01*
Y13988D01*
X22187Y13937D01*
X22226Y13897D01*
X22277Y13876D01*
X22333D01*
X22368Y13891D01*
X22418Y13866D01*
Y10500D01*
X22419Y10500D01*
X22404Y10392D01*
X22362Y10291D01*
X22296Y10204D01*
X22209Y10137D01*
X22108Y10096D01*
X22000Y10081D01*
X22000Y10082D01*
X15119Y10082D01*
X15086Y10132D01*
X15090Y10142D01*
Y10198D01*
X15069Y10249D01*
X15029Y10289D01*
X14978Y10310D01*
X14922D01*
X14871Y10289D01*
X14858Y10276D01*
X14848Y10272D01*
X14840Y10264D01*
X14834Y10259D01*
X14829Y10254D01*
X14823Y10251D01*
X14819Y10248D01*
X14815Y10246D01*
X14812Y10245D01*
X14810Y10244D01*
X14809Y10244D01*
X14805Y10244D01*
X14800Y10241D01*
X12510D01*
X11871Y10880D01*
Y11918D01*
X11866Y11945D01*
X11850Y11968D01*
X11519Y12300D01*
X11517Y12306D01*
X11514Y12309D01*
X11513Y12310D01*
X11512Y12312D01*
X11511Y12315D01*
X11509Y12319D01*
X11508Y12324D01*
X11507Y12329D01*
X11506Y12346D01*
X11506Y12356D01*
X11502Y12365D01*
Y12384D01*
X11480Y12435D01*
X11441Y12475D01*
X11390Y12496D01*
X11334D01*
X11282Y12475D01*
X11243Y12435D01*
X11222Y12384D01*
Y12328D01*
X11243Y12277D01*
X11282Y12237D01*
X11334Y12216D01*
X11352D01*
X11362Y12212D01*
X11372Y12212D01*
X11381Y12211D01*
X11388Y12210D01*
X11394Y12209D01*
X11399Y12208D01*
X11403Y12207D01*
X11406Y12206D01*
X11408Y12204D01*
X11409Y12204D01*
X11412Y12201D01*
X11418Y12199D01*
X11729Y11888D01*
Y10850D01*
X11734Y10823D01*
X11750Y10800D01*
X12418Y10132D01*
X12401Y10084D01*
X12399Y10082D01*
X10550D01*
X10549Y10082D01*
X10500Y10082D01*
X10453Y10088D01*
X10392Y10096D01*
X10291Y10137D01*
X10204Y10204D01*
X10137Y10291D01*
X10096Y10392D01*
X10081Y10500D01*
X10082Y10500D01*
X10082Y15000D01*
X10081Y15000D01*
X10096Y15108D01*
X10137Y15209D01*
X10204Y15296D01*
X10291Y15362D01*
X10392Y15404D01*
X10500Y15419D01*
X10500Y15418D01*
D02*
G37*
G36*
X11452Y12343D02*
X11454Y12322D01*
X11455Y12312D01*
X11457Y12304D01*
X11460Y12295D01*
X11463Y12288D01*
X11467Y12281D01*
X11471Y12275D01*
X11476Y12270D01*
X11448Y12242D01*
X11442Y12246D01*
X11436Y12250D01*
X11430Y12254D01*
X11422Y12257D01*
X11414Y12260D01*
X11405Y12262D01*
X11396Y12264D01*
X11385Y12265D01*
X11374Y12266D01*
X11363Y12266D01*
X11452Y12355D01*
X11452Y12343D01*
D02*
G37*
G36*
X14886Y10107D02*
X14877Y10115D01*
X14861Y10129D01*
X14853Y10135D01*
X14845Y10139D01*
X14838Y10143D01*
X14830Y10146D01*
X14823Y10148D01*
X14815Y10150D01*
X14808Y10150D01*
Y10190D01*
X14815Y10190D01*
X14823Y10192D01*
X14830Y10194D01*
X14838Y10197D01*
X14845Y10201D01*
X14853Y10205D01*
X14861Y10211D01*
X14869Y10218D01*
X14877Y10225D01*
X14886Y10233D01*
Y10107D01*
D02*
G37*
%LPC*%
G36*
X14028Y15140D02*
X13972D01*
X13921Y15119D01*
X13881Y15079D01*
X13860Y15028D01*
Y14972D01*
X13881Y14921D01*
X13921Y14881D01*
X13972Y14860D01*
X14028D01*
X14079Y14881D01*
X14119Y14921D01*
X14140Y14972D01*
Y15028D01*
X14119Y15079D01*
X14079Y15119D01*
X14028Y15140D01*
D02*
G37*
G36*
X12078Y14990D02*
X12022D01*
X11971Y14969D01*
X11931Y14929D01*
X11910Y14878D01*
Y14822D01*
X11931Y14771D01*
X11971Y14731D01*
X12022Y14710D01*
X12078D01*
X12129Y14731D01*
X12169Y14771D01*
X12190Y14822D01*
Y14878D01*
X12169Y14929D01*
X12129Y14969D01*
X12078Y14990D01*
D02*
G37*
G36*
X18571Y14645D02*
X18515D01*
X18464Y14624D01*
X18424Y14585D01*
X18403Y14533D01*
Y14478D01*
X18424Y14426D01*
X18464Y14387D01*
X18515Y14365D01*
X18571D01*
X18622Y14387D01*
X18662Y14426D01*
X18683Y14478D01*
Y14533D01*
X18662Y14585D01*
X18622Y14624D01*
X18571Y14645D01*
D02*
G37*
G36*
X15078Y14640D02*
X15022D01*
X14971Y14619D01*
X14931Y14579D01*
X14910Y14528D01*
Y14472D01*
X14931Y14421D01*
X14971Y14381D01*
X15022Y14360D01*
X15078D01*
X15129Y14381D01*
X15169Y14421D01*
X15190Y14472D01*
Y14528D01*
X15169Y14579D01*
X15129Y14619D01*
X15078Y14640D01*
D02*
G37*
G36*
X12188Y14290D02*
X12112D01*
X12042Y14261D01*
X11989Y14208D01*
X11960Y14138D01*
Y14062D01*
X11989Y13992D01*
X12042Y13939D01*
X12112Y13910D01*
X12188D01*
X12258Y13939D01*
X12311Y13992D01*
X12340Y14062D01*
Y14138D01*
X12311Y14208D01*
X12258Y14261D01*
X12188Y14290D01*
D02*
G37*
G36*
X14375Y13686D02*
X14319D01*
X14268Y13664D01*
X14229Y13625D01*
X14207Y13574D01*
Y13518D01*
X14229Y13466D01*
X14268Y13427D01*
X14319Y13406D01*
X14375D01*
X14427Y13427D01*
X14466Y13466D01*
X14487Y13518D01*
Y13574D01*
X14466Y13625D01*
X14427Y13664D01*
X14375Y13686D01*
D02*
G37*
G36*
X14698Y13300D02*
X14642D01*
X14591Y13279D01*
X14551Y13239D01*
X14530Y13188D01*
Y13132D01*
X14551Y13081D01*
X14591Y13041D01*
X14642Y13020D01*
X14698D01*
X14749Y13041D01*
X14789Y13081D01*
X14810Y13132D01*
Y13188D01*
X14789Y13239D01*
X14749Y13279D01*
X14698Y13300D01*
D02*
G37*
G36*
X12058Y13251D02*
X12002D01*
X11951Y13230D01*
X11912Y13191D01*
X11890Y13139D01*
Y13083D01*
X11912Y13032D01*
X11951Y12993D01*
X12002Y12971D01*
X12058D01*
X12110Y12993D01*
X12149Y13032D01*
X12170Y13083D01*
Y13139D01*
X12149Y13191D01*
X12110Y13230D01*
X12058Y13251D01*
D02*
G37*
G36*
X20558Y13201D02*
X20502D01*
X20451Y13180D01*
X20412Y13141D01*
X20390Y13089D01*
Y13033D01*
X20412Y12982D01*
X20451Y12943D01*
X20502Y12921D01*
X20558D01*
X20610Y12943D01*
X20649Y12982D01*
X20670Y13033D01*
Y13089D01*
X20649Y13141D01*
X20610Y13180D01*
X20558Y13201D01*
D02*
G37*
G36*
X11378Y13240D02*
X11322D01*
X11271Y13219D01*
X11231Y13179D01*
X11210Y13128D01*
Y13072D01*
X11231Y13021D01*
X11271Y12981D01*
X11322Y12960D01*
X11341D01*
X11350Y12956D01*
X11361Y12956D01*
X11369Y12955D01*
X11376Y12954D01*
X11382Y12953D01*
X11387Y12952D01*
X11391Y12951D01*
X11394Y12950D01*
X11396Y12949D01*
X11397Y12948D01*
X11400Y12945D01*
X11406Y12943D01*
X11650Y12700D01*
X11673Y12684D01*
X11700Y12679D01*
X12300D01*
X12305Y12676D01*
X12309Y12676D01*
X12310Y12675D01*
X12312Y12675D01*
X12315Y12674D01*
X12319Y12672D01*
X12323Y12669D01*
X12328Y12666D01*
X12341Y12655D01*
X12348Y12648D01*
X12358Y12644D01*
X12371Y12631D01*
X12422Y12610D01*
X12478D01*
X12529Y12631D01*
X12569Y12671D01*
X12590Y12722D01*
Y12778D01*
X12569Y12829D01*
X12529Y12869D01*
X12478Y12890D01*
X12422D01*
X12371Y12869D01*
X12358Y12856D01*
X12348Y12852D01*
X12340Y12844D01*
X12334Y12839D01*
X12329Y12834D01*
X12323Y12831D01*
X12319Y12828D01*
X12315Y12826D01*
X12312Y12825D01*
X12310Y12824D01*
X12309Y12824D01*
X12305Y12824D01*
X12300Y12821D01*
X11730D01*
X11507Y13044D01*
X11505Y13050D01*
X11502Y13053D01*
X11501Y13054D01*
X11500Y13056D01*
X11499Y13059D01*
X11498Y13063D01*
X11497Y13068D01*
X11496Y13073D01*
X11494Y13090D01*
X11494Y13100D01*
X11490Y13109D01*
Y13128D01*
X11469Y13179D01*
X11429Y13219D01*
X11378Y13240D01*
D02*
G37*
G36*
X16827Y15281D02*
X16200D01*
X16173Y15276D01*
X16150Y15260D01*
X16031Y15142D01*
X16015Y15118D01*
X16010Y15091D01*
Y14845D01*
X16015Y14818D01*
X16031Y14795D01*
X16039Y14787D01*
Y14490D01*
X15920Y14371D01*
X15400D01*
X15373Y14366D01*
X15350Y14350D01*
X14950Y13950D01*
X14934Y13927D01*
X14929Y13900D01*
Y11850D01*
X14934Y11823D01*
X14950Y11800D01*
X15200Y11550D01*
X15223Y11534D01*
X15250Y11529D01*
X19000D01*
X19005Y11526D01*
X19009Y11526D01*
X19010Y11525D01*
X19012Y11525D01*
X19015Y11524D01*
X19019Y11522D01*
X19023Y11519D01*
X19028Y11516D01*
X19041Y11505D01*
X19048Y11498D01*
X19058Y11494D01*
X19071Y11481D01*
X19122Y11460D01*
X19178D01*
X19229Y11481D01*
X19269Y11521D01*
X19290Y11572D01*
Y11628D01*
X19269Y11679D01*
X19229Y11719D01*
X19178Y11740D01*
X19131D01*
X19108Y11758D01*
X19090Y11781D01*
Y11828D01*
X19111Y11860D01*
X19128D01*
X19179Y11881D01*
X19219Y11921D01*
X19240Y11972D01*
Y12028D01*
X19245Y12036D01*
X19417D01*
X19438Y11986D01*
X19431Y11979D01*
X19410Y11928D01*
Y11872D01*
X19431Y11821D01*
X19471Y11781D01*
X19522Y11760D01*
X19578D01*
X19629Y11781D01*
X19669Y11821D01*
X19690Y11872D01*
Y11928D01*
X19686Y11938D01*
X19724Y11977D01*
X19747Y11967D01*
X19803D01*
X19854Y11988D01*
X19894Y12028D01*
X19915Y12079D01*
Y12135D01*
X19894Y12186D01*
X19854Y12226D01*
X19803Y12247D01*
X19747D01*
X19696Y12226D01*
X19683Y12213D01*
X19673Y12209D01*
X19665Y12201D01*
X19659Y12196D01*
X19654Y12191D01*
X19648Y12188D01*
X19644Y12185D01*
X19640Y12183D01*
X19637Y12182D01*
X19635Y12181D01*
X19634Y12181D01*
X19630Y12181D01*
X19625Y12178D01*
X19249D01*
X18877Y12550D01*
X18854Y12566D01*
X18826Y12571D01*
X15680D01*
X15476Y12775D01*
Y13105D01*
X15501Y13119D01*
X15526Y13129D01*
X15572Y13110D01*
X15628D01*
X15679Y13131D01*
X15692Y13144D01*
X15702Y13148D01*
X15710Y13156D01*
X15716Y13161D01*
X15721Y13166D01*
X15726Y13169D01*
X15731Y13172D01*
X15735Y13174D01*
X15738Y13175D01*
X15740Y13175D01*
X15741Y13176D01*
X15745Y13176D01*
X15750Y13179D01*
X18220D01*
X18450Y12950D01*
X18473Y12934D01*
X18500Y12929D01*
X19850D01*
X19877Y12934D01*
X19900Y12950D01*
X20280Y13329D01*
X21220D01*
X21279Y13270D01*
Y13200D01*
X21276Y13195D01*
X21276Y13191D01*
X21275Y13190D01*
X21275Y13188D01*
X21274Y13185D01*
X21272Y13181D01*
X21269Y13177D01*
X21266Y13172D01*
X21255Y13159D01*
X21248Y13152D01*
X21244Y13142D01*
X21231Y13129D01*
X21210Y13078D01*
Y13022D01*
X21231Y12971D01*
X21271Y12931D01*
X21322Y12910D01*
X21378D01*
X21429Y12931D01*
X21469Y12971D01*
X21490Y13022D01*
Y13078D01*
X21469Y13129D01*
X21456Y13142D01*
X21452Y13152D01*
X21444Y13160D01*
X21439Y13166D01*
X21434Y13171D01*
X21431Y13176D01*
X21428Y13181D01*
X21426Y13185D01*
X21425Y13188D01*
X21425Y13190D01*
X21424Y13191D01*
X21424Y13195D01*
X21421Y13200D01*
Y13300D01*
X21416Y13327D01*
X21400Y13350D01*
X21369Y13382D01*
X21388Y13429D01*
X21720D01*
X21789Y13360D01*
Y12580D01*
X21730Y12521D01*
X21500D01*
X21495Y12524D01*
X21491Y12524D01*
X21490Y12524D01*
X21488Y12525D01*
X21485Y12526D01*
X21481Y12528D01*
X21477Y12531D01*
X21472Y12534D01*
X21459Y12545D01*
X21452Y12552D01*
X21442Y12556D01*
X21429Y12569D01*
X21378Y12590D01*
X21322D01*
X21271Y12569D01*
X21231Y12529D01*
X21210Y12478D01*
Y12422D01*
X21231Y12371D01*
X21271Y12331D01*
X21322Y12310D01*
X21378D01*
X21429Y12331D01*
X21442Y12344D01*
X21452Y12348D01*
X21460Y12356D01*
X21466Y12361D01*
X21471Y12366D01*
X21477Y12369D01*
X21481Y12372D01*
X21485Y12374D01*
X21488Y12375D01*
X21490Y12376D01*
X21491Y12376D01*
X21495Y12376D01*
X21500Y12379D01*
X21712D01*
X21733Y12329D01*
X21730Y12326D01*
X21709Y12274D01*
Y12219D01*
X21730Y12167D01*
X21770Y12128D01*
X21821Y12106D01*
X21877D01*
X21885Y12110D01*
X21942Y12082D01*
X21945Y12074D01*
X21941Y12057D01*
X21816Y11932D01*
X21546D01*
X21541Y11934D01*
X21535Y11934D01*
X21531Y11935D01*
X21528Y11935D01*
X21524Y11936D01*
X21521Y11938D01*
X21518Y11939D01*
X21514Y11941D01*
X21511Y11944D01*
X21507Y11947D01*
X21502Y11952D01*
X21492Y11956D01*
X21479Y11969D01*
X21428Y11990D01*
X21372D01*
X21321Y11969D01*
X21281Y11929D01*
X21260Y11878D01*
Y11822D01*
X21281Y11771D01*
X21321Y11731D01*
X21372Y11710D01*
X21428D01*
X21479Y11731D01*
X21492Y11744D01*
X21502Y11748D01*
X21507Y11753D01*
X21511Y11756D01*
X21514Y11758D01*
X21518Y11761D01*
X21521Y11762D01*
X21524Y11764D01*
X21528Y11765D01*
X21531Y11765D01*
X21535Y11766D01*
X21541Y11766D01*
X21546Y11768D01*
X21850D01*
X21850Y11768D01*
X21881Y11775D01*
X21908Y11792D01*
X22108Y11992D01*
X22108Y11992D01*
X22125Y12019D01*
X22132Y12050D01*
X22132Y12050D01*
Y13600D01*
X22125Y13631D01*
X22108Y13658D01*
X22108Y13658D01*
X22008Y13758D01*
X21981Y13775D01*
X21950Y13782D01*
X21950Y13782D01*
X20569D01*
X20536Y13832D01*
X20540Y13842D01*
Y13898D01*
X20519Y13949D01*
X20479Y13989D01*
X20428Y14010D01*
X20410D01*
X20400Y14014D01*
X20393Y14014D01*
X20388Y14015D01*
X20384Y14015D01*
X20380Y14016D01*
X20377Y14018D01*
X20373Y14019D01*
X20370Y14021D01*
X20367Y14023D01*
X20364Y14025D01*
X20360Y14029D01*
X20354Y14031D01*
X20278Y14108D01*
X20251Y14125D01*
X20220Y14132D01*
X20220Y14132D01*
X19291D01*
X19253Y14151D01*
X19246Y14180D01*
Y14210D01*
X19225Y14262D01*
X19212Y14275D01*
X19208Y14284D01*
X19202Y14290D01*
X19197Y14295D01*
X19194Y14300D01*
X19191Y14304D01*
X19189Y14308D01*
X19187Y14312D01*
X19186Y14315D01*
X19186Y14318D01*
X19185Y14320D01*
X19185Y14325D01*
X19182Y14331D01*
Y14774D01*
X19350Y14942D01*
X19355Y14944D01*
X19359Y14947D01*
X19361Y14949D01*
X19364Y14950D01*
X19367Y14952D01*
X19371Y14953D01*
X19375Y14955D01*
X19381Y14956D01*
X19387Y14957D01*
X19394Y14958D01*
X19403Y14958D01*
X19411Y14962D01*
X19426D01*
X19477Y14983D01*
X19517Y15023D01*
X19538Y15074D01*
Y15130D01*
X19517Y15181D01*
X19477Y15221D01*
X19426Y15242D01*
X19370D01*
X19319Y15221D01*
X19284Y15186D01*
X19253Y15185D01*
X19229Y15189D01*
X19190Y15229D01*
X19138Y15250D01*
X19082D01*
X19031Y15229D01*
X18992Y15189D01*
X18970Y15138D01*
Y15082D01*
X18992Y15031D01*
X19031Y14991D01*
X19082Y14970D01*
X19091D01*
X19112Y14920D01*
X19052Y14860D01*
X19035Y14835D01*
X19030Y14806D01*
Y14756D01*
X18984Y14730D01*
X18952Y14744D01*
X18942Y14794D01*
X18956Y14808D01*
X18978Y14860D01*
Y14915D01*
X18956Y14967D01*
X18917Y15006D01*
X18865Y15028D01*
X18810D01*
X18758Y15006D01*
X18719Y14967D01*
X18698Y14915D01*
Y14860D01*
X18719Y14808D01*
X18758Y14769D01*
X18791Y14756D01*
X18804Y14704D01*
X18804Y14700D01*
X18783Y14680D01*
X18762Y14628D01*
Y14572D01*
X18783Y14521D01*
X18823Y14482D01*
X18874Y14460D01*
X18930D01*
X18981Y14482D01*
X19030Y14459D01*
Y14331D01*
X19027Y14325D01*
X19027Y14320D01*
X19026Y14318D01*
X19026Y14315D01*
X19025Y14312D01*
X19023Y14308D01*
X19021Y14304D01*
X19018Y14300D01*
X19015Y14295D01*
X19010Y14290D01*
X19004Y14284D01*
X19000Y14275D01*
X18987Y14262D01*
X18966Y14210D01*
Y14154D01*
X18981Y14118D01*
X18979Y14115D01*
X18927Y14094D01*
X18888Y14054D01*
X18867Y14003D01*
Y13947D01*
X18888Y13896D01*
X18927Y13856D01*
X18979Y13835D01*
X18988Y13821D01*
X18981Y13803D01*
Y13747D01*
X19002Y13696D01*
X19032Y13666D01*
X19033Y13665D01*
X19039Y13620D01*
X19038Y13604D01*
X18996Y13561D01*
X18990Y13559D01*
X18986Y13555D01*
X18983Y13553D01*
X18980Y13551D01*
X18977Y13549D01*
X18973Y13548D01*
X18970Y13546D01*
X18966Y13545D01*
X18962Y13545D01*
X18957Y13544D01*
X18950Y13544D01*
X18940Y13540D01*
X18922D01*
X18871Y13519D01*
X18831Y13479D01*
X18810Y13428D01*
Y13372D01*
X18831Y13321D01*
X18841Y13311D01*
X18820Y13261D01*
X18617D01*
X18398Y13480D01*
X18375Y13496D01*
X18347Y13501D01*
X16480D01*
X16296Y13685D01*
X16273Y13701D01*
X16245Y13706D01*
X15830D01*
X15736Y13799D01*
Y13800D01*
X15739Y13805D01*
X15739Y13809D01*
X15739Y13810D01*
X15740Y13812D01*
X15741Y13815D01*
X15743Y13819D01*
X15746Y13823D01*
X15749Y13828D01*
X15760Y13841D01*
X15767Y13848D01*
X15771Y13858D01*
X15784Y13871D01*
X15805Y13922D01*
Y13978D01*
X15800Y13989D01*
X15834Y14039D01*
X16110D01*
X16137Y14044D01*
X16160Y14060D01*
X16400Y14300D01*
X16416Y14323D01*
X16421Y14350D01*
Y14570D01*
X16480Y14629D01*
X17413D01*
X17440Y14634D01*
X17463Y14650D01*
X17491Y14678D01*
X17497Y14680D01*
X17500Y14682D01*
X17501Y14683D01*
X17503Y14684D01*
X17506Y14685D01*
X17510Y14687D01*
X17515Y14688D01*
X17520Y14689D01*
X17537Y14690D01*
X17547Y14691D01*
X17557Y14695D01*
X17575D01*
X17627Y14716D01*
X17666Y14755D01*
X17687Y14807D01*
Y14862D01*
X17666Y14914D01*
X17627Y14953D01*
X17575Y14975D01*
X17519D01*
X17468Y14953D01*
X17429Y14914D01*
X17407Y14862D01*
Y14844D01*
X17403Y14834D01*
X17403Y14824D01*
X17403Y14816D01*
X17402Y14808D01*
X17401Y14802D01*
X17399Y14797D01*
X17398Y14793D01*
X17397Y14790D01*
X17396Y14789D01*
X17395Y14787D01*
X17392Y14784D01*
X17390Y14779D01*
X17383Y14771D01*
X16450D01*
X16423Y14766D01*
X16400Y14750D01*
X16359Y14710D01*
X16312Y14729D01*
Y14810D01*
X16315Y14815D01*
X16315Y14819D01*
X16316Y14820D01*
X16316Y14822D01*
X16317Y14825D01*
X16319Y14829D01*
X16322Y14833D01*
X16325Y14838D01*
X16336Y14851D01*
X16343Y14858D01*
X16347Y14868D01*
X16360Y14881D01*
X16381Y14932D01*
Y14988D01*
X16360Y15039D01*
X16320Y15079D01*
X16296Y15089D01*
X16306Y15139D01*
X16481D01*
X16514Y15089D01*
X16510Y15078D01*
Y15022D01*
X16531Y14971D01*
X16571Y14931D01*
X16622Y14910D01*
X16678D01*
X16729Y14931D01*
X16754Y14926D01*
X16765Y14901D01*
X16804Y14861D01*
X16856Y14840D01*
X16912D01*
X16963Y14861D01*
X17002Y14901D01*
X17024Y14952D01*
Y15008D01*
X17002Y15059D01*
X16992Y15069D01*
X16989Y15078D01*
X16975Y15094D01*
X16971Y15099D01*
X16968Y15105D01*
X16965Y15109D01*
X16963Y15113D01*
X16962Y15117D01*
X16961Y15119D01*
X16961Y15120D01*
X16961Y15124D01*
X16958Y15130D01*
Y15150D01*
X16953Y15177D01*
X16937Y15200D01*
X16877Y15260D01*
X16854Y15276D01*
X16827Y15281D01*
D02*
G37*
G36*
X12208Y12351D02*
X12152D01*
X12101Y12330D01*
X12062Y12291D01*
X12040Y12239D01*
Y12183D01*
X12062Y12132D01*
X12101Y12093D01*
X12152Y12071D01*
X12208D01*
X12260Y12093D01*
X12299Y12132D01*
X12320Y12183D01*
Y12239D01*
X12299Y12291D01*
X12260Y12330D01*
X12208Y12351D01*
D02*
G37*
G36*
X21708Y11501D02*
X21652D01*
X21601Y11480D01*
X21562Y11441D01*
X21540Y11389D01*
Y11333D01*
X21562Y11282D01*
X21601Y11243D01*
X21652Y11221D01*
X21708D01*
X21760Y11243D01*
X21799Y11282D01*
X21820Y11333D01*
Y11389D01*
X21799Y11441D01*
X21760Y11480D01*
X21708Y11501D01*
D02*
G37*
G36*
X15830Y10919D02*
X15774D01*
X15723Y10897D01*
X15683Y10858D01*
X15662Y10807D01*
Y10751D01*
X15683Y10699D01*
X15723Y10660D01*
X15774Y10639D01*
X15830D01*
X15881Y10660D01*
X15921Y10699D01*
X15942Y10751D01*
Y10807D01*
X15921Y10858D01*
X15881Y10897D01*
X15830Y10919D01*
D02*
G37*
G36*
X17627Y10886D02*
X17571D01*
X17520Y10865D01*
X17480Y10826D01*
X17459Y10774D01*
Y10719D01*
X17480Y10667D01*
X17520Y10628D01*
X17571Y10606D01*
X17627D01*
X17678Y10628D01*
X17718Y10667D01*
X17739Y10719D01*
Y10774D01*
X17718Y10826D01*
X17678Y10865D01*
X17627Y10886D01*
D02*
G37*
G36*
X20578Y10740D02*
X20522D01*
X20471Y10719D01*
X20431Y10679D01*
X20410Y10628D01*
Y10572D01*
X20431Y10521D01*
X20471Y10481D01*
X20522Y10460D01*
X20578D01*
X20629Y10481D01*
X20669Y10521D01*
X20690Y10572D01*
Y10628D01*
X20669Y10679D01*
X20629Y10719D01*
X20578Y10740D01*
D02*
G37*
G36*
X21708Y10701D02*
X21652D01*
X21601Y10680D01*
X21562Y10641D01*
X21540Y10589D01*
Y10533D01*
X21562Y10482D01*
X21601Y10443D01*
X21652Y10421D01*
X21708D01*
X21760Y10443D01*
X21799Y10482D01*
X21820Y10533D01*
Y10589D01*
X21799Y10641D01*
X21760Y10680D01*
X21708Y10701D01*
D02*
G37*
G36*
X11978Y10440D02*
X11922D01*
X11871Y10419D01*
X11831Y10379D01*
X11810Y10328D01*
Y10272D01*
X11831Y10221D01*
X11871Y10181D01*
X11922Y10160D01*
X11978D01*
X12029Y10181D01*
X12069Y10221D01*
X12090Y10272D01*
Y10328D01*
X12069Y10379D01*
X12029Y10419D01*
X11978Y10440D01*
D02*
G37*
%LPD*%
G36*
X11440Y13087D02*
X11442Y13066D01*
X11444Y13057D01*
X11446Y13048D01*
X11448Y13040D01*
X11452Y13032D01*
X11455Y13025D01*
X11460Y13019D01*
X11464Y13014D01*
X11436Y12986D01*
X11431Y12990D01*
X11425Y12995D01*
X11418Y12998D01*
X11410Y13002D01*
X11402Y13004D01*
X11393Y13006D01*
X11384Y13008D01*
X11374Y13009D01*
X11363Y13010D01*
X11351Y13010D01*
X11440Y13099D01*
X11440Y13087D01*
D02*
G37*
G36*
X12386Y12687D02*
X12377Y12695D01*
X12361Y12709D01*
X12353Y12715D01*
X12345Y12719D01*
X12338Y12723D01*
X12330Y12726D01*
X12323Y12728D01*
X12315Y12730D01*
X12308Y12730D01*
Y12770D01*
X12315Y12770D01*
X12323Y12772D01*
X12330Y12774D01*
X12338Y12777D01*
X12345Y12781D01*
X12353Y12785D01*
X12361Y12791D01*
X12369Y12798D01*
X12377Y12805D01*
X12386Y12813D01*
Y12687D01*
D02*
G37*
G36*
X16907Y15121D02*
X16907Y15114D01*
X16908Y15107D01*
X16910Y15099D01*
X16913Y15092D01*
X16917Y15084D01*
X16922Y15076D01*
X16927Y15068D01*
X16934Y15059D01*
X16949Y15042D01*
X16823Y15046D01*
X16831Y15054D01*
X16845Y15070D01*
X16851Y15078D01*
X16856Y15085D01*
X16860Y15093D01*
X16863Y15100D01*
X16865Y15108D01*
X16866Y15115D01*
X16867Y15122D01*
X16907Y15121D01*
D02*
G37*
G36*
X19400Y15012D02*
X19389Y15012D01*
X19380Y15011D01*
X19370Y15009D01*
X19361Y15007D01*
X19353Y15004D01*
X19345Y15001D01*
X19338Y14998D01*
X19331Y14993D01*
X19325Y14989D01*
X19319Y14984D01*
X19282Y15018D01*
X19288Y15024D01*
X19292Y15030D01*
X19296Y15037D01*
X19300Y15044D01*
X19303Y15052D01*
X19305Y15060D01*
X19307Y15069D01*
X19308Y15078D01*
X19308Y15088D01*
X19308Y15098D01*
X19400Y15012D01*
D02*
G37*
G36*
X16296Y14887D02*
X16282Y14871D01*
X16277Y14863D01*
X16272Y14855D01*
X16268Y14848D01*
X16265Y14840D01*
X16263Y14833D01*
X16261Y14825D01*
X16261Y14818D01*
X16221D01*
X16221Y14825D01*
X16219Y14833D01*
X16217Y14840D01*
X16214Y14848D01*
X16210Y14855D01*
X16206Y14863D01*
X16200Y14871D01*
X16194Y14879D01*
X16186Y14887D01*
X16178Y14896D01*
X16304D01*
X16296Y14887D01*
D02*
G37*
G36*
X17546Y14745D02*
X17535Y14745D01*
X17513Y14743D01*
X17504Y14741D01*
X17495Y14739D01*
X17487Y14736D01*
X17479Y14733D01*
X17473Y14729D01*
X17467Y14725D01*
X17461Y14720D01*
X17433Y14749D01*
X17438Y14754D01*
X17442Y14760D01*
X17446Y14767D01*
X17449Y14774D01*
X17451Y14782D01*
X17454Y14791D01*
X17455Y14801D01*
X17456Y14811D01*
X17457Y14822D01*
X17457Y14834D01*
X17546Y14745D01*
D02*
G37*
G36*
X19131Y14315D02*
X19133Y14307D01*
X19134Y14299D01*
X19137Y14292D01*
X19141Y14284D01*
X19145Y14277D01*
X19150Y14269D01*
X19155Y14261D01*
X19162Y14254D01*
X19169Y14246D01*
X19043D01*
X19050Y14254D01*
X19057Y14261D01*
X19062Y14269D01*
X19067Y14277D01*
X19072Y14284D01*
X19075Y14292D01*
X19078Y14299D01*
X19080Y14307D01*
X19081Y14315D01*
X19081Y14323D01*
X19131D01*
X19131Y14315D01*
D02*
G37*
G36*
X19074Y14035D02*
X19082Y14030D01*
X19089Y14025D01*
X19096Y14021D01*
X19104Y14017D01*
X19111Y14015D01*
X19119Y14012D01*
X19127Y14011D01*
X19135Y14010D01*
X19144Y14009D01*
X19147Y13949D01*
X19138Y13949D01*
X19130Y13948D01*
X19122Y13946D01*
X19115Y13944D01*
X19107Y13941D01*
X19100Y13937D01*
X19093Y13933D01*
X19087Y13928D01*
X19080Y13922D01*
X19074Y13915D01*
X19067Y14041D01*
X19074Y14035D01*
D02*
G37*
G36*
X20329Y13984D02*
X20336Y13979D01*
X20342Y13974D01*
X20350Y13970D01*
X20357Y13967D01*
X20365Y13964D01*
X20373Y13962D01*
X20381Y13961D01*
X20390Y13960D01*
X20399Y13960D01*
X20310Y13871D01*
X20310Y13880D01*
X20309Y13889D01*
X20308Y13897D01*
X20306Y13905D01*
X20303Y13913D01*
X20300Y13920D01*
X20296Y13928D01*
X20291Y13934D01*
X20286Y13941D01*
X20281Y13947D01*
X20323Y13989D01*
X20329Y13984D01*
D02*
G37*
G36*
X15720Y13877D02*
X15706Y13861D01*
X15700Y13853D01*
X15696Y13845D01*
X15692Y13838D01*
X15689Y13830D01*
X15687Y13823D01*
X15685Y13815D01*
X15685Y13808D01*
X15645D01*
X15645Y13815D01*
X15643Y13823D01*
X15641Y13830D01*
X15638Y13838D01*
X15634Y13845D01*
X15629Y13853D01*
X15624Y13861D01*
X15617Y13869D01*
X15610Y13877D01*
X15602Y13886D01*
X15728D01*
X15720Y13877D01*
D02*
G37*
G36*
X15638Y13599D02*
X15654Y13586D01*
X15662Y13580D01*
X15670Y13575D01*
X15677Y13571D01*
X15685Y13568D01*
X15692Y13566D01*
X15700Y13565D01*
X15707Y13565D01*
Y13525D01*
X15700Y13524D01*
X15692Y13523D01*
X15685Y13521D01*
X15677Y13518D01*
X15670Y13514D01*
X15662Y13509D01*
X15654Y13504D01*
X15646Y13497D01*
X15638Y13490D01*
X15629Y13482D01*
Y13608D01*
X15638Y13599D01*
D02*
G37*
G36*
X19069Y13477D02*
X19064Y13471D01*
X19059Y13464D01*
X19054Y13458D01*
X19050Y13450D01*
X19047Y13443D01*
X19044Y13435D01*
X19042Y13427D01*
X19041Y13419D01*
X19040Y13410D01*
X19040Y13401D01*
X18951Y13490D01*
X18960Y13490D01*
X18969Y13491D01*
X18977Y13492D01*
X18985Y13494D01*
X18993Y13497D01*
X19000Y13500D01*
X19008Y13504D01*
X19014Y13509D01*
X19021Y13514D01*
X19027Y13519D01*
X19069Y13477D01*
D02*
G37*
G36*
X15673Y13305D02*
X15689Y13291D01*
X15697Y13285D01*
X15705Y13281D01*
X15712Y13277D01*
X15720Y13274D01*
X15727Y13272D01*
X15735Y13270D01*
X15742Y13270D01*
Y13230D01*
X15735Y13230D01*
X15727Y13228D01*
X15720Y13226D01*
X15712Y13223D01*
X15705Y13219D01*
X15697Y13215D01*
X15689Y13209D01*
X15681Y13202D01*
X15673Y13195D01*
X15664Y13187D01*
Y13313D01*
X15673Y13305D01*
D02*
G37*
G36*
X21370Y13185D02*
X21372Y13177D01*
X21374Y13170D01*
X21377Y13162D01*
X21381Y13155D01*
X21385Y13147D01*
X21391Y13139D01*
X21398Y13131D01*
X21405Y13123D01*
X21413Y13114D01*
X21287D01*
X21295Y13123D01*
X21309Y13139D01*
X21315Y13147D01*
X21319Y13155D01*
X21323Y13162D01*
X21326Y13170D01*
X21328Y13177D01*
X21330Y13185D01*
X21330Y13192D01*
X21370D01*
X21370Y13185D01*
D02*
G37*
G36*
X21423Y12505D02*
X21439Y12491D01*
X21447Y12485D01*
X21455Y12481D01*
X21462Y12477D01*
X21470Y12474D01*
X21477Y12472D01*
X21485Y12470D01*
X21492Y12470D01*
Y12430D01*
X21485Y12430D01*
X21477Y12428D01*
X21470Y12426D01*
X21462Y12423D01*
X21455Y12419D01*
X21447Y12415D01*
X21439Y12409D01*
X21431Y12402D01*
X21423Y12395D01*
X21414Y12387D01*
Y12513D01*
X21423Y12505D01*
D02*
G37*
G36*
X21959Y12338D02*
X21954Y12333D01*
X21950Y12327D01*
X21947Y12320D01*
X21944Y12313D01*
X21941Y12304D01*
X21939Y12296D01*
X21938Y12286D01*
X21938Y12276D01*
X21938Y12266D01*
X21938Y12254D01*
X21843Y12336D01*
X21855Y12337D01*
X21877Y12341D01*
X21886Y12343D01*
X21895Y12345D01*
X21903Y12348D01*
X21911Y12352D01*
X21918Y12356D01*
X21924Y12360D01*
X21929Y12364D01*
X21959Y12338D01*
D02*
G37*
G36*
X19711Y12044D02*
X19702Y12052D01*
X19686Y12066D01*
X19678Y12071D01*
X19670Y12076D01*
X19663Y12080D01*
X19655Y12083D01*
X19648Y12085D01*
X19640Y12086D01*
X19633Y12087D01*
Y12127D01*
X19640Y12127D01*
X19648Y12129D01*
X19655Y12131D01*
X19663Y12134D01*
X19670Y12138D01*
X19678Y12142D01*
X19686Y12148D01*
X19694Y12154D01*
X19702Y12162D01*
X19711Y12170D01*
Y12044D01*
D02*
G37*
G36*
X15297Y13664D02*
X15309Y13657D01*
X15334Y13611D01*
Y12745D01*
X15339Y12718D01*
X15354Y12695D01*
X15600Y12450D01*
X15623Y12434D01*
X15650Y12429D01*
X18797D01*
X19043Y12182D01*
X19031Y12123D01*
X19021Y12119D01*
X18981Y12079D01*
X18960Y12028D01*
Y11972D01*
X18939Y11940D01*
X18922D01*
X18871Y11919D01*
X18858Y11906D01*
X18848Y11902D01*
X18840Y11894D01*
X18834Y11889D01*
X18829Y11884D01*
X18823Y11881D01*
X18819Y11878D01*
X18815Y11876D01*
X18812Y11875D01*
X18810Y11875D01*
X18809Y11874D01*
X18805Y11874D01*
X18800Y11871D01*
X15380D01*
X15221Y12030D01*
Y13650D01*
X15271Y13675D01*
X15297Y13664D01*
D02*
G37*
G36*
X21471Y11907D02*
X21478Y11901D01*
X21485Y11896D01*
X21492Y11892D01*
X21499Y11888D01*
X21507Y11885D01*
X21514Y11883D01*
X21522Y11881D01*
X21530Y11880D01*
X21539Y11880D01*
Y11820D01*
X21530Y11820D01*
X21522Y11819D01*
X21514Y11817D01*
X21507Y11815D01*
X21499Y11812D01*
X21492Y11808D01*
X21485Y11804D01*
X21478Y11799D01*
X21471Y11793D01*
X21464Y11787D01*
Y11913D01*
X21471Y11907D01*
D02*
G37*
G36*
X18886Y11737D02*
X18877Y11745D01*
X18861Y11759D01*
X18853Y11765D01*
X18845Y11769D01*
X18838Y11773D01*
X18830Y11776D01*
X18823Y11778D01*
X18815Y11780D01*
X18808Y11780D01*
Y11820D01*
X18815Y11820D01*
X18823Y11822D01*
X18830Y11824D01*
X18838Y11827D01*
X18845Y11831D01*
X18853Y11835D01*
X18861Y11841D01*
X18869Y11848D01*
X18877Y11855D01*
X18886Y11863D01*
Y11737D01*
D02*
G37*
G36*
X19086Y11537D02*
X19077Y11545D01*
X19061Y11559D01*
X19053Y11565D01*
X19045Y11569D01*
X19038Y11573D01*
X19030Y11576D01*
X19023Y11578D01*
X19015Y11580D01*
X19008Y11580D01*
Y11620D01*
X19015Y11620D01*
X19023Y11622D01*
X19030Y11624D01*
X19038Y11627D01*
X19045Y11631D01*
X19053Y11635D01*
X19061Y11641D01*
X19069Y11648D01*
X19077Y11655D01*
X19086Y11663D01*
Y11537D01*
D02*
G37*
D12*
X19400Y14850D02*
X19406Y14856D01*
X19456D02*
X19650Y15050D01*
X19406Y14856D02*
X19456D01*
X19650Y15050D02*
Y15245D01*
X19550Y15345D02*
X19650Y15245D01*
X18545Y15345D02*
X19550D01*
X18200Y15000D02*
X18545Y15345D01*
X18200Y14498D02*
Y15000D01*
X17649Y13946D02*
X18200Y14498D01*
X15944Y14744D02*
X15950Y14750D01*
X15944Y14594D02*
Y14744D01*
X15846Y14496D02*
X15944Y14594D01*
X15499Y14496D02*
X15846D01*
X13350Y15300D02*
X14004D01*
X14208Y15096D02*
X14749D01*
X14004Y15300D02*
X14208Y15096D01*
X13149Y15099D02*
X13350Y15300D01*
X13149Y14246D02*
Y15099D01*
X15500Y14498D02*
Y14950D01*
X14749Y15096D02*
X15354D01*
X15500Y14950D01*
D15*
X20220Y14050D02*
X20400Y13870D01*
X19257Y14050D02*
X20220D01*
X19120Y13570D02*
X19970D01*
X20100Y13700D01*
X21950D01*
X19011Y13979D02*
X19187D01*
X19257Y14050D01*
X19007Y13975D02*
X19011Y13979D01*
X21400Y11850D02*
X21850D01*
X22050Y12050D02*
Y13600D01*
X21850Y11850D02*
X22050Y12050D01*
X21950Y13700D02*
X22050Y13600D01*
X18950Y13400D02*
X19120Y13570D01*
D58*
X11700Y12750D02*
X12450D01*
X11350Y13100D02*
X11700Y12750D01*
X11362Y12356D02*
X11800Y11918D01*
Y10850D02*
Y11918D01*
X12480Y10170D02*
X14950D01*
X11800Y10850D02*
X12480Y10170D01*
X16450Y13430D02*
X18347D01*
X18587Y13190D01*
X16400Y13340D02*
X18310D01*
X18550Y13100D01*
X18250Y13250D02*
X18500Y13000D01*
X18587Y13190D02*
X19763D01*
X15600Y13250D02*
X18250D01*
X18550Y13100D02*
X19800D01*
X18500Y13000D02*
X19850D01*
X20250Y13400D01*
X16110Y14110D02*
X16350Y14350D01*
X16050Y14200D02*
X16241Y14391D01*
X15427Y14200D02*
X16050D01*
X15400Y14300D02*
X15950D01*
X16110Y14460D01*
X16350Y14350D02*
Y14600D01*
X16110Y14460D02*
Y14816D01*
X15599Y14110D02*
X16110D01*
X16241Y14391D02*
Y14960D01*
X21350Y13050D02*
Y13300D01*
X16884Y14980D02*
X16887Y14983D01*
Y15150D01*
X16081Y14845D02*
X16110Y14816D01*
X16081Y15091D02*
X16200Y15210D01*
X16081Y14845D02*
Y15091D01*
X15000Y13900D02*
X15400Y14300D01*
X15505Y13711D02*
Y14016D01*
X15665Y13770D02*
X15800Y13635D01*
X15150Y13923D02*
X15427Y14200D01*
X15505Y14016D02*
X15599Y14110D01*
X15665Y13770D02*
Y13950D01*
X15499Y14496D02*
X15500Y14498D01*
X16827Y15210D02*
X16887Y15150D01*
X16200Y15210D02*
X16827D01*
X16450Y14700D02*
X17413D01*
X16350Y14600D02*
X16450Y14700D01*
X17413D02*
X17547Y14835D01*
X19763Y13190D02*
X20173Y13600D01*
X20200Y13500D02*
X21750D01*
X20173Y13600D02*
X21900D01*
X19800Y13100D02*
X20200Y13500D01*
X20250Y13400D02*
X21250D01*
X21350Y13300D01*
Y12450D02*
X21760D01*
X21860Y12550D01*
Y13390D01*
X21750Y13500D02*
X21860Y13390D01*
X21849Y12256D02*
X21950Y12357D01*
X21849Y12246D02*
Y12256D01*
X21950Y12357D02*
Y13550D01*
X21900Y13600D02*
X21950Y13550D01*
X16245Y13635D02*
X16450Y13430D01*
X16195Y13545D02*
X16400Y13340D01*
X19219Y12107D02*
X19775D01*
X18826Y12500D02*
X19219Y12107D01*
X15650Y12500D02*
X18826D01*
X15405Y12745D02*
X15650Y12500D01*
X15405Y13611D02*
X15505Y13711D01*
X15405Y12745D02*
Y13611D01*
X15150Y12000D02*
Y13923D01*
X15000Y11850D02*
Y13900D01*
X15250Y11600D02*
X19150D01*
X15000Y11850D02*
X15250Y11600D01*
X15350Y11800D02*
X18950D01*
X15150Y12000D02*
X15350Y11800D01*
X15800Y13635D02*
X16245D01*
X15565Y13545D02*
X16195D01*
D59*
X19106Y14806D02*
X19398Y15098D01*
Y15102D01*
X19106Y14182D02*
Y14806D01*
D60*
X10900Y13600D02*
D03*
Y11860D02*
D03*
D61*
X20400Y13870D02*
D03*
X11350Y13100D02*
D03*
X11362Y12356D02*
D03*
X12450Y12750D02*
D03*
X15545Y10680D02*
D03*
X14950Y10170D02*
D03*
X17835Y13050D02*
D03*
X12200Y11450D02*
D03*
X19398Y15102D02*
D03*
X16999Y10615D02*
D03*
X11000Y11350D02*
D03*
Y11100D02*
D03*
X10950Y14300D02*
D03*
X12850Y11500D02*
D03*
X19950Y11100D02*
D03*
X19350D02*
D03*
X21350Y13050D02*
D03*
X10499Y10296D02*
D03*
Y15146D02*
D03*
X16884Y14980D02*
D03*
X17649Y13946D02*
D03*
Y13696D02*
D03*
X16241Y14960D02*
D03*
X15665Y13950D02*
D03*
X10950Y14050D02*
D03*
X12899Y13346D02*
D03*
X14749Y15096D02*
D03*
X19850Y12450D02*
D03*
X19400Y14850D02*
D03*
X15950Y14750D02*
D03*
X15499Y14496D02*
D03*
X13149Y14246D02*
D03*
X20550Y11400D02*
D03*
X13600Y10800D02*
D03*
X21700Y14700D02*
D03*
Y13900D02*
D03*
X20800Y13050D02*
D03*
X20750Y12300D02*
D03*
X21350Y12450D02*
D03*
X21849Y12246D02*
D03*
X19106Y14182D02*
D03*
X19007Y13975D02*
D03*
X21400Y11850D02*
D03*
X19775Y12107D02*
D03*
X18950Y13400D02*
D03*
X17547Y14835D02*
D03*
X19150Y11600D02*
D03*
X18950Y11800D02*
D03*
X15565Y13545D02*
D03*
X15600Y13250D02*
D03*
M02*
