G04*
G04 #@! TF.GenerationSoftware,Altium Limited,Altium Designer,21.6.4 (81)*
G04*
G04 Layer_Color=16711935*
%FSLAX24Y24*%
%MOIN*%
G70*
G04*
G04 #@! TF.SameCoordinates,18F95803-63CF-49D0-9880-B3B199DA49BA*
G04*
G04*
G04 #@! TF.FilePolarity,Negative*
G04*
G01*
G75*
G04:AMPARAMS|DCode=47|XSize=28mil|YSize=28mil|CornerRadius=9mil|HoleSize=0mil|Usage=FLASHONLY|Rotation=180.000|XOffset=0mil|YOffset=0mil|HoleType=Round|Shape=RoundedRectangle|*
%AMROUNDEDRECTD47*
21,1,0.0280,0.0100,0,0,180.0*
21,1,0.0100,0.0280,0,0,180.0*
1,1,0.0180,-0.0050,0.0050*
1,1,0.0180,0.0050,0.0050*
1,1,0.0180,0.0050,-0.0050*
1,1,0.0180,-0.0050,-0.0050*
%
%ADD47ROUNDEDRECTD47*%
G04:AMPARAMS|DCode=48|XSize=28mil|YSize=28mil|CornerRadius=9mil|HoleSize=0mil|Usage=FLASHONLY|Rotation=270.000|XOffset=0mil|YOffset=0mil|HoleType=Round|Shape=RoundedRectangle|*
%AMROUNDEDRECTD48*
21,1,0.0280,0.0100,0,0,270.0*
21,1,0.0100,0.0280,0,0,270.0*
1,1,0.0180,-0.0050,-0.0050*
1,1,0.0180,-0.0050,0.0050*
1,1,0.0180,0.0050,0.0050*
1,1,0.0180,0.0050,-0.0050*
%
%ADD48ROUNDEDRECTD48*%
G04:AMPARAMS|DCode=56|XSize=31.6mil|YSize=43mil|CornerRadius=9.9mil|HoleSize=0mil|Usage=FLASHONLY|Rotation=180.000|XOffset=0mil|YOffset=0mil|HoleType=Round|Shape=RoundedRectangle|*
%AMROUNDEDRECTD56*
21,1,0.0316,0.0232,0,0,180.0*
21,1,0.0118,0.0430,0,0,180.0*
1,1,0.0198,-0.0059,0.0116*
1,1,0.0198,0.0059,0.0116*
1,1,0.0198,0.0059,-0.0116*
1,1,0.0198,-0.0059,-0.0116*
%
%ADD56ROUNDEDRECTD56*%
%ADD57O,0.1064X0.0474*%
%ADD73R,0.0867X0.0552*%
G04:AMPARAMS|DCode=74|XSize=33mil|YSize=48mil|CornerRadius=10.3mil|HoleSize=0mil|Usage=FLASHONLY|Rotation=0.000|XOffset=0mil|YOffset=0mil|HoleType=Round|Shape=RoundedRectangle|*
%AMROUNDEDRECTD74*
21,1,0.0330,0.0275,0,0,0.0*
21,1,0.0125,0.0480,0,0,0.0*
1,1,0.0205,0.0063,-0.0138*
1,1,0.0205,-0.0063,-0.0138*
1,1,0.0205,-0.0063,0.0138*
1,1,0.0205,0.0063,0.0138*
%
%ADD74ROUNDEDRECTD74*%
%ADD75R,0.3780X0.2080*%
G04:AMPARAMS|DCode=76|XSize=268mil|YSize=43mil|CornerRadius=12.8mil|HoleSize=0mil|Usage=FLASHONLY|Rotation=90.000|XOffset=0mil|YOffset=0mil|HoleType=Round|Shape=RoundedRectangle|*
%AMROUNDEDRECTD76*
21,1,0.2680,0.0175,0,0,90.0*
21,1,0.2425,0.0430,0,0,90.0*
1,1,0.0255,0.0088,0.1213*
1,1,0.0255,0.0088,-0.1213*
1,1,0.0255,-0.0088,-0.1213*
1,1,0.0255,-0.0088,0.1213*
%
%ADD76ROUNDEDRECTD76*%
G04:AMPARAMS|DCode=77|XSize=35.6mil|YSize=67.1mil|CornerRadius=10.9mil|HoleSize=0mil|Usage=FLASHONLY|Rotation=0.000|XOffset=0mil|YOffset=0mil|HoleType=Round|Shape=RoundedRectangle|*
%AMROUNDEDRECTD77*
21,1,0.0356,0.0453,0,0,0.0*
21,1,0.0138,0.0671,0,0,0.0*
1,1,0.0218,0.0069,-0.0226*
1,1,0.0218,-0.0069,-0.0226*
1,1,0.0218,-0.0069,0.0226*
1,1,0.0218,0.0069,0.0226*
%
%ADD77ROUNDEDRECTD77*%
G04:AMPARAMS|DCode=78|XSize=52mil|YSize=48mil|CornerRadius=14mil|HoleSize=0mil|Usage=FLASHONLY|Rotation=0.000|XOffset=0mil|YOffset=0mil|HoleType=Round|Shape=RoundedRectangle|*
%AMROUNDEDRECTD78*
21,1,0.0520,0.0200,0,0,0.0*
21,1,0.0240,0.0480,0,0,0.0*
1,1,0.0280,0.0120,-0.0100*
1,1,0.0280,-0.0120,-0.0100*
1,1,0.0280,-0.0120,0.0100*
1,1,0.0280,0.0120,0.0100*
%
%ADD78ROUNDEDRECTD78*%
%ADD79C,0.0434*%
G04:AMPARAMS|DCode=80|XSize=25.7mil|YSize=37.5mil|CornerRadius=8.4mil|HoleSize=0mil|Usage=FLASHONLY|Rotation=90.000|XOffset=0mil|YOffset=0mil|HoleType=Round|Shape=RoundedRectangle|*
%AMROUNDEDRECTD80*
21,1,0.0257,0.0207,0,0,90.0*
21,1,0.0089,0.0375,0,0,90.0*
1,1,0.0169,0.0103,0.0044*
1,1,0.0169,0.0103,-0.0044*
1,1,0.0169,-0.0103,-0.0044*
1,1,0.0169,-0.0103,0.0044*
%
%ADD80ROUNDEDRECTD80*%
G04:AMPARAMS|DCode=81|XSize=25.7mil|YSize=37.5mil|CornerRadius=8.4mil|HoleSize=0mil|Usage=FLASHONLY|Rotation=0.000|XOffset=0mil|YOffset=0mil|HoleType=Round|Shape=RoundedRectangle|*
%AMROUNDEDRECTD81*
21,1,0.0257,0.0207,0,0,0.0*
21,1,0.0089,0.0375,0,0,0.0*
1,1,0.0169,0.0044,-0.0103*
1,1,0.0169,-0.0044,-0.0103*
1,1,0.0169,-0.0044,0.0103*
1,1,0.0169,0.0044,0.0103*
%
%ADD81ROUNDEDRECTD81*%
D47*
X16400Y14500D02*
D03*
Y14900D02*
D03*
Y13900D02*
D03*
Y13500D02*
D03*
X15050Y14500D02*
D03*
Y14900D02*
D03*
X15500D02*
D03*
Y14500D02*
D03*
X15950D02*
D03*
Y14900D02*
D03*
D48*
X16850Y14850D02*
D03*
X17250D02*
D03*
Y13600D02*
D03*
X16850D02*
D03*
Y14200D02*
D03*
X17250D02*
D03*
X19200Y13450D02*
D03*
X19600D02*
D03*
X19200Y12700D02*
D03*
X19600D02*
D03*
X19200Y12300D02*
D03*
X19600D02*
D03*
X19200Y13100D02*
D03*
X19600D02*
D03*
D56*
X13626Y13709D02*
D03*
X14000D02*
D03*
X14374D02*
D03*
Y14849D02*
D03*
X13626D02*
D03*
D57*
X10900Y13600D02*
D03*
Y11860D02*
D03*
D73*
X11930Y14090D02*
D03*
Y13110D02*
D03*
Y12310D02*
D03*
Y11340D02*
D03*
D74*
X12850Y13750D02*
D03*
Y14850D02*
D03*
D75*
X15700Y11950D02*
D03*
D76*
X18150D02*
D03*
X13250D02*
D03*
D77*
X15047Y13750D02*
D03*
X15953D02*
D03*
D78*
X20200Y12050D02*
D03*
Y13350D02*
D03*
X22000D02*
D03*
Y12050D02*
D03*
X20200Y12700D02*
D03*
X22000D02*
D03*
D79*
X18300Y14250D02*
D03*
D80*
X18300Y14732D02*
D03*
Y13769D02*
D03*
D81*
X17818Y14250D02*
D03*
X18781D02*
D03*
M02*
