M48
;Layer_Color=9474304
;FILE_FORMAT=2:4
INCH,LZ
;TYPE=PLATED
T1F00S00C0.0100
T2F00S00C0.0120
T3F00S00C0.0130
%
T01
X010499Y010296
X011Y0111
Y01135
X0122Y01145
X01285Y0115
X01218Y012211
X01245Y01275
X01203Y013111
X01135Y0131
X011362Y012356
X01095Y01405
Y0143
X010499Y015146
X01205Y01485
X013149Y014246
X012899Y013346
X014347Y013546
X01467Y01316
X0156Y01325
X015565Y013545
X015335Y0138
X015499Y014496
X01505Y0145
X014749Y015096
X014Y015
X0136Y0108
X01495Y01017
X015545Y01068
X01195Y0103
X015802Y010779
X016999Y010615
X017599Y010746
X01935Y0111
X01995
X02055Y0114
Y0106
X02168Y010561
Y011361
X0214Y01185
X02135Y01245
Y01305
X0208
X02053Y013061
X0204Y01387
X01995Y0138
X01935Y01385
X019121Y013775
X019007Y013975
X019106Y014182
X018902Y0146
X018838Y014888
X01911Y01511
X019398Y015102
X0194Y01485
X018543Y014505
X017547Y014835
X016884Y01498
X01665Y01505
X016241Y01496
X01595Y01475
X015665Y01395
X017649Y013946
Y013696
X017835Y01305
X01895Y0134
X0192
X0191Y012
X01895Y0118
X01915Y0116
X01955Y0119
X019775Y012107
X01985Y01245
X02075Y0123
X021849Y012246
X0217Y0139
X022305Y014016
X0217Y0147
T02
X01265Y0153
X020949Y015303
T03
X01215Y0141
M30
