G04*
G04 #@! TF.GenerationSoftware,Altium Limited,Altium Designer,21.6.4 (81)*
G04*
G04 Layer_Color=32896*
%FSLAX24Y24*%
%MOIN*%
G70*
G04*
G04 #@! TF.SameCoordinates,18F95803-63CF-49D0-9880-B3B199DA49BA*
G04*
G04*
G04 #@! TF.FilePolarity,Positive*
G04*
G01*
G75*
%ADD15C,0.0060*%
%ADD16C,0.0079*%
%ADD18C,0.0010*%
%ADD59C,0.0050*%
%ADD82C,0.0100*%
%ADD83C,0.0020*%
G36*
X17115Y14910D02*
X16985D01*
Y14945D01*
X17115D01*
Y14910D01*
D02*
G37*
G36*
Y14755D02*
X16985D01*
X16985Y14790D01*
X17115D01*
X17115Y14755D01*
D02*
G37*
G36*
X16490Y14730D02*
X16310D01*
Y14765D01*
X16490D01*
Y14730D01*
D02*
G37*
G36*
X16040D02*
X15860D01*
Y14765D01*
X16040D01*
Y14730D01*
D02*
G37*
G36*
X16490Y14635D02*
X16310D01*
Y14670D01*
X16490D01*
Y14635D01*
D02*
G37*
G36*
X16040D02*
X15860D01*
Y14670D01*
X16040D01*
Y14635D01*
D02*
G37*
G36*
X15595D02*
X15560D01*
Y14765D01*
X15595D01*
Y14635D01*
D02*
G37*
G36*
X15440Y14765D02*
Y14635D01*
X15405Y14635D01*
Y14765D01*
X15440Y14765D01*
D02*
G37*
G36*
X15145Y14635D02*
X15110Y14635D01*
Y14765D01*
X15145Y14765D01*
Y14635D01*
D02*
G37*
G36*
X14990D02*
X14955D01*
Y14765D01*
X14990D01*
Y14635D01*
D02*
G37*
G36*
X17115Y14260D02*
X16985D01*
Y14295D01*
X17115D01*
Y14260D01*
D02*
G37*
G36*
X12885D02*
X13005D01*
Y14200D01*
X12695D01*
Y14260D01*
X12815D01*
Y14400D01*
X12885D01*
Y14260D01*
D02*
G37*
G36*
X17115Y14105D02*
X16985D01*
X16985Y14140D01*
X17115D01*
X17115Y14105D01*
D02*
G37*
G36*
X16490Y13730D02*
X16310D01*
Y13765D01*
X16490D01*
Y13730D01*
D02*
G37*
G36*
X17115Y13660D02*
X16985D01*
X16985Y13695D01*
X17115D01*
X17115Y13660D01*
D02*
G37*
G36*
X16490Y13635D02*
X16310D01*
Y13670D01*
X16490D01*
Y13635D01*
D02*
G37*
G36*
X19465Y13510D02*
X19335D01*
Y13545D01*
X19465D01*
Y13510D01*
D02*
G37*
G36*
X17115Y13505D02*
X16985D01*
Y13540D01*
X17115D01*
Y13505D01*
D02*
G37*
G36*
X19465Y13355D02*
X19335D01*
X19335Y13390D01*
X19465D01*
X19465Y13355D01*
D02*
G37*
G36*
X21700Y13250D02*
X21400Y13550D01*
X21700D01*
X21700Y13250D01*
D02*
G37*
G36*
X19465Y13160D02*
X19335D01*
Y13195D01*
X19465D01*
Y13160D01*
D02*
G37*
G36*
Y13005D02*
X19335D01*
X19335Y13040D01*
X19465D01*
X19465Y13005D01*
D02*
G37*
G36*
Y12760D02*
X19335D01*
Y12795D01*
X19465D01*
Y12760D01*
D02*
G37*
G36*
Y12605D02*
X19335D01*
X19335Y12640D01*
X19465D01*
X19465Y12605D01*
D02*
G37*
G36*
Y12360D02*
X19335D01*
Y12395D01*
X19465D01*
Y12360D01*
D02*
G37*
G36*
Y12205D02*
X19335D01*
X19335Y12240D01*
X19465D01*
X19465Y12205D01*
D02*
G37*
G36*
X21700Y11000D02*
X20346D01*
Y11490D01*
X21700D01*
Y11000D01*
D02*
G37*
G36*
X22050Y10400D02*
X20047D01*
Y10898D01*
X22050D01*
Y10400D01*
D02*
G37*
G36*
X21950Y13900D02*
X20290D01*
Y14496D01*
X21950D01*
Y13900D01*
D02*
G37*
G36*
X21700Y15198D02*
Y14600D01*
X20568D01*
Y15198D01*
X21700D01*
D02*
G37*
G36*
X19831Y10050D02*
X19200D01*
Y11594D01*
X19831D01*
Y10050D01*
D02*
G37*
G36*
X19831Y14100D02*
X19200D01*
Y15424D01*
X19831D01*
Y14100D01*
D02*
G37*
%LPC*%
G36*
X21650Y11440D02*
X21572D01*
Y11289D01*
X21421D01*
Y11440D01*
X21343D01*
Y11056D01*
X21650D01*
Y11440D01*
D02*
G37*
G36*
X20683Y11341D02*
Y11203D01*
X20683Y11205D01*
Y11209D01*
X20682Y11213D01*
X20681Y11222D01*
X20679Y11233D01*
X20675Y11244D01*
X20672Y11257D01*
X20665Y11270D01*
Y11270D01*
X20664Y11271D01*
X20664Y11273D01*
X20662Y11275D01*
X20658Y11281D01*
X20652Y11289D01*
X20645Y11298D01*
X20636Y11306D01*
X20626Y11315D01*
X20614Y11323D01*
X20614D01*
X20613Y11323D01*
X20611Y11324D01*
X20608Y11325D01*
X20605Y11327D01*
X20602Y11328D01*
X20597Y11330D01*
X20593Y11332D01*
X20582Y11335D01*
X20569Y11338D01*
X20555Y11340D01*
X20540Y11341D01*
X20683D01*
X20396D01*
X20534D01*
X20529Y11340D01*
X20524Y11340D01*
X20518Y11339D01*
X20511Y11337D01*
X20503Y11336D01*
X20495Y11334D01*
X20487Y11331D01*
X20478Y11328D01*
X20470Y11324D01*
X20461Y11319D01*
X20452Y11313D01*
X20444Y11307D01*
X20436Y11300D01*
X20436Y11299D01*
X20435Y11298D01*
X20432Y11295D01*
X20430Y11293D01*
X20427Y11288D01*
X20423Y11284D01*
X20420Y11278D01*
X20416Y11271D01*
X20412Y11264D01*
X20408Y11256D01*
X20405Y11248D01*
X20402Y11239D01*
X20400Y11229D01*
X20397Y11219D01*
X20396Y11208D01*
X20396Y11196D01*
Y11190D01*
X20396Y11185D01*
X20397Y11180D01*
X20398Y11174D01*
X20399Y11167D01*
X20401Y11159D01*
X20403Y11151D01*
X20406Y11143D01*
X20409Y11134D01*
X20413Y11125D01*
X20418Y11116D01*
X20423Y11108D01*
X20430Y11099D01*
X20437Y11091D01*
X20437Y11091D01*
X20438Y11089D01*
X20441Y11087D01*
X20444Y11084D01*
X20448Y11082D01*
X20453Y11078D01*
X20458Y11074D01*
X20465Y11071D01*
X20472Y11067D01*
X20480Y11063D01*
X20488Y11059D01*
X20497Y11057D01*
X20507Y11054D01*
X20517Y11052D01*
X20528Y11051D01*
X20539Y11050D01*
X20683D01*
Y11341D01*
D02*
G37*
G36*
X21285D02*
X21025D01*
X21152D01*
X21147Y11340D01*
X21142Y11340D01*
X21136Y11339D01*
X21129Y11337D01*
X21122Y11336D01*
X21114Y11334D01*
X21107Y11331D01*
X21098Y11328D01*
X21090Y11323D01*
X21082Y11319D01*
X21074Y11313D01*
X21067Y11306D01*
X21060Y11299D01*
X21059Y11299D01*
X21058Y11298D01*
X21057Y11295D01*
X21054Y11291D01*
X21052Y11287D01*
X21049Y11282D01*
X21046Y11275D01*
X21042Y11268D01*
X21039Y11260D01*
X21036Y11250D01*
X21033Y11240D01*
X21030Y11229D01*
X21028Y11216D01*
X21026Y11203D01*
X21025Y11189D01*
Y11174D01*
X21209D01*
Y11173D01*
Y11172D01*
Y11170D01*
X21209Y11168D01*
X21208Y11163D01*
X21207Y11155D01*
X21205Y11147D01*
X21202Y11138D01*
X21198Y11130D01*
X21192Y11123D01*
X21192Y11122D01*
X21189Y11120D01*
X21185Y11117D01*
X21180Y11114D01*
X21174Y11111D01*
X21167Y11108D01*
X21158Y11106D01*
X21149Y11105D01*
X21147D01*
X21143Y11106D01*
X21139Y11106D01*
X21135Y11107D01*
X21130Y11109D01*
X21125Y11111D01*
X21121Y11114D01*
X21120Y11115D01*
X21118Y11116D01*
X21116Y11118D01*
X21114Y11122D01*
X21111Y11126D01*
X21108Y11131D01*
X21105Y11138D01*
X21102Y11145D01*
X21029Y11133D01*
Y11132D01*
X21030Y11131D01*
X21031Y11129D01*
X21032Y11126D01*
X21033Y11123D01*
X21035Y11119D01*
X21040Y11110D01*
X21046Y11100D01*
X21054Y11089D01*
X21063Y11080D01*
X21074Y11071D01*
X21074D01*
X21075Y11070D01*
X21077Y11069D01*
X21079Y11068D01*
X21082Y11066D01*
X21086Y11064D01*
X21090Y11063D01*
X21095Y11061D01*
X21106Y11057D01*
X21119Y11053D01*
X21134Y11051D01*
X21150Y11050D01*
X21285D01*
Y11200D01*
X21284Y11205D01*
X21284Y11210D01*
X21283Y11217D01*
X21282Y11224D01*
X21280Y11233D01*
X21276Y11250D01*
X21273Y11259D01*
X21270Y11268D01*
X21265Y11277D01*
X21260Y11285D01*
X21255Y11294D01*
X21249Y11301D01*
X21248Y11302D01*
X21247Y11303D01*
X21245Y11305D01*
X21242Y11308D01*
X21239Y11310D01*
X21234Y11314D01*
X21229Y11318D01*
X21224Y11321D01*
X21218Y11325D01*
X21210Y11329D01*
X21203Y11332D01*
X21195Y11335D01*
X21187Y11337D01*
X21177Y11339D01*
X21168Y11340D01*
X21158Y11341D01*
X21285D01*
D02*
G37*
G36*
X20965Y11440D02*
X20891D01*
Y11056D01*
X20965D01*
Y11440D01*
D02*
G37*
G36*
X20816D02*
X20742D01*
Y11056D01*
X20816D01*
Y11440D01*
D02*
G37*
%LPD*%
G36*
X21572Y11056D02*
X21421D01*
Y11224D01*
X21572D01*
Y11056D01*
D02*
G37*
G36*
X20544Y11280D02*
X20549Y11280D01*
X20556Y11278D01*
X20564Y11275D01*
X20572Y11271D01*
X20581Y11266D01*
X20588Y11259D01*
X20589Y11258D01*
X20591Y11255D01*
X20594Y11249D01*
X20598Y11243D01*
X20602Y11234D01*
X20604Y11223D01*
X20607Y11210D01*
X20608Y11195D01*
Y11195D01*
Y11194D01*
Y11192D01*
X20607Y11189D01*
Y11185D01*
X20607Y11181D01*
X20605Y11172D01*
X20603Y11162D01*
X20599Y11151D01*
X20595Y11140D01*
X20588Y11132D01*
X20587Y11130D01*
X20585Y11128D01*
X20581Y11125D01*
X20574Y11121D01*
X20568Y11117D01*
X20559Y11113D01*
X20550Y11111D01*
X20539Y11110D01*
X20537D01*
X20534Y11111D01*
X20529Y11111D01*
X20523Y11113D01*
X20515Y11115D01*
X20507Y11119D01*
X20499Y11124D01*
X20491Y11132D01*
X20490Y11133D01*
X20488Y11135D01*
X20485Y11141D01*
X20481Y11148D01*
X20477Y11157D01*
X20475Y11168D01*
X20472Y11181D01*
X20471Y11195D01*
Y11196D01*
Y11197D01*
Y11199D01*
X20472Y11202D01*
Y11205D01*
X20472Y11210D01*
X20473Y11219D01*
X20476Y11229D01*
X20480Y11239D01*
X20484Y11250D01*
X20491Y11259D01*
X20492Y11260D01*
X20494Y11262D01*
X20499Y11266D01*
X20504Y11270D01*
X20512Y11274D01*
X20519Y11278D01*
X20529Y11280D01*
X20539Y11281D01*
X20542D01*
X20544Y11280D01*
D02*
G37*
G36*
X20683Y11050D02*
X20543D01*
X20546Y11051D01*
X20549D01*
X20553Y11051D01*
X20563Y11052D01*
X20574Y11054D01*
X20587Y11057D01*
X20599Y11062D01*
X20613Y11067D01*
X20613D01*
X20614Y11068D01*
X20616Y11069D01*
X20618Y11071D01*
X20624Y11074D01*
X20632Y11080D01*
X20640Y11087D01*
X20649Y11096D01*
X20658Y11106D01*
X20665Y11118D01*
Y11118D01*
X20666Y11119D01*
X20667Y11121D01*
X20668Y11124D01*
X20669Y11127D01*
X20671Y11131D01*
X20673Y11135D01*
X20674Y11140D01*
X20676Y11146D01*
X20678Y11152D01*
X20680Y11166D01*
X20683Y11182D01*
X20683Y11199D01*
Y11050D01*
D02*
G37*
G36*
X21162Y11283D02*
X21167Y11282D01*
X21173Y11280D01*
X21180Y11277D01*
X21187Y11273D01*
X21193Y11266D01*
X21193Y11266D01*
X21195Y11263D01*
X21198Y11259D01*
X21200Y11254D01*
X21204Y11247D01*
X21206Y11239D01*
X21208Y11229D01*
X21208Y11219D01*
X21098D01*
Y11219D01*
Y11220D01*
Y11221D01*
X21099Y11224D01*
X21099Y11230D01*
X21101Y11236D01*
X21103Y11244D01*
X21106Y11253D01*
X21110Y11260D01*
X21115Y11267D01*
X21116Y11268D01*
X21118Y11270D01*
X21121Y11273D01*
X21126Y11276D01*
X21131Y11279D01*
X21138Y11281D01*
X21145Y11284D01*
X21153Y11284D01*
X21157D01*
X21162Y11283D01*
D02*
G37*
G36*
X21285Y11050D02*
X21153D01*
X21157Y11051D01*
X21162D01*
X21168Y11052D01*
X21175Y11053D01*
X21183Y11054D01*
X21190Y11056D01*
X21199Y11058D01*
X21208Y11062D01*
X21217Y11066D01*
X21226Y11070D01*
X21235Y11076D01*
X21243Y11082D01*
X21250Y11089D01*
X21258Y11097D01*
X21258Y11098D01*
X21259Y11099D01*
X21260Y11101D01*
X21262Y11104D01*
X21264Y11108D01*
X21266Y11112D01*
X21269Y11117D01*
X21271Y11123D01*
X21274Y11130D01*
X21276Y11137D01*
X21279Y11145D01*
X21280Y11154D01*
X21282Y11163D01*
X21284Y11172D01*
X21284Y11183D01*
X21285Y11193D01*
Y11050D01*
D02*
G37*
%LPC*%
G36*
X20936Y10841D02*
X20852D01*
X20755Y10557D01*
X20661Y10841D01*
X20578D01*
X20715Y10457D01*
X20578D01*
D01*
X20936D01*
D01*
X20798D01*
X20936Y10841D01*
D02*
G37*
G36*
X21562D02*
X21480D01*
X21326Y10457D01*
X21711D01*
X21562Y10841D01*
D02*
G37*
G36*
X21284D02*
X21111D01*
X21106Y10841D01*
X21100D01*
X21094Y10840D01*
X21086D01*
X21072Y10839D01*
X21057Y10837D01*
X21043Y10834D01*
X21037Y10832D01*
X21032Y10831D01*
X21031D01*
X21030Y10830D01*
X21027Y10829D01*
X21022Y10826D01*
X21015Y10822D01*
X21008Y10817D01*
X21001Y10811D01*
X20994Y10803D01*
X20987Y10794D01*
Y10793D01*
X20987Y10792D01*
X20985Y10791D01*
X20984Y10789D01*
X20982Y10784D01*
X20978Y10776D01*
X20975Y10767D01*
X20973Y10757D01*
X20970Y10746D01*
X20970Y10734D01*
Y10733D01*
Y10732D01*
Y10729D01*
X20970Y10726D01*
Y10723D01*
X20971Y10719D01*
X20973Y10709D01*
X20976Y10697D01*
X20980Y10685D01*
X20987Y10673D01*
X20991Y10668D01*
X20995Y10662D01*
X20996Y10661D01*
X20997Y10661D01*
X20998Y10659D01*
X21000Y10658D01*
X21003Y10655D01*
X21006Y10653D01*
X21010Y10650D01*
X21014Y10647D01*
X21019Y10644D01*
X21025Y10641D01*
X21032Y10638D01*
X21038Y10635D01*
X21046Y10633D01*
X21054Y10630D01*
X21062Y10628D01*
X21071Y10626D01*
X21071D01*
X21070Y10626D01*
X21067Y10624D01*
X21063Y10621D01*
X21057Y10617D01*
X21050Y10612D01*
X21044Y10607D01*
X21037Y10601D01*
X21030Y10594D01*
X21030Y10594D01*
X21027Y10591D01*
X21024Y10587D01*
X21019Y10580D01*
X21012Y10572D01*
X21009Y10566D01*
X21005Y10560D01*
X21000Y10554D01*
X20996Y10548D01*
X20991Y10540D01*
X20986Y10532D01*
X20939Y10457D01*
X21127D01*
X21032D01*
X21088Y10540D01*
X21088Y10541D01*
X21089Y10543D01*
X21090Y10545D01*
X21093Y10548D01*
X21095Y10551D01*
X21098Y10555D01*
X21104Y10564D01*
X21111Y10574D01*
X21118Y10583D01*
X21124Y10592D01*
X21126Y10594D01*
X21129Y10597D01*
X21129Y10598D01*
X21130Y10599D01*
X21133Y10601D01*
X21135Y10604D01*
X21139Y10606D01*
X21143Y10609D01*
X21148Y10611D01*
X21152Y10613D01*
X21153D01*
X21154Y10614D01*
X21157Y10615D01*
X21161Y10615D01*
X21167Y10617D01*
X21174Y10617D01*
X21181Y10618D01*
X21206D01*
Y10457D01*
X21284D01*
Y10841D01*
D02*
G37*
G36*
X20541D02*
X20464D01*
Y10457D01*
X20541D01*
Y10841D01*
D02*
G37*
G36*
X21832D02*
X21754D01*
Y10586D01*
X21755Y10581D01*
X21755Y10570D01*
X21756Y10559D01*
X21758Y10547D01*
X21760Y10534D01*
X21763Y10524D01*
Y10523D01*
X21764Y10522D01*
X21764Y10520D01*
X21765Y10518D01*
X21768Y10512D01*
X21772Y10504D01*
X21778Y10496D01*
X21785Y10487D01*
X21794Y10478D01*
X21804Y10470D01*
X21805D01*
X21805Y10469D01*
X21807Y10468D01*
X21810Y10467D01*
X21812Y10466D01*
X21816Y10464D01*
X21820Y10462D01*
X21825Y10460D01*
X21830Y10458D01*
X21836Y10456D01*
X21849Y10453D01*
X21865Y10451D01*
X21882Y10450D01*
X21754D01*
D01*
X22000D01*
X21887D01*
X21891Y10451D01*
X21896Y10451D01*
X21901Y10452D01*
X21907Y10453D01*
X21914Y10454D01*
X21928Y10458D01*
X21936Y10461D01*
X21943Y10463D01*
X21950Y10467D01*
X21957Y10471D01*
X21963Y10476D01*
X21969Y10482D01*
X21970Y10482D01*
X21971Y10483D01*
X21972Y10485D01*
X21974Y10488D01*
X21977Y10491D01*
X21979Y10495D01*
X21982Y10500D01*
X21984Y10505D01*
X21988Y10512D01*
X21991Y10518D01*
X21993Y10526D01*
X21995Y10534D01*
X21997Y10543D01*
X21999Y10553D01*
X21999Y10564D01*
X22000Y10575D01*
X21926Y10583D01*
Y10583D01*
Y10582D01*
Y10580D01*
X21926Y10578D01*
Y10572D01*
X21925Y10565D01*
X21923Y10557D01*
X21922Y10549D01*
X21920Y10543D01*
X21917Y10537D01*
X21916Y10535D01*
X21915Y10533D01*
X21912Y10530D01*
X21907Y10527D01*
X21902Y10523D01*
X21896Y10519D01*
X21888Y10517D01*
X21879Y10516D01*
X21875D01*
X21870Y10517D01*
X21865Y10518D01*
X21859Y10519D01*
X21853Y10522D01*
X21847Y10525D01*
X21843Y10530D01*
X21842Y10531D01*
X21841Y10534D01*
X21840Y10538D01*
X21837Y10544D01*
X21836Y10548D01*
X21835Y10552D01*
X21835Y10557D01*
X21834Y10563D01*
X21833Y10569D01*
X21832Y10576D01*
X21832Y10584D01*
Y10592D01*
Y10841D01*
D02*
G37*
G36*
X20256Y10848D02*
X20249D01*
X20244Y10848D01*
X20238Y10847D01*
X20231Y10847D01*
X20223Y10846D01*
X20215Y10845D01*
X20197Y10841D01*
X20188Y10838D01*
X20180Y10835D01*
X20171Y10831D01*
X20162Y10827D01*
X20155Y10822D01*
X20147Y10816D01*
X20147Y10816D01*
X20146Y10815D01*
X20144Y10813D01*
X20142Y10811D01*
X20139Y10807D01*
X20136Y10804D01*
X20132Y10799D01*
X20129Y10794D01*
X20125Y10788D01*
X20122Y10782D01*
X20119Y10775D01*
X20116Y10767D01*
X20113Y10759D01*
X20111Y10750D01*
X20109Y10741D01*
X20109Y10731D01*
X20186Y10729D01*
Y10729D01*
Y10730D01*
X20187Y10734D01*
X20188Y10739D01*
X20191Y10745D01*
X20193Y10752D01*
X20197Y10759D01*
X20202Y10765D01*
X20208Y10771D01*
X20208Y10771D01*
X20211Y10773D01*
X20215Y10775D01*
X20220Y10777D01*
X20227Y10780D01*
X20235Y10782D01*
X20245Y10784D01*
X20257Y10784D01*
X20262D01*
X20268Y10784D01*
X20276Y10782D01*
X20284Y10781D01*
X20293Y10778D01*
X20301Y10775D01*
X20309Y10770D01*
X20309Y10769D01*
X20311Y10768D01*
X20313Y10766D01*
X20315Y10764D01*
X20317Y10760D01*
X20319Y10756D01*
X20321Y10751D01*
X20321Y10746D01*
Y10745D01*
Y10744D01*
X20321Y10741D01*
X20319Y10738D01*
X20318Y10734D01*
X20317Y10730D01*
X20314Y10726D01*
X20310Y10723D01*
X20309Y10722D01*
X20307Y10720D01*
X20305Y10719D01*
X20302Y10718D01*
X20299Y10716D01*
X20296Y10715D01*
X20291Y10713D01*
X20286Y10711D01*
X20280Y10709D01*
X20274Y10706D01*
X20266Y10704D01*
X20258Y10702D01*
X20249Y10700D01*
X20239Y10697D01*
X20238D01*
X20236Y10696D01*
X20233Y10696D01*
X20230Y10695D01*
X20225Y10694D01*
X20220Y10692D01*
X20213Y10690D01*
X20207Y10689D01*
X20194Y10684D01*
X20180Y10680D01*
X20167Y10675D01*
X20161Y10672D01*
X20156Y10669D01*
X20155D01*
X20155Y10669D01*
X20151Y10666D01*
X20146Y10663D01*
X20140Y10659D01*
X20134Y10653D01*
X20126Y10646D01*
X20119Y10639D01*
X20113Y10630D01*
X20112Y10629D01*
X20111Y10625D01*
X20108Y10620D01*
X20105Y10613D01*
X20102Y10604D01*
X20100Y10594D01*
X20098Y10582D01*
X20097Y10569D01*
Y10563D01*
X20098Y10560D01*
X20099Y10557D01*
X20100Y10549D01*
X20102Y10539D01*
X20105Y10528D01*
X20110Y10518D01*
X20116Y10507D01*
Y10506D01*
X20117Y10505D01*
X20120Y10502D01*
X20124Y10497D01*
X20130Y10491D01*
X20137Y10483D01*
X20146Y10477D01*
X20156Y10470D01*
X20168Y10464D01*
X20169D01*
X20170Y10463D01*
X20172Y10463D01*
X20175Y10462D01*
X20178Y10461D01*
X20182Y10459D01*
X20186Y10458D01*
X20191Y10457D01*
X20197Y10456D01*
X20203Y10454D01*
X20218Y10452D01*
X20234Y10451D01*
X20252Y10450D01*
X20097D01*
D01*
X20410D01*
D01*
X20259D01*
X20264Y10451D01*
X20270Y10451D01*
X20277Y10452D01*
X20284Y10453D01*
X20293Y10454D01*
X20311Y10458D01*
X20321Y10461D01*
X20329Y10464D01*
X20339Y10468D01*
X20348Y10472D01*
X20356Y10477D01*
X20364Y10483D01*
X20364Y10484D01*
X20366Y10485D01*
X20368Y10487D01*
X20370Y10489D01*
X20373Y10493D01*
X20377Y10498D01*
X20381Y10503D01*
X20384Y10508D01*
X20388Y10515D01*
X20392Y10522D01*
X20396Y10530D01*
X20400Y10539D01*
X20403Y10549D01*
X20406Y10559D01*
X20408Y10570D01*
X20410Y10582D01*
D01*
X20334Y10589D01*
Y10589D01*
X20334Y10588D01*
Y10585D01*
X20333Y10583D01*
X20331Y10577D01*
X20328Y10568D01*
X20325Y10559D01*
X20320Y10549D01*
X20314Y10541D01*
X20307Y10533D01*
X20306Y10533D01*
X20303Y10530D01*
X20299Y10528D01*
X20292Y10524D01*
X20284Y10521D01*
X20275Y10518D01*
X20263Y10516D01*
X20251Y10515D01*
X20245D01*
X20238Y10517D01*
X20230Y10518D01*
X20221Y10519D01*
X20211Y10522D01*
X20202Y10526D01*
X20195Y10531D01*
X20193Y10532D01*
X20191Y10534D01*
X20188Y10537D01*
X20185Y10542D01*
X20181Y10547D01*
X20178Y10554D01*
X20176Y10560D01*
X20175Y10568D01*
Y10569D01*
Y10570D01*
X20176Y10573D01*
X20176Y10577D01*
X20177Y10580D01*
X20178Y10584D01*
X20181Y10588D01*
X20183Y10592D01*
X20184Y10592D01*
X20185Y10593D01*
X20187Y10595D01*
X20190Y10597D01*
X20193Y10600D01*
X20198Y10603D01*
X20204Y10605D01*
X20211Y10608D01*
X20212D01*
X20214Y10609D01*
X20218Y10610D01*
X20221Y10611D01*
X20224Y10612D01*
X20228Y10613D01*
X20232Y10615D01*
X20237Y10616D01*
X20243Y10618D01*
X20250Y10619D01*
X20257Y10621D01*
X20265Y10623D01*
X20273Y10625D01*
X20274D01*
X20276Y10626D01*
X20280Y10627D01*
X20283Y10628D01*
X20288Y10630D01*
X20294Y10631D01*
X20301Y10634D01*
X20308Y10636D01*
X20322Y10641D01*
X20336Y10648D01*
X20343Y10651D01*
X20349Y10655D01*
X20356Y10659D01*
X20361Y10663D01*
X20361Y10664D01*
X20362Y10665D01*
X20364Y10666D01*
X20366Y10669D01*
X20369Y10672D01*
X20372Y10676D01*
X20375Y10680D01*
X20378Y10685D01*
X20384Y10696D01*
X20390Y10710D01*
X20392Y10717D01*
X20394Y10724D01*
X20395Y10732D01*
X20396Y10741D01*
Y10741D01*
Y10742D01*
Y10744D01*
Y10746D01*
X20394Y10751D01*
X20393Y10759D01*
X20392Y10767D01*
X20389Y10776D01*
X20385Y10786D01*
X20379Y10796D01*
Y10796D01*
X20379Y10797D01*
X20376Y10800D01*
X20373Y10805D01*
X20367Y10810D01*
X20361Y10816D01*
X20352Y10823D01*
X20343Y10829D01*
X20332Y10835D01*
X20331D01*
X20330Y10835D01*
X20328Y10836D01*
X20326Y10837D01*
X20323Y10838D01*
X20319Y10839D01*
X20315Y10840D01*
X20310Y10842D01*
X20299Y10844D01*
X20286Y10846D01*
X20272Y10848D01*
X20256Y10848D01*
D02*
G37*
%LPD*%
G36*
X21574Y10609D02*
X21468D01*
X21522Y10752D01*
X21574Y10609D01*
D02*
G37*
G36*
X21629Y10457D02*
X21409D01*
X21443Y10544D01*
X21597D01*
X21629Y10457D01*
D02*
G37*
G36*
X21206Y10679D02*
X21131D01*
X21120Y10679D01*
X21108Y10680D01*
X21096Y10680D01*
X21091Y10681D01*
X21087Y10681D01*
X21083Y10683D01*
X21080Y10683D01*
X21079D01*
X21078Y10684D01*
X21075Y10685D01*
X21072Y10687D01*
X21065Y10692D01*
X21061Y10695D01*
X21058Y10699D01*
X21058Y10700D01*
X21057Y10701D01*
X21055Y10704D01*
X21054Y10707D01*
X21053Y10711D01*
X21051Y10716D01*
X21050Y10722D01*
X21050Y10728D01*
Y10729D01*
Y10731D01*
X21050Y10735D01*
X21051Y10739D01*
X21053Y10744D01*
X21054Y10749D01*
X21057Y10755D01*
X21060Y10759D01*
X21061Y10760D01*
X21062Y10761D01*
X21065Y10763D01*
X21068Y10766D01*
X21072Y10769D01*
X21077Y10771D01*
X21083Y10773D01*
X21090Y10775D01*
X21090D01*
X21092Y10775D01*
X21095D01*
X21100Y10776D01*
X21113D01*
X21118Y10776D01*
X21206D01*
Y10679D01*
D02*
G37*
%LPC*%
G36*
X21467Y14438D02*
X21427Y14390D01*
X21585D01*
Y14342D01*
X21516D01*
X21494Y14363D01*
X21462Y14330D01*
X21478Y14316D01*
Y14315D01*
Y14313D01*
Y14310D01*
Y14306D01*
Y14301D01*
Y14296D01*
Y14284D01*
X21477Y14270D01*
Y14257D01*
X21477Y14250D01*
Y14245D01*
X21476Y14239D01*
Y14235D01*
X21515Y14223D01*
Y14244D01*
X21798D01*
Y14231D01*
X21841Y14216D01*
Y14217D01*
Y14218D01*
Y14220D01*
X21840Y14224D01*
Y14227D01*
Y14231D01*
X21839Y14241D01*
X21839Y14252D01*
Y14265D01*
X21838Y14277D01*
Y14290D01*
Y14290D01*
Y14291D01*
Y14293D01*
Y14295D01*
Y14299D01*
Y14302D01*
Y14311D01*
X21839Y14321D01*
X21839Y14334D01*
X21840Y14347D01*
X21841Y14361D01*
X21801Y14342D01*
X21731D01*
Y14390D01*
X21839D01*
X21843Y14389D01*
X21848D01*
X21854Y14388D01*
X21861Y14387D01*
X21869Y14385D01*
X21878Y14383D01*
X21900Y14412D01*
X21494D01*
X21467Y14438D01*
D02*
G37*
G36*
X20833Y14444D02*
X20340D01*
X20650D01*
X20594Y14418D01*
X20610Y14402D01*
Y14353D01*
X20604D01*
X20580Y14374D01*
X20542Y14330D01*
X20610D01*
Y14139D01*
X20607D01*
X20582Y14162D01*
X20545Y14120D01*
X20545Y14124D01*
Y14125D01*
X20544Y14126D01*
Y14129D01*
X20544Y14133D01*
X20543Y14137D01*
X20542Y14143D01*
X20542Y14149D01*
X20541Y14156D01*
X20541Y14165D01*
X20540Y14174D01*
Y14184D01*
X20540Y14195D01*
X20539Y14206D01*
X20539Y14219D01*
Y14232D01*
Y14246D01*
Y14247D01*
Y14249D01*
Y14254D01*
Y14259D01*
Y14266D01*
Y14274D01*
Y14283D01*
Y14294D01*
X20539Y14305D01*
Y14316D01*
Y14329D01*
X20540Y14342D01*
X20540Y14368D01*
X20541Y14396D01*
X20505Y14377D01*
X20504D01*
X20501Y14378D01*
X20498Y14379D01*
X20492Y14380D01*
X20485Y14382D01*
X20478Y14384D01*
X20469Y14386D01*
X20460Y14389D01*
X20440Y14395D01*
X20420Y14403D01*
X20411Y14407D01*
X20402Y14412D01*
X20394Y14417D01*
X20387Y14423D01*
X20351Y14375D01*
X20360D01*
X20365Y14374D01*
X20371Y14373D01*
X20378Y14373D01*
X20387Y14372D01*
X20396Y14371D01*
X20408Y14370D01*
X20420Y14369D01*
X20433Y14367D01*
X20448Y14365D01*
X20464Y14363D01*
X20482Y14360D01*
X20501Y14357D01*
Y14250D01*
X20406D01*
X20381Y14272D01*
X20340Y14227D01*
X20402D01*
Y14055D01*
Y14055D01*
Y14054D01*
Y14053D01*
Y14050D01*
Y14048D01*
Y14044D01*
Y14040D01*
Y14035D01*
X20401Y14029D01*
Y14023D01*
Y14016D01*
Y14008D01*
X20401Y13999D01*
Y13990D01*
X20400Y13979D01*
Y13968D01*
X20442Y13952D01*
X20340D01*
X20446D01*
X20442D01*
Y13952D01*
Y13953D01*
Y13955D01*
Y13957D01*
Y13961D01*
Y13964D01*
X20441Y13968D01*
Y13973D01*
Y13979D01*
Y13984D01*
Y13998D01*
X20441Y14014D01*
Y14032D01*
Y14052D01*
X20440Y14073D01*
Y14095D01*
Y14119D01*
X20440Y14145D01*
Y14171D01*
Y14199D01*
Y14227D01*
X20501D01*
Y14226D01*
Y14225D01*
Y14224D01*
Y14221D01*
Y14219D01*
Y14215D01*
Y14206D01*
Y14196D01*
X20501Y14184D01*
X20502Y14171D01*
X20503Y14157D01*
X20505Y14143D01*
X20507Y14127D01*
X20509Y14112D01*
X20512Y14097D01*
X20516Y14083D01*
X20520Y14069D01*
X20526Y14057D01*
X20532Y14045D01*
X20532Y14045D01*
X20534Y14043D01*
X20535Y14040D01*
X20538Y14036D01*
X20542Y14032D01*
X20546Y14026D01*
X20551Y14020D01*
X20557Y14013D01*
X20563Y14006D01*
X20570Y13998D01*
X20578Y13991D01*
X20587Y13983D01*
X20596Y13975D01*
X20606Y13967D01*
X20616Y13959D01*
X20627Y13952D01*
D01*
X20635Y13964D01*
X20635Y13965D01*
X20633Y13966D01*
X20631Y13968D01*
X20628Y13971D01*
X20625Y13974D01*
X20621Y13978D01*
X20617Y13983D01*
X20612Y13988D01*
X20602Y13999D01*
X20592Y14012D01*
X20582Y14026D01*
X20573Y14040D01*
Y14041D01*
X20572Y14042D01*
X20571Y14044D01*
X20570Y14047D01*
X20567Y14051D01*
X20566Y14055D01*
X20564Y14060D01*
X20561Y14065D01*
X20556Y14078D01*
X20552Y14092D01*
X20547Y14108D01*
X20546Y14116D01*
X20791D01*
X20812Y14111D01*
X20833Y14139D01*
X20752D01*
Y14330D01*
X20781D01*
X20800Y14326D01*
X20821Y14353D01*
X20752D01*
Y14353D01*
Y14355D01*
Y14357D01*
Y14359D01*
Y14363D01*
Y14367D01*
Y14372D01*
Y14377D01*
X20753Y14383D01*
Y14390D01*
X20753Y14405D01*
X20754Y14421D01*
X20754Y14440D01*
X20698Y14415D01*
X20715Y14397D01*
Y14353D01*
X20647D01*
Y14353D01*
Y14355D01*
Y14357D01*
Y14360D01*
Y14363D01*
Y14367D01*
Y14372D01*
Y14378D01*
X20648Y14384D01*
Y14391D01*
Y14398D01*
X20648Y14406D01*
Y14415D01*
X20649Y14424D01*
X20650Y14444D01*
X20833D01*
D01*
D02*
G37*
G36*
X21052Y14432D02*
X21051Y14431D01*
X21049Y14431D01*
X21046Y14429D01*
X21041Y14427D01*
X21036Y14424D01*
X21031Y14421D01*
X21019Y14414D01*
X21006Y14406D01*
X21000Y14402D01*
X20995Y14397D01*
X20990Y14393D01*
X20986Y14390D01*
X20984Y14386D01*
X20983Y14382D01*
Y14382D01*
X20982Y14380D01*
Y14376D01*
Y14372D01*
X20983Y14367D01*
X20984Y14362D01*
X20986Y14356D01*
X20990Y14351D01*
X20990Y14351D01*
X20991Y14349D01*
X20994Y14347D01*
X20996Y14345D01*
X20999Y14342D01*
X21001Y14340D01*
X21004Y14339D01*
X21007Y14338D01*
X21008D01*
X21009Y14339D01*
X21011Y14339D01*
X21013Y14341D01*
X21015Y14343D01*
X21018Y14347D01*
X21021Y14352D01*
X21023Y14359D01*
Y14360D01*
X21024Y14360D01*
X21025Y14363D01*
X21027Y14369D01*
X21031Y14376D01*
X21035Y14385D01*
X21042Y14396D01*
X21050Y14408D01*
X21060Y14422D01*
X21052Y14432D01*
D02*
G37*
G36*
X21125Y14446D02*
D01*
X21068Y14413D01*
X21085Y14400D01*
X21086Y14399D01*
X21087Y14396D01*
X21088Y14395D01*
X21089Y14392D01*
X21091Y14389D01*
X21092Y14385D01*
X21095Y14381D01*
X21097Y14376D01*
X21100Y14370D01*
X21102Y14363D01*
X21105Y14357D01*
X21109Y14348D01*
X21113Y14340D01*
X21117Y14330D01*
X20960D01*
X20929Y14360D01*
X20889Y14307D01*
X21004D01*
Y14231D01*
X20969D01*
X20937Y14261D01*
X20899Y14209D01*
X21004D01*
Y14133D01*
X20970D01*
X20939Y14160D01*
X20899Y14110D01*
X21004D01*
Y14026D01*
X20950D01*
X20919Y14055D01*
X20878Y14003D01*
X21117D01*
Y13968D01*
X21157Y13952D01*
X20878D01*
D01*
X21364D01*
X21157D01*
Y13952D01*
Y13954D01*
Y13959D01*
X21156Y13965D01*
Y13969D01*
Y13973D01*
Y13978D01*
Y13984D01*
Y13990D01*
X21156Y13997D01*
Y14005D01*
Y14013D01*
Y14022D01*
Y14032D01*
X21155Y14043D01*
Y14054D01*
Y14067D01*
Y14080D01*
Y14094D01*
Y14109D01*
X21155Y14125D01*
Y14143D01*
Y14160D01*
Y14179D01*
Y14200D01*
Y14221D01*
Y14243D01*
Y14266D01*
X21155Y14265D01*
Y14263D01*
X21156Y14261D01*
X21157Y14257D01*
X21159Y14254D01*
X21161Y14250D01*
X21163Y14244D01*
X21165Y14239D01*
X21169Y14232D01*
X21172Y14225D01*
X21177Y14218D01*
X21182Y14210D01*
X21187Y14201D01*
X21194Y14192D01*
X21201Y14182D01*
X21214Y14190D01*
X21213Y14190D01*
X21212Y14193D01*
X21211Y14196D01*
X21208Y14201D01*
X21206Y14206D01*
X21202Y14213D01*
X21198Y14221D01*
X21195Y14230D01*
X21190Y14239D01*
X21186Y14249D01*
X21181Y14260D01*
X21176Y14271D01*
X21167Y14294D01*
X21159Y14318D01*
Y14319D01*
X21157Y14321D01*
X21156Y14325D01*
X21155Y14329D01*
X21153Y14335D01*
X21151Y14342D01*
X21149Y14350D01*
X21146Y14358D01*
X21144Y14368D01*
X21140Y14378D01*
X21135Y14400D01*
X21130Y14423D01*
X21125Y14446D01*
D02*
G37*
G36*
X21274Y14436D02*
X21220Y14405D01*
X21240Y14393D01*
X21240Y14392D01*
X21241Y14391D01*
X21242Y14388D01*
X21245Y14383D01*
X21248Y14378D01*
X21251Y14372D01*
X21256Y14365D01*
X21261Y14357D01*
X21266Y14347D01*
X21272Y14337D01*
X21279Y14326D01*
X21286Y14314D01*
X21295Y14300D01*
X21303Y14286D01*
X21312Y14271D01*
X21322Y14255D01*
X21250Y14262D01*
X21249Y14262D01*
X21248Y14264D01*
X21247Y14267D01*
X21245Y14270D01*
X21243Y14275D01*
X21241Y14280D01*
X21238Y14286D01*
X21235Y14292D01*
X21229Y14306D01*
X21223Y14321D01*
X21217Y14336D01*
X21212Y14351D01*
X21166Y14316D01*
X21182Y14305D01*
X21182Y14304D01*
X21185Y14300D01*
X21187Y14295D01*
X21192Y14288D01*
X21197Y14279D01*
X21203Y14269D01*
X21210Y14258D01*
X21218Y14246D01*
X21226Y14233D01*
X21236Y14220D01*
X21256Y14193D01*
X21277Y14166D01*
X21288Y14153D01*
X21299Y14141D01*
X21299D01*
X21297Y14142D01*
X21293Y14143D01*
X21289Y14144D01*
X21283Y14145D01*
X21277Y14146D01*
X21270Y14148D01*
X21262Y14149D01*
X21252Y14151D01*
X21243Y14153D01*
X21233Y14155D01*
X21222Y14157D01*
X21200Y14161D01*
X21176Y14166D01*
X21172Y14149D01*
X21173D01*
X21175Y14148D01*
X21177Y14148D01*
X21181Y14146D01*
X21186Y14145D01*
X21191Y14143D01*
X21197Y14141D01*
X21203Y14139D01*
X21217Y14135D01*
X21233Y14129D01*
X21250Y14123D01*
X21266Y14116D01*
X21266D01*
X21267Y14116D01*
X21270Y14115D01*
X21272Y14114D01*
X21276Y14112D01*
X21280Y14110D01*
X21289Y14106D01*
X21298Y14100D01*
X21308Y14095D01*
X21317Y14089D01*
X21321Y14086D01*
X21324Y14083D01*
X21358Y14134D01*
X21358D01*
X21355Y14135D01*
X21352Y14136D01*
X21347Y14138D01*
X21341Y14142D01*
X21333Y14147D01*
X21325Y14154D01*
X21316Y14162D01*
X21316Y14163D01*
X21315Y14163D01*
X21313Y14165D01*
X21312Y14167D01*
X21309Y14170D01*
X21307Y14173D01*
X21303Y14177D01*
X21299Y14181D01*
X21295Y14186D01*
X21291Y14193D01*
X21286Y14199D01*
X21281Y14206D01*
X21275Y14214D01*
X21270Y14221D01*
X21263Y14230D01*
X21257Y14240D01*
X21258D01*
X21260Y14239D01*
X21262Y14238D01*
X21266Y14237D01*
X21271Y14235D01*
X21277Y14234D01*
X21283Y14231D01*
X21291Y14229D01*
X21292D01*
X21295Y14228D01*
X21299Y14226D01*
X21304Y14224D01*
X21311Y14221D01*
X21318Y14218D01*
X21325Y14213D01*
X21333Y14206D01*
X21364Y14252D01*
X21363Y14253D01*
X21361Y14254D01*
X21358Y14256D01*
X21356Y14257D01*
X21353Y14260D01*
X21350Y14263D01*
X21346Y14267D01*
X21342Y14272D01*
X21338Y14277D01*
X21334Y14284D01*
X21329Y14292D01*
X21324Y14301D01*
X21319Y14311D01*
X21314Y14322D01*
X21314Y14323D01*
X21313Y14325D01*
X21312Y14329D01*
X21310Y14334D01*
X21307Y14339D01*
X21305Y14346D01*
X21302Y14353D01*
X21299Y14361D01*
X21296Y14370D01*
X21292Y14379D01*
X21286Y14398D01*
X21279Y14417D01*
X21274Y14436D01*
D02*
G37*
G36*
X21524Y14228D02*
X21490Y14193D01*
X21509Y14176D01*
Y14175D01*
Y14173D01*
Y14169D01*
Y14164D01*
Y14157D01*
Y14150D01*
Y14141D01*
X21508Y14133D01*
Y14114D01*
X21508Y14095D01*
Y14086D01*
X21507Y14078D01*
Y14070D01*
X21507Y14063D01*
X21549Y14048D01*
Y14184D01*
X21770D01*
Y14059D01*
X21812Y14040D01*
Y14040D01*
Y14042D01*
Y14045D01*
X21811Y14048D01*
Y14053D01*
Y14058D01*
X21811Y14063D01*
Y14070D01*
X21810Y14084D01*
Y14100D01*
X21810Y14116D01*
Y14133D01*
Y14133D01*
Y14135D01*
Y14137D01*
Y14140D01*
Y14144D01*
Y14149D01*
Y14155D01*
Y14161D01*
X21810Y14174D01*
X21811Y14190D01*
X21811Y14206D01*
X21812Y14224D01*
X21774Y14207D01*
X21548D01*
X21524Y14228D01*
D02*
G37*
G36*
X20661Y14108D02*
X20660Y14108D01*
X20658Y14107D01*
X20656Y14105D01*
X20652Y14104D01*
X20647Y14102D01*
X20642Y14099D01*
X20632Y14093D01*
X20621Y14086D01*
X20610Y14079D01*
X20606Y14075D01*
X20602Y14073D01*
X20599Y14070D01*
X20596Y14067D01*
X20596Y14067D01*
X20595Y14065D01*
X20594Y14063D01*
X20592Y14059D01*
X20589Y14052D01*
X20588Y14048D01*
X20587Y14043D01*
Y14043D01*
Y14041D01*
X20588Y14039D01*
Y14036D01*
X20589Y14032D01*
X20590Y14028D01*
X20591Y14024D01*
X20594Y14019D01*
Y14018D01*
X20595Y14017D01*
X20596Y14015D01*
X20597Y14013D01*
X20600Y14010D01*
X20602Y14008D01*
X20605Y14007D01*
X20607Y14007D01*
X20608D01*
X20609Y14007D01*
X20611Y14008D01*
X20614Y14010D01*
X20616Y14013D01*
X20619Y14017D01*
X20622Y14023D01*
X20623Y14027D01*
X20625Y14031D01*
Y14032D01*
X20625Y14032D01*
X20626Y14034D01*
X20627Y14036D01*
X20628Y14039D01*
X20630Y14042D01*
X20635Y14050D01*
X20641Y14060D01*
X20648Y14071D01*
X20657Y14083D01*
X20668Y14096D01*
X20661Y14108D01*
D02*
G37*
G36*
X21170Y14090D02*
X21166Y14073D01*
X21167Y14072D01*
X21169Y14072D01*
X21172Y14070D01*
X21176Y14068D01*
X21181Y14066D01*
X21187Y14063D01*
X21193Y14060D01*
X21201Y14057D01*
X21216Y14050D01*
X21232Y14042D01*
X21249Y14034D01*
X21265Y14026D01*
X21265D01*
X21266Y14025D01*
X21268Y14024D01*
X21271Y14023D01*
X21278Y14019D01*
X21286Y14014D01*
X21295Y14008D01*
X21304Y14001D01*
X21312Y13994D01*
X21319Y13987D01*
X21354Y14032D01*
X21353Y14032D01*
X21350Y14033D01*
X21346Y14034D01*
X21339Y14036D01*
X21331Y14039D01*
X21320Y14042D01*
X21308Y14046D01*
X21293Y14050D01*
X21293D01*
X21292Y14051D01*
X21289Y14052D01*
X21286Y14053D01*
X21281Y14054D01*
X21276Y14056D01*
X21270Y14058D01*
X21263Y14060D01*
X21255Y14063D01*
X21245Y14065D01*
X21235Y14069D01*
X21224Y14073D01*
X21212Y14077D01*
X21199Y14080D01*
X21185Y14085D01*
X21170Y14090D01*
D02*
G37*
G36*
X20727Y14106D02*
X20684Y14067D01*
X20685Y14067D01*
X20687Y14065D01*
X20691Y14063D01*
X20696Y14060D01*
X20703Y14055D01*
X20711Y14048D01*
X20716Y14043D01*
X20721Y14039D01*
X20727Y14033D01*
X20732Y14027D01*
X20733Y14027D01*
X20734Y14025D01*
X20736Y14023D01*
X20738Y14021D01*
X20742Y14018D01*
X20746Y14014D01*
X20750Y14009D01*
X20756Y14005D01*
X20761Y14000D01*
X20768Y13994D01*
X20782Y13983D01*
X20798Y13972D01*
X20816Y13960D01*
X20824Y13972D01*
X20824Y13973D01*
X20822Y13975D01*
X20818Y13978D01*
X20813Y13983D01*
X20808Y13989D01*
X20802Y13996D01*
X20794Y14003D01*
X20787Y14012D01*
X20779Y14022D01*
X20771Y14032D01*
X20763Y14043D01*
X20755Y14054D01*
X20747Y14067D01*
X20740Y14079D01*
X20733Y14093D01*
X20727Y14106D01*
D02*
G37*
G36*
X21657Y14055D02*
X21656D01*
X21654Y14055D01*
X21652Y14054D01*
X21649D01*
X21646Y14054D01*
X21637Y14052D01*
X21627Y14050D01*
X21616Y14048D01*
X21604Y14046D01*
X21591Y14044D01*
X21564Y14038D01*
X21550Y14035D01*
X21538Y14032D01*
X21525Y14029D01*
X21515Y14025D01*
X21505Y14022D01*
X21498Y14019D01*
X21497D01*
X21496Y14018D01*
X21494Y14017D01*
X21492Y14016D01*
X21487Y14012D01*
X21480Y14008D01*
X21474Y14002D01*
X21469Y13995D01*
X21467Y13991D01*
X21465Y13988D01*
X21465Y13983D01*
Y13979D01*
Y13978D01*
X21465Y13976D01*
X21467Y13972D01*
X21468Y13968D01*
X21470Y13964D01*
X21473Y13960D01*
X21477Y13958D01*
X21482Y13957D01*
X21483D01*
X21485Y13957D01*
X21487Y13958D01*
X21490Y13959D01*
X21494Y13961D01*
X21498Y13963D01*
X21502Y13967D01*
X21503Y13967D01*
X21503Y13968D01*
X21505Y13969D01*
X21507Y13971D01*
X21513Y13975D01*
X21520Y13981D01*
X21529Y13987D01*
X21540Y13993D01*
X21552Y14000D01*
X21565Y14006D01*
X21565D01*
X21566Y14007D01*
X21569Y14008D01*
X21571Y14009D01*
X21575Y14010D01*
X21579Y14012D01*
X21584Y14014D01*
X21589Y14016D01*
X21595Y14018D01*
X21603Y14020D01*
X21610Y14023D01*
X21618Y14026D01*
X21635Y14032D01*
X21655Y14037D01*
X21657Y14055D01*
D02*
G37*
G36*
X21682Y14170D02*
X21624Y14136D01*
X21643Y14120D01*
Y14120D01*
X21644Y14118D01*
X21645Y14114D01*
X21646Y14110D01*
X21647Y14105D01*
X21649Y14099D01*
X21651Y14093D01*
X21654Y14085D01*
X21660Y14070D01*
X21669Y14054D01*
X21678Y14039D01*
X21683Y14032D01*
X21689Y14025D01*
X21690Y14025D01*
X21691Y14024D01*
X21692Y14022D01*
X21695Y14020D01*
X21698Y14017D01*
X21702Y14014D01*
X21707Y14010D01*
X21712Y14007D01*
X21718Y14002D01*
X21724Y13998D01*
X21731Y13994D01*
X21739Y13989D01*
X21747Y13985D01*
X21757Y13981D01*
X21766Y13977D01*
X21776Y13973D01*
X21777D01*
X21778Y13973D01*
X21782Y13972D01*
X21786Y13971D01*
X21791Y13969D01*
X21796Y13967D01*
X21802Y13966D01*
X21810Y13963D01*
X21825Y13959D01*
X21842Y13956D01*
X21859Y13952D01*
X21876Y13950D01*
X21427D01*
X21900D01*
X21876D01*
Y13968D01*
X21875D01*
X21873Y13968D01*
X21871Y13969D01*
X21867Y13970D01*
X21863Y13971D01*
X21857Y13973D01*
X21851Y13974D01*
X21844Y13976D01*
X21837Y13979D01*
X21830Y13981D01*
X21813Y13987D01*
X21795Y13994D01*
X21776Y14003D01*
X21776Y14003D01*
X21774Y14004D01*
X21771Y14005D01*
X21768Y14007D01*
X21764Y14009D01*
X21759Y14012D01*
X21748Y14020D01*
X21737Y14029D01*
X21725Y14040D01*
X21714Y14052D01*
X21710Y14059D01*
X21705Y14067D01*
Y14067D01*
X21704Y14068D01*
X21703Y14070D01*
X21702Y14074D01*
X21700Y14078D01*
X21699Y14083D01*
X21696Y14088D01*
X21694Y14094D01*
X21692Y14102D01*
X21690Y14109D01*
X21688Y14118D01*
X21686Y14127D01*
X21685Y14137D01*
X21684Y14148D01*
X21682Y14159D01*
X21682Y14170D01*
D02*
G37*
%LPD*%
G36*
X21696Y14342D02*
X21620D01*
Y14390D01*
X21696D01*
Y14342D01*
D02*
G37*
G36*
X21798Y14266D02*
X21731D01*
Y14320D01*
X21798D01*
Y14266D01*
D02*
G37*
G36*
X21696D02*
X21620D01*
Y14320D01*
X21696D01*
Y14266D01*
D02*
G37*
G36*
X21585D02*
X21515D01*
Y14320D01*
X21585D01*
Y14266D01*
D02*
G37*
G36*
X20715Y14285D02*
X20647D01*
Y14330D01*
X20715D01*
Y14285D01*
D02*
G37*
G36*
Y14211D02*
X20647D01*
Y14262D01*
X20715D01*
Y14211D01*
D02*
G37*
G36*
Y14139D02*
X20647D01*
Y14188D01*
X20715D01*
Y14139D01*
D02*
G37*
G36*
X20546Y14116D02*
X20542D01*
X20545Y14120D01*
X20546Y14116D01*
D02*
G37*
G36*
X21117Y14231D02*
X21041D01*
Y14307D01*
X21117D01*
Y14231D01*
D02*
G37*
G36*
Y14133D02*
X21041D01*
Y14209D01*
X21117D01*
Y14133D01*
D02*
G37*
G36*
Y14026D02*
X21041D01*
Y14110D01*
X21117D01*
Y14026D01*
D02*
G37*
%LPC*%
G36*
X21013Y15140D02*
X20957Y15112D01*
X20974Y15096D01*
Y15096D01*
X20975Y15095D01*
Y15093D01*
X20976Y15090D01*
X20976Y15087D01*
X20977Y15083D01*
X20978Y15078D01*
X20980Y15073D01*
X20982Y15062D01*
X20985Y15048D01*
X20988Y15034D01*
X20992Y15018D01*
X20941D01*
X20925Y15037D01*
X20887Y15004D01*
X20904Y14989D01*
Y14989D01*
Y14987D01*
X20905Y14986D01*
Y14984D01*
X20905Y14981D01*
X20906Y14977D01*
X20907Y14969D01*
X20909Y14958D01*
X20911Y14946D01*
X20914Y14932D01*
X20917Y14918D01*
X20919Y14905D01*
X20791D01*
Y14906D01*
Y14908D01*
Y14910D01*
Y14914D01*
Y14919D01*
Y14925D01*
Y14931D01*
Y14938D01*
X20792Y14946D01*
Y14954D01*
X20793Y14971D01*
X20793Y14991D01*
X20794Y15010D01*
X20765Y14996D01*
X20719Y15067D01*
X20842D01*
X20872Y15061D01*
X20894Y15090D01*
X20716D01*
X20696Y15111D01*
X20651Y15065D01*
X20652D01*
X20654Y15064D01*
X20655Y15063D01*
X20661Y15062D01*
X20668Y15059D01*
X20676Y15055D01*
X20685Y15050D01*
X20694Y15043D01*
X20703Y15036D01*
X20704Y15035D01*
X20707Y15032D01*
X20712Y15027D01*
X20718Y15021D01*
X20725Y15014D01*
X20733Y15006D01*
X20741Y14997D01*
X20750Y14987D01*
X20735Y14979D01*
X20751Y14961D01*
Y14905D01*
X20692D01*
X20663Y14932D01*
X20618Y14883D01*
X20751D01*
Y14715D01*
Y14715D01*
Y14714D01*
Y14712D01*
X20752Y14708D01*
X20753Y14705D01*
X20754Y14701D01*
X20756Y14696D01*
X20758Y14691D01*
X20761Y14686D01*
X20765Y14681D01*
X20769Y14676D01*
X20775Y14670D01*
X20781Y14664D01*
X20789Y14659D01*
X20798Y14654D01*
X20808Y14650D01*
Y14651D01*
Y14651D01*
X20809Y14654D01*
X20810Y14657D01*
X20811Y14659D01*
X20814Y14662D01*
X20816Y14666D01*
X20820Y14669D01*
X20825Y14673D01*
X20830Y14677D01*
X20836Y14681D01*
X20844Y14685D01*
X20854Y14689D01*
X20864Y14693D01*
X20876Y14697D01*
Y14717D01*
X20875D01*
X20873Y14716D01*
X20870Y14715D01*
X20866Y14715D01*
X20861Y14714D01*
X20855Y14713D01*
X20843Y14712D01*
X20830Y14710D01*
X20824Y14709D01*
X20819Y14709D01*
X20814Y14708D01*
X20803D01*
X20801Y14709D01*
X20800Y14710D01*
X20798Y14712D01*
X20796Y14714D01*
X20794Y14717D01*
X20793Y14721D01*
X20791Y14726D01*
Y14883D01*
X20880D01*
X20901Y14878D01*
X20920Y14904D01*
X20919Y14905D01*
X20921D01*
X20920Y14904D01*
X20920Y14902D01*
X20924Y14886D01*
X20932Y14853D01*
X20937Y14837D01*
X20942Y14821D01*
X20947Y14807D01*
X20953Y14793D01*
X20952D01*
X20951Y14793D01*
X20949Y14792D01*
X20946Y14790D01*
X20942Y14789D01*
X20938Y14787D01*
X20930Y14783D01*
X20920Y14778D01*
X20911Y14773D01*
X20902Y14767D01*
X20899Y14764D01*
X20896Y14762D01*
X20895Y14761D01*
X20894Y14759D01*
X20891Y14756D01*
X20889Y14752D01*
X20887Y14747D01*
X20886Y14742D01*
X20885Y14735D01*
X20886Y14728D01*
Y14728D01*
X20887Y14725D01*
X20888Y14722D01*
X20890Y14719D01*
X20892Y14715D01*
X20894Y14712D01*
X20897Y14710D01*
X20901Y14709D01*
X20902D01*
X20905Y14710D01*
X20908Y14711D01*
X20911Y14713D01*
X20915Y14715D01*
X20920Y14719D01*
X20924Y14724D01*
Y14724D01*
X20925Y14725D01*
X20927Y14728D01*
X20932Y14732D01*
X20937Y14738D01*
X20943Y14744D01*
X20951Y14751D01*
X20959Y14758D01*
X20967Y14765D01*
X20968Y14764D01*
X20969Y14762D01*
X20972Y14759D01*
X20975Y14755D01*
X20980Y14749D01*
X20985Y14743D01*
X20991Y14737D01*
X20999Y14729D01*
X21008Y14721D01*
X21018Y14712D01*
X21029Y14703D01*
X21041Y14694D01*
X21054Y14686D01*
X21069Y14676D01*
X21086Y14667D01*
X21103Y14658D01*
X21114Y14671D01*
X21113Y14672D01*
X21110Y14673D01*
X21106Y14677D01*
X21101Y14681D01*
X21093Y14685D01*
X21086Y14691D01*
X21077Y14697D01*
X21068Y14705D01*
X21058Y14713D01*
X21049Y14721D01*
X21030Y14739D01*
X21020Y14749D01*
X21012Y14759D01*
X21003Y14769D01*
X20997Y14780D01*
X20997D01*
X20999Y14781D01*
X21002Y14782D01*
X21005Y14784D01*
X21010Y14785D01*
X21015Y14788D01*
X21020Y14790D01*
X21026Y14792D01*
X21040Y14798D01*
X21053Y14803D01*
X21067Y14808D01*
X21079Y14812D01*
X21079Y14813D01*
X21078Y14816D01*
X21077Y14821D01*
X21075Y14828D01*
X21073Y14836D01*
X21070Y14845D01*
X21067Y14856D01*
X21063Y14869D01*
X21060Y14882D01*
X21056Y14896D01*
X21053Y14911D01*
X21049Y14927D01*
X21045Y14944D01*
X21041Y14960D01*
X21034Y14995D01*
X21069D01*
X21092Y14991D01*
X21112Y15018D01*
X21031D01*
Y15019D01*
X21031Y15021D01*
X21030Y15025D01*
X21029Y15030D01*
X21028Y15036D01*
X21027Y15043D01*
X21025Y15052D01*
X21023Y15061D01*
X21022Y15070D01*
X21021Y15080D01*
X21017Y15101D01*
X21015Y15121D01*
X21014Y15131D01*
X21013Y15140D01*
D02*
G37*
G36*
X21396Y15141D02*
X21336Y15104D01*
X21359Y15091D01*
Y15090D01*
X21359Y15089D01*
X21360Y15087D01*
X21361Y15085D01*
X21365Y15078D01*
X21370Y15071D01*
X21375Y15061D01*
X21381Y15051D01*
X21387Y15041D01*
X21394Y15030D01*
X21232D01*
X21209Y15055D01*
X21162Y15003D01*
X21164D01*
X21165Y15002D01*
X21168Y15002D01*
X21172Y15001D01*
X21176Y15000D01*
X21180Y14998D01*
X21186Y14996D01*
X21192Y14992D01*
X21198Y14989D01*
X21205Y14984D01*
X21213Y14978D01*
X21220Y14971D01*
X21229Y14963D01*
X21238Y14954D01*
X21247Y14944D01*
X21259Y14951D01*
X21230Y15007D01*
X21401D01*
X21401Y15007D01*
X21402Y15005D01*
X21405Y15002D01*
X21407Y14997D01*
X21411Y14992D01*
X21415Y14986D01*
X21420Y14980D01*
X21425Y14972D01*
X21437Y14956D01*
X21452Y14940D01*
X21467Y14923D01*
X21484Y14906D01*
X21496Y14915D01*
X21495Y14915D01*
X21494Y14918D01*
X21492Y14920D01*
X21489Y14924D01*
X21486Y14930D01*
X21482Y14936D01*
X21477Y14942D01*
X21472Y14950D01*
X21467Y14959D01*
X21462Y14969D01*
X21457Y14979D01*
X21451Y14989D01*
X21440Y15011D01*
X21430Y15036D01*
X21429Y15036D01*
X21429Y15038D01*
X21427Y15042D01*
X21425Y15047D01*
X21423Y15052D01*
X21421Y15058D01*
X21418Y15066D01*
X21415Y15073D01*
X21410Y15091D01*
X21404Y15108D01*
X21399Y15125D01*
X21397Y15133D01*
X21396Y15141D01*
D02*
G37*
G36*
X21650Y15148D02*
X21162D01*
X21514D01*
X21458Y15110D01*
X21478Y15098D01*
X21479Y15098D01*
X21479Y15096D01*
X21481Y15093D01*
X21482Y15090D01*
X21485Y15086D01*
X21488Y15080D01*
X21491Y15074D01*
X21495Y15067D01*
X21499Y15060D01*
X21503Y15052D01*
X21513Y15036D01*
X21523Y15018D01*
X21534Y15000D01*
X21505Y14982D01*
X21520Y14969D01*
Y14756D01*
Y14755D01*
Y14754D01*
Y14752D01*
Y14748D01*
Y14744D01*
Y14739D01*
Y14734D01*
X21519Y14729D01*
Y14716D01*
X21518Y14703D01*
X21518Y14690D01*
X21517Y14677D01*
X21562Y14654D01*
D01*
Y14654D01*
Y14655D01*
Y14658D01*
Y14663D01*
X21561Y14670D01*
Y14678D01*
Y14687D01*
X21561Y14697D01*
Y14708D01*
X21560Y14730D01*
Y14740D01*
Y14751D01*
X21560Y14761D01*
Y14770D01*
Y14778D01*
Y14784D01*
Y14966D01*
X21560Y14965D01*
X21561Y14963D01*
X21563Y14960D01*
X21566Y14955D01*
X21568Y14950D01*
X21572Y14944D01*
X21577Y14937D01*
X21582Y14930D01*
X21593Y14914D01*
X21607Y14896D01*
X21622Y14879D01*
X21638Y14863D01*
X21650Y14871D01*
X21649Y14873D01*
X21647Y14876D01*
X21644Y14881D01*
X21639Y14887D01*
X21634Y14895D01*
X21628Y14905D01*
X21622Y14915D01*
X21614Y14927D01*
X21607Y14939D01*
X21599Y14952D01*
X21584Y14979D01*
X21570Y15006D01*
X21563Y15019D01*
X21557Y15032D01*
X21557Y15032D01*
X21556Y15035D01*
X21555Y15038D01*
X21552Y15043D01*
X21550Y15049D01*
X21547Y15056D01*
X21545Y15063D01*
X21541Y15071D01*
X21537Y15080D01*
X21534Y15090D01*
X21527Y15109D01*
X21520Y15128D01*
X21514Y15148D01*
X21650D01*
D01*
D02*
G37*
G36*
X21274Y14914D02*
X21273Y14913D01*
X21271Y14912D01*
X21269Y14910D01*
X21266Y14906D01*
X21262Y14903D01*
X21257Y14899D01*
X21247Y14889D01*
X21234Y14877D01*
X21222Y14864D01*
X21209Y14851D01*
X21198Y14838D01*
X21197Y14838D01*
X21197Y14836D01*
X21195Y14835D01*
X21193Y14833D01*
X21188Y14826D01*
X21183Y14819D01*
X21177Y14809D01*
X21172Y14800D01*
X21169Y14790D01*
X21168Y14785D01*
X21167Y14780D01*
Y14779D01*
Y14777D01*
Y14772D01*
X21168Y14767D01*
X21169Y14761D01*
X21170Y14755D01*
X21172Y14750D01*
X21175Y14745D01*
X21175Y14744D01*
X21176Y14743D01*
X21180Y14739D01*
X21185Y14735D01*
X21187Y14734D01*
X21190Y14734D01*
X21190D01*
X21192Y14734D01*
X21194Y14735D01*
X21196Y14737D01*
X21199Y14739D01*
X21202Y14743D01*
X21204Y14749D01*
X21206Y14756D01*
Y14757D01*
X21207Y14757D01*
X21207Y14759D01*
X21208Y14761D01*
X21209Y14763D01*
X21210Y14767D01*
X21213Y14774D01*
X21217Y14784D01*
X21223Y14797D01*
X21229Y14810D01*
X21238Y14826D01*
Y14826D01*
X21239Y14828D01*
X21240Y14830D01*
X21242Y14834D01*
X21244Y14837D01*
X21247Y14842D01*
X21249Y14847D01*
X21253Y14853D01*
X21260Y14865D01*
X21268Y14878D01*
X21276Y14891D01*
X21286Y14905D01*
X21274Y14914D01*
D02*
G37*
G36*
X21424Y14928D02*
X21371Y14895D01*
X21391Y14881D01*
X21392Y14880D01*
X21393Y14877D01*
X21396Y14872D01*
X21399Y14865D01*
X21403Y14856D01*
X21408Y14847D01*
X21414Y14836D01*
X21420Y14824D01*
X21428Y14811D01*
X21436Y14798D01*
X21445Y14784D01*
X21455Y14770D01*
X21466Y14756D01*
X21477Y14742D01*
X21489Y14728D01*
X21502Y14715D01*
X21514Y14723D01*
X21513Y14724D01*
X21512Y14725D01*
X21511Y14728D01*
X21508Y14732D01*
X21506Y14736D01*
X21502Y14741D01*
X21498Y14747D01*
X21495Y14754D01*
X21491Y14761D01*
X21486Y14768D01*
X21477Y14785D01*
X21468Y14802D01*
X21460Y14820D01*
Y14820D01*
X21459Y14822D01*
X21457Y14825D01*
X21456Y14828D01*
X21454Y14833D01*
X21452Y14838D01*
X21450Y14844D01*
X21447Y14851D01*
X21444Y14859D01*
X21441Y14868D01*
X21439Y14876D01*
X21436Y14886D01*
X21430Y14906D01*
X21424Y14928D01*
D02*
G37*
G36*
X21352Y14994D02*
X21294Y14971D01*
X21310Y14952D01*
Y14709D01*
Y14709D01*
Y14708D01*
Y14706D01*
X21310Y14703D01*
X21313Y14697D01*
X21314Y14693D01*
X21316Y14689D01*
X21319Y14684D01*
X21323Y14680D01*
X21328Y14676D01*
X21333Y14671D01*
X21340Y14667D01*
X21347Y14663D01*
X21356Y14659D01*
X21366Y14656D01*
Y14657D01*
Y14657D01*
X21368Y14661D01*
X21368Y14662D01*
X21370Y14665D01*
X21372Y14668D01*
X21374Y14671D01*
X21377Y14674D01*
X21382Y14678D01*
X21387Y14682D01*
X21393Y14686D01*
X21401Y14691D01*
X21409Y14695D01*
X21419Y14699D01*
X21430Y14703D01*
X21426Y14720D01*
X21426D01*
X21425Y14720D01*
X21422D01*
X21419Y14719D01*
X21416Y14718D01*
X21412Y14718D01*
X21402Y14716D01*
X21392Y14714D01*
X21382Y14713D01*
X21374Y14712D01*
X21370Y14712D01*
X21366D01*
X21364Y14712D01*
X21361Y14713D01*
X21358Y14714D01*
X21355Y14717D01*
X21353Y14720D01*
X21350Y14724D01*
X21350Y14731D01*
Y14920D01*
Y14921D01*
Y14922D01*
Y14924D01*
Y14926D01*
Y14929D01*
Y14932D01*
Y14941D01*
X21350Y14952D01*
X21351Y14965D01*
X21351Y14979D01*
X21352Y14994D01*
D02*
G37*
%LPD*%
G36*
X20995Y14994D02*
X20996Y14991D01*
X20997Y14986D01*
X20999Y14979D01*
X21001Y14971D01*
X21004Y14961D01*
X21007Y14950D01*
X21010Y14937D01*
X21013Y14925D01*
X21017Y14911D01*
X21025Y14882D01*
X21033Y14853D01*
X21041Y14823D01*
X21040D01*
X21037Y14822D01*
X21033Y14821D01*
X21027Y14819D01*
X21019Y14816D01*
X21010Y14814D01*
X20999Y14810D01*
X20987Y14807D01*
X20986Y14807D01*
X20986Y14810D01*
X20984Y14814D01*
X20982Y14819D01*
X20980Y14826D01*
X20977Y14835D01*
X20975Y14845D01*
X20971Y14856D01*
X20967Y14869D01*
X20964Y14883D01*
X20960Y14899D01*
X20956Y14915D01*
X20952Y14934D01*
X20948Y14953D01*
X20945Y14974D01*
X20941Y14995D01*
X20995D01*
Y14994D01*
D02*
G37*
%LPC*%
G36*
X19772Y11544D02*
Y11535D01*
X19572Y11341D01*
X19260Y11544D01*
Y11082D01*
X19772D01*
Y11544D01*
D02*
G37*
G36*
Y10997D02*
D01*
Y10793D01*
X19771Y10802D01*
Y10821D01*
X19769Y10841D01*
X19768Y10862D01*
X19767Y10871D01*
X19767Y10880D01*
X19765Y10887D01*
X19764Y10893D01*
Y10894D01*
X19763Y10896D01*
X19762Y10898D01*
X19761Y10901D01*
X19758Y10909D01*
X19753Y10919D01*
X19747Y10930D01*
X19738Y10943D01*
X19727Y10955D01*
X19713Y10967D01*
X19713D01*
X19712Y10968D01*
X19710Y10970D01*
X19707Y10971D01*
X19702Y10974D01*
X19698Y10976D01*
X19693Y10979D01*
X19687Y10982D01*
X19672Y10987D01*
X19656Y10992D01*
X19636Y10995D01*
X19614Y10997D01*
X19606D01*
X19602Y10996D01*
X19597D01*
X19587Y10995D01*
X19574Y10992D01*
X19560Y10989D01*
X19547Y10985D01*
X19534Y10979D01*
X19533Y10978D01*
X19529Y10976D01*
X19523Y10972D01*
X19516Y10967D01*
X19508Y10961D01*
X19499Y10953D01*
X19491Y10945D01*
X19484Y10935D01*
X19483Y10934D01*
X19481Y10931D01*
X19478Y10926D01*
X19474Y10919D01*
X19470Y10911D01*
X19466Y10902D01*
X19462Y10893D01*
X19459Y10882D01*
Y10881D01*
X19459Y10878D01*
Y10876D01*
X19458Y10872D01*
X19457Y10867D01*
X19456Y10861D01*
Y10855D01*
X19456Y10848D01*
X19455Y10840D01*
X19454Y10831D01*
X19454Y10821D01*
Y10811D01*
X19453Y10800D01*
Y10708D01*
X19260D01*
Y10605D01*
X19772D01*
Y10997D01*
D02*
G37*
G36*
X19781Y10517D02*
D01*
Y10315D01*
X19781Y10321D01*
X19780Y10329D01*
X19779Y10339D01*
X19778Y10349D01*
X19776Y10360D01*
X19771Y10383D01*
X19767Y10395D01*
X19764Y10407D01*
X19758Y10419D01*
X19752Y10430D01*
X19746Y10440D01*
X19738Y10450D01*
X19738Y10451D01*
X19736Y10452D01*
X19734Y10454D01*
X19731Y10457D01*
X19727Y10461D01*
X19721Y10466D01*
X19715Y10470D01*
X19709Y10475D01*
X19701Y10480D01*
X19693Y10484D01*
X19683Y10489D01*
X19673Y10492D01*
X19662Y10496D01*
X19650Y10499D01*
X19639Y10501D01*
X19625Y10502D01*
X19621Y10398D01*
X19622D01*
X19623D01*
X19628Y10397D01*
X19635Y10395D01*
X19643Y10392D01*
X19653Y10389D01*
X19661Y10383D01*
X19670Y10377D01*
X19678Y10369D01*
X19678Y10369D01*
X19681Y10366D01*
X19684Y10360D01*
X19687Y10353D01*
X19690Y10344D01*
X19693Y10333D01*
X19695Y10320D01*
X19695Y10304D01*
Y10297D01*
X19695Y10289D01*
X19693Y10279D01*
X19691Y10268D01*
X19687Y10256D01*
X19683Y10245D01*
X19676Y10235D01*
X19676Y10234D01*
X19674Y10232D01*
X19672Y10230D01*
X19668Y10227D01*
X19664Y10224D01*
X19658Y10221D01*
X19652Y10219D01*
X19644Y10218D01*
X19644D01*
X19641D01*
X19638Y10219D01*
X19634Y10221D01*
X19629Y10222D01*
X19624Y10224D01*
X19619Y10228D01*
X19613Y10233D01*
X19613Y10234D01*
X19610Y10238D01*
X19609Y10240D01*
X19607Y10244D01*
X19605Y10247D01*
X19603Y10252D01*
X19601Y10258D01*
X19598Y10265D01*
X19595Y10273D01*
X19592Y10281D01*
X19589Y10292D01*
X19586Y10303D01*
X19583Y10315D01*
X19579Y10328D01*
Y10329D01*
X19579Y10332D01*
X19578Y10335D01*
X19576Y10340D01*
X19575Y10346D01*
X19573Y10354D01*
X19570Y10362D01*
X19568Y10370D01*
X19562Y10388D01*
X19556Y10406D01*
X19550Y10424D01*
X19546Y10432D01*
X19542Y10439D01*
Y10440D01*
X19542Y10440D01*
X19539Y10445D01*
X19534Y10452D01*
X19528Y10460D01*
X19521Y10469D01*
X19512Y10478D01*
X19502Y10488D01*
X19490Y10496D01*
X19488Y10497D01*
X19484Y10499D01*
X19477Y10503D01*
X19468Y10506D01*
X19456Y10510D01*
X19442Y10514D01*
X19426Y10516D01*
X19408Y10517D01*
X19250D01*
X19401D01*
X19397Y10516D01*
X19392Y10515D01*
X19382Y10514D01*
X19368Y10511D01*
X19354Y10506D01*
X19340Y10500D01*
X19325Y10491D01*
X19325D01*
X19324Y10490D01*
X19320Y10487D01*
X19312Y10481D01*
X19304Y10474D01*
X19294Y10464D01*
X19286Y10452D01*
X19277Y10438D01*
X19268Y10422D01*
Y10421D01*
X19268Y10420D01*
X19267Y10417D01*
X19266Y10414D01*
X19264Y10409D01*
X19263Y10404D01*
X19261Y10398D01*
X19260Y10392D01*
X19257Y10383D01*
X19256Y10375D01*
X19253Y10356D01*
X19251Y10335D01*
X19250Y10311D01*
Y10301D01*
X19251Y10295D01*
X19251Y10286D01*
X19252Y10278D01*
X19254Y10267D01*
X19256Y10256D01*
X19261Y10232D01*
X19265Y10219D01*
X19268Y10207D01*
X19274Y10195D01*
X19280Y10183D01*
X19286Y10172D01*
X19294Y10161D01*
X19295Y10161D01*
X19297Y10159D01*
X19299Y10156D01*
X19303Y10153D01*
X19308Y10149D01*
X19314Y10144D01*
X19320Y10139D01*
X19328Y10134D01*
X19337Y10129D01*
X19346Y10124D01*
X19357Y10118D01*
X19369Y10113D01*
X19382Y10110D01*
X19396Y10105D01*
X19411Y10102D01*
X19426Y10100D01*
D01*
X19436Y10201D01*
X19435D01*
X19434Y10201D01*
X19431D01*
X19428Y10202D01*
X19419Y10205D01*
X19408Y10209D01*
X19395Y10213D01*
X19382Y10220D01*
X19371Y10227D01*
X19361Y10237D01*
X19360Y10238D01*
X19357Y10242D01*
X19354Y10248D01*
X19349Y10257D01*
X19345Y10268D01*
X19341Y10281D01*
X19338Y10295D01*
X19337Y10312D01*
Y10321D01*
X19339Y10329D01*
X19340Y10340D01*
X19342Y10352D01*
X19346Y10365D01*
X19351Y10377D01*
X19358Y10387D01*
X19359Y10389D01*
X19362Y10392D01*
X19366Y10395D01*
X19372Y10400D01*
X19380Y10405D01*
X19388Y10409D01*
X19397Y10412D01*
X19408Y10413D01*
X19408D01*
X19411D01*
X19414Y10412D01*
X19419Y10412D01*
X19423Y10410D01*
X19428Y10409D01*
X19434Y10406D01*
X19439Y10402D01*
X19439Y10401D01*
X19441Y10400D01*
X19443Y10397D01*
X19446Y10394D01*
X19450Y10389D01*
X19454Y10382D01*
X19457Y10375D01*
X19461Y10365D01*
Y10364D01*
X19462Y10361D01*
X19464Y10356D01*
X19465Y10352D01*
X19466Y10348D01*
X19468Y10343D01*
X19470Y10337D01*
X19471Y10330D01*
X19473Y10323D01*
X19476Y10314D01*
X19478Y10304D01*
X19481Y10294D01*
X19484Y10282D01*
Y10281D01*
X19485Y10278D01*
X19486Y10274D01*
X19488Y10269D01*
X19490Y10262D01*
X19492Y10254D01*
X19495Y10246D01*
X19498Y10236D01*
X19505Y10217D01*
X19514Y10198D01*
X19519Y10189D01*
X19524Y10181D01*
X19529Y10173D01*
X19534Y10166D01*
X19535Y10165D01*
X19536Y10164D01*
X19539Y10161D01*
X19542Y10158D01*
X19546Y10155D01*
X19551Y10151D01*
X19556Y10147D01*
X19563Y10143D01*
X19579Y10134D01*
X19596Y10127D01*
X19606Y10124D01*
X19616Y10121D01*
X19627Y10120D01*
X19638Y10119D01*
X19639D01*
X19639D01*
X19641D01*
X19644D01*
X19652Y10121D01*
X19661Y10122D01*
X19673Y10124D01*
X19685Y10128D01*
X19698Y10133D01*
X19711Y10141D01*
X19712D01*
X19713Y10141D01*
X19717Y10145D01*
X19723Y10150D01*
X19730Y10157D01*
X19738Y10166D01*
X19747Y10177D01*
X19755Y10190D01*
X19763Y10204D01*
Y10205D01*
X19764Y10207D01*
X19764Y10209D01*
X19766Y10212D01*
X19767Y10216D01*
X19769Y10221D01*
X19770Y10227D01*
X19772Y10233D01*
X19775Y10248D01*
X19778Y10265D01*
X19781Y10284D01*
X19781Y10306D01*
Y10100D01*
X19426D01*
X19781D01*
Y10517D01*
D02*
G37*
%LPD*%
G36*
X19772Y11186D02*
X19544D01*
X19772Y11396D01*
Y11186D01*
D02*
G37*
G36*
X19500Y11269D02*
X19414Y11186D01*
X19260D01*
Y11411D01*
X19500Y11269D01*
D02*
G37*
G36*
X19621Y10890D02*
X19628Y10888D01*
X19636Y10886D01*
X19644Y10883D01*
X19651Y10879D01*
X19658Y10873D01*
X19659Y10873D01*
X19661Y10870D01*
X19664Y10867D01*
X19668Y10862D01*
X19673Y10856D01*
X19676Y10849D01*
X19679Y10841D01*
X19681Y10832D01*
Y10831D01*
X19682Y10828D01*
X19683Y10823D01*
X19684Y10816D01*
Y10806D01*
X19684Y10799D01*
Y10793D01*
X19685Y10785D01*
Y10708D01*
X19539D01*
Y10779D01*
X19540Y10784D01*
Y10798D01*
X19541Y10811D01*
X19542Y10824D01*
X19545Y10836D01*
X19545Y10841D01*
X19547Y10846D01*
X19547Y10847D01*
X19548Y10850D01*
X19550Y10853D01*
X19553Y10858D01*
X19556Y10863D01*
X19561Y10868D01*
X19566Y10874D01*
X19572Y10878D01*
X19573Y10879D01*
X19575Y10881D01*
X19579Y10882D01*
X19584Y10884D01*
X19590Y10887D01*
X19596Y10889D01*
X19604Y10890D01*
X19612Y10890D01*
X19613D01*
X19616D01*
X19621Y10890D01*
D02*
G37*
%LPC*%
G36*
X19781Y15374D02*
D01*
Y15176D01*
X19780Y15183D01*
X19779Y15191D01*
X19778Y15200D01*
X19776Y15210D01*
X19774Y15222D01*
X19771Y15233D01*
X19767Y15246D01*
X19763Y15259D01*
X19757Y15272D01*
X19751Y15284D01*
X19744Y15296D01*
X19735Y15309D01*
X19725Y15320D01*
Y15321D01*
X19724Y15321D01*
X19721Y15324D01*
X19719Y15326D01*
X19715Y15329D01*
X19711Y15332D01*
X19701Y15340D01*
X19687Y15348D01*
X19671Y15357D01*
X19653Y15365D01*
X19631Y15372D01*
X19607Y15270D01*
X19607D01*
X19608Y15270D01*
X19610D01*
X19613Y15268D01*
X19620Y15266D01*
X19629Y15262D01*
X19639Y15257D01*
X19650Y15250D01*
X19660Y15242D01*
X19669Y15232D01*
X19670Y15230D01*
X19673Y15227D01*
X19676Y15221D01*
X19681Y15213D01*
X19685Y15202D01*
X19689Y15190D01*
X19692Y15177D01*
X19693Y15162D01*
Y15157D01*
X19692Y15153D01*
X19691Y15148D01*
X19690Y15142D01*
X19687Y15130D01*
X19682Y15115D01*
X19675Y15099D01*
X19670Y15091D01*
X19665Y15084D01*
X19658Y15076D01*
X19651Y15070D01*
X19650D01*
X19649Y15068D01*
X19647Y15067D01*
X19643Y15065D01*
X19639Y15062D01*
X19633Y15059D01*
X19627Y15056D01*
X19619Y15053D01*
X19610Y15049D01*
X19601Y15046D01*
X19590Y15043D01*
X19578Y15040D01*
X19564Y15038D01*
X19550Y15037D01*
X19535Y15036D01*
X19518Y15035D01*
X19517D01*
X19513D01*
X19508D01*
X19502Y15036D01*
X19494D01*
X19485Y15037D01*
X19475Y15038D01*
X19464Y15039D01*
X19441Y15044D01*
X19418Y15050D01*
X19407Y15054D01*
X19397Y15059D01*
X19387Y15064D01*
X19379Y15070D01*
X19378Y15071D01*
X19377Y15071D01*
X19375Y15074D01*
X19372Y15076D01*
X19366Y15084D01*
X19359Y15094D01*
X19351Y15107D01*
X19345Y15122D01*
X19340Y15140D01*
X19339Y15150D01*
X19338Y15160D01*
Y15164D01*
X19339Y15167D01*
X19340Y15175D01*
X19341Y15185D01*
X19345Y15195D01*
X19349Y15207D01*
X19355Y15219D01*
X19364Y15230D01*
X19365Y15232D01*
X19369Y15236D01*
X19375Y15241D01*
X19384Y15247D01*
X19396Y15254D01*
X19410Y15261D01*
X19427Y15267D01*
X19447Y15273D01*
X19416Y15374D01*
X19250D01*
X19415D01*
X19412Y15373D01*
X19408Y15372D01*
X19402Y15370D01*
X19395Y15367D01*
X19387Y15364D01*
X19378Y15360D01*
X19368Y15355D01*
X19348Y15345D01*
X19328Y15332D01*
X19308Y15316D01*
X19299Y15307D01*
X19291Y15297D01*
X19290Y15296D01*
X19289Y15295D01*
X19287Y15292D01*
X19284Y15287D01*
X19281Y15282D01*
X19278Y15276D01*
X19274Y15268D01*
X19271Y15260D01*
X19266Y15250D01*
X19263Y15240D01*
X19260Y15229D01*
X19257Y15217D01*
X19254Y15204D01*
X19251Y15190D01*
X19251Y15176D01*
X19250Y15161D01*
Y15156D01*
X19251Y15151D01*
X19251Y15144D01*
X19252Y15136D01*
X19254Y15125D01*
X19256Y15114D01*
X19259Y15102D01*
X19263Y15089D01*
X19267Y15076D01*
X19273Y15062D01*
X19280Y15048D01*
X19287Y15034D01*
X19297Y15020D01*
X19307Y15006D01*
X19320Y14994D01*
X19320Y14993D01*
X19323Y14991D01*
X19327Y14988D01*
X19332Y14983D01*
X19340Y14979D01*
X19348Y14973D01*
X19358Y14967D01*
X19370Y14961D01*
X19382Y14955D01*
X19397Y14949D01*
X19413Y14943D01*
X19430Y14939D01*
X19448Y14934D01*
X19468Y14931D01*
X19488Y14929D01*
X19510Y14928D01*
X19250D01*
X19516D01*
X19523Y14929D01*
X19532D01*
X19542Y14931D01*
X19555Y14932D01*
X19568Y14934D01*
X19584Y14937D01*
X19599Y14940D01*
X19616Y14945D01*
X19632Y14950D01*
X19649Y14957D01*
X19665Y14964D01*
X19681Y14973D01*
X19695Y14983D01*
X19710Y14994D01*
X19710Y14995D01*
X19713Y14997D01*
X19716Y15001D01*
X19721Y15006D01*
X19726Y15013D01*
X19732Y15021D01*
X19738Y15030D01*
X19745Y15041D01*
X19752Y15053D01*
X19758Y15065D01*
X19764Y15080D01*
X19769Y15095D01*
X19774Y15112D01*
X19778Y15129D01*
X19780Y15148D01*
X19781Y15167D01*
Y14957D01*
Y15374D01*
D02*
G37*
G36*
X19771Y14848D02*
X19259D01*
Y14744D01*
X19771D01*
Y14848D01*
D02*
G37*
%LPD*%
G36*
Y14305D02*
X19421Y14396D01*
X19771Y14487D01*
Y14305D01*
D02*
G37*
%LPC*%
G36*
Y14643D02*
X19259D01*
Y14547D01*
X19661Y14547D01*
X19259Y14446D01*
Y14346D01*
X19661Y14245D01*
X19259D01*
Y14150D01*
X19771D01*
Y14643D01*
D02*
G37*
%LPD*%
D15*
X20050Y10300D02*
X22050D01*
X20300Y13800D02*
X21950D01*
X19150Y10050D02*
Y11900D01*
X19277Y11733D02*
X19812Y11809D01*
X19277Y11733D02*
Y11883D01*
X19812Y11809D01*
X19277Y11883D02*
X19377Y11833D01*
X19277Y11733D02*
X19377Y11833D01*
X19895Y13808D02*
X19900Y15400D01*
X19277Y11808D02*
X19812Y11809D01*
X19277Y11733D02*
X19450Y11800D01*
X19627Y13883D02*
X19800Y13950D01*
X19700Y13850D02*
X19800Y13950D01*
X19700Y13850D02*
X19800Y13800D01*
X19265Y13874D02*
X19800Y13800D01*
Y13950D01*
X19265Y13874D02*
X19800Y13950D01*
X19265Y13874D02*
X19800Y13875D01*
Y13800D02*
Y13950D01*
X19250Y11650D02*
X19800D01*
X19250Y14050D02*
X19800D01*
X12850Y10550D02*
X18550D01*
X12850Y13350D02*
X18550D01*
X12850Y10550D02*
Y13350D01*
X18550Y10550D02*
Y13350D01*
D16*
X13390Y14654D02*
X13724D01*
X13390Y14221D02*
Y14654D01*
X14276D02*
X14610D01*
Y14221D02*
Y14654D01*
D18*
X16985Y14755D02*
X17115D01*
X17115Y14790D02*
X17115Y14755D01*
X16985Y14790D02*
X17115D01*
X16985Y14755D02*
X16985Y14790D01*
X17115Y14910D02*
Y14945D01*
X16985Y14910D02*
X17115D01*
X16985D02*
Y14945D01*
X17115D01*
X16310Y14730D02*
Y14765D01*
X16490Y14730D02*
Y14765D01*
X16310Y14730D02*
X16490D01*
X16310Y14765D02*
X16490D01*
X16310Y14635D02*
X16490D01*
X16310Y14670D02*
X16490D01*
X16310Y14635D02*
Y14670D01*
X16490Y14635D02*
Y14670D01*
X16985Y13695D02*
X17115D01*
X16985D02*
X16985Y13660D01*
X17115D01*
X17115Y13695D01*
X16985Y13505D02*
Y13540D01*
X17115D01*
Y13505D02*
Y13540D01*
X16985Y13505D02*
X17115D01*
X16985Y14105D02*
X17115D01*
X17115Y14140D02*
X17115Y14105D01*
X16985Y14140D02*
X17115D01*
X16985Y14105D02*
X16985Y14140D01*
X17115Y14260D02*
Y14295D01*
X16985Y14260D02*
X17115D01*
X16985D02*
Y14295D01*
X17115D01*
X16490Y13635D02*
Y13670D01*
X16310Y13635D02*
Y13670D01*
X16490D01*
X16310Y13635D02*
X16490D01*
X16310Y13765D02*
X16490D01*
X16310Y13730D02*
X16490D01*
Y13765D01*
X16310Y13730D02*
Y13765D01*
X19335Y13355D02*
X19465D01*
X19465Y13390D02*
X19465Y13355D01*
X19335Y13390D02*
X19465D01*
X19335Y13355D02*
X19335Y13390D01*
X19465Y13510D02*
Y13545D01*
X19335Y13510D02*
X19465D01*
X19335D02*
Y13545D01*
X19465D01*
X15145Y14635D02*
Y14765D01*
X15110Y14765D02*
X15145Y14765D01*
X15110Y14635D02*
Y14765D01*
Y14635D02*
X15145Y14635D01*
X14955Y14765D02*
X14990D01*
Y14635D02*
Y14765D01*
X14955Y14635D02*
X14990D01*
X14955D02*
Y14765D01*
X15405Y14635D02*
Y14765D01*
Y14635D02*
X15440Y14635D01*
Y14765D01*
X15405Y14765D02*
X15440Y14765D01*
X15560Y14635D02*
X15595D01*
X15560D02*
Y14765D01*
X15595D01*
Y14635D02*
Y14765D01*
X15860Y14730D02*
Y14765D01*
X16040Y14730D02*
Y14765D01*
X15860Y14730D02*
X16040D01*
X15860Y14765D02*
X16040D01*
X15860Y14635D02*
X16040D01*
X15860Y14670D02*
X16040D01*
X15860Y14635D02*
Y14670D01*
X16040Y14635D02*
Y14670D01*
X19335Y12605D02*
X19465D01*
X19465Y12640D02*
X19465Y12605D01*
X19335Y12640D02*
X19465D01*
X19335Y12605D02*
X19335Y12640D01*
X19465Y12760D02*
Y12795D01*
X19335Y12760D02*
X19465D01*
X19335D02*
Y12795D01*
X19465D01*
X19335Y12205D02*
X19465D01*
X19465Y12240D02*
X19465Y12205D01*
X19335Y12240D02*
X19465D01*
X19335Y12205D02*
X19335Y12240D01*
X19465Y12360D02*
Y12395D01*
X19335Y12360D02*
X19465D01*
X19335D02*
Y12395D01*
X19465D01*
X19335Y13005D02*
X19465D01*
X19465Y13040D02*
X19465Y13005D01*
X19335Y13040D02*
X19465D01*
X19335Y13005D02*
X19335Y13040D01*
X19465Y13160D02*
Y13195D01*
X19335Y13160D02*
X19465D01*
X19335D02*
Y13195D01*
X19465D01*
D59*
X12600Y14600D02*
X13100D01*
X12600Y13600D02*
X13100D01*
X12600D02*
Y15000D01*
X13100D01*
Y13600D02*
Y15000D01*
X15008Y13356D02*
X15992D01*
X15008Y14144D02*
X15992D01*
X15008Y13356D02*
Y13376D01*
X15992Y13356D02*
Y13376D01*
X15008Y14124D02*
Y14144D01*
X15992Y14124D02*
Y14144D01*
X10960Y11070D02*
X10760D01*
X10660Y11170D01*
X10760Y11270D01*
X10960D01*
X10940Y14370D02*
X10990Y14320D01*
Y14220D01*
X10940Y14170D01*
X10740D01*
X10690Y14220D01*
Y14320D01*
X10740Y14370D01*
X10840D01*
Y14270D01*
D82*
X19087Y14250D02*
G03*
X19087Y14250I-787J0D01*
G01*
X11500Y10690D02*
Y14740D01*
X10100D02*
X11500D01*
X10100Y14290D02*
Y14740D01*
Y10690D02*
Y14290D01*
Y10690D02*
X11500D01*
X6550Y14340D02*
X7400D01*
X6550Y13340D02*
Y14340D01*
Y11090D02*
Y12090D01*
Y13340D02*
X7400D01*
Y14340D01*
X6550Y12090D02*
X7400D01*
Y11090D02*
Y12090D01*
X6550Y11090D02*
X7400D01*
X4150Y10340D02*
X10100D01*
Y11990D01*
Y15090D01*
X4150D02*
X10100D01*
X4150Y10340D02*
Y15090D01*
D83*
X21700Y13250D02*
Y13550D01*
X21400Y13550D02*
X21700Y13250D01*
X21400Y13550D02*
X21700D01*
M02*
