G04*
G04 #@! TF.GenerationSoftware,Altium Limited,Altium Designer,21.6.4 (81)*
G04*
G04 Layer_Physical_Order=1*
G04 Layer_Color=255*
%FSLAX24Y24*%
%MOIN*%
G70*
G04*
G04 #@! TF.SameCoordinates,18F95803-63CF-49D0-9880-B3B199DA49BA*
G04*
G04*
G04 #@! TF.FilePolarity,Positive*
G04*
G01*
G75*
%ADD11C,0.0080*%
%ADD12C,0.0150*%
%ADD15C,0.0060*%
%ADD19O,0.0450X0.0140*%
%ADD20O,0.0480X0.0140*%
G04:AMPARAMS|DCode=21|XSize=14mil|YSize=45mil|CornerRadius=0mil|HoleSize=0mil|Usage=FLASHONLY|Rotation=180.000|XOffset=0mil|YOffset=0mil|HoleType=Round|Shape=Octagon|*
%AMOCTAGOND21*
4,1,8,0.0035,-0.0225,-0.0035,-0.0225,-0.0070,-0.0190,-0.0070,0.0190,-0.0035,0.0225,0.0035,0.0225,0.0070,0.0190,0.0070,-0.0190,0.0035,-0.0225,0.0*
%
%ADD21OCTAGOND21*%

%ADD22O,0.0140X0.0480*%
%ADD23O,0.0140X0.0450*%
%ADD24R,0.0394X0.0394*%
G04:AMPARAMS|DCode=25|XSize=32mil|YSize=32mil|CornerRadius=16mil|HoleSize=0mil|Usage=FLASHONLY|Rotation=60.000|XOffset=0mil|YOffset=0mil|HoleType=Round|Shape=RoundedRectangle|*
%AMROUNDEDRECTD25*
21,1,0.0320,0.0000,0,0,60.0*
21,1,0.0000,0.0320,0,0,60.0*
1,1,0.0320,0.0000,0.0000*
1,1,0.0320,0.0000,0.0000*
1,1,0.0320,0.0000,0.0000*
1,1,0.0320,0.0000,0.0000*
%
%ADD25ROUNDEDRECTD25*%
G04:AMPARAMS|DCode=26|XSize=16mil|YSize=16mil|CornerRadius=8mil|HoleSize=0mil|Usage=FLASHONLY|Rotation=180.000|XOffset=0mil|YOffset=0mil|HoleType=Round|Shape=RoundedRectangle|*
%AMROUNDEDRECTD26*
21,1,0.0160,0.0000,0,0,180.0*
21,1,0.0000,0.0160,0,0,180.0*
1,1,0.0160,0.0000,0.0000*
1,1,0.0160,0.0000,0.0000*
1,1,0.0160,0.0000,0.0000*
1,1,0.0160,0.0000,0.0000*
%
%ADD26ROUNDEDRECTD26*%
%ADD27R,0.0512X0.0472*%
G04:AMPARAMS|DCode=28|XSize=20mil|YSize=20mil|CornerRadius=5mil|HoleSize=0mil|Usage=FLASHONLY|Rotation=180.000|XOffset=0mil|YOffset=0mil|HoleType=Round|Shape=RoundedRectangle|*
%AMROUNDEDRECTD28*
21,1,0.0200,0.0100,0,0,180.0*
21,1,0.0100,0.0200,0,0,180.0*
1,1,0.0100,-0.0050,0.0050*
1,1,0.0100,0.0050,0.0050*
1,1,0.0100,0.0050,-0.0050*
1,1,0.0100,-0.0050,-0.0050*
%
%ADD28ROUNDEDRECTD28*%
G04:AMPARAMS|DCode=29|XSize=20mil|YSize=20mil|CornerRadius=5mil|HoleSize=0mil|Usage=FLASHONLY|Rotation=270.000|XOffset=0mil|YOffset=0mil|HoleType=Round|Shape=RoundedRectangle|*
%AMROUNDEDRECTD29*
21,1,0.0200,0.0100,0,0,270.0*
21,1,0.0100,0.0200,0,0,270.0*
1,1,0.0100,-0.0050,-0.0050*
1,1,0.0100,-0.0050,0.0050*
1,1,0.0100,0.0050,0.0050*
1,1,0.0100,0.0050,-0.0050*
%
%ADD29ROUNDEDRECTD29*%
G04:AMPARAMS|DCode=30|XSize=50mil|YSize=30mil|CornerRadius=7.5mil|HoleSize=0mil|Usage=FLASHONLY|Rotation=180.000|XOffset=0mil|YOffset=0mil|HoleType=Round|Shape=RoundedRectangle|*
%AMROUNDEDRECTD30*
21,1,0.0500,0.0150,0,0,180.0*
21,1,0.0350,0.0300,0,0,180.0*
1,1,0.0150,-0.0175,0.0075*
1,1,0.0150,0.0175,0.0075*
1,1,0.0150,0.0175,-0.0075*
1,1,0.0150,-0.0175,-0.0075*
%
%ADD30ROUNDEDRECTD30*%
%ADD31O,0.0591X0.0138*%
%ADD32R,0.0591X0.0138*%
%ADD33R,0.1063X0.1102*%
G04:AMPARAMS|DCode=34|XSize=12mil|YSize=38mil|CornerRadius=3mil|HoleSize=0mil|Usage=FLASHONLY|Rotation=180.000|XOffset=0mil|YOffset=0mil|HoleType=Round|Shape=RoundedRectangle|*
%AMROUNDEDRECTD34*
21,1,0.0120,0.0320,0,0,180.0*
21,1,0.0060,0.0380,0,0,180.0*
1,1,0.0060,-0.0030,0.0160*
1,1,0.0060,0.0030,0.0160*
1,1,0.0060,0.0030,-0.0160*
1,1,0.0060,-0.0030,-0.0160*
%
%ADD34ROUNDEDRECTD34*%
G04:AMPARAMS|DCode=35|XSize=12mil|YSize=38mil|CornerRadius=3mil|HoleSize=0mil|Usage=FLASHONLY|Rotation=270.000|XOffset=0mil|YOffset=0mil|HoleType=Round|Shape=RoundedRectangle|*
%AMROUNDEDRECTD35*
21,1,0.0120,0.0320,0,0,270.0*
21,1,0.0060,0.0380,0,0,270.0*
1,1,0.0060,-0.0160,-0.0030*
1,1,0.0060,-0.0160,0.0030*
1,1,0.0060,0.0160,0.0030*
1,1,0.0060,0.0160,-0.0030*
%
%ADD35ROUNDEDRECTD35*%
G04:AMPARAMS|DCode=36|XSize=60mil|YSize=100mil|CornerRadius=15mil|HoleSize=0mil|Usage=FLASHONLY|Rotation=90.000|XOffset=0mil|YOffset=0mil|HoleType=Round|Shape=RoundedRectangle|*
%AMROUNDEDRECTD36*
21,1,0.0600,0.0700,0,0,90.0*
21,1,0.0300,0.1000,0,0,90.0*
1,1,0.0300,0.0350,0.0150*
1,1,0.0300,0.0350,-0.0150*
1,1,0.0300,-0.0350,-0.0150*
1,1,0.0300,-0.0350,0.0150*
%
%ADD36ROUNDEDRECTD36*%
G04:AMPARAMS|DCode=37|XSize=23.6mil|YSize=35mil|CornerRadius=5.9mil|HoleSize=0mil|Usage=FLASHONLY|Rotation=180.000|XOffset=0mil|YOffset=0mil|HoleType=Round|Shape=RoundedRectangle|*
%AMROUNDEDRECTD37*
21,1,0.0236,0.0232,0,0,180.0*
21,1,0.0118,0.0350,0,0,180.0*
1,1,0.0118,-0.0059,0.0116*
1,1,0.0118,0.0059,0.0116*
1,1,0.0118,0.0059,-0.0116*
1,1,0.0118,-0.0059,-0.0116*
%
%ADD37ROUNDEDRECTD37*%
%ADD58C,0.0040*%
%ADD59C,0.0050*%
%ADD60O,0.0984X0.0394*%
%ADD61C,0.0180*%
%ADD62C,0.0200*%
%ADD63C,0.0280*%
G36*
X22108Y15404D02*
X22209Y15362D01*
X22296Y15296D01*
X22362Y15209D01*
X22404Y15108D01*
X22419Y15000D01*
X22418Y15000D01*
Y14947D01*
X22368Y14935D01*
X22359Y14949D01*
X22320Y14988D01*
X22295Y15005D01*
X22266Y15010D01*
X22262D01*
X22256Y15013D01*
X22248Y15013D01*
X22243Y15014D01*
X22238Y15014D01*
X22235Y15015D01*
X22233Y15016D01*
X22233Y15016D01*
X22232Y15016D01*
X22232Y15016D01*
X22231Y15017D01*
X22230Y15017D01*
X22230Y15018D01*
X22229Y15018D01*
X22228Y15021D01*
X22219Y15025D01*
X22187Y15046D01*
X22141Y15055D01*
X21688D01*
X21642Y15046D01*
X21602Y15020D01*
X21576Y14980D01*
X21567Y14934D01*
X21576Y14887D01*
X21602Y14848D01*
X21642Y14822D01*
X21688Y14813D01*
X22141D01*
X22179Y14820D01*
X22211Y14803D01*
X22229Y14789D01*
Y14566D01*
X22211Y14553D01*
X22179Y14536D01*
X22141Y14543D01*
X21946D01*
X21915Y14549D01*
X21528D01*
Y14550D01*
X21490Y14558D01*
X21457Y14579D01*
X21436Y14612D01*
X21428Y14650D01*
X21427D01*
Y14950D01*
X21429D01*
X21413Y15074D01*
X21365Y15190D01*
X21289Y15289D01*
X21190Y15365D01*
X21181Y15368D01*
X21191Y15418D01*
X22000D01*
X22000Y15419D01*
X22108Y15404D01*
D02*
G37*
G36*
X10500Y15418D02*
X12449D01*
X12466Y15368D01*
X12418Y15332D01*
X12369Y15268D01*
X12301Y15277D01*
X12300Y15277D01*
X12197D01*
X12193Y15279D01*
X12142Y15280D01*
X12101Y15282D01*
X12070Y15286D01*
X12060Y15288D01*
X12052Y15290D01*
X12049Y15291D01*
X12045Y15294D01*
X12039Y15294D01*
X12039Y15294D01*
X12028Y15296D01*
X12019Y15300D01*
X12016Y15299D01*
X12000Y15302D01*
X11900D01*
X11861Y15294D01*
X11828Y15272D01*
X11806Y15239D01*
X11798Y15200D01*
Y15100D01*
X11806Y15061D01*
X11828Y15028D01*
X11861Y15006D01*
X11884Y15001D01*
X11895Y14991D01*
X11904Y14972D01*
X11908Y14948D01*
X11905Y14945D01*
X11899Y14942D01*
X11700D01*
X11665Y14935D01*
X11635Y14915D01*
X11510Y14790D01*
X11490Y14760D01*
X11483Y14725D01*
Y13235D01*
X11433Y13215D01*
X11429Y13219D01*
X11378Y13240D01*
X11322D01*
X11271Y13219D01*
X11217Y13228D01*
X11191Y13261D01*
X11119Y13303D01*
X11036Y13314D01*
X10955Y13292D01*
X10889Y13241D01*
X10847Y13169D01*
X10836Y13086D01*
X10858Y13005D01*
X10909Y12939D01*
X10981Y12897D01*
X11064Y12886D01*
X11145Y12908D01*
X11211Y12959D01*
X11213Y12963D01*
X11221Y12971D01*
X11271Y12981D01*
X11322Y12960D01*
X11378D01*
X11429Y12981D01*
X11433Y12985D01*
X11483Y12965D01*
Y12503D01*
X11464Y12490D01*
X11433Y12478D01*
X11390Y12496D01*
X11334D01*
X11298Y12481D01*
X11288Y12480D01*
X11242Y12495D01*
X11191Y12561D01*
X11119Y12603D01*
X11036Y12614D01*
X10955Y12592D01*
X10889Y12541D01*
X10847Y12469D01*
X10836Y12386D01*
X10858Y12305D01*
X10909Y12239D01*
X10981Y12197D01*
X11064Y12186D01*
X11145Y12208D01*
X11202Y12252D01*
X11213Y12259D01*
X11266Y12254D01*
X11282Y12237D01*
X11334Y12216D01*
X11390D01*
X11433Y12234D01*
X11464Y12222D01*
X11483Y12209D01*
Y10675D01*
X11490Y10640D01*
X11510Y10610D01*
X11622Y10499D01*
X11603Y10457D01*
X11598Y10452D01*
X11500D01*
X11461Y10444D01*
X11428Y10422D01*
X11406Y10389D01*
X11404Y10379D01*
X11399Y10379D01*
X11393Y10376D01*
X11307D01*
X11301Y10379D01*
X11296Y10379D01*
X11294Y10389D01*
X11272Y10422D01*
X11239Y10444D01*
X11200Y10452D01*
X11100D01*
X11061Y10444D01*
X11028Y10422D01*
X11006Y10389D01*
X10998Y10350D01*
Y10250D01*
X11006Y10211D01*
X11028Y10178D01*
X11061Y10156D01*
X11100Y10148D01*
X11200D01*
X11239Y10156D01*
X11272Y10178D01*
X11294Y10211D01*
X11296Y10221D01*
X11301Y10221D01*
X11307Y10224D01*
X11393D01*
X11399Y10221D01*
X11404Y10221D01*
X11406Y10211D01*
X11428Y10178D01*
X11461Y10156D01*
X11500Y10148D01*
X11600D01*
X11639Y10156D01*
X11672Y10178D01*
X11694Y10211D01*
X11702Y10250D01*
Y10348D01*
X11707Y10353D01*
X11754Y10363D01*
X11782Y10332D01*
X11791Y10321D01*
X11798Y10312D01*
Y10288D01*
X11797Y10287D01*
X11798Y10285D01*
Y10278D01*
X11798Y10278D01*
X11798Y10278D01*
Y10250D01*
X11806Y10211D01*
X11828Y10178D01*
X11861Y10156D01*
X11900Y10148D01*
X12000D01*
X12039Y10156D01*
X12072Y10178D01*
X12094Y10211D01*
X12102Y10250D01*
Y10350D01*
X12094Y10389D01*
X12072Y10422D01*
X12071Y10423D01*
X12087Y10473D01*
X12177D01*
X12214Y10423D01*
X12214Y10420D01*
X12212Y10410D01*
X12210Y10402D01*
X12209Y10399D01*
X12206Y10395D01*
X12206Y10389D01*
X12206Y10389D01*
X12204Y10378D01*
X12200Y10369D01*
X12201Y10366D01*
X12198Y10350D01*
Y10250D01*
X12206Y10211D01*
X12228Y10178D01*
X12261Y10156D01*
X12300Y10148D01*
X12400D01*
X12439Y10156D01*
X12472Y10178D01*
X12494Y10211D01*
X12502Y10250D01*
Y10350D01*
X12499Y10366D01*
X12500Y10369D01*
X12496Y10378D01*
X12494Y10389D01*
X12494Y10389D01*
X12494Y10395D01*
X12491Y10399D01*
X12490Y10402D01*
X12488Y10410D01*
X12486Y10419D01*
X12485Y10432D01*
X12487Y10443D01*
X12494Y10465D01*
X12502Y10487D01*
X12511Y10508D01*
X12523Y10529D01*
X12536Y10549D01*
X12552Y10568D01*
X12565Y10582D01*
X12903D01*
X12908Y10573D01*
X12912Y10562D01*
X12916Y10549D01*
X12919Y10534D01*
X12920Y10518D01*
X12921Y10498D01*
X12924Y10491D01*
X12932Y10451D01*
X12936Y10445D01*
X12918Y10398D01*
X12911Y10393D01*
X12888Y10399D01*
X12872Y10422D01*
X12839Y10444D01*
X12800Y10452D01*
X12700D01*
X12661Y10444D01*
X12628Y10422D01*
X12606Y10389D01*
X12598Y10350D01*
Y10250D01*
X12606Y10211D01*
X12628Y10178D01*
X12661Y10156D01*
X12700Y10148D01*
X12800D01*
X12839Y10156D01*
X12872Y10178D01*
X12884Y10196D01*
X12932Y10206D01*
X12944Y10205D01*
X13021Y10128D01*
X13002Y10082D01*
X10550D01*
X10549Y10082D01*
X10500Y10082D01*
X10453Y10088D01*
X10392Y10096D01*
X10291Y10137D01*
X10204Y10204D01*
X10137Y10291D01*
X10096Y10392D01*
X10081Y10500D01*
X10082Y10500D01*
X10082Y15000D01*
X10081Y15000D01*
X10096Y15108D01*
X10137Y15209D01*
X10204Y15296D01*
X10291Y15362D01*
X10392Y15404D01*
X10500Y15419D01*
X10500Y15418D01*
D02*
G37*
G36*
X19207Y15418D02*
X19221Y15387D01*
X19225Y15368D01*
X19206Y15339D01*
X19198Y15300D01*
Y15279D01*
X19148Y15246D01*
X19138Y15250D01*
X19082D01*
X19031Y15229D01*
X19018Y15216D01*
X19009Y15213D01*
X19007Y15210D01*
X19006Y15210D01*
X19005Y15209D01*
X19003Y15208D01*
X19000Y15207D01*
X18997Y15206D01*
X18993Y15205D01*
X18988Y15205D01*
X18982Y15204D01*
X18974Y15204D01*
X18969Y15202D01*
X17248D01*
X17115Y15335D01*
X17085Y15355D01*
X17050Y15362D01*
X16435D01*
X16430Y15364D01*
X16424Y15364D01*
X16424Y15364D01*
X16418Y15368D01*
X16418Y15379D01*
X16442Y15418D01*
X19207D01*
D02*
G37*
G36*
X19449Y15295D02*
X19451Y15291D01*
X19453Y15287D01*
X19457Y15284D01*
X19461Y15281D01*
X19467Y15279D01*
X19474Y15277D01*
X19481Y15276D01*
X19490Y15275D01*
X19500Y15275D01*
Y15225D01*
X19490Y15225D01*
X19481Y15224D01*
X19474Y15223D01*
X19467Y15221D01*
X19461Y15219D01*
X19457Y15216D01*
X19453Y15213D01*
X19451Y15209D01*
X19449Y15205D01*
X19449Y15200D01*
X19449Y15300D01*
X19449Y15295D01*
D02*
G37*
G36*
X16339Y15330D02*
X16344Y15326D01*
X16351Y15322D01*
X16358Y15319D01*
X16367Y15316D01*
X16377Y15314D01*
X16388Y15312D01*
X16400Y15311D01*
X16428Y15310D01*
X16430Y15230D01*
X16413Y15230D01*
X16399Y15228D01*
X16386Y15226D01*
X16375Y15224D01*
X16366Y15220D01*
X16358Y15216D01*
X16353Y15211D01*
X16349Y15205D01*
X16347Y15198D01*
X16347Y15190D01*
X16335Y15335D01*
X16339Y15330D01*
D02*
G37*
G36*
X19399Y15218D02*
X19400Y15213D01*
X19401Y15208D01*
X19402Y15204D01*
X19403Y15200D01*
X19405Y15197D01*
X19407Y15195D01*
X19410Y15193D01*
X19413Y15191D01*
X19416Y15190D01*
X19337Y15168D01*
X19339Y15171D01*
X19341Y15174D01*
X19343Y15178D01*
X19345Y15182D01*
X19346Y15188D01*
X19347Y15194D01*
X19348Y15200D01*
X19349Y15215D01*
X19349Y15224D01*
X19399D01*
X19399Y15218D01*
D02*
G37*
G36*
X16263Y15151D02*
X16257Y15156D01*
X16250Y15158D01*
X16242Y15158D01*
X16232Y15155D01*
X16221Y15151D01*
X16209Y15144D01*
X16196Y15135D01*
X16182Y15123D01*
X16150Y15094D01*
X16094Y15150D01*
X16110Y15167D01*
X16135Y15196D01*
X16144Y15209D01*
X16151Y15221D01*
X16155Y15232D01*
X16158Y15242D01*
X16158Y15250D01*
X16156Y15257D01*
X16151Y15263D01*
X16263Y15151D01*
D02*
G37*
G36*
X16777Y15102D02*
X16772Y15096D01*
X16766Y15090D01*
X16762Y15084D01*
X16757Y15077D01*
X16753Y15070D01*
X16749Y15062D01*
X16746Y15054D01*
X16740Y15037D01*
X16737Y15028D01*
X16674Y15137D01*
X16682Y15135D01*
X16690Y15134D01*
X16698Y15134D01*
X16705Y15134D01*
X16713Y15136D01*
X16720Y15138D01*
X16727Y15142D01*
X16734Y15146D01*
X16740Y15151D01*
X16747Y15157D01*
X16777Y15102D01*
D02*
G37*
G36*
X12026Y15242D02*
X12036Y15238D01*
X12048Y15235D01*
X12062Y15233D01*
X12096Y15228D01*
X12140Y15226D01*
X12192Y15225D01*
Y15075D01*
X12165Y15075D01*
X12062Y15067D01*
X12048Y15065D01*
X12036Y15062D01*
X12026Y15058D01*
X12019Y15054D01*
Y15246D01*
X12026Y15242D01*
D02*
G37*
G36*
X19046Y15047D02*
X19041Y15051D01*
X19036Y15055D01*
X19030Y15059D01*
X19024Y15062D01*
X19017Y15064D01*
X19010Y15066D01*
X19002Y15068D01*
X18994Y15069D01*
X18985Y15070D01*
X18976Y15070D01*
Y15150D01*
X18985Y15150D01*
X18994Y15151D01*
X19002Y15152D01*
X19010Y15154D01*
X19017Y15156D01*
X19024Y15158D01*
X19030Y15161D01*
X19036Y15165D01*
X19041Y15169D01*
X19046Y15173D01*
Y15047D01*
D02*
G37*
G36*
X16107Y15418D02*
X16121Y15387D01*
X16125Y15368D01*
X16106Y15339D01*
X16098Y15300D01*
Y15272D01*
X16098Y15272D01*
X16098Y15272D01*
Y15265D01*
X16097Y15263D01*
X16098Y15262D01*
Y15238D01*
X16092Y15229D01*
X16070Y15203D01*
X16055Y15188D01*
X16053Y15182D01*
X15912Y15042D01*
X15409D01*
Y15133D01*
X15410D01*
X15398Y15194D01*
X15380Y15221D01*
Y15226D01*
X15360Y15274D01*
X15324Y15310D01*
X15276Y15330D01*
X15224D01*
X15176Y15310D01*
X15140Y15274D01*
X15120Y15226D01*
Y15174D01*
X15140Y15126D01*
X15149Y15117D01*
X15128Y15067D01*
X14959D01*
Y15069D01*
X14882Y15054D01*
X14816Y15010D01*
X14772Y14944D01*
X14756Y14866D01*
X14758D01*
Y14682D01*
X14758D01*
X14746Y14654D01*
X14718Y14642D01*
Y14642D01*
X13850D01*
Y14643D01*
X13828Y14652D01*
X13819Y14674D01*
X13818D01*
Y14738D01*
X13820Y14743D01*
X13820Y14758D01*
X13821Y14769D01*
X13823Y14777D01*
X13823Y14780D01*
X13828Y14781D01*
X13843Y14791D01*
X13844Y14792D01*
X13844Y14792D01*
X13864Y14805D01*
X13888Y14841D01*
X13888Y14845D01*
X13892Y14849D01*
X13945Y14871D01*
X13972Y14860D01*
X14028D01*
X14079Y14881D01*
X14119Y14921D01*
X14140Y14972D01*
Y15028D01*
X14119Y15079D01*
X14079Y15119D01*
X14028Y15140D01*
X13972D01*
X13945Y15129D01*
X13892Y15151D01*
X13888Y15155D01*
X13888Y15158D01*
X13864Y15194D01*
X13828Y15218D01*
X13785Y15227D01*
X13667D01*
X13624Y15218D01*
X13588Y15194D01*
X13564Y15158D01*
X13556Y15115D01*
Y15096D01*
X13550Y15095D01*
X13540Y15094D01*
X13527Y15094D01*
X13521Y15092D01*
X13336D01*
X13331Y15094D01*
X13315Y15094D01*
X13302Y15095D01*
X13293Y15097D01*
X13288Y15098D01*
X13277Y15114D01*
X13276Y15118D01*
X13275Y15118D01*
X13272Y15122D01*
X13239Y15144D01*
X13200Y15152D01*
X13100D01*
X13061Y15144D01*
X13028Y15122D01*
X13025Y15118D01*
X13024Y15118D01*
X13023Y15114D01*
X13012Y15098D01*
X13007Y15097D01*
X12998Y15095D01*
X12985Y15094D01*
X12969Y15094D01*
X12964Y15092D01*
X12936D01*
X12931Y15094D01*
X12915Y15094D01*
X12902Y15095D01*
X12893Y15097D01*
X12888Y15098D01*
X12877Y15114D01*
X12876Y15118D01*
X12875Y15118D01*
X12872Y15122D01*
X12839Y15144D01*
X12800Y15152D01*
X12785D01*
X12764Y15202D01*
X12777Y15215D01*
X12800Y15270D01*
Y15330D01*
X12784Y15368D01*
X12809Y15418D01*
X16107D01*
D02*
G37*
G36*
X19925Y15042D02*
X19926Y15033D01*
X19927Y15025D01*
X19929Y15019D01*
X19931Y15013D01*
X19934Y15009D01*
X19937Y15005D01*
X19941Y15002D01*
X19945Y15001D01*
X19950Y15000D01*
X19850D01*
X19855Y15001D01*
X19859Y15002D01*
X19863Y15005D01*
X19866Y15009D01*
X19869Y15013D01*
X19871Y15019D01*
X19873Y15025D01*
X19874Y15033D01*
X19875Y15042D01*
X19875Y15052D01*
X19925D01*
X19925Y15042D01*
D02*
G37*
G36*
X19824Y15118D02*
Y15059D01*
X19821Y15053D01*
X19821Y15053D01*
X19640D01*
Y14818D01*
X19640Y14815D01*
X19636Y14767D01*
X19631Y14766D01*
X19619Y14765D01*
X19614Y14763D01*
X19466Y14755D01*
X19457Y14755D01*
X19424Y14749D01*
X19422Y14750D01*
X19418Y14748D01*
X19409Y14743D01*
X19409Y14743D01*
X19409Y14743D01*
X19385Y14728D01*
X19346Y14703D01*
X19343Y14700D01*
X19324Y14682D01*
X19315Y14675D01*
X19297Y14662D01*
X19290Y14658D01*
X19284Y14654D01*
X19278Y14652D01*
X19274Y14650D01*
X19268Y14648D01*
X19262Y14644D01*
X19261Y14644D01*
X19259Y14643D01*
X19251Y14641D01*
X19247Y14635D01*
X19228Y14622D01*
X19206Y14589D01*
X19198Y14550D01*
Y14450D01*
X19206Y14411D01*
X19228Y14378D01*
X19261Y14356D01*
X19300Y14348D01*
X19400D01*
X19439Y14356D01*
X19472Y14378D01*
X19494Y14411D01*
X19496Y14421D01*
X19501Y14421D01*
X19507Y14424D01*
X19622D01*
X19622Y14423D01*
X19626Y14419D01*
X19629Y14415D01*
X19632Y14410D01*
X19634Y14406D01*
X19637Y14402D01*
X19638Y14398D01*
X19640Y14394D01*
X19641Y14389D01*
X19643Y14383D01*
X19644Y14381D01*
X19644Y14379D01*
X19649Y14373D01*
X19673Y14336D01*
X19695Y14322D01*
X19695Y14321D01*
Y14267D01*
X19695Y14266D01*
X19673Y14252D01*
X19647Y14213D01*
X19638Y14166D01*
X19647Y14120D01*
X19673Y14080D01*
X19713Y14054D01*
X19759Y14045D01*
X20212D01*
X20258Y14054D01*
X20270Y14062D01*
X20275Y14063D01*
X20277Y14067D01*
X20278Y14068D01*
X20281Y14069D01*
X20282Y14070D01*
X20297Y14080D01*
X20319Y14082D01*
X20334Y14082D01*
X20340Y14085D01*
X21034D01*
Y14084D01*
X21053Y14076D01*
X21053Y14075D01*
Y12815D01*
X21050D01*
X21069Y12719D01*
X21123Y12638D01*
X21204Y12584D01*
X21214Y12582D01*
X21231Y12529D01*
X21231Y12528D01*
X21210Y12478D01*
Y12422D01*
X21231Y12371D01*
X21271Y12331D01*
X21322Y12310D01*
X21378D01*
X21429Y12331D01*
X21456Y12358D01*
X21472Y12359D01*
X21505Y12354D01*
X21513Y12350D01*
X21528Y12328D01*
X21561Y12306D01*
X21571Y12304D01*
X21571Y12299D01*
X21574Y12293D01*
Y12207D01*
X21571Y12201D01*
X21571Y12196D01*
X21561Y12194D01*
X21528Y12172D01*
X21506Y12139D01*
X21498Y12100D01*
Y12015D01*
X21468Y11987D01*
X21451Y11980D01*
X21428Y11990D01*
X21372D01*
X21321Y11969D01*
X21281Y11929D01*
X21260Y11878D01*
Y11822D01*
X21281Y11771D01*
X21306Y11746D01*
X21293Y11693D01*
X21272Y11688D01*
X21206Y11644D01*
X21162Y11578D01*
X21146Y11500D01*
Y11200D01*
X21162Y11122D01*
X21206Y11056D01*
X21272Y11012D01*
X21350Y10996D01*
X22050D01*
X22128Y11012D01*
X22194Y11056D01*
X22224Y11100D01*
X22274Y11085D01*
Y10715D01*
X22225Y10701D01*
X22223Y10702D01*
X22194Y10744D01*
X22128Y10788D01*
X22050Y10804D01*
X21350D01*
X21272Y10788D01*
X21206Y10744D01*
X21162Y10678D01*
X21146Y10600D01*
Y10300D01*
X21162Y10222D01*
X21206Y10156D01*
X21242Y10132D01*
X21227Y10082D01*
X20730D01*
X20698Y10132D01*
X20702Y10150D01*
Y10250D01*
X20694Y10289D01*
X20672Y10322D01*
X20639Y10344D01*
X20600Y10352D01*
X20529D01*
X20529Y10352D01*
X20529Y10352D01*
X20523D01*
X20521Y10353D01*
X20519Y10352D01*
X20512D01*
X20499Y10363D01*
X20490Y10372D01*
X20484Y10374D01*
X20451Y10407D01*
X20476Y10453D01*
X20500Y10448D01*
X20600D01*
X20639Y10456D01*
X20672Y10478D01*
X20694Y10511D01*
X20702Y10550D01*
Y10650D01*
X20694Y10689D01*
X20672Y10722D01*
X20668Y10725D01*
X20668Y10726D01*
X20664Y10727D01*
X20648Y10738D01*
X20647Y10743D01*
X20645Y10752D01*
X20644Y10765D01*
X20644Y10781D01*
X20642Y10786D01*
Y10814D01*
X20644Y10819D01*
X20644Y10835D01*
X20645Y10848D01*
X20647Y10857D01*
X20648Y10862D01*
X20664Y10873D01*
X20668Y10874D01*
X20668Y10875D01*
X20672Y10878D01*
X20694Y10911D01*
X20702Y10950D01*
Y10978D01*
X20702Y10978D01*
X20702Y10978D01*
Y10985D01*
X20703Y10987D01*
X20702Y10988D01*
Y11012D01*
X20708Y11021D01*
X20730Y11047D01*
X20745Y11062D01*
X20747Y11068D01*
X20815Y11135D01*
X20835Y11165D01*
X20842Y11200D01*
Y11714D01*
X20844Y11719D01*
X20844Y11735D01*
X20845Y11748D01*
X20847Y11757D01*
X20848Y11762D01*
X20864Y11773D01*
X20868Y11774D01*
X20868Y11775D01*
X20872Y11778D01*
X20894Y11811D01*
X20902Y11850D01*
Y11878D01*
X20902Y11878D01*
X20902Y11878D01*
Y11885D01*
X20903Y11887D01*
X20902Y11888D01*
Y11912D01*
X20908Y11921D01*
X20930Y11947D01*
X20945Y11962D01*
X20947Y11968D01*
X21065Y12085D01*
X21085Y12115D01*
X21092Y12150D01*
Y12500D01*
X21085Y12535D01*
X21065Y12565D01*
X21002Y12628D01*
X21001Y12630D01*
X20998Y12633D01*
X20996Y12637D01*
X20971Y12664D01*
X20963Y12675D01*
X20956Y12684D01*
X20952Y12691D01*
Y12700D01*
X20944Y12739D01*
X20944Y12739D01*
X20944Y12740D01*
X20943Y12741D01*
X20942Y12743D01*
X20941Y12745D01*
X20939Y12746D01*
X20922Y12772D01*
X20889Y12794D01*
X20850Y12802D01*
X20750D01*
X20711Y12794D01*
X20658Y12808D01*
X20654Y12812D01*
X20586Y12879D01*
X20598Y12938D01*
X20610Y12943D01*
X20649Y12982D01*
X20670Y13033D01*
Y13089D01*
X20649Y13141D01*
X20610Y13180D01*
X20558Y13201D01*
X20555D01*
X20513Y13251D01*
X20518Y13275D01*
X20522Y13278D01*
X20544Y13311D01*
X20552Y13350D01*
Y13450D01*
X20544Y13489D01*
X20522Y13522D01*
X20489Y13544D01*
X20462Y13550D01*
Y13600D01*
X20489Y13606D01*
X20522Y13628D01*
X20544Y13661D01*
X20552Y13700D01*
Y13800D01*
X20544Y13839D01*
X20540Y13845D01*
Y13898D01*
X20519Y13949D01*
X20479Y13989D01*
X20428Y14010D01*
X20372D01*
X20321Y13989D01*
X20281Y13949D01*
X20260Y13898D01*
Y13845D01*
X20256Y13839D01*
X20248Y13800D01*
Y13700D01*
X20256Y13661D01*
X20278Y13628D01*
X20311Y13606D01*
X20338Y13600D01*
Y13550D01*
X20311Y13544D01*
X20278Y13522D01*
X20256Y13489D01*
X20248Y13450D01*
Y13350D01*
X20256Y13311D01*
X20278Y13278D01*
X20311Y13256D01*
X20314Y13225D01*
X20311Y13194D01*
X20278Y13172D01*
X20256Y13139D01*
X20248Y13100D01*
Y13000D01*
X20252Y12982D01*
X20220Y12932D01*
X19894D01*
X19872Y12954D01*
Y13560D01*
X19872Y13560D01*
X19865Y13591D01*
X19848Y13618D01*
X19848Y13618D01*
X19783Y13683D01*
X19781Y13688D01*
X19760Y13710D01*
X19754Y13718D01*
X19752Y13721D01*
Y13733D01*
X19753Y13735D01*
X19752Y13737D01*
Y13744D01*
X19752Y13744D01*
X19752Y13744D01*
Y13800D01*
X19744Y13839D01*
X19722Y13872D01*
X19689Y13894D01*
X19650Y13902D01*
X19550D01*
X19511Y13894D01*
X19479Y13904D01*
X19469Y13929D01*
X19429Y13969D01*
X19378Y13990D01*
X19322D01*
X19271Y13969D01*
X19231Y13929D01*
X19231Y13929D01*
X19185Y13915D01*
X19158Y13937D01*
X19147Y13950D01*
Y14003D01*
X19135Y14037D01*
X19175Y14059D01*
X19185Y14064D01*
X19225Y14103D01*
X19246Y14154D01*
Y14210D01*
X19225Y14262D01*
X19185Y14301D01*
X19160Y14311D01*
X19133Y14327D01*
X19125Y14372D01*
X19127Y14383D01*
X19118Y14430D01*
X19092Y14469D01*
X19058Y14491D01*
X19051Y14497D01*
X19033Y14550D01*
X19042Y14572D01*
Y14628D01*
X19021Y14680D01*
X18981Y14719D01*
X18949Y14732D01*
X18935Y14783D01*
X18936Y14788D01*
X18956Y14808D01*
X18978Y14860D01*
Y14915D01*
X18962Y14954D01*
X18985Y14995D01*
X18992Y15002D01*
X18996Y15003D01*
X19022Y15000D01*
X19031Y14991D01*
X19082Y14970D01*
X19138D01*
X19190Y14991D01*
X19224Y15026D01*
X19255Y15026D01*
X19279Y15023D01*
X19319Y14983D01*
X19370Y14962D01*
X19426D01*
X19477Y14983D01*
X19517Y15023D01*
X19538Y15074D01*
Y15130D01*
X19537Y15132D01*
X19565Y15174D01*
X19768D01*
X19824Y15118D01*
D02*
G37*
G36*
X13844Y15072D02*
X13846Y15065D01*
X13850Y15059D01*
X13856Y15054D01*
X13863Y15050D01*
X13872Y15046D01*
X13883Y15043D01*
X13892Y15042D01*
X13899Y15043D01*
X13907Y15045D01*
X13914Y15048D01*
X13920Y15051D01*
X13926Y15054D01*
X13931Y15058D01*
X13936Y15063D01*
X13936Y14937D01*
X13931Y14941D01*
X13926Y14945D01*
X13920Y14948D01*
X13914Y14951D01*
X13907Y14954D01*
X13900Y14956D01*
X13892Y14958D01*
X13883Y14956D01*
X13872Y14953D01*
X13863Y14950D01*
X13856Y14945D01*
X13850Y14940D01*
X13846Y14934D01*
X13844Y14927D01*
X13843Y14920D01*
Y15080D01*
X13844Y15072D01*
D02*
G37*
G36*
X13239Y15072D02*
X13241Y15065D01*
X13246Y15059D01*
X13252Y15054D01*
X13261Y15050D01*
X13271Y15046D01*
X13283Y15044D01*
X13297Y15042D01*
X13312Y15040D01*
X13330Y15040D01*
Y14960D01*
X13312Y14960D01*
X13297Y14958D01*
X13283Y14956D01*
X13271Y14954D01*
X13261Y14950D01*
X13252Y14946D01*
X13246Y14941D01*
X13241Y14935D01*
X13239Y14928D01*
X13238Y14921D01*
Y15079D01*
X13239Y15072D01*
D02*
G37*
G36*
X13062Y14921D02*
X13061Y14928D01*
X13059Y14935D01*
X13054Y14941D01*
X13048Y14946D01*
X13039Y14950D01*
X13029Y14954D01*
X13017Y14956D01*
X13003Y14958D01*
X12988Y14960D01*
X12970Y14960D01*
Y15040D01*
X12988Y15040D01*
X13003Y15042D01*
X13017Y15044D01*
X13029Y15046D01*
X13039Y15050D01*
X13048Y15054D01*
X13054Y15059D01*
X13059Y15065D01*
X13061Y15072D01*
X13062Y15079D01*
Y14921D01*
D02*
G37*
G36*
X12839Y15072D02*
X12841Y15065D01*
X12846Y15059D01*
X12852Y15054D01*
X12861Y15050D01*
X12871Y15046D01*
X12883Y15044D01*
X12897Y15042D01*
X12912Y15040D01*
X12930Y15040D01*
Y14960D01*
X12912Y14960D01*
X12897Y14958D01*
X12883Y14956D01*
X12871Y14954D01*
X12861Y14950D01*
X12852Y14946D01*
X12846Y14941D01*
X12841Y14935D01*
X12839Y14928D01*
X12838Y14921D01*
Y15079D01*
X12839Y15072D01*
D02*
G37*
G36*
X13609Y14920D02*
X13608Y14928D01*
X13606Y14934D01*
X13602Y14940D01*
X13596Y14946D01*
X13589Y14950D01*
X13580Y14954D01*
X13569Y14956D01*
X13557Y14958D01*
X13543Y14960D01*
X13528Y14960D01*
Y15040D01*
X13543Y15040D01*
X13557Y15042D01*
X13569Y15044D01*
X13580Y15046D01*
X13589Y15050D01*
X13596Y15054D01*
X13602Y15060D01*
X13606Y15066D01*
X13608Y15072D01*
X13609Y15080D01*
Y14920D01*
D02*
G37*
G36*
X18827Y14977D02*
X18748Y14894D01*
X18748Y14898D01*
X18746Y14902D01*
X18744Y14905D01*
X18741Y14908D01*
X18736Y14910D01*
X18731Y14912D01*
X18724Y14913D01*
X18716Y14914D01*
X18708Y14915D01*
X18698Y14915D01*
X18724Y14995D01*
X18827Y14977D01*
D02*
G37*
G36*
X22193Y14978D02*
X22197Y14974D01*
X22202Y14971D01*
X22208Y14967D01*
X22214Y14965D01*
X22221Y14963D01*
X22228Y14961D01*
X22237Y14960D01*
X22245Y14959D01*
X22255Y14959D01*
Y14909D01*
X22245Y14909D01*
X22237Y14908D01*
X22228Y14907D01*
X22221Y14905D01*
X22214Y14903D01*
X22208Y14900D01*
X22202Y14897D01*
X22197Y14894D01*
X22193Y14890D01*
X22190Y14885D01*
Y14983D01*
X22193Y14978D01*
D02*
G37*
G36*
X18429Y14915D02*
X18420Y14910D01*
X18413Y14905D01*
X18408Y14900D01*
X18405Y14895D01*
X18403Y14890D01*
X18404Y14885D01*
X18406Y14880D01*
X18410Y14876D01*
X18415Y14871D01*
X18423Y14867D01*
X18331Y14913D01*
X18311Y14909D01*
X18295Y14907D01*
X18284Y14907D01*
X18278Y14908D01*
X18275Y14912D01*
X18278Y14916D01*
X18284Y14923D01*
X18295Y14931D01*
X18311Y14941D01*
X18331Y14952D01*
X18429Y14915D01*
D02*
G37*
G36*
X13527Y14906D02*
X13540Y14906D01*
X13550Y14905D01*
X13556Y14904D01*
Y14884D01*
X13564Y14841D01*
X13588Y14805D01*
X13608Y14792D01*
X13608Y14792D01*
X13609Y14791D01*
X13624Y14781D01*
X13629Y14780D01*
X13629Y14777D01*
X13631Y14769D01*
X13632Y14758D01*
X13632Y14743D01*
X13634Y14738D01*
Y14674D01*
X13632D01*
X13648Y14591D01*
X13696Y14520D01*
X13766Y14472D01*
X13832Y14459D01*
X13841Y14432D01*
X13842Y14407D01*
X13744Y14332D01*
X13664Y14228D01*
X13653Y14201D01*
X13647Y14195D01*
X13618Y14120D01*
X13597Y14072D01*
X13592Y14063D01*
X13589Y14057D01*
X13588Y14057D01*
X13588Y14056D01*
X13588Y14056D01*
X13585Y14053D01*
X13584Y14048D01*
X13584Y14048D01*
X13580Y14042D01*
X13579Y14042D01*
X13577Y14038D01*
X13564Y14018D01*
X13561Y14000D01*
X13556Y13997D01*
X13545Y13993D01*
X13530Y13990D01*
X13510Y13986D01*
X13486Y13985D01*
X13457Y13984D01*
X13453Y13982D01*
X13393D01*
X13389Y13984D01*
X13362Y13984D01*
X13295Y13986D01*
X13265Y13989D01*
X13255Y13991D01*
X13248Y13992D01*
X13246Y13993D01*
X13244Y13994D01*
X13242Y13994D01*
X13242Y13994D01*
X13242Y13994D01*
X13236Y13995D01*
X13228Y13996D01*
X13219Y14000D01*
X13216Y13999D01*
X13200Y14002D01*
X13100D01*
X13084Y13999D01*
X13081Y14000D01*
X13072Y13996D01*
X13061Y13994D01*
X13061Y13994D01*
X13055Y13994D01*
X13051Y13991D01*
X13048Y13990D01*
X13040Y13988D01*
X13031Y13986D01*
X12942Y13980D01*
X12901Y13982D01*
X12870Y13986D01*
X12860Y13988D01*
X12852Y13990D01*
X12849Y13991D01*
X12845Y13994D01*
X12839Y13994D01*
X12839Y13994D01*
X12828Y13996D01*
X12819Y14000D01*
X12816Y13999D01*
X12800Y14002D01*
X12700D01*
X12661Y13994D01*
X12644Y13983D01*
X12599Y14001D01*
X12584Y14023D01*
X12579Y14050D01*
X12577D01*
Y14863D01*
X12627Y14879D01*
X12628Y14878D01*
X12661Y14856D01*
X12700Y14848D01*
X12800D01*
X12839Y14856D01*
X12872Y14878D01*
X12875Y14882D01*
X12876Y14882D01*
X12877Y14886D01*
X12888Y14902D01*
X12893Y14903D01*
X12902Y14905D01*
X12915Y14906D01*
X12931Y14906D01*
X12936Y14908D01*
X12964D01*
X12969Y14906D01*
X12985Y14906D01*
X12998Y14905D01*
X13007Y14903D01*
X13012Y14902D01*
X13023Y14886D01*
X13024Y14882D01*
X13025Y14882D01*
X13028Y14878D01*
X13061Y14856D01*
X13100Y14848D01*
X13200D01*
X13239Y14856D01*
X13272Y14878D01*
X13275Y14882D01*
X13276Y14882D01*
X13277Y14886D01*
X13288Y14902D01*
X13293Y14903D01*
X13302Y14905D01*
X13315Y14906D01*
X13331Y14906D01*
X13336Y14908D01*
X13521D01*
X13527Y14906D01*
D02*
G37*
G36*
X11986Y14787D02*
X11981Y14791D01*
X11976Y14795D01*
X11970Y14799D01*
X11964Y14802D01*
X11957Y14804D01*
X11950Y14806D01*
X11942Y14808D01*
X11933Y14809D01*
X11925Y14810D01*
X11915Y14810D01*
Y14890D01*
X11925Y14890D01*
X11933Y14891D01*
X11942Y14892D01*
X11950Y14894D01*
X11957Y14896D01*
X11964Y14898D01*
X11970Y14901D01*
X11976Y14905D01*
X11981Y14909D01*
X11986Y14913D01*
Y14787D01*
D02*
G37*
G36*
X13798Y14829D02*
X13791Y14826D01*
X13785Y14822D01*
X13780Y14816D01*
X13776Y14809D01*
X13772Y14799D01*
X13770Y14788D01*
X13768Y14775D01*
X13766Y14761D01*
X13766Y14745D01*
X13686D01*
X13686Y14761D01*
X13684Y14775D01*
X13682Y14788D01*
X13680Y14799D01*
X13676Y14809D01*
X13672Y14816D01*
X13666Y14822D01*
X13661Y14826D01*
X13654Y14829D01*
X13646Y14830D01*
X13806D01*
X13798Y14829D01*
D02*
G37*
G36*
X12300Y15022D02*
X12315Y15015D01*
X12322Y15000D01*
X12323D01*
Y14267D01*
X12273Y14246D01*
X12258Y14261D01*
X12188Y14290D01*
X12112D01*
X12042Y14261D01*
X12023Y14242D01*
X12015Y14239D01*
X12013Y14237D01*
X12011Y14236D01*
X12007Y14235D01*
X12001Y14234D01*
X11995Y14232D01*
X11960Y14229D01*
X11947Y14229D01*
X11943Y14227D01*
X11900D01*
X11851Y14218D01*
X11810Y14190D01*
X11713Y14093D01*
X11667Y14112D01*
Y14687D01*
X11738Y14758D01*
X11909D01*
X11914Y14756D01*
X11922Y14756D01*
X11928Y14755D01*
X11933Y14755D01*
X11937Y14754D01*
X11940Y14753D01*
X11943Y14752D01*
X11944Y14751D01*
X11946Y14750D01*
X11946Y14750D01*
X11949Y14747D01*
X11958Y14744D01*
X11971Y14731D01*
X12022Y14710D01*
X12078D01*
X12129Y14731D01*
X12169Y14771D01*
X12190Y14822D01*
Y14878D01*
X12169Y14929D01*
X12130Y14968D01*
X12130Y14973D01*
X12139Y15019D01*
X12167Y15021D01*
X12192Y15021D01*
X12196Y15023D01*
X12300D01*
Y15022D01*
D02*
G37*
G36*
X16110Y14910D02*
X16122Y14881D01*
X16162Y14841D01*
X16213Y14820D01*
X16267D01*
Y14552D01*
X16254Y14518D01*
X16220Y14505D01*
X15939D01*
X15892Y14496D01*
X15853Y14469D01*
X15826Y14430D01*
X15817Y14383D01*
X15826Y14336D01*
X15853Y14296D01*
X15825Y14254D01*
X15811Y14233D01*
X15802Y14186D01*
X15811Y14139D01*
X15835Y14103D01*
X15823Y14054D01*
X15770Y14047D01*
X15764Y14049D01*
X15744Y14069D01*
X15693Y14090D01*
X15637D01*
X15586Y14069D01*
X15546Y14029D01*
X15525Y13978D01*
Y13922D01*
X15546Y13871D01*
X15586Y13831D01*
X15637Y13810D01*
X15656D01*
X15665Y13806D01*
X15676Y13806D01*
X15684Y13805D01*
X15691Y13804D01*
X15697Y13803D01*
X15702Y13802D01*
X15706Y13801D01*
X15709Y13800D01*
X15711Y13799D01*
X15712Y13798D01*
X15715Y13795D01*
X15721Y13793D01*
X15742Y13772D01*
Y13687D01*
X15742Y13687D01*
X15741Y13616D01*
X15691Y13606D01*
X15684Y13624D01*
X15644Y13663D01*
X15593Y13685D01*
X15537D01*
X15488Y13664D01*
X15485Y13663D01*
X15432Y13681D01*
X15432Y13683D01*
X15432Y13693D01*
X15437Y13698D01*
X15441Y13708D01*
X15454Y13721D01*
X15475Y13772D01*
Y13828D01*
X15454Y13879D01*
X15414Y13919D01*
X15363Y13940D01*
X15307D01*
X15298Y13936D01*
X15270Y13966D01*
X15266Y13977D01*
X15327Y14090D01*
X15344Y14148D01*
X15351Y14157D01*
X15361Y14193D01*
X15361Y14194D01*
X15362Y14195D01*
X15382Y14275D01*
X15382Y14276D01*
X15383Y14278D01*
X15386Y14295D01*
X15386Y14297D01*
X15387Y14298D01*
X15388Y14310D01*
X15388Y14314D01*
X15388Y14314D01*
X15387Y14315D01*
X15389Y14318D01*
X15389Y14326D01*
X15383Y14340D01*
X15380Y14354D01*
X15380Y14355D01*
Y14376D01*
X15360Y14424D01*
X15324Y14460D01*
X15276Y14480D01*
X15224D01*
X15190Y14520D01*
Y14528D01*
X15169Y14579D01*
X15156Y14592D01*
X15153Y14601D01*
X15150Y14604D01*
X15150Y14604D01*
X15149Y14606D01*
X15148Y14607D01*
X15147Y14610D01*
X15146Y14613D01*
X15145Y14617D01*
X15145Y14622D01*
X15144Y14628D01*
X15144Y14636D01*
X15142Y14641D01*
Y14654D01*
X15151Y14663D01*
X15192Y14683D01*
X15192Y14683D01*
X15224Y14670D01*
X15276D01*
X15324Y14690D01*
X15360Y14726D01*
X15380Y14774D01*
Y14808D01*
X15391Y14835D01*
X15421Y14858D01*
X15950D01*
X15985Y14865D01*
X16015Y14885D01*
X16055Y14925D01*
X16110Y14910D01*
D02*
G37*
G36*
X19733Y14614D02*
X19726Y14618D01*
X19718Y14622D01*
X19710Y14624D01*
X19701Y14627D01*
X19690Y14629D01*
X19679Y14630D01*
X19655Y14632D01*
X19641Y14632D01*
X19626Y14631D01*
X19623Y14711D01*
X19636Y14712D01*
X19662Y14715D01*
X19674Y14718D01*
X19696Y14724D01*
X19706Y14728D01*
X19715Y14732D01*
X19724Y14737D01*
X19733Y14742D01*
Y14614D01*
D02*
G37*
G36*
X15090Y14625D02*
X15091Y14617D01*
X15092Y14608D01*
X15094Y14600D01*
X15096Y14593D01*
X15098Y14586D01*
X15101Y14580D01*
X15105Y14574D01*
X15109Y14569D01*
X15113Y14564D01*
X14987D01*
X14991Y14569D01*
X14995Y14574D01*
X14999Y14580D01*
X15002Y14586D01*
X15004Y14593D01*
X15006Y14600D01*
X15008Y14608D01*
X15009Y14617D01*
X15010Y14625D01*
X15010Y14635D01*
X15090D01*
X15090Y14625D01*
D02*
G37*
G36*
X19454Y14617D02*
X19446Y14608D01*
X19439Y14600D01*
X19434Y14592D01*
X19430Y14586D01*
X19428Y14580D01*
X19428Y14575D01*
X19430Y14571D01*
X19434Y14567D01*
X19439Y14564D01*
X19446Y14562D01*
X19281Y14596D01*
X19289Y14598D01*
X19298Y14601D01*
X19308Y14605D01*
X19317Y14611D01*
X19327Y14617D01*
X19348Y14632D01*
X19359Y14641D01*
X19383Y14663D01*
X19454Y14617D01*
D02*
G37*
G36*
X19449Y14545D02*
X19451Y14541D01*
X19453Y14537D01*
X19457Y14534D01*
X19461Y14531D01*
X19467Y14529D01*
X19474Y14527D01*
X19481Y14526D01*
X19490Y14525D01*
X19500Y14525D01*
Y14475D01*
X19490Y14475D01*
X19481Y14474D01*
X19474Y14473D01*
X19467Y14471D01*
X19461Y14469D01*
X19457Y14466D01*
X19453Y14463D01*
X19451Y14459D01*
X19449Y14455D01*
X19449Y14450D01*
Y14475D01*
X19378Y14472D01*
Y14528D01*
X19380Y14528D01*
X19383Y14527D01*
X19387Y14527D01*
X19410Y14526D01*
X19449Y14525D01*
Y14550D01*
X19449Y14545D01*
D02*
G37*
G36*
X14910Y14486D02*
Y14472D01*
X14931Y14421D01*
X14971Y14381D01*
X15022Y14360D01*
X15069D01*
X15086Y14354D01*
X15097Y14345D01*
X15117Y14322D01*
X15116Y14305D01*
X15114Y14293D01*
X15098Y14217D01*
X15094Y14203D01*
X15067Y14138D01*
X14999Y14050D01*
X14912Y13983D01*
X14810Y13941D01*
X14706Y13927D01*
X14702Y13929D01*
X14663Y13930D01*
X14650Y13932D01*
X14644Y13933D01*
Y13975D01*
X14636Y14018D01*
X14616Y14048D01*
X14616Y14048D01*
X14616Y14048D01*
X14616Y14049D01*
X14615Y14050D01*
X14615Y14053D01*
X14613Y14054D01*
X14563Y14168D01*
X14553Y14194D01*
X14547Y14200D01*
X14536Y14228D01*
X14456Y14332D01*
X14356Y14408D01*
X14357Y14438D01*
X14361Y14458D01*
X14718D01*
Y14456D01*
X14805Y14473D01*
X14860Y14510D01*
X14910Y14486D01*
D02*
G37*
G36*
X18958Y14528D02*
X18951Y14521D01*
X18946Y14513D01*
X18941Y14506D01*
X18936Y14498D01*
X18933Y14491D01*
X18930Y14483D01*
X18929Y14478D01*
X18929Y14477D01*
X18931Y14470D01*
X18933Y14464D01*
X18936Y14460D01*
X18939Y14456D01*
X18943Y14454D01*
X18947Y14452D01*
X18952Y14452D01*
X18852D01*
X18857Y14452D01*
X18861Y14454D01*
X18865Y14456D01*
X18868Y14460D01*
X18871Y14464D01*
X18873Y14470D01*
X18875Y14477D01*
X18875Y14478D01*
X18874Y14483D01*
X18871Y14491D01*
X18867Y14498D01*
X18863Y14506D01*
X18858Y14513D01*
X18853Y14521D01*
X18846Y14528D01*
X18839Y14536D01*
X18965D01*
X18958Y14528D01*
D02*
G37*
G36*
X19691Y14502D02*
X19707Y14489D01*
X19714Y14484D01*
X19720Y14481D01*
X19726Y14479D01*
X19731Y14479D01*
X19735Y14480D01*
X19738Y14482D01*
X19741Y14486D01*
X19695Y14396D01*
X19694Y14403D01*
X19691Y14411D01*
X19689Y14418D01*
X19685Y14425D01*
X19682Y14433D01*
X19678Y14439D01*
X19673Y14446D01*
X19668Y14453D01*
X19662Y14459D01*
X19656Y14466D01*
X19682Y14511D01*
X19691Y14502D01*
D02*
G37*
G36*
X18245Y15009D02*
X18247Y14962D01*
X18240Y14955D01*
X18236Y14946D01*
X18229Y14939D01*
X18226Y14934D01*
X18226Y14927D01*
X18222Y14920D01*
X18225Y14907D01*
X18224Y14893D01*
X18230Y14887D01*
X18231Y14880D01*
X18234Y14877D01*
X18240Y14873D01*
X18236Y14848D01*
Y14508D01*
X18245Y14461D01*
X18271Y14421D01*
X18311Y14395D01*
X18358Y14386D01*
X18405Y14395D01*
X18435Y14415D01*
X18464Y14387D01*
X18515Y14365D01*
X18571D01*
X18577Y14362D01*
X18582Y14336D01*
X18608Y14296D01*
X18581Y14254D01*
X18567Y14233D01*
X18558Y14186D01*
X18567Y14139D01*
X18593Y14099D01*
Y14075D01*
X18567Y14036D01*
X18558Y13989D01*
X18567Y13942D01*
X18577Y13928D01*
X18589Y13891D01*
X18577Y13854D01*
X18567Y13839D01*
X18558Y13792D01*
X18567Y13745D01*
X18593Y13706D01*
Y13682D01*
X18567Y13642D01*
X18558Y13595D01*
X18567Y13548D01*
X18577Y13534D01*
X18589Y13497D01*
X18577Y13460D01*
X18567Y13445D01*
X18558Y13398D01*
X18567Y13352D01*
X18593Y13312D01*
Y13288D01*
X18567Y13248D01*
X18558Y13202D01*
X18567Y13155D01*
X18593Y13115D01*
Y13091D01*
X18567Y13052D01*
X18558Y13005D01*
X18567Y12958D01*
X18577Y12943D01*
X18589Y12906D01*
X18577Y12869D01*
X18567Y12855D01*
X18558Y12808D01*
X18567Y12761D01*
X18593Y12721D01*
Y12698D01*
X18567Y12658D01*
X18558Y12611D01*
X18567Y12564D01*
X18577Y12550D01*
X18589Y12513D01*
X18577Y12476D01*
X18567Y12461D01*
X18558Y12414D01*
X18567Y12367D01*
X18581Y12346D01*
X18608Y12304D01*
X18582Y12264D01*
X18573Y12217D01*
X18526Y12194D01*
X18508Y12190D01*
X18500Y12185D01*
X18445Y12179D01*
X18426Y12191D01*
X18405Y12205D01*
X18358Y12214D01*
X18311Y12205D01*
X18271Y12179D01*
X18248D01*
X18208Y12205D01*
X18161Y12214D01*
X18114Y12205D01*
X18100Y12195D01*
X18063Y12183D01*
X18026Y12195D01*
X18011Y12205D01*
X17964Y12214D01*
X17917Y12205D01*
X17878Y12179D01*
X17854D01*
X17814Y12205D01*
X17767Y12214D01*
X17721Y12205D01*
X17681Y12179D01*
X17657D01*
X17617Y12205D01*
X17570Y12214D01*
X17524Y12205D01*
X17509Y12195D01*
X17472Y12183D01*
X17435Y12195D01*
X17420Y12205D01*
X17374Y12214D01*
X17327Y12205D01*
X17287Y12179D01*
X17263D01*
X17224Y12205D01*
X17177Y12214D01*
X17130Y12205D01*
X17115Y12195D01*
X17078Y12183D01*
X17041Y12195D01*
X17027Y12205D01*
X16980Y12214D01*
X16933Y12205D01*
X16893Y12179D01*
X16870D01*
X16830Y12205D01*
X16783Y12214D01*
X16736Y12205D01*
X16697Y12179D01*
X16673D01*
X16633Y12205D01*
X16586Y12214D01*
X16539Y12205D01*
X16518Y12191D01*
X16499Y12179D01*
X16444Y12185D01*
X16436Y12190D01*
X16389Y12199D01*
X16343Y12190D01*
X16303Y12164D01*
X16276Y12124D01*
X16267Y12077D01*
Y11767D01*
X16275Y11729D01*
X16275Y11719D01*
X16278Y11716D01*
X16278Y11712D01*
X16281Y11708D01*
X16282Y11706D01*
X16283Y11703D01*
X16284Y11700D01*
X16285Y11696D01*
X16286Y11691D01*
X16287Y11686D01*
X16288Y11672D01*
X16288Y11665D01*
X16291Y11659D01*
Y11652D01*
X16297Y11623D01*
X16313Y11598D01*
X16487Y11424D01*
Y10969D01*
X16493Y10940D01*
X16510Y10915D01*
X16692Y10733D01*
X16717Y10716D01*
X16746Y10710D01*
X17282D01*
X17324Y10668D01*
Y10559D01*
X17329Y10530D01*
X17346Y10505D01*
X17440Y10411D01*
X17465Y10394D01*
X17494Y10389D01*
X17942D01*
X17948Y10386D01*
X17951Y10386D01*
X17957Y10356D01*
X17985Y10315D01*
X18026Y10287D01*
X18075Y10278D01*
X18425D01*
X18474Y10287D01*
X18515Y10315D01*
X18543Y10356D01*
X18552Y10401D01*
X18552D01*
X18558Y10404D01*
X19642D01*
X19648Y10401D01*
X19648D01*
X19657Y10356D01*
X19685Y10315D01*
X19726Y10287D01*
X19775Y10278D01*
X20125D01*
X20174Y10287D01*
X20215Y10315D01*
X20232Y10340D01*
X20289Y10353D01*
X20375Y10266D01*
X20378Y10261D01*
X20394Y10243D01*
X20398Y10238D01*
Y10231D01*
X20397Y10229D01*
X20398Y10227D01*
Y10221D01*
X20398Y10221D01*
X20398Y10221D01*
Y10150D01*
X20402Y10132D01*
X20370Y10082D01*
X15693Y10082D01*
X15679Y10113D01*
X15675Y10132D01*
X15694Y10161D01*
X15698Y10179D01*
X15885D01*
X15892Y10176D01*
X15892Y10176D01*
X15892Y10176D01*
X15931Y10176D01*
X15932Y10177D01*
X15933Y10176D01*
X15934Y10176D01*
X15937Y10178D01*
X15940Y10177D01*
X15940Y10177D01*
X15943Y10179D01*
X15971D01*
X15974Y10179D01*
X16493D01*
Y10752D01*
X15942D01*
Y10807D01*
X15921Y10858D01*
X15908Y10871D01*
X15904Y10881D01*
X15897Y10888D01*
X15891Y10894D01*
X15886Y10900D01*
X15883Y10905D01*
X15880Y10910D01*
X15878Y10913D01*
X15877Y10916D01*
X15877Y10918D01*
X15876Y10920D01*
X15876Y10924D01*
X15873Y10929D01*
Y11348D01*
X15868Y11375D01*
X15853Y11398D01*
X15800Y11450D01*
X15777Y11466D01*
X15750Y11471D01*
X15698D01*
X15694Y11489D01*
X15672Y11522D01*
X15639Y11544D01*
X15600Y11552D01*
X15599D01*
X15586Y11568D01*
X15568Y11602D01*
X15571Y11620D01*
Y12352D01*
X15589Y12356D01*
X15622Y12378D01*
X15634Y12396D01*
X15682Y12406D01*
X15694Y12405D01*
X15735Y12364D01*
X15759Y12348D01*
X15786Y12343D01*
X15811D01*
X15817Y12340D01*
X15825Y12340D01*
X15830Y12340D01*
X15831Y12337D01*
X15832Y12336D01*
X15838Y12328D01*
X15877Y12301D01*
X15924Y12292D01*
X16264D01*
X16311Y12301D01*
X16351Y12328D01*
X16377Y12367D01*
X16386Y12414D01*
X16377Y12461D01*
X16367Y12476D01*
X16355Y12513D01*
X16367Y12550D01*
X16377Y12564D01*
X16386Y12611D01*
X16377Y12658D01*
X16351Y12698D01*
Y12721D01*
X16377Y12761D01*
X16386Y12808D01*
X16377Y12855D01*
X16367Y12869D01*
X16355Y12906D01*
X16367Y12943D01*
X16377Y12958D01*
X16386Y13005D01*
X16377Y13052D01*
X16351Y13091D01*
Y13115D01*
X16377Y13155D01*
X16386Y13202D01*
X16377Y13248D01*
X16351Y13288D01*
Y13312D01*
X16377Y13352D01*
X16386Y13398D01*
X16377Y13445D01*
X16367Y13460D01*
X16355Y13497D01*
X16367Y13534D01*
X16377Y13548D01*
X16386Y13595D01*
X16377Y13642D01*
X16351Y13682D01*
Y13706D01*
X16377Y13745D01*
X16386Y13792D01*
X16377Y13839D01*
X16367Y13854D01*
X16355Y13891D01*
X16367Y13928D01*
X16377Y13942D01*
X16386Y13989D01*
X16377Y14036D01*
X16351Y14075D01*
Y14099D01*
X16377Y14139D01*
X16386Y14186D01*
X16377Y14233D01*
X16363Y14254D01*
X16336Y14296D01*
X16362Y14336D01*
X16371Y14383D01*
X16418Y14406D01*
X16436Y14410D01*
X16444Y14415D01*
X16499Y14421D01*
X16518Y14409D01*
X16539Y14395D01*
X16586Y14386D01*
X16633Y14395D01*
X16673Y14421D01*
X16697D01*
X16736Y14395D01*
X16783Y14386D01*
X16830Y14395D01*
X16844Y14405D01*
X16882Y14417D01*
X16919Y14405D01*
X16933Y14395D01*
X16980Y14386D01*
X17027Y14395D01*
X17066Y14421D01*
X17090D01*
X17130Y14395D01*
X17177Y14386D01*
X17224Y14395D01*
X17263Y14421D01*
X17287D01*
X17327Y14395D01*
X17374Y14386D01*
X17420Y14395D01*
X17435Y14405D01*
X17472Y14417D01*
X17509Y14405D01*
X17524Y14395D01*
X17570Y14386D01*
X17617Y14395D01*
X17657Y14421D01*
X17681D01*
X17721Y14395D01*
X17767Y14386D01*
X17814Y14395D01*
X17829Y14405D01*
X17866Y14417D01*
X17903Y14405D01*
X17917Y14395D01*
X17964Y14386D01*
X18011Y14395D01*
X18051Y14421D01*
X18077Y14461D01*
X18087Y14508D01*
Y14848D01*
X18077Y14895D01*
X18051Y14934D01*
X18011Y14961D01*
X17975Y14968D01*
X17980Y15018D01*
X18239D01*
X18245Y15009D01*
D02*
G37*
G36*
X20786Y15418D02*
X20813Y15368D01*
X20799Y15333D01*
Y15274D01*
X20821Y15219D01*
X20864Y15176D01*
X20919Y15153D01*
X20978D01*
X21003Y15164D01*
X21036Y15157D01*
X21109Y15109D01*
X21157Y15036D01*
X21173Y14954D01*
X21173Y14950D01*
Y14650D01*
X21172D01*
X21173Y14645D01*
Y14246D01*
X21128Y14223D01*
X21110Y14235D01*
X21034Y14250D01*
Y14248D01*
X20341D01*
X20335Y14250D01*
X20305Y14251D01*
X20304Y14251D01*
X20285Y14277D01*
X20294Y14334D01*
X20298Y14336D01*
X20324Y14376D01*
X20333Y14422D01*
X20324Y14468D01*
X20298Y14508D01*
X20276Y14522D01*
X20276Y14523D01*
Y14577D01*
X20276Y14578D01*
X20298Y14592D01*
X20324Y14632D01*
X20333Y14678D01*
X20324Y14724D01*
X20298Y14764D01*
X20296Y14765D01*
X20311Y14815D01*
X20331D01*
Y15053D01*
X19979D01*
X19979Y15053D01*
X19976Y15059D01*
Y15150D01*
X19971Y15179D01*
X19954Y15204D01*
X19954Y15204D01*
X19854Y15304D01*
X19829Y15321D01*
X19800Y15326D01*
X19507D01*
X19501Y15329D01*
X19475Y15371D01*
X19479Y15387D01*
X19493Y15418D01*
X20786D01*
D02*
G37*
G36*
X14195Y14206D02*
X14276Y14152D01*
X14282Y14142D01*
X14297Y14099D01*
X14308Y14061D01*
X14311Y14047D01*
X14312Y14035D01*
X14313Y14027D01*
X14312Y14023D01*
X14312Y14021D01*
X14312Y14018D01*
X14311Y14017D01*
X14311Y14017D01*
X14311Y14013D01*
X14309Y14000D01*
X14307Y13993D01*
X14307Y13992D01*
X14304Y13975D01*
Y13743D01*
X14312Y13701D01*
X14275Y13667D01*
X14268Y13664D01*
X14229Y13625D01*
X14207Y13574D01*
Y13518D01*
X14229Y13466D01*
X14241Y13454D01*
X14244Y13445D01*
X14247Y13442D01*
X14247Y13441D01*
X14248Y13440D01*
X14249Y13438D01*
X14250Y13436D01*
X14251Y13432D01*
X14252Y13428D01*
X14253Y13423D01*
X14253Y13418D01*
X14253Y13410D01*
X14256Y13404D01*
Y13153D01*
X14262Y13118D01*
X14282Y13088D01*
X14428Y12943D01*
X14409Y12896D01*
X12897D01*
X12891Y12899D01*
X12887Y12899D01*
X12872Y12922D01*
X12839Y12944D01*
X12800Y12952D01*
X12700D01*
X12661Y12944D01*
X12628Y12922D01*
X12606Y12889D01*
X12601Y12867D01*
X12560Y12850D01*
X12548Y12850D01*
X12529Y12869D01*
X12478Y12890D01*
X12422D01*
X12371Y12869D01*
X12331Y12829D01*
X12310Y12778D01*
Y12722D01*
X12331Y12671D01*
X12371Y12631D01*
X12422Y12610D01*
X12441D01*
X12450Y12606D01*
X12461Y12606D01*
X12469Y12605D01*
X12476Y12604D01*
X12482Y12603D01*
X12487Y12602D01*
X12491Y12601D01*
X12494Y12600D01*
X12496Y12599D01*
X12497Y12598D01*
X12500Y12595D01*
X12506Y12593D01*
X12520Y12580D01*
X12543Y12564D01*
X12570Y12559D01*
X12597D01*
X12602Y12553D01*
X12619Y12509D01*
X12606Y12489D01*
X12598Y12450D01*
Y12350D01*
X12606Y12311D01*
X12628Y12278D01*
X12661Y12256D01*
X12700Y12248D01*
X12800D01*
X12839Y12256D01*
X12872Y12278D01*
X12894Y12311D01*
X12902Y12350D01*
Y12435D01*
X12902Y12435D01*
X12902Y12435D01*
Y12441D01*
X12903Y12443D01*
X12902Y12445D01*
Y12446D01*
X12907Y12452D01*
X12913Y12459D01*
X12916Y12465D01*
X12980Y12529D01*
X13670D01*
X13684Y12515D01*
X13679Y12462D01*
X13660Y12452D01*
X13636Y12457D01*
X13576D01*
X13545Y12450D01*
X13519Y12433D01*
X13497D01*
X13471Y12450D01*
X13439Y12457D01*
X13379D01*
X13348Y12450D01*
X13322Y12433D01*
X13304Y12406D01*
X13298Y12375D01*
Y12055D01*
X13301Y12038D01*
X13295Y12027D01*
X13273Y12005D01*
X13262Y11999D01*
X13245Y12002D01*
X12925D01*
X12894Y11996D01*
X12867Y11978D01*
X12850Y11952D01*
X12843Y11921D01*
Y11861D01*
X12850Y11829D01*
X12867Y11803D01*
Y11781D01*
X12850Y11755D01*
X12843Y11724D01*
Y11664D01*
X12850Y11632D01*
X12867Y11606D01*
X12894Y11588D01*
X12925Y11582D01*
X13245D01*
X13276Y11588D01*
X13303Y11606D01*
X13320Y11632D01*
X13327Y11664D01*
Y11724D01*
X13320Y11755D01*
X13303Y11781D01*
Y11803D01*
X13320Y11829D01*
X13327Y11861D01*
Y11921D01*
X13323Y11938D01*
X13330Y11949D01*
X13351Y11970D01*
X13362Y11977D01*
X13379Y11973D01*
X13439D01*
X13471Y11980D01*
X13497Y11997D01*
X13519D01*
X13545Y11980D01*
X13576Y11973D01*
X13636D01*
X13668Y11980D01*
X13705Y11993D01*
X13742Y11980D01*
X13773Y11973D01*
X13833D01*
X13864Y11980D01*
X13891Y11997D01*
X13912D01*
X13939Y11980D01*
X13970Y11973D01*
X14030D01*
X14061Y11980D01*
X14088Y11997D01*
X14109D01*
X14136Y11980D01*
X14167Y11973D01*
X14227D01*
X14258Y11980D01*
X14295Y11993D01*
X14332Y11980D01*
X14364Y11973D01*
X14424D01*
X14455Y11980D01*
X14481Y11997D01*
X14503D01*
X14529Y11980D01*
X14561Y11973D01*
X14621D01*
X14638Y11977D01*
X14649Y11970D01*
X14670Y11949D01*
X14677Y11938D01*
X14673Y11921D01*
Y11861D01*
X14680Y11829D01*
X14697Y11803D01*
Y11781D01*
X14680Y11755D01*
X14673Y11724D01*
Y11664D01*
X14680Y11632D01*
X14693Y11595D01*
X14680Y11558D01*
X14673Y11527D01*
Y11467D01*
X14680Y11436D01*
X14697Y11409D01*
Y11388D01*
X14680Y11361D01*
X14673Y11330D01*
Y11270D01*
X14680Y11239D01*
X14697Y11212D01*
Y11191D01*
X14680Y11164D01*
X14673Y11133D01*
Y11073D01*
X14680Y11042D01*
X14693Y11005D01*
X14680Y10968D01*
X14673Y10936D01*
Y10876D01*
X14680Y10845D01*
X14697Y10819D01*
Y10797D01*
X14680Y10771D01*
X14673Y10739D01*
Y10679D01*
X14677Y10662D01*
X14670Y10651D01*
X14649Y10630D01*
X14638Y10623D01*
X14621Y10627D01*
X14561D01*
X14529Y10620D01*
X14503Y10603D01*
X14481D01*
X14455Y10620D01*
X14424Y10627D01*
X14364D01*
X14332Y10620D01*
X14295Y10607D01*
X14258Y10620D01*
X14227Y10627D01*
X14167D01*
X14136Y10620D01*
X14109Y10603D01*
X14088D01*
X14061Y10620D01*
X14030Y10627D01*
X13970D01*
X13939Y10620D01*
X13912Y10603D01*
X13891D01*
X13864Y10620D01*
X13833Y10627D01*
X13773D01*
X13742Y10620D01*
X13705Y10607D01*
X13668Y10620D01*
X13636Y10627D01*
X13576D01*
X13545Y10620D01*
X13519Y10603D01*
X13497D01*
X13471Y10620D01*
X13439Y10627D01*
X13379D01*
X13362Y10623D01*
X13351Y10630D01*
X13330Y10651D01*
X13323Y10662D01*
X13327Y10679D01*
Y10739D01*
X13320Y10771D01*
X13303Y10797D01*
Y10819D01*
X13320Y10845D01*
X13327Y10876D01*
Y10936D01*
X13320Y10968D01*
X13307Y11005D01*
X13320Y11042D01*
X13327Y11073D01*
Y11133D01*
X13320Y11164D01*
X13303Y11191D01*
Y11212D01*
X13320Y11239D01*
X13327Y11270D01*
Y11330D01*
X13320Y11361D01*
X13303Y11388D01*
X13276Y11405D01*
X13245Y11412D01*
X12925D01*
X12894Y11405D01*
X12876Y11393D01*
X12872Y11392D01*
X12845Y11388D01*
X12833Y11389D01*
X12817Y11391D01*
X12726Y11482D01*
Y12050D01*
X12721Y12079D01*
X12704Y12104D01*
X12554Y12254D01*
X12529Y12271D01*
X12500Y12276D01*
X12334D01*
X12330Y12279D01*
X12328Y12278D01*
X12326Y12279D01*
X12321Y12279D01*
X12319Y12280D01*
X12317Y12280D01*
X12314Y12281D01*
X12312Y12282D01*
X12309Y12284D01*
X12306Y12286D01*
X12303Y12290D01*
X12299Y12294D01*
X12294Y12300D01*
X12285Y12305D01*
X12260Y12330D01*
X12208Y12351D01*
X12152D01*
X12101Y12330D01*
X12062Y12291D01*
X12040Y12239D01*
Y12183D01*
X12062Y12132D01*
X12101Y12093D01*
X12152Y12071D01*
X12208D01*
X12260Y12093D01*
X12263Y12096D01*
X12268Y12097D01*
X12283Y12108D01*
X12289Y12111D01*
X12294Y12114D01*
X12299Y12117D01*
X12304Y12118D01*
X12308Y12120D01*
X12311Y12120D01*
X12314Y12121D01*
X12319Y12121D01*
X12325Y12124D01*
X12468D01*
X12574Y12018D01*
Y11450D01*
X12579Y11421D01*
X12596Y11396D01*
X12746Y11246D01*
X12771Y11229D01*
X12764Y11180D01*
X12089D01*
X11986Y11282D01*
Y12928D01*
X12002Y12944D01*
X12008Y12946D01*
X12011Y12949D01*
X12014Y12951D01*
X12017Y12954D01*
X12021Y12956D01*
X12033Y12962D01*
X12039Y12964D01*
X12055Y12969D01*
X12065Y12971D01*
X12073Y12977D01*
X12110Y12993D01*
X12149Y13032D01*
X12170Y13083D01*
Y13139D01*
X12149Y13191D01*
X12110Y13230D01*
X12058Y13251D01*
X12002D01*
X11951Y13230D01*
X11927Y13206D01*
X11877Y13227D01*
Y13897D01*
X11951Y13971D01*
X11961Y13971D01*
X11985Y13969D01*
X11994Y13968D01*
X12001Y13966D01*
X12007Y13965D01*
X12011Y13964D01*
X12013Y13963D01*
X12015Y13961D01*
X12023Y13958D01*
X12042Y13939D01*
X12112Y13910D01*
X12188D01*
X12258Y13939D01*
X12283Y13964D01*
X12298Y13965D01*
X12340Y13950D01*
X12366Y13886D01*
X12418Y13818D01*
X12486Y13766D01*
X12565Y13733D01*
X12633Y13724D01*
X12661Y13706D01*
X12700Y13698D01*
X12800D01*
X12816Y13701D01*
X12819Y13700D01*
X12828Y13704D01*
X12839Y13706D01*
X12839Y13706D01*
X12845Y13706D01*
X12849Y13709D01*
X12852Y13710D01*
X12860Y13712D01*
X12869Y13714D01*
X12958Y13720D01*
X12999Y13718D01*
X13030Y13714D01*
X13040Y13712D01*
X13048Y13710D01*
X13051Y13709D01*
X13055Y13706D01*
X13061Y13706D01*
X13061Y13706D01*
X13072Y13704D01*
X13081Y13700D01*
X13084Y13701D01*
X13100Y13698D01*
X13200D01*
X13216Y13701D01*
X13219Y13700D01*
X13228Y13704D01*
X13239Y13706D01*
X13240Y13706D01*
X13246Y13707D01*
X13251Y13710D01*
X13257Y13712D01*
X13265Y13715D01*
X13276Y13717D01*
X13289Y13720D01*
X13371Y13725D01*
X13396Y13726D01*
X13397Y13726D01*
X13397Y13726D01*
X13401Y13727D01*
X13453D01*
X13457Y13726D01*
X13486Y13725D01*
X13511Y13723D01*
X13532Y13720D01*
X13548Y13716D01*
X13560Y13712D01*
X13562Y13710D01*
X13564Y13701D01*
X13586Y13669D01*
X13587Y13666D01*
X13588Y13666D01*
X13588Y13665D01*
X13591Y13663D01*
X13592Y13662D01*
X13593Y13662D01*
X13624Y13641D01*
X13667Y13632D01*
X13785D01*
X13828Y13641D01*
X13864Y13665D01*
X13888Y13701D01*
X13896Y13743D01*
Y13975D01*
X13893Y13992D01*
X13893Y13993D01*
X13891Y14000D01*
X13889Y14013D01*
X13889Y14017D01*
X13889Y14017D01*
X13888Y14018D01*
X13888Y14021D01*
X13887Y14023D01*
X13887Y14027D01*
X13888Y14035D01*
X13889Y14047D01*
X13892Y14060D01*
X13910Y14122D01*
X13918Y14142D01*
X13924Y14152D01*
X14005Y14206D01*
X14094Y14224D01*
X14100Y14223D01*
X14106Y14224D01*
X14195Y14206D01*
D02*
G37*
G36*
X15324Y14319D02*
X15329Y14326D01*
X15333Y14328D01*
X15335Y14325D01*
X15335Y14318D01*
X15333Y14305D01*
X15330Y14288D01*
X15309Y14208D01*
X15299Y14172D01*
X15143Y14180D01*
X15150Y14204D01*
X15168Y14284D01*
X15170Y14300D01*
X15172Y14328D01*
X15171Y14340D01*
X15170Y14350D01*
X15324Y14319D01*
D02*
G37*
G36*
X19040Y14121D02*
X19033Y14128D01*
X19026Y14134D01*
X19018Y14140D01*
X19011Y14145D01*
X19004Y14149D01*
X18996Y14153D01*
X18988Y14156D01*
X18981Y14157D01*
X18973Y14159D01*
X18965Y14159D01*
X18966Y14209D01*
X18974Y14209D01*
X18982Y14211D01*
X18989Y14212D01*
X18997Y14215D01*
X19005Y14218D01*
X19012Y14223D01*
X19020Y14227D01*
X19028Y14233D01*
X19035Y14239D01*
X19043Y14246D01*
X19040Y14121D01*
D02*
G37*
G36*
X20244Y14220D02*
X20247Y14215D01*
X20251Y14210D01*
X20258Y14207D01*
X20266Y14203D01*
X20276Y14201D01*
X20287Y14199D01*
X20301Y14197D01*
X20333Y14196D01*
Y14136D01*
X20316Y14136D01*
X20287Y14134D01*
X20276Y14131D01*
X20266Y14129D01*
X20258Y14126D01*
X20251Y14122D01*
X20247Y14118D01*
X20244Y14113D01*
X20243Y14107D01*
Y14225D01*
X20244Y14220D01*
D02*
G37*
G36*
X22331Y14149D02*
X22332Y14141D01*
X22334Y14133D01*
X22336Y14126D01*
X22340Y14118D01*
X22344Y14110D01*
X22349Y14103D01*
X22355Y14095D01*
X22361Y14088D01*
X22368Y14080D01*
X22242D01*
X22250Y14088D01*
X22256Y14095D01*
X22262Y14103D01*
X22267Y14110D01*
X22271Y14118D01*
X22274Y14126D01*
X22277Y14133D01*
X22279Y14141D01*
X22280Y14149D01*
X22280Y14156D01*
X22330D01*
X22331Y14149D01*
D02*
G37*
G36*
X21945Y14098D02*
X21941Y14096D01*
X21937Y14094D01*
X21934Y14090D01*
X21931Y14086D01*
X21929Y14080D01*
X21927Y14073D01*
X21926Y14066D01*
X21925Y14057D01*
X21925Y14047D01*
X21875D01*
X21875Y14057D01*
X21874Y14066D01*
X21873Y14073D01*
X21871Y14080D01*
X21869Y14086D01*
X21866Y14090D01*
X21863Y14094D01*
X21859Y14096D01*
X21855Y14098D01*
X21850Y14098D01*
X21950D01*
X21945Y14098D01*
D02*
G37*
G36*
X12050Y14002D02*
X12045Y14006D01*
X12039Y14010D01*
X12031Y14014D01*
X12023Y14017D01*
X12013Y14019D01*
X12002Y14021D01*
X11990Y14023D01*
X11963Y14025D01*
X11948Y14025D01*
Y14175D01*
X11963Y14175D01*
X12002Y14179D01*
X12013Y14181D01*
X12023Y14183D01*
X12031Y14186D01*
X12039Y14190D01*
X12045Y14194D01*
X12050Y14198D01*
Y14002D01*
D02*
G37*
G36*
X14513Y14147D02*
X14566Y14027D01*
X14571Y14021D01*
X14575Y14017D01*
X14360Y13998D01*
X14364Y14005D01*
X14366Y14015D01*
X14367Y14027D01*
X14366Y14040D01*
X14364Y14056D01*
X14360Y14074D01*
X14349Y14115D01*
X14332Y14165D01*
X14503Y14175D01*
X14513Y14147D01*
D02*
G37*
G36*
X13868Y14165D02*
X13859Y14139D01*
X13840Y14074D01*
X13836Y14056D01*
X13834Y14040D01*
X13833Y14027D01*
X13834Y14015D01*
X13836Y14005D01*
X13840Y13998D01*
X13625Y14017D01*
X13629Y14021D01*
X13634Y14027D01*
X13639Y14036D01*
X13645Y14048D01*
X13668Y14099D01*
X13697Y14175D01*
X13868Y14165D01*
D02*
G37*
G36*
X13081Y13754D02*
X13074Y13758D01*
X13064Y13762D01*
X13052Y13765D01*
X13038Y13767D01*
X13004Y13772D01*
X12960Y13774D01*
X12957Y13774D01*
X12862Y13767D01*
X12848Y13765D01*
X12836Y13762D01*
X12826Y13758D01*
X12819Y13754D01*
Y13946D01*
X12826Y13942D01*
X12836Y13938D01*
X12848Y13935D01*
X12862Y13933D01*
X12896Y13928D01*
X12940Y13926D01*
X12943Y13926D01*
X13038Y13933D01*
X13052Y13935D01*
X13064Y13938D01*
X13074Y13942D01*
X13081Y13946D01*
Y13754D01*
D02*
G37*
G36*
X15755Y13937D02*
X15757Y13916D01*
X15759Y13907D01*
X15761Y13898D01*
X15763Y13890D01*
X15767Y13882D01*
X15770Y13875D01*
X15775Y13869D01*
X15779Y13864D01*
X15751Y13836D01*
X15746Y13840D01*
X15740Y13845D01*
X15733Y13848D01*
X15725Y13852D01*
X15717Y13854D01*
X15708Y13856D01*
X15699Y13858D01*
X15689Y13859D01*
X15678Y13860D01*
X15666Y13860D01*
X15755Y13949D01*
X15755Y13937D01*
D02*
G37*
G36*
X13225Y13943D02*
X13234Y13940D01*
X13245Y13938D01*
X13258Y13936D01*
X13292Y13932D01*
X13361Y13930D01*
X13389Y13930D01*
X13395Y13780D01*
X13369Y13779D01*
X13282Y13773D01*
X13266Y13770D01*
X13251Y13767D01*
X13238Y13763D01*
X13228Y13759D01*
X13219Y13754D01*
Y13946D01*
X13225Y13943D01*
D02*
G37*
G36*
X19050Y13719D02*
X19045Y13726D01*
X19038Y13732D01*
X19032Y13737D01*
X19025Y13742D01*
X19018Y13746D01*
X19011Y13749D01*
X19004Y13752D01*
X18996Y13753D01*
X18988Y13754D01*
X18979Y13755D01*
X18986Y13815D01*
X18994Y13815D01*
X19002Y13816D01*
X19010Y13817D01*
X19018Y13820D01*
X19026Y13822D01*
X19034Y13826D01*
X19041Y13829D01*
X19049Y13834D01*
X19056Y13839D01*
X19064Y13845D01*
X19050Y13719D01*
D02*
G37*
G36*
X19416Y13788D02*
X19413Y13782D01*
X19410Y13776D01*
X19407Y13770D01*
X19405Y13763D01*
X19403Y13756D01*
X19402Y13748D01*
X19401Y13739D01*
X19400Y13721D01*
X19320Y13711D01*
X19320Y13720D01*
X19319Y13729D01*
X19318Y13737D01*
X19316Y13745D01*
X19314Y13752D01*
X19311Y13759D01*
X19308Y13765D01*
X19304Y13770D01*
X19299Y13775D01*
X19295Y13779D01*
X19420Y13793D01*
X19416Y13788D01*
D02*
G37*
G36*
X13624Y13705D02*
X13622Y13720D01*
X13617Y13732D01*
X13609Y13743D01*
X13597Y13753D01*
X13582Y13761D01*
X13564Y13768D01*
X13542Y13773D01*
X13517Y13777D01*
X13489Y13779D01*
X13458Y13780D01*
Y13930D01*
X13489Y13930D01*
X13516Y13933D01*
X13540Y13936D01*
X13561Y13942D01*
X13579Y13948D01*
X13593Y13956D01*
X13604Y13966D01*
X13612Y13977D01*
X13617Y13990D01*
X13618Y14004D01*
X13624Y13705D01*
D02*
G37*
G36*
X14591Y13902D02*
X14594Y13896D01*
X14600Y13891D01*
X14607Y13887D01*
X14617Y13883D01*
X14629Y13880D01*
X14643Y13878D01*
X14660Y13876D01*
X14700Y13875D01*
Y13725D01*
X14679Y13725D01*
X14627Y13721D01*
X14614Y13719D01*
X14602Y13717D01*
X14593Y13714D01*
X14585Y13710D01*
X14579Y13706D01*
X14575Y13702D01*
X14591Y13908D01*
X14591Y13902D01*
D02*
G37*
G36*
X15390Y13727D02*
X15376Y13711D01*
X15371Y13703D01*
X15366Y13695D01*
X15362Y13688D01*
X15359Y13680D01*
X15357Y13673D01*
X15355Y13665D01*
X15355Y13658D01*
X15315D01*
X15315Y13665D01*
X15313Y13673D01*
X15311Y13680D01*
X15308Y13688D01*
X15304Y13695D01*
X15300Y13703D01*
X15294Y13711D01*
X15288Y13719D01*
X15280Y13727D01*
X15272Y13736D01*
X15398D01*
X15390Y13727D01*
D02*
G37*
G36*
X19695Y13731D02*
X19694Y13725D01*
X19694Y13719D01*
X19695Y13712D01*
X19699Y13704D01*
X19704Y13695D01*
X19711Y13685D01*
X19719Y13675D01*
X19741Y13651D01*
X19699Y13609D01*
X19686Y13621D01*
X19665Y13639D01*
X19655Y13646D01*
X19646Y13651D01*
X19638Y13655D01*
X19631Y13656D01*
X19625Y13656D01*
X19619Y13655D01*
X19615Y13651D01*
X19699Y13735D01*
X19695Y13731D01*
D02*
G37*
G36*
X15654Y13526D02*
X15654Y13515D01*
X15654Y13505D01*
X15656Y13496D01*
X15657Y13487D01*
X15660Y13479D01*
X15663Y13471D01*
X15666Y13464D01*
X15671Y13458D01*
X15675Y13453D01*
X15645Y13427D01*
X15640Y13431D01*
X15634Y13436D01*
X15627Y13439D01*
X15620Y13443D01*
X15611Y13446D01*
X15603Y13448D01*
X15593Y13451D01*
X15582Y13452D01*
X15559Y13455D01*
X15655Y13537D01*
X15654Y13526D01*
D02*
G37*
G36*
X14406Y13477D02*
X14402Y13471D01*
X14399Y13466D01*
X14396Y13459D01*
X14393Y13453D01*
X14391Y13445D01*
X14389Y13438D01*
X14388Y13429D01*
X14388Y13420D01*
X14387Y13411D01*
X14307D01*
X14307Y13420D01*
X14306Y13429D01*
X14305Y13438D01*
X14304Y13445D01*
X14302Y13453D01*
X14299Y13459D01*
X14296Y13466D01*
X14293Y13471D01*
X14289Y13477D01*
X14284Y13481D01*
X14410D01*
X14406Y13477D01*
D02*
G37*
G36*
X19445Y13501D02*
X19500Y13556D01*
X19517Y13540D01*
X19546Y13515D01*
X19559Y13506D01*
X19571Y13499D01*
X19582Y13495D01*
X19592Y13492D01*
X19600Y13492D01*
X19607Y13494D01*
X19613Y13499D01*
X19501Y13387D01*
X19506Y13393D01*
X19508Y13400D01*
X19508Y13408D01*
X19505Y13418D01*
X19501Y13429D01*
X19494Y13441D01*
X19485Y13454D01*
X19473Y13468D01*
X19444Y13499D01*
X19433Y13509D01*
X19421Y13519D01*
X19409Y13528D01*
X19396Y13535D01*
X19382Y13541D01*
X19368Y13546D01*
X19354Y13550D01*
X19339Y13553D01*
X19324Y13555D01*
X19308Y13555D01*
X19405Y13595D01*
X19433Y13624D01*
X19445Y13501D01*
D02*
G37*
G36*
X21981Y13154D02*
X21974Y13158D01*
X21964Y13162D01*
X21952Y13165D01*
X21938Y13167D01*
X21904Y13172D01*
X21860Y13174D01*
X21857Y13174D01*
X21762Y13167D01*
X21748Y13165D01*
X21736Y13162D01*
X21726Y13158D01*
X21719Y13154D01*
Y13346D01*
X21726Y13342D01*
X21736Y13338D01*
X21748Y13335D01*
X21762Y13333D01*
X21796Y13328D01*
X21840Y13326D01*
X21843Y13326D01*
X21938Y13333D01*
X21952Y13335D01*
X21964Y13338D01*
X21974Y13342D01*
X21981Y13346D01*
Y13154D01*
D02*
G37*
G36*
X19259Y13331D02*
X19255Y13326D01*
X19251Y13320D01*
X19248Y13314D01*
X19246Y13307D01*
X19244Y13300D01*
X19242Y13292D01*
X19241Y13283D01*
X19240Y13275D01*
X19240Y13265D01*
X19160D01*
X19160Y13275D01*
X19159Y13283D01*
X19158Y13292D01*
X19156Y13300D01*
X19154Y13307D01*
X19152Y13314D01*
X19149Y13320D01*
X19145Y13326D01*
X19141Y13331D01*
X19137Y13336D01*
X19263D01*
X19259Y13331D01*
D02*
G37*
G36*
X15170Y13837D02*
X15195Y13818D01*
Y13772D01*
X15216Y13721D01*
X15229Y13708D01*
X15233Y13698D01*
X15241Y13690D01*
X15246Y13684D01*
X15251Y13679D01*
X15254Y13673D01*
X15257Y13669D01*
X15259Y13665D01*
X15260Y13662D01*
X15261Y13660D01*
X15261Y13659D01*
X15261Y13655D01*
X15264Y13650D01*
Y13265D01*
X15240Y13241D01*
X14818D01*
X14812Y13244D01*
X14808Y13244D01*
X14806Y13245D01*
X14804Y13245D01*
X14800Y13247D01*
X14795Y13249D01*
X14790Y13252D01*
X14784Y13255D01*
X14769Y13266D01*
X14760Y13272D01*
X14754Y13274D01*
X14749Y13279D01*
X14698Y13300D01*
X14642D01*
X14591Y13279D01*
X14551Y13239D01*
X14530Y13188D01*
Y13170D01*
X14480Y13150D01*
X14439Y13191D01*
Y13404D01*
X14441Y13410D01*
X14442Y13418D01*
X14442Y13423D01*
X14443Y13428D01*
X14444Y13432D01*
X14444Y13436D01*
X14445Y13438D01*
X14446Y13440D01*
X14447Y13441D01*
X14448Y13442D01*
X14450Y13445D01*
X14453Y13454D01*
X14466Y13466D01*
X14487Y13518D01*
Y13574D01*
X14484Y13582D01*
X14517Y13632D01*
X14533D01*
X14576Y13641D01*
X14601Y13658D01*
X14610Y13661D01*
X14611Y13663D01*
X14611Y13663D01*
X14612Y13663D01*
X14616Y13664D01*
X14624Y13666D01*
X14633Y13667D01*
X14681Y13671D01*
X14701Y13671D01*
X14703Y13672D01*
X14832Y13685D01*
X14959Y13723D01*
X15077Y13786D01*
X15149Y13845D01*
X15170Y13837D01*
D02*
G37*
G36*
X20454Y13303D02*
X20449Y13301D01*
X20445Y13298D01*
X20441Y13293D01*
X20437Y13288D01*
X20435Y13281D01*
X20433Y13272D01*
X20431Y13263D01*
X20430Y13252D01*
X20430Y13240D01*
X20370D01*
X20370Y13252D01*
X20369Y13263D01*
X20367Y13272D01*
X20365Y13281D01*
X20363Y13288D01*
X20359Y13293D01*
X20355Y13298D01*
X20351Y13301D01*
X20346Y13303D01*
X20340Y13303D01*
X20460D01*
X20454Y13303D01*
D02*
G37*
G36*
X15855Y13274D02*
X15867Y13263D01*
X15873Y13260D01*
X15878Y13258D01*
X15882Y13256D01*
X15886Y13256D01*
X15889Y13257D01*
X15892Y13259D01*
X15894Y13263D01*
X15858Y13187D01*
X15859Y13191D01*
X15860Y13195D01*
X15859Y13199D01*
X15857Y13205D01*
X15855Y13210D01*
X15852Y13216D01*
X15847Y13222D01*
X15842Y13229D01*
X15828Y13243D01*
X15848Y13281D01*
X15855Y13274D01*
D02*
G37*
G36*
X21528Y14294D02*
Y14295D01*
X21576D01*
X21589Y14273D01*
X21598Y14245D01*
X21576Y14213D01*
X21567Y14166D01*
X21576Y14120D01*
X21602Y14080D01*
X21642Y14054D01*
X21688Y14045D01*
X21821D01*
X21824Y14040D01*
Y13950D01*
X21829Y13921D01*
X21846Y13896D01*
X21946Y13796D01*
X21946Y13796D01*
X21971Y13779D01*
X22000Y13774D01*
X22218D01*
X22274Y13718D01*
Y13190D01*
X22224Y13150D01*
X22211Y13152D01*
X22197Y13176D01*
X22202Y13200D01*
Y13300D01*
X22194Y13339D01*
X22172Y13372D01*
X22139Y13394D01*
X22100Y13402D01*
X22000D01*
X21984Y13399D01*
X21981Y13400D01*
X21972Y13396D01*
X21961Y13394D01*
X21961Y13394D01*
X21955Y13394D01*
X21951Y13391D01*
X21948Y13390D01*
X21940Y13388D01*
X21931Y13386D01*
X21842Y13380D01*
X21801Y13382D01*
X21770Y13386D01*
X21760Y13388D01*
X21752Y13390D01*
X21749Y13391D01*
X21745Y13394D01*
X21739Y13394D01*
X21739Y13394D01*
X21728Y13396D01*
X21719Y13400D01*
X21716Y13399D01*
X21700Y13402D01*
X21600D01*
X21561Y13394D01*
X21547Y13385D01*
X21500Y13379D01*
X21473Y13384D01*
X21450Y13400D01*
X21434Y13423D01*
X21429Y13450D01*
X21427D01*
Y14258D01*
X21477Y14301D01*
X21528Y14294D01*
D02*
G37*
G36*
X20430Y13198D02*
X20431Y13187D01*
X20433Y13178D01*
X20435Y13169D01*
X20437Y13162D01*
X20441Y13157D01*
X20445Y13152D01*
X20449Y13149D01*
X20454Y13147D01*
X20460Y13147D01*
X20340D01*
X20346Y13147D01*
X20351Y13149D01*
X20355Y13152D01*
X20359Y13157D01*
X20363Y13162D01*
X20365Y13169D01*
X20367Y13178D01*
X20369Y13187D01*
X20370Y13198D01*
X20370Y13210D01*
X20430D01*
X20430Y13198D01*
D02*
G37*
G36*
X19052Y13258D02*
X19055Y13255D01*
X19060Y13252D01*
X19067Y13249D01*
X19076Y13247D01*
X19087Y13245D01*
X19100Y13243D01*
X19133Y13242D01*
X19152Y13242D01*
Y13162D01*
X19133Y13161D01*
X19087Y13158D01*
X19076Y13156D01*
X19067Y13154D01*
X19060Y13152D01*
X19055Y13148D01*
X19052Y13145D01*
X19051Y13141D01*
Y13262D01*
X19052Y13258D01*
D02*
G37*
G36*
X19672Y13311D02*
X19665Y13309D01*
X19659Y13304D01*
X19654Y13298D01*
X19650Y13289D01*
X19646Y13279D01*
X19644Y13267D01*
X19642Y13253D01*
X19640Y13238D01*
X19640Y13225D01*
X19640Y13212D01*
X19642Y13197D01*
X19644Y13183D01*
X19646Y13171D01*
X19650Y13161D01*
X19654Y13152D01*
X19659Y13146D01*
X19665Y13141D01*
X19672Y13139D01*
X19679Y13138D01*
X19521D01*
X19528Y13139D01*
X19535Y13141D01*
X19541Y13146D01*
X19546Y13152D01*
X19550Y13161D01*
X19554Y13171D01*
X19556Y13183D01*
X19558Y13197D01*
X19560Y13212D01*
X19560Y13225D01*
X19560Y13238D01*
X19558Y13253D01*
X19556Y13267D01*
X19554Y13279D01*
X19550Y13289D01*
X19546Y13298D01*
X19541Y13304D01*
X19535Y13309D01*
X19528Y13311D01*
X19521Y13312D01*
X19679D01*
X19672Y13311D01*
D02*
G37*
G36*
X15690Y13237D02*
X15692Y13216D01*
X15694Y13207D01*
X15696Y13198D01*
X15698Y13190D01*
X15702Y13182D01*
X15705Y13175D01*
X15710Y13169D01*
X15714Y13164D01*
X15686Y13136D01*
X15681Y13140D01*
X15675Y13145D01*
X15668Y13148D01*
X15660Y13152D01*
X15652Y13154D01*
X15643Y13156D01*
X15634Y13158D01*
X15624Y13159D01*
X15613Y13160D01*
X15601Y13160D01*
X15690Y13249D01*
X15690Y13237D01*
D02*
G37*
G36*
X11286Y13037D02*
X11277Y13045D01*
X11261Y13059D01*
X11253Y13065D01*
X11245Y13069D01*
X11238Y13073D01*
X11230Y13076D01*
X11224Y13078D01*
X11219Y13077D01*
X11215Y13075D01*
X11211Y13073D01*
X11208Y13070D01*
X11205Y13067D01*
X11204Y13064D01*
X11204Y13060D01*
Y13140D01*
X11204Y13136D01*
X11205Y13133D01*
X11208Y13130D01*
X11211Y13127D01*
X11215Y13125D01*
X11219Y13123D01*
X11224Y13122D01*
X11230Y13124D01*
X11238Y13127D01*
X11245Y13131D01*
X11253Y13136D01*
X11261Y13141D01*
X11269Y13148D01*
X11277Y13155D01*
X11286Y13163D01*
X11286Y13037D01*
D02*
G37*
G36*
X14736Y13222D02*
X14755Y13209D01*
X14763Y13204D01*
X14772Y13200D01*
X14780Y13196D01*
X14788Y13194D01*
X14795Y13192D01*
X14802Y13190D01*
X14809Y13190D01*
X14813Y13150D01*
X14806Y13150D01*
X14799Y13148D01*
X14791Y13146D01*
X14784Y13143D01*
X14777Y13139D01*
X14770Y13134D01*
X14762Y13128D01*
X14755Y13121D01*
X14748Y13113D01*
X14741Y13105D01*
X14727Y13230D01*
X14736Y13222D01*
D02*
G37*
G36*
X22375Y12950D02*
X22325Y12890D01*
X22325Y12900D01*
X22324Y12909D01*
X22322Y12918D01*
X22319Y12927D01*
X22316Y12936D01*
X22312Y12944D01*
X22308Y12952D01*
X22302Y12960D01*
X22296Y12968D01*
X22290Y12975D01*
Y13046D01*
X22296Y13039D01*
X22302Y13035D01*
X22308Y13032D01*
X22312Y13031D01*
X22316Y13032D01*
X22319Y13034D01*
X22322Y13038D01*
X22324Y13044D01*
X22325Y13051D01*
X22325Y13060D01*
X22375Y12950D01*
D02*
G37*
G36*
X20453Y13016D02*
X20451Y13018D01*
X20449Y13019D01*
X20446Y13021D01*
X20442Y13022D01*
X20438Y13023D01*
X20433Y13024D01*
X20427Y13025D01*
X20414Y13026D01*
X20406Y13026D01*
Y13086D01*
X20413Y13086D01*
X20425Y13087D01*
X20430Y13087D01*
X20435Y13088D01*
X20439Y13090D01*
X20442Y13091D01*
X20444Y13093D01*
X20446Y13095D01*
X20448Y13097D01*
X20453Y13016D01*
D02*
G37*
G36*
X12051Y13024D02*
X12041Y13021D01*
X12021Y13015D01*
X12012Y13011D01*
X11996Y13004D01*
X11989Y12999D01*
X11982Y12995D01*
X11976Y12990D01*
X11971Y12986D01*
X11926Y13012D01*
X11932Y13018D01*
X11936Y13024D01*
X11940Y13031D01*
X11943Y13038D01*
X11945Y13046D01*
X11946Y13053D01*
X11947Y13062D01*
X11947Y13070D01*
X11945Y13079D01*
X11943Y13088D01*
X12051Y13024D01*
D02*
G37*
G36*
X21675Y12990D02*
X21676Y12981D01*
X21677Y12974D01*
X21679Y12967D01*
X21681Y12961D01*
X21684Y12957D01*
X21687Y12953D01*
X21691Y12951D01*
X21695Y12949D01*
X21700Y12949D01*
X21600D01*
X21605Y12949D01*
X21609Y12951D01*
X21613Y12953D01*
X21616Y12957D01*
X21619Y12961D01*
X21621Y12967D01*
X21623Y12974D01*
X21624Y12981D01*
X21625Y12990D01*
X21625Y13000D01*
X21675D01*
X21675Y12990D01*
D02*
G37*
G36*
X15004Y12785D02*
X15004Y12789D01*
X15002Y12792D01*
X15000Y12795D01*
X14997Y12798D01*
X14993Y12800D01*
X14988Y12802D01*
X14982Y12803D01*
X14976Y12804D01*
X14969Y12805D01*
X14960Y12805D01*
Y12845D01*
X14968Y12845D01*
X14975Y12846D01*
X14982Y12847D01*
X14987Y12848D01*
X14992Y12850D01*
X14995Y12852D01*
X14998Y12855D01*
X15000Y12858D01*
X15001Y12861D01*
X15001Y12865D01*
X15004Y12785D01*
D02*
G37*
G36*
X12846Y12861D02*
X12848Y12858D01*
X12850Y12855D01*
X12853Y12852D01*
X12857Y12850D01*
X12862Y12848D01*
X12868Y12847D01*
X12874Y12846D01*
X12881Y12845D01*
X12890Y12845D01*
Y12805D01*
X12882Y12805D01*
X12875Y12804D01*
X12868Y12803D01*
X12863Y12802D01*
X12858Y12800D01*
X12855Y12798D01*
X12852Y12795D01*
X12850Y12792D01*
X12849Y12789D01*
X12849Y12785D01*
X12846Y12865D01*
X12846Y12861D01*
D02*
G37*
G36*
X15457Y12751D02*
X15454Y12754D01*
X15450Y12755D01*
X15446Y12755D01*
X15442Y12754D01*
X15437Y12752D01*
X15431Y12749D01*
X15425Y12744D01*
X15419Y12739D01*
X15411Y12733D01*
X15404Y12726D01*
X15376Y12754D01*
X15383Y12761D01*
X15394Y12775D01*
X15399Y12781D01*
X15402Y12787D01*
X15404Y12792D01*
X15405Y12796D01*
X15405Y12800D01*
X15404Y12804D01*
X15401Y12807D01*
X15457Y12751D01*
D02*
G37*
G36*
X19050Y12866D02*
X19053Y12862D01*
X19058Y12859D01*
X19066Y12856D01*
X19075Y12853D01*
X19086Y12851D01*
X19100Y12850D01*
X19133Y12848D01*
X19153Y12848D01*
Y12768D01*
X19133Y12768D01*
X19086Y12764D01*
X19075Y12762D01*
X19066Y12760D01*
X19058Y12757D01*
X19053Y12754D01*
X19050Y12750D01*
X19049Y12746D01*
Y12870D01*
X19050Y12866D01*
D02*
G37*
G36*
X15897Y12743D02*
X15889Y12748D01*
X15881Y12752D01*
X15872Y12756D01*
X15862Y12759D01*
X15851Y12762D01*
X15840Y12764D01*
X15816Y12767D01*
X15802Y12768D01*
X15788Y12768D01*
Y12848D01*
X15802Y12848D01*
X15828Y12850D01*
X15840Y12852D01*
X15862Y12857D01*
X15872Y12860D01*
X15881Y12864D01*
X15889Y12868D01*
X15897Y12873D01*
Y12743D01*
D02*
G37*
G36*
X15596Y12804D02*
X15595Y12800D01*
X15595Y12796D01*
X15596Y12792D01*
X15598Y12787D01*
X15601Y12781D01*
X15606Y12775D01*
X15611Y12769D01*
X15617Y12761D01*
X15624Y12754D01*
X15596Y12726D01*
X15589Y12733D01*
X15575Y12744D01*
X15569Y12749D01*
X15563Y12752D01*
X15558Y12754D01*
X15554Y12755D01*
X15550Y12755D01*
X15546Y12754D01*
X15543Y12751D01*
X15599Y12807D01*
X15596Y12804D01*
D02*
G37*
G36*
X12540Y12737D02*
X12542Y12716D01*
X12544Y12707D01*
X12546Y12698D01*
X12548Y12690D01*
X12552Y12682D01*
X12555Y12675D01*
X12560Y12669D01*
X12564Y12664D01*
X12536Y12636D01*
X12531Y12640D01*
X12525Y12645D01*
X12518Y12648D01*
X12510Y12652D01*
X12502Y12654D01*
X12493Y12656D01*
X12484Y12658D01*
X12474Y12659D01*
X12463Y12660D01*
X12451Y12660D01*
X12540Y12749D01*
X12540Y12737D01*
D02*
G37*
G36*
X19076Y12647D02*
X19077Y12643D01*
X19080Y12641D01*
X19083Y12638D01*
X19088Y12636D01*
X19093Y12634D01*
X19100Y12633D01*
X19108Y12632D01*
X19116Y12631D01*
X19126Y12631D01*
Y12591D01*
X19116Y12591D01*
X19100Y12589D01*
X19093Y12588D01*
X19088Y12586D01*
X19083Y12584D01*
X19080Y12582D01*
X19077Y12579D01*
X19076Y12575D01*
X19075Y12572D01*
Y12650D01*
X19076Y12647D01*
D02*
G37*
G36*
X20312Y12571D02*
X20311Y12578D01*
X20309Y12585D01*
X20304Y12591D01*
X20298Y12596D01*
X20289Y12600D01*
X20279Y12604D01*
X20267Y12606D01*
X20253Y12608D01*
X20238Y12610D01*
X20220Y12610D01*
Y12690D01*
X20238Y12690D01*
X20253Y12692D01*
X20267Y12694D01*
X20279Y12696D01*
X20289Y12700D01*
X20298Y12704D01*
X20304Y12709D01*
X20309Y12715D01*
X20311Y12722D01*
X20312Y12729D01*
Y12571D01*
D02*
G37*
G36*
X15877Y12561D02*
X15876Y12565D01*
X15874Y12568D01*
X15871Y12571D01*
X15867Y12573D01*
X15862Y12575D01*
X15856Y12577D01*
X15849Y12578D01*
X15841Y12579D01*
X15832Y12580D01*
X15822Y12580D01*
X15816Y12620D01*
X15825Y12620D01*
X15841Y12622D01*
X15847Y12623D01*
X15852Y12625D01*
X15856Y12627D01*
X15859Y12629D01*
X15861Y12632D01*
X15862Y12636D01*
X15862Y12639D01*
X15877Y12561D01*
D02*
G37*
G36*
X20893Y12708D02*
X20893Y12699D01*
X20895Y12689D01*
X20898Y12678D01*
X20903Y12667D01*
X20910Y12655D01*
X20919Y12642D01*
X20930Y12629D01*
X20956Y12600D01*
X20938Y12506D01*
X20921Y12522D01*
X20892Y12546D01*
X20880Y12555D01*
X20869Y12560D01*
X20860Y12564D01*
X20852Y12564D01*
X20845Y12563D01*
X20840Y12558D01*
X20837Y12551D01*
X20895Y12716D01*
X20893Y12708D01*
D02*
G37*
G36*
X12874Y12496D02*
X12867Y12489D01*
X12856Y12475D01*
X12851Y12469D01*
X12848Y12463D01*
X12846Y12458D01*
X12845Y12454D01*
X12845Y12450D01*
X12846Y12446D01*
X12849Y12443D01*
X12793Y12499D01*
X12796Y12496D01*
X12800Y12495D01*
X12804Y12495D01*
X12808Y12496D01*
X12813Y12498D01*
X12819Y12501D01*
X12825Y12506D01*
X12831Y12511D01*
X12839Y12517D01*
X12846Y12524D01*
X12874Y12496D01*
D02*
G37*
G36*
X15599Y12536D02*
X15600Y12533D01*
X15602Y12530D01*
X15605Y12527D01*
X15609Y12525D01*
X15613Y12523D01*
X15619Y12522D01*
X15625Y12521D01*
X15632Y12520D01*
X15640Y12520D01*
Y12480D01*
X15632Y12480D01*
X15625Y12479D01*
X15619Y12478D01*
X15613Y12477D01*
X15609Y12475D01*
X15605Y12473D01*
X15602Y12470D01*
X15600Y12467D01*
X15599Y12464D01*
X15599Y12460D01*
Y12540D01*
X15599Y12536D01*
D02*
G37*
G36*
X15001Y12460D02*
X15001Y12464D01*
X15000Y12467D01*
X14998Y12470D01*
X14995Y12473D01*
X14991Y12475D01*
X14987Y12477D01*
X14981Y12478D01*
X14975Y12479D01*
X14968Y12480D01*
X14960Y12480D01*
Y12520D01*
X14968Y12520D01*
X14975Y12521D01*
X14981Y12522D01*
X14987Y12523D01*
X14991Y12525D01*
X14995Y12527D01*
X14998Y12530D01*
X15000Y12533D01*
X15001Y12536D01*
X15001Y12540D01*
Y12460D01*
D02*
G37*
G36*
X14083Y12418D02*
X14075Y12410D01*
X14063Y12396D01*
X14058Y12389D01*
X14055Y12384D01*
X14053Y12379D01*
X14053Y12375D01*
X14053Y12371D01*
X14055Y12369D01*
X14058Y12367D01*
X13984Y12403D01*
X13988Y12402D01*
X13993D01*
X13998Y12403D01*
X14004Y12406D01*
X14010Y12409D01*
X14018Y12414D01*
X14025Y12420D01*
X14043Y12435D01*
X14053Y12445D01*
X14083Y12418D01*
D02*
G37*
G36*
X13823Y12436D02*
X13824Y12429D01*
X13825Y12422D01*
X13826Y12417D01*
X13828Y12412D01*
X13830Y12408D01*
X13833Y12405D01*
X13836Y12403D01*
X13839Y12402D01*
X13843Y12401D01*
X13763D01*
X13767Y12402D01*
X13771Y12403D01*
X13773Y12405D01*
X13776Y12408D01*
X13778Y12412D01*
X13780Y12417D01*
X13781Y12422D01*
X13782Y12429D01*
X13783Y12436D01*
X13783Y12444D01*
X13823D01*
X13823Y12436D01*
D02*
G37*
G36*
X11284Y12311D02*
X11278Y12320D01*
X11272Y12328D01*
X11266Y12335D01*
X11260Y12341D01*
X11254Y12346D01*
X11247Y12350D01*
X11240Y12354D01*
X11233Y12356D01*
X11228Y12357D01*
X11220Y12356D01*
X11214Y12355D01*
X11209Y12353D01*
X11204Y12351D01*
X11201Y12348D01*
X11198Y12345D01*
X11196Y12342D01*
X11195Y12338D01*
X11207Y12418D01*
X11207Y12414D01*
X11207Y12411D01*
X11209Y12408D01*
X11212Y12405D01*
X11216Y12403D01*
X11221Y12401D01*
X11227Y12400D01*
X11233Y12399D01*
X11236Y12399D01*
X11241Y12399D01*
X11248Y12401D01*
X11256Y12404D01*
X11265Y12407D01*
X11283Y12415D01*
X11293Y12420D01*
X11315Y12433D01*
X11284Y12311D01*
D02*
G37*
G36*
X19076Y12450D02*
X19077Y12447D01*
X19080Y12444D01*
X19083Y12441D01*
X19088Y12439D01*
X19093Y12437D01*
X19100Y12436D01*
X19108Y12435D01*
X19116Y12434D01*
X19126Y12434D01*
Y12394D01*
X19116Y12394D01*
X19100Y12392D01*
X19093Y12391D01*
X19088Y12389D01*
X19083Y12387D01*
X19080Y12385D01*
X19077Y12382D01*
X19076Y12379D01*
X19075Y12375D01*
Y12454D01*
X19076Y12450D01*
D02*
G37*
G36*
X15869Y12375D02*
X15869Y12379D01*
X15867Y12382D01*
X15864Y12385D01*
X15861Y12387D01*
X15856Y12389D01*
X15851Y12391D01*
X15844Y12392D01*
X15836Y12393D01*
X15828Y12394D01*
X15818Y12394D01*
Y12434D01*
X15828Y12434D01*
X15844Y12436D01*
X15851Y12437D01*
X15856Y12439D01*
X15861Y12441D01*
X15864Y12444D01*
X15867Y12447D01*
X15869Y12450D01*
X15869Y12454D01*
Y12375D01*
D02*
G37*
G36*
X15536Y12401D02*
X15533Y12400D01*
X15530Y12398D01*
X15527Y12395D01*
X15525Y12391D01*
X15523Y12387D01*
X15522Y12381D01*
X15521Y12375D01*
X15520Y12368D01*
X15520Y12360D01*
X15480D01*
X15480Y12368D01*
X15479Y12375D01*
X15478Y12381D01*
X15477Y12387D01*
X15475Y12391D01*
X15473Y12395D01*
X15470Y12398D01*
X15467Y12400D01*
X15464Y12401D01*
X15460Y12401D01*
X15540D01*
X15536Y12401D01*
D02*
G37*
G36*
X15346Y12553D02*
X15348Y12548D01*
Y12450D01*
X15356Y12411D01*
X15378Y12378D01*
X15411Y12356D01*
X15429Y12352D01*
Y11649D01*
X15193Y11414D01*
X15170Y11426D01*
X15152Y11443D01*
X15157Y11467D01*
Y11527D01*
X15150Y11558D01*
X15137Y11595D01*
X15150Y11632D01*
X15157Y11664D01*
Y11724D01*
X15150Y11755D01*
X15133Y11781D01*
Y11803D01*
X15150Y11829D01*
X15157Y11861D01*
Y11921D01*
X15150Y11952D01*
X15133Y11978D01*
X15106Y11996D01*
X15075Y12002D01*
X14755D01*
X14738Y11999D01*
X14727Y12005D01*
X14705Y12027D01*
X14699Y12038D01*
X14702Y12055D01*
Y12375D01*
X14701Y12379D01*
X14736Y12429D01*
X14952D01*
X14956Y12411D01*
X14978Y12378D01*
X15011Y12356D01*
X15050Y12348D01*
X15150D01*
X15189Y12356D01*
X15222Y12378D01*
X15244Y12411D01*
X15252Y12450D01*
Y12550D01*
X15286Y12589D01*
X15314Y12590D01*
X15346Y12553D01*
D02*
G37*
G36*
X21695Y12351D02*
X21691Y12349D01*
X21687Y12347D01*
X21684Y12343D01*
X21681Y12339D01*
X21679Y12333D01*
X21677Y12326D01*
X21676Y12319D01*
X21675Y12310D01*
X21675Y12300D01*
X21625D01*
X21625Y12310D01*
X21624Y12319D01*
X21623Y12326D01*
X21621Y12333D01*
X21619Y12339D01*
X21616Y12343D01*
X21613Y12347D01*
X21609Y12349D01*
X21605Y12351D01*
X21600Y12351D01*
X21700Y12351D01*
X21695Y12351D01*
D02*
G37*
G36*
X21675Y12190D02*
X21676Y12181D01*
X21677Y12174D01*
X21679Y12167D01*
X21681Y12161D01*
X21684Y12157D01*
X21687Y12153D01*
X21691Y12151D01*
X21695Y12149D01*
X21700Y12149D01*
X21600D01*
X21605Y12149D01*
X21609Y12151D01*
X21613Y12153D01*
X21616Y12157D01*
X21619Y12161D01*
X21621Y12167D01*
X21623Y12174D01*
X21624Y12181D01*
X21625Y12190D01*
X21625Y12200D01*
X21675D01*
X21675Y12190D01*
D02*
G37*
G36*
X12258Y12258D02*
X12265Y12251D01*
X12271Y12245D01*
X12278Y12240D01*
X12285Y12235D01*
X12292Y12232D01*
X12300Y12229D01*
X12307Y12227D01*
X12315Y12225D01*
X12323Y12225D01*
X12317Y12175D01*
X12309Y12175D01*
X12301Y12174D01*
X12294Y12172D01*
X12286Y12170D01*
X12278Y12166D01*
X12270Y12163D01*
X12262Y12158D01*
X12253Y12153D01*
X12236Y12141D01*
X12252Y12266D01*
X12258Y12258D01*
D02*
G37*
G36*
X19075Y12215D02*
X19076Y12213D01*
X19077Y12210D01*
X19078Y12206D01*
X19080Y12202D01*
X19086Y12192D01*
X19094Y12180D01*
X19099Y12174D01*
X19074Y12133D01*
X19069Y12140D01*
X19059Y12152D01*
X19054Y12156D01*
X19050Y12159D01*
X19047Y12160D01*
X19043Y12161D01*
X19040Y12161D01*
X19038Y12159D01*
X19036Y12156D01*
X19075Y12217D01*
X19075Y12215D01*
D02*
G37*
G36*
X19646Y12254D02*
X19645Y12250D01*
X19645Y12246D01*
X19646Y12242D01*
X19648Y12237D01*
X19651Y12231D01*
X19656Y12225D01*
X19661Y12219D01*
X19667Y12211D01*
X19672Y12206D01*
X19677Y12202D01*
X19683Y12198D01*
X19690Y12194D01*
X19697Y12192D01*
X19705Y12190D01*
X19713Y12189D01*
X19722Y12189D01*
X19731Y12190D01*
X19741Y12191D01*
X19752Y12194D01*
X19688Y12085D01*
X19684Y12098D01*
X19674Y12130D01*
X19670Y12139D01*
X19663Y12155D01*
X19659Y12161D01*
X19655Y12166D01*
X19651Y12171D01*
X19663Y12192D01*
X19646Y12176D01*
X19639Y12183D01*
X19625Y12194D01*
X19619Y12199D01*
X19613Y12202D01*
X19608Y12204D01*
X19604Y12205D01*
X19600Y12205D01*
X19596Y12204D01*
X19593Y12201D01*
X19649Y12257D01*
X19646Y12254D01*
D02*
G37*
G36*
X20219Y12556D02*
X20235Y12556D01*
X20248Y12555D01*
X20257Y12553D01*
X20262Y12552D01*
X20273Y12536D01*
X20274Y12532D01*
X20275Y12532D01*
X20278Y12528D01*
X20311Y12506D01*
X20350Y12498D01*
X20450D01*
X20465Y12501D01*
X20488Y12464D01*
X20491Y12455D01*
X20475Y12431D01*
X20468Y12400D01*
X20468Y12400D01*
Y12134D01*
X20417Y12083D01*
X20412Y12081D01*
X20390Y12060D01*
X20382Y12054D01*
X20379Y12052D01*
X20367D01*
X20365Y12053D01*
X20363Y12052D01*
X20356D01*
X20356Y12052D01*
X20356Y12052D01*
X20300D01*
X20261Y12044D01*
X20228Y12022D01*
X20206Y11989D01*
X20205Y11985D01*
X20199Y11984D01*
X20189Y11984D01*
X20183Y11982D01*
X20117D01*
X20111Y11984D01*
X20101Y11984D01*
X20095Y11985D01*
X20094Y11989D01*
X20072Y12022D01*
X20039Y12044D01*
X20000Y12052D01*
X19933D01*
X19915Y12079D01*
Y12135D01*
X19894Y12186D01*
X19854Y12226D01*
X19803Y12247D01*
X19749D01*
X19745Y12248D01*
X19732Y12253D01*
X19709Y12275D01*
X19706Y12278D01*
X19702Y12286D01*
Y12350D01*
X19694Y12389D01*
X19672Y12422D01*
X19639Y12444D01*
X19600Y12452D01*
X19500D01*
X19471Y12446D01*
X19456Y12447D01*
X19416Y12475D01*
X19416Y12477D01*
X19400Y12500D01*
X19389Y12512D01*
X19408Y12558D01*
X20214D01*
X20219Y12556D01*
D02*
G37*
G36*
X20491Y11999D02*
X20479Y11986D01*
X20461Y11965D01*
X20454Y11955D01*
X20449Y11946D01*
X20445Y11938D01*
X20444Y11931D01*
X20444Y11925D01*
X20445Y11919D01*
X20449Y11915D01*
X20365Y11999D01*
X20369Y11995D01*
X20375Y11994D01*
X20381Y11994D01*
X20388Y11995D01*
X20396Y11999D01*
X20405Y12004D01*
X20415Y12011D01*
X20425Y12019D01*
X20449Y12041D01*
X20491Y11999D01*
D02*
G37*
G36*
X20906Y12000D02*
X20890Y11983D01*
X20865Y11954D01*
X20856Y11941D01*
X20849Y11929D01*
X20845Y11918D01*
X20842Y11908D01*
X20842Y11900D01*
X20844Y11893D01*
X20849Y11887D01*
X20737Y11999D01*
X20743Y11994D01*
X20750Y11992D01*
X20758Y11992D01*
X20768Y11995D01*
X20779Y11999D01*
X20791Y12006D01*
X20804Y12015D01*
X20818Y12027D01*
X20850Y12056D01*
X20906Y12000D01*
D02*
G37*
G36*
X22035Y11951D02*
X22031Y11955D01*
X22025Y11956D01*
X22019Y11956D01*
X22012Y11955D01*
X22004Y11951D01*
X21995Y11946D01*
X21985Y11939D01*
X21975Y11931D01*
X21951Y11909D01*
X21909Y11951D01*
X21921Y11964D01*
X21939Y11985D01*
X21946Y11995D01*
X21951Y12004D01*
X21955Y12012D01*
X21956Y12019D01*
X21956Y12025D01*
X21955Y12031D01*
X21951Y12035D01*
X22035Y11951D01*
D02*
G37*
G36*
X20253Y11840D02*
X20253Y11846D01*
X20251Y11851D01*
X20248Y11855D01*
X20243Y11859D01*
X20238Y11863D01*
X20231Y11865D01*
X20222Y11867D01*
X20213Y11869D01*
X20202Y11870D01*
X20190Y11870D01*
Y11930D01*
X20202Y11930D01*
X20213Y11931D01*
X20222Y11933D01*
X20231Y11935D01*
X20238Y11937D01*
X20243Y11941D01*
X20248Y11945D01*
X20251Y11949D01*
X20253Y11954D01*
X20253Y11960D01*
Y11840D01*
D02*
G37*
G36*
X20047Y11954D02*
X20049Y11949D01*
X20052Y11945D01*
X20057Y11941D01*
X20062Y11937D01*
X20069Y11935D01*
X20078Y11933D01*
X20087Y11931D01*
X20098Y11930D01*
X20110Y11930D01*
Y11870D01*
X20098Y11870D01*
X20087Y11869D01*
X20078Y11867D01*
X20069Y11865D01*
X20062Y11863D01*
X20057Y11859D01*
X20052Y11855D01*
X20049Y11851D01*
X20047Y11846D01*
X20047Y11840D01*
Y11960D01*
X20047Y11954D01*
D02*
G37*
G36*
X19853Y11840D02*
X19853Y11846D01*
X19851Y11851D01*
X19848Y11855D01*
X19843Y11859D01*
X19838Y11863D01*
X19831Y11865D01*
X19822Y11867D01*
X19813Y11869D01*
X19802Y11870D01*
X19790Y11870D01*
Y11930D01*
X19802Y11930D01*
X19813Y11931D01*
X19822Y11933D01*
X19831Y11935D01*
X19838Y11937D01*
X19843Y11941D01*
X19848Y11945D01*
X19851Y11949D01*
X19853Y11954D01*
X19853Y11960D01*
Y11840D01*
D02*
G37*
G36*
X19621Y11957D02*
X19628Y11951D01*
X19635Y11946D01*
X19642Y11942D01*
X19647Y11939D01*
Y11960D01*
X19647Y11954D01*
X19649Y11949D01*
X19652Y11945D01*
X19657Y11941D01*
X19662Y11937D01*
X19669Y11935D01*
X19678Y11933D01*
X19687Y11931D01*
X19698Y11930D01*
X19710Y11930D01*
Y11870D01*
X19698Y11870D01*
X19687Y11869D01*
X19678Y11867D01*
X19669Y11865D01*
X19662Y11863D01*
X19657Y11859D01*
X19652Y11855D01*
X19649Y11851D01*
X19647Y11846D01*
X19647Y11840D01*
Y11861D01*
X19642Y11858D01*
X19635Y11854D01*
X19628Y11849D01*
X19621Y11843D01*
X19614Y11837D01*
Y11963D01*
X19621Y11957D01*
D02*
G37*
G36*
X21471Y11907D02*
X21478Y11901D01*
X21485Y11896D01*
X21492Y11892D01*
X21499Y11888D01*
X21507Y11885D01*
X21514Y11883D01*
X21522Y11881D01*
X21530Y11880D01*
X21539Y11880D01*
Y11820D01*
X21530Y11820D01*
X21522Y11819D01*
X21514Y11817D01*
X21507Y11815D01*
X21499Y11812D01*
X21492Y11808D01*
X21485Y11804D01*
X21478Y11799D01*
X21471Y11793D01*
X21464Y11787D01*
Y11913D01*
X21471Y11907D01*
D02*
G37*
G36*
X20564Y11963D02*
X20598Y11933D01*
Y11850D01*
X20606Y11811D01*
X20628Y11778D01*
X20632Y11775D01*
X20632Y11774D01*
X20636Y11773D01*
X20652Y11762D01*
X20653Y11757D01*
X20655Y11748D01*
X20656Y11735D01*
X20656Y11719D01*
X20658Y11714D01*
Y11238D01*
X20618Y11198D01*
X20613Y11196D01*
X20582Y11168D01*
X20571Y11158D01*
X20562Y11152D01*
X20538D01*
X20537Y11153D01*
X20535Y11152D01*
X20528D01*
X20528Y11152D01*
X20528Y11152D01*
X20500D01*
X20461Y11144D01*
X20428Y11122D01*
X20406Y11089D01*
X20398Y11050D01*
Y10950D01*
X20406Y10911D01*
X20428Y10878D01*
X20432Y10875D01*
X20432Y10874D01*
X20436Y10873D01*
X20452Y10862D01*
X20453Y10857D01*
X20455Y10848D01*
X20456Y10835D01*
X20456Y10819D01*
X20458Y10814D01*
Y10786D01*
X20456Y10781D01*
X20456Y10765D01*
X20455Y10752D01*
X20453Y10743D01*
X20452Y10738D01*
X20436Y10727D01*
X20432Y10726D01*
X20432Y10725D01*
X20428Y10722D01*
X20425Y10718D01*
X20424Y10718D01*
X20423Y10714D01*
X20412Y10699D01*
X20364Y10694D01*
X20262Y10795D01*
X20233Y10815D01*
X20197Y10822D01*
X17958D01*
X17792Y10988D01*
Y11250D01*
X17785Y11285D01*
X17765Y11315D01*
X17607Y11473D01*
X17626Y11519D01*
X17965D01*
X18112Y11372D01*
X18112Y11372D01*
X18139Y11355D01*
X18170Y11348D01*
X19480D01*
X19480Y11348D01*
X19511Y11355D01*
X19538Y11372D01*
X19608Y11442D01*
X19625Y11469D01*
X19632Y11500D01*
X19632Y11500D01*
Y11733D01*
X19634Y11739D01*
X19634Y11749D01*
X19635Y11755D01*
X19639Y11756D01*
X19672Y11778D01*
X19694Y11811D01*
X19695Y11815D01*
X19701Y11816D01*
X19711Y11816D01*
X19717Y11818D01*
X19783D01*
X19789Y11816D01*
X19799Y11816D01*
X19805Y11815D01*
X19806Y11811D01*
X19828Y11778D01*
X19861Y11756D01*
X19900Y11748D01*
X20000D01*
X20039Y11756D01*
X20072Y11778D01*
X20094Y11811D01*
X20095Y11815D01*
X20101Y11816D01*
X20111Y11816D01*
X20117Y11818D01*
X20183D01*
X20189Y11816D01*
X20199Y11816D01*
X20205Y11815D01*
X20206Y11811D01*
X20228Y11778D01*
X20261Y11756D01*
X20300Y11748D01*
X20400D01*
X20439Y11756D01*
X20472Y11778D01*
X20494Y11811D01*
X20502Y11850D01*
Y11906D01*
X20502Y11906D01*
X20502Y11906D01*
Y11913D01*
X20503Y11915D01*
X20502Y11917D01*
Y11929D01*
X20504Y11931D01*
X20519Y11950D01*
X20530Y11961D01*
X20551Y11968D01*
X20564Y11963D01*
D02*
G37*
G36*
X19607Y11829D02*
X19601Y11822D01*
X19596Y11815D01*
X19592Y11808D01*
X19589Y11803D01*
X19610D01*
X19604Y11803D01*
X19599Y11801D01*
X19595Y11798D01*
X19591Y11793D01*
X19587Y11788D01*
X19585Y11781D01*
X19583Y11772D01*
X19581Y11763D01*
X19580Y11752D01*
X19580Y11740D01*
X19520D01*
X19520Y11752D01*
X19519Y11763D01*
X19517Y11772D01*
X19515Y11781D01*
X19513Y11788D01*
X19509Y11793D01*
X19505Y11798D01*
X19501Y11801D01*
X19496Y11803D01*
X19490Y11803D01*
X19511D01*
X19508Y11808D01*
X19504Y11815D01*
X19499Y11822D01*
X19493Y11829D01*
X19487Y11836D01*
X19613D01*
X19607Y11829D01*
D02*
G37*
G36*
X19023Y11855D02*
X19039Y11841D01*
X19047Y11835D01*
X19055Y11831D01*
X19062Y11827D01*
X19070Y11824D01*
X19077Y11822D01*
X19085Y11820D01*
X19092Y11820D01*
Y11780D01*
X19085Y11780D01*
X19077Y11778D01*
X19070Y11776D01*
X19062Y11773D01*
X19055Y11769D01*
X19047Y11765D01*
X19039Y11759D01*
X19031Y11752D01*
X19023Y11745D01*
X19014Y11737D01*
Y11863D01*
X19023Y11855D01*
D02*
G37*
G36*
X20822Y11811D02*
X20815Y11809D01*
X20809Y11804D01*
X20804Y11798D01*
X20800Y11789D01*
X20796Y11779D01*
X20794Y11767D01*
X20792Y11753D01*
X20790Y11738D01*
X20790Y11720D01*
X20710D01*
X20710Y11738D01*
X20708Y11753D01*
X20706Y11767D01*
X20704Y11779D01*
X20700Y11789D01*
X20696Y11798D01*
X20691Y11804D01*
X20685Y11809D01*
X20678Y11811D01*
X20671Y11812D01*
X20829D01*
X20822Y11811D01*
D02*
G37*
G36*
X16416Y11703D02*
X16411Y11705D01*
X16407Y11704D01*
X16404Y11703D01*
X16401Y11700D01*
X16398Y11695D01*
X16396Y11689D01*
X16394Y11682D01*
X16393Y11674D01*
X16393Y11664D01*
X16392Y11652D01*
X16342Y11666D01*
X16342Y11675D01*
X16341Y11693D01*
X16339Y11701D01*
X16338Y11708D01*
X16336Y11716D01*
X16334Y11722D01*
X16331Y11729D01*
X16328Y11735D01*
X16325Y11740D01*
X16416Y11703D01*
D02*
G37*
G36*
X17195Y11687D02*
X17193Y11687D01*
X17191Y11686D01*
X17190Y11685D01*
X17188Y11682D01*
X17187Y11679D01*
X17186Y11674D01*
X17186Y11669D01*
X17185Y11655D01*
X17185Y11646D01*
X17125D01*
X17125Y11660D01*
X17121Y11708D01*
X17120Y11713D01*
X17119Y11718D01*
X17117Y11720D01*
X17116Y11722D01*
X17195Y11687D01*
D02*
G37*
G36*
X17030Y11702D02*
X17024Y11698D01*
X17018Y11692D01*
X17013Y11685D01*
X17009Y11677D01*
X17006Y11668D01*
X17003Y11657D01*
X17001Y11646D01*
X16999Y11634D01*
X16998Y11620D01*
X16998Y11605D01*
X16918Y11641D01*
X16915Y11725D01*
X17030Y11702D01*
D02*
G37*
G36*
X19264Y11686D02*
X19260Y11681D01*
X19255Y11675D01*
X19252Y11668D01*
X19248Y11660D01*
X19246Y11652D01*
X19244Y11643D01*
X19242Y11634D01*
X19241Y11624D01*
X19240Y11613D01*
X19240Y11601D01*
X19151Y11690D01*
X19163Y11690D01*
X19184Y11692D01*
X19193Y11694D01*
X19202Y11696D01*
X19210Y11698D01*
X19218Y11702D01*
X19225Y11705D01*
X19231Y11710D01*
X19236Y11714D01*
X19264Y11686D01*
D02*
G37*
G36*
X15649Y11436D02*
X15650Y11433D01*
X15652Y11430D01*
X15655Y11427D01*
X15659Y11425D01*
X15663Y11423D01*
X15669Y11422D01*
X15675Y11421D01*
X15682Y11420D01*
X15690Y11420D01*
Y11380D01*
X15682Y11380D01*
X15675Y11379D01*
X15669Y11378D01*
X15663Y11377D01*
X15659Y11375D01*
X15655Y11373D01*
X15652Y11370D01*
X15650Y11367D01*
X15649Y11364D01*
X15649Y11360D01*
Y11440D01*
X15649Y11436D01*
D02*
G37*
G36*
X12905Y11251D02*
X12904Y11255D01*
X12902Y11259D01*
X12899Y11263D01*
X12895Y11266D01*
X12890Y11269D01*
X12883Y11271D01*
X12876Y11273D01*
X12867Y11274D01*
X12857Y11275D01*
X12846Y11275D01*
Y11325D01*
X12857Y11325D01*
X12876Y11327D01*
X12883Y11329D01*
X12890Y11331D01*
X12895Y11334D01*
X12899Y11337D01*
X12902Y11341D01*
X12904Y11345D01*
X12905Y11349D01*
Y11251D01*
D02*
G37*
G36*
X17267Y11171D02*
X17269Y11167D01*
X17271Y11164D01*
X17273Y11162D01*
X17277Y11160D01*
X17282Y11158D01*
X17287Y11156D01*
X17293Y11155D01*
X17300Y11155D01*
X17308Y11155D01*
Y11115D01*
X17300Y11114D01*
X17293Y11114D01*
X17287Y11113D01*
X17282Y11111D01*
X17277Y11110D01*
X17273Y11107D01*
X17271Y11105D01*
X17269Y11102D01*
X17267Y11098D01*
X17267Y11095D01*
Y11175D01*
X17267Y11171D01*
D02*
G37*
G36*
X20706Y11100D02*
X20690Y11083D01*
X20665Y11054D01*
X20656Y11041D01*
X20649Y11029D01*
X20645Y11018D01*
X20642Y11008D01*
X20642Y11000D01*
X20644Y10993D01*
X20649Y10987D01*
X20537Y11099D01*
X20543Y11094D01*
X20550Y11092D01*
X20558Y11092D01*
X20568Y11095D01*
X20579Y11099D01*
X20591Y11106D01*
X20604Y11115D01*
X20618Y11127D01*
X20650Y11156D01*
X20706Y11100D01*
D02*
G37*
G36*
X12905Y11054D02*
X12904Y11058D01*
X12902Y11063D01*
X12899Y11066D01*
X12895Y11069D01*
X12890Y11072D01*
X12883Y11074D01*
X12876Y11076D01*
X12867Y11077D01*
X12857Y11078D01*
X12846Y11078D01*
Y11128D01*
X12857Y11128D01*
X12876Y11130D01*
X12883Y11132D01*
X12890Y11134D01*
X12895Y11137D01*
X12899Y11140D01*
X12902Y11144D01*
X12904Y11148D01*
X12905Y11152D01*
Y11054D01*
D02*
G37*
G36*
X15529Y10901D02*
X15525Y10902D01*
X15521Y10902D01*
X15518Y10901D01*
X15516Y10899D01*
X15514Y10895D01*
X15512Y10890D01*
X15510Y10885D01*
X15509Y10878D01*
X15509Y10869D01*
X15509Y10860D01*
X15469Y10872D01*
X15468Y10880D01*
X15467Y10893D01*
X15466Y10899D01*
X15465Y10905D01*
X15463Y10911D01*
X15461Y10917D01*
X15459Y10922D01*
X15457Y10926D01*
X15454Y10931D01*
X15529Y10901D01*
D02*
G37*
G36*
X15823Y10913D02*
X15824Y10906D01*
X15826Y10899D01*
X15829Y10891D01*
X15833Y10883D01*
X15838Y10876D01*
X15843Y10868D01*
X15850Y10860D01*
X15857Y10851D01*
X15865Y10843D01*
X15739D01*
X15747Y10851D01*
X15761Y10868D01*
X15767Y10876D01*
X15771Y10883D01*
X15775Y10891D01*
X15778Y10899D01*
X15780Y10906D01*
X15782Y10913D01*
X15782Y10920D01*
X15822D01*
X15823Y10913D01*
D02*
G37*
G36*
X20622Y10911D02*
X20615Y10909D01*
X20609Y10904D01*
X20604Y10898D01*
X20600Y10889D01*
X20596Y10879D01*
X20594Y10867D01*
X20592Y10853D01*
X20590Y10838D01*
X20590Y10820D01*
X20510D01*
X20510Y10838D01*
X20508Y10853D01*
X20506Y10867D01*
X20504Y10879D01*
X20500Y10889D01*
X20496Y10898D01*
X20491Y10904D01*
X20485Y10909D01*
X20478Y10911D01*
X20471Y10912D01*
X20629D01*
X20622Y10911D01*
D02*
G37*
G36*
X17600Y10883D02*
X17602Y10876D01*
X17604Y10868D01*
X17608Y10861D01*
X17612Y10854D01*
X17617Y10848D01*
X17623Y10841D01*
X17630Y10835D01*
X17638Y10829D01*
X17647Y10822D01*
X17524Y10796D01*
X17531Y10807D01*
X17547Y10836D01*
X17551Y10845D01*
X17557Y10861D01*
X17559Y10868D01*
X17560Y10875D01*
X17560Y10882D01*
X17600Y10890D01*
X17600Y10883D01*
D02*
G37*
G36*
X17600Y10782D02*
X17601Y10775D01*
X17602Y10769D01*
X17603Y10763D01*
X17605Y10759D01*
X17607Y10755D01*
X17610Y10752D01*
X17613Y10750D01*
X17616Y10749D01*
X17620Y10749D01*
X17540Y10747D01*
X17544Y10747D01*
X17547Y10748D01*
X17550Y10751D01*
X17553Y10754D01*
X17555Y10758D01*
X17557Y10762D01*
X17558Y10768D01*
X17559Y10774D01*
X17560Y10782D01*
X17560Y10790D01*
X17600D01*
X17600Y10782D01*
D02*
G37*
G36*
X20590Y10762D02*
X20592Y10747D01*
X20594Y10733D01*
X20596Y10721D01*
X20600Y10711D01*
X20604Y10702D01*
X20609Y10696D01*
X20615Y10691D01*
X20622Y10689D01*
X20629Y10688D01*
X20598D01*
X20598Y10686D01*
X20601Y10680D01*
X20605Y10674D01*
X20609Y10669D01*
X20613Y10664D01*
X20487D01*
X20491Y10669D01*
X20495Y10674D01*
X20499Y10680D01*
X20502Y10686D01*
X20502Y10688D01*
X20471D01*
X20478Y10689D01*
X20485Y10691D01*
X20491Y10696D01*
X20496Y10702D01*
X20500Y10711D01*
X20504Y10721D01*
X20506Y10733D01*
X20508Y10747D01*
X20510Y10762D01*
X20510Y10780D01*
X20590D01*
X20590Y10762D01*
D02*
G37*
G36*
X20462Y10648D02*
X20464Y10648D01*
X20470Y10651D01*
X20476Y10655D01*
X20481Y10659D01*
X20486Y10663D01*
Y10537D01*
X20481Y10541D01*
X20476Y10545D01*
X20470Y10549D01*
X20464Y10552D01*
X20462Y10552D01*
Y10521D01*
X20461Y10528D01*
X20459Y10535D01*
X20454Y10541D01*
X20448Y10546D01*
X20439Y10550D01*
X20429Y10554D01*
X20417Y10556D01*
X20403Y10558D01*
X20388Y10560D01*
X20370Y10560D01*
Y10640D01*
X20388Y10640D01*
X20403Y10642D01*
X20417Y10644D01*
X20429Y10646D01*
X20439Y10650D01*
X20448Y10654D01*
X20454Y10659D01*
X20459Y10665D01*
X20461Y10672D01*
X20462Y10679D01*
Y10648D01*
D02*
G37*
G36*
X22196Y10620D02*
X22198Y10616D01*
X22201Y10612D01*
X22205Y10609D01*
X22210Y10606D01*
X22216Y10604D01*
X22223Y10602D01*
X22231Y10601D01*
X22240Y10600D01*
X22250Y10600D01*
Y10550D01*
X22240Y10550D01*
X22231Y10549D01*
X22224Y10548D01*
X22217Y10546D01*
X22211Y10544D01*
X22207Y10541D01*
X22203Y10538D01*
X22201Y10534D01*
X22199Y10530D01*
X22199Y10525D01*
X22196Y10625D01*
X22196Y10620D01*
D02*
G37*
G36*
X13200Y10651D02*
X13186Y10650D01*
X13173Y10646D01*
X13162Y10638D01*
X13152Y10628D01*
X13144Y10614D01*
X13137Y10598D01*
X13132Y10578D01*
X13128Y10555D01*
X13126Y10529D01*
X13125Y10500D01*
X12975D01*
X12974Y10522D01*
X12972Y10542D01*
X12969Y10561D01*
X12964Y10579D01*
X12957Y10595D01*
X12950Y10611D01*
X12940Y10625D01*
X12930Y10637D01*
X12918Y10649D01*
X12904Y10659D01*
X13200Y10651D01*
D02*
G37*
G36*
X20200Y10525D02*
X20201Y10521D01*
X20204Y10517D01*
X20207Y10514D01*
X20212Y10511D01*
X20217Y10509D01*
X20224Y10507D01*
X20232Y10506D01*
X20241Y10505D01*
X20250Y10505D01*
Y10455D01*
X20241Y10455D01*
X20232Y10454D01*
X20224Y10453D01*
X20217Y10451D01*
X20212Y10449D01*
X20207Y10446D01*
X20204Y10443D01*
X20201Y10439D01*
X20200Y10435D01*
X20199Y10430D01*
Y10530D01*
X20200Y10525D01*
D02*
G37*
G36*
X19701Y10430D02*
X19700Y10435D01*
X19699Y10439D01*
X19696Y10443D01*
X19693Y10446D01*
X19688Y10449D01*
X19683Y10451D01*
X19676Y10453D01*
X19668Y10454D01*
X19659Y10455D01*
X19650Y10455D01*
Y10505D01*
X19659Y10505D01*
X19668Y10506D01*
X19676Y10507D01*
X19683Y10509D01*
X19688Y10511D01*
X19693Y10514D01*
X19696Y10517D01*
X19699Y10521D01*
X19700Y10525D01*
X19701Y10530D01*
Y10430D01*
D02*
G37*
G36*
X18500Y10525D02*
X18501Y10521D01*
X18504Y10517D01*
X18507Y10514D01*
X18512Y10511D01*
X18517Y10509D01*
X18524Y10507D01*
X18532Y10506D01*
X18541Y10505D01*
X18550Y10505D01*
Y10455D01*
X18541Y10455D01*
X18532Y10454D01*
X18524Y10453D01*
X18517Y10451D01*
X18512Y10449D01*
X18507Y10446D01*
X18504Y10443D01*
X18501Y10439D01*
X18500Y10435D01*
X18499Y10430D01*
Y10530D01*
X18500Y10525D01*
D02*
G37*
G36*
X18001Y10415D02*
X18000Y10420D01*
X17999Y10424D01*
X17996Y10428D01*
X17993Y10431D01*
X17988Y10434D01*
X17983Y10436D01*
X17976Y10438D01*
X17968Y10439D01*
X17959Y10440D01*
X17950Y10440D01*
Y10490D01*
X17959Y10490D01*
X17968Y10491D01*
X17976Y10492D01*
X17983Y10494D01*
X17988Y10496D01*
X17993Y10499D01*
X17996Y10502D01*
X17999Y10506D01*
X18000Y10510D01*
X18001Y10515D01*
Y10415D01*
D02*
G37*
G36*
X12511Y10603D02*
X12493Y10581D01*
X12477Y10557D01*
X12463Y10533D01*
X12452Y10508D01*
X12442Y10482D01*
X12435Y10455D01*
X12431Y10436D01*
X12433Y10412D01*
X12435Y10398D01*
X12438Y10386D01*
X12442Y10376D01*
X12446Y10369D01*
X12425D01*
X12425Y10369D01*
X12275D01*
X12275Y10369D01*
X12254D01*
X12258Y10376D01*
X12262Y10386D01*
X12265Y10398D01*
X12267Y10412D01*
X12272Y10446D01*
X12272Y10452D01*
X12268Y10488D01*
X12265Y10505D01*
X12261Y10519D01*
X12257Y10531D01*
X12252Y10540D01*
X12247Y10547D01*
X12350Y10550D01*
X12531Y10625D01*
X12511Y10603D01*
D02*
G37*
G36*
X11867Y10440D02*
X11896Y10415D01*
X11909Y10406D01*
X11921Y10399D01*
X11932Y10395D01*
X11942Y10392D01*
X11950Y10392D01*
X11957Y10394D01*
X11963Y10399D01*
X11851Y10287D01*
X11856Y10293D01*
X11858Y10300D01*
X11858Y10308D01*
X11855Y10318D01*
X11851Y10329D01*
X11844Y10341D01*
X11835Y10354D01*
X11823Y10368D01*
X11794Y10400D01*
X11850Y10456D01*
X11867Y10440D01*
D02*
G37*
G36*
X12849Y10336D02*
X12850Y10333D01*
X12852Y10330D01*
X12855Y10327D01*
X12859Y10325D01*
X12863Y10323D01*
X12869Y10322D01*
X12875Y10321D01*
X12882Y10320D01*
X12890Y10320D01*
Y10280D01*
X12882Y10280D01*
X12875Y10279D01*
X12869Y10278D01*
X12863Y10277D01*
X12859Y10275D01*
X12855Y10273D01*
X12852Y10270D01*
X12850Y10267D01*
X12849Y10264D01*
X12849Y10260D01*
Y10340D01*
X12849Y10336D01*
D02*
G37*
G36*
X15071Y10243D02*
X15067Y10238D01*
X15063Y10232D01*
X15059Y10226D01*
X15055Y10218D01*
X15052Y10210D01*
X15049Y10201D01*
X15043Y10180D01*
X15041Y10169D01*
X15039Y10157D01*
X14965Y10259D01*
X14976Y10257D01*
X14986Y10256D01*
X14996Y10256D01*
X15005Y10257D01*
X15014Y10258D01*
X15022Y10260D01*
X15029Y10263D01*
X15036Y10267D01*
X15042Y10271D01*
X15048Y10276D01*
X15071Y10243D01*
D02*
G37*
G36*
X11249Y10345D02*
X11251Y10341D01*
X11253Y10337D01*
X11257Y10334D01*
X11261Y10331D01*
X11267Y10329D01*
X11274Y10327D01*
X11281Y10326D01*
X11290Y10325D01*
X11300Y10325D01*
Y10275D01*
X11290Y10275D01*
X11281Y10274D01*
X11274Y10273D01*
X11267Y10271D01*
X11261Y10269D01*
X11257Y10266D01*
X11253Y10263D01*
X11251Y10259D01*
X11249Y10255D01*
X11249Y10250D01*
X11249Y10350D01*
X11249Y10345D01*
D02*
G37*
G36*
X11451Y10250D02*
X11451Y10255D01*
X11449Y10259D01*
X11447Y10263D01*
X11443Y10266D01*
X11439Y10269D01*
X11433Y10271D01*
X11426Y10273D01*
X11419Y10274D01*
X11410Y10275D01*
X11400Y10275D01*
Y10325D01*
X11410Y10325D01*
X11419Y10326D01*
X11426Y10327D01*
X11433Y10329D01*
X11439Y10331D01*
X11443Y10334D01*
X11447Y10337D01*
X11449Y10341D01*
X11451Y10345D01*
X11451Y10350D01*
X11451Y10250D01*
D02*
G37*
G36*
X13351Y10235D02*
X13350Y10249D01*
X13345Y10262D01*
X13338Y10273D01*
X13327Y10283D01*
X13313Y10291D01*
X13297Y10298D01*
X13277Y10303D01*
X13255Y10307D01*
X13229Y10309D01*
X13200Y10310D01*
Y10460D01*
X13229Y10461D01*
X13255Y10463D01*
X13277Y10467D01*
X13297Y10472D01*
X13313Y10479D01*
X13327Y10487D01*
X13338Y10497D01*
X13345Y10508D01*
X13350Y10521D01*
X13351Y10535D01*
Y10235D01*
D02*
G37*
G36*
X15932Y10230D02*
X15932Y10230D01*
X15930Y10230D01*
X15892Y10230D01*
Y10270D01*
X15900Y10270D01*
X15907Y10271D01*
X15913Y10272D01*
X15918Y10273D01*
X15923Y10275D01*
X15926Y10277D01*
X15929Y10280D01*
X15931Y10283D01*
X15933Y10286D01*
X15933Y10290D01*
X15932Y10230D01*
D02*
G37*
G36*
X20463Y10323D02*
X20480Y10308D01*
X20488Y10303D01*
X20495Y10299D01*
X20502Y10296D01*
X20508Y10294D01*
X20513D01*
X20517Y10296D01*
X20521Y10299D01*
X20451Y10229D01*
X20454Y10233D01*
X20456Y10237D01*
Y10242D01*
X20454Y10248D01*
X20451Y10255D01*
X20447Y10262D01*
X20442Y10270D01*
X20435Y10278D01*
X20417Y10297D01*
X20453Y10333D01*
X20463Y10323D01*
D02*
G37*
G36*
X15649Y10286D02*
X15650Y10283D01*
X15652Y10280D01*
X15655Y10277D01*
X15659Y10275D01*
X15663Y10273D01*
X15669Y10272D01*
X15675Y10271D01*
X15682Y10270D01*
X15690Y10270D01*
Y10230D01*
X15682Y10230D01*
X15675Y10229D01*
X15669Y10228D01*
X15663Y10227D01*
X15659Y10225D01*
X15655Y10223D01*
X15652Y10220D01*
X15650Y10217D01*
X15649Y10214D01*
X15649Y10210D01*
Y10290D01*
X15649Y10286D01*
D02*
G37*
G36*
X15451Y10210D02*
X15451Y10214D01*
X15450Y10217D01*
X15448Y10220D01*
X15445Y10223D01*
X15441Y10225D01*
X15437Y10227D01*
X15431Y10228D01*
X15425Y10229D01*
X15418Y10230D01*
X15410Y10230D01*
Y10270D01*
X15418Y10270D01*
X15425Y10271D01*
X15431Y10272D01*
X15437Y10273D01*
X15441Y10275D01*
X15445Y10277D01*
X15448Y10280D01*
X15450Y10283D01*
X15451Y10286D01*
X15451Y10290D01*
Y10210D01*
D02*
G37*
G36*
X13642Y10198D02*
X13639Y10197D01*
X13636Y10195D01*
X13633Y10192D01*
X13631Y10188D01*
X13629Y10183D01*
X13628Y10178D01*
X13627Y10172D01*
X13626Y10164D01*
X13626Y10156D01*
X13586D01*
X13586Y10164D01*
X13586Y10172D01*
X13585Y10178D01*
X13583Y10183D01*
X13582Y10188D01*
X13579Y10192D01*
X13577Y10195D01*
X13574Y10197D01*
X13571Y10198D01*
X13567Y10199D01*
X13645D01*
X13642Y10198D01*
D02*
G37*
%LPC*%
G36*
X11600Y15302D02*
X11500D01*
X11461Y15294D01*
X11428Y15272D01*
X11406Y15239D01*
X11404Y15229D01*
X11399Y15229D01*
X11393Y15226D01*
X11307D01*
X11301Y15229D01*
X11296Y15229D01*
X11294Y15239D01*
X11272Y15272D01*
X11239Y15294D01*
X11200Y15302D01*
X11100D01*
X11061Y15294D01*
X11028Y15272D01*
X11006Y15239D01*
X10998Y15200D01*
Y15100D01*
X11006Y15061D01*
X11028Y15028D01*
X11061Y15006D01*
X11100Y14998D01*
X11200D01*
X11239Y15006D01*
X11272Y15028D01*
X11294Y15061D01*
X11296Y15071D01*
X11301Y15071D01*
X11307Y15074D01*
X11393D01*
X11399Y15071D01*
X11404Y15071D01*
X11406Y15061D01*
X11428Y15028D01*
X11461Y15006D01*
X11500Y14998D01*
X11600D01*
X11639Y15006D01*
X11672Y15028D01*
X11694Y15061D01*
X11702Y15100D01*
Y15200D01*
X11694Y15239D01*
X11672Y15272D01*
X11639Y15294D01*
X11600Y15302D01*
D02*
G37*
%LPD*%
G36*
X11249Y15195D02*
X11251Y15191D01*
X11253Y15187D01*
X11257Y15184D01*
X11261Y15181D01*
X11267Y15179D01*
X11274Y15177D01*
X11281Y15176D01*
X11290Y15175D01*
X11300Y15175D01*
Y15125D01*
X11290Y15125D01*
X11281Y15124D01*
X11274Y15123D01*
X11267Y15121D01*
X11261Y15119D01*
X11257Y15116D01*
X11253Y15113D01*
X11251Y15109D01*
X11249Y15105D01*
X11249Y15100D01*
X11249Y15200D01*
X11249Y15195D01*
D02*
G37*
G36*
X11451Y15100D02*
X11451Y15105D01*
X11449Y15109D01*
X11447Y15113D01*
X11443Y15116D01*
X11439Y15119D01*
X11433Y15121D01*
X11426Y15123D01*
X11419Y15124D01*
X11410Y15125D01*
X11400Y15125D01*
Y15175D01*
X11410Y15175D01*
X11419Y15176D01*
X11426Y15177D01*
X11433Y15179D01*
X11439Y15181D01*
X11443Y15184D01*
X11447Y15187D01*
X11449Y15191D01*
X11451Y15195D01*
X11451Y15200D01*
X11451Y15100D01*
D02*
G37*
%LPC*%
G36*
X14533Y15227D02*
X14415D01*
X14372Y15218D01*
X14336Y15194D01*
X14312Y15158D01*
X14304Y15115D01*
Y14884D01*
X14312Y14841D01*
X14336Y14805D01*
X14372Y14781D01*
X14415Y14772D01*
X14533D01*
X14576Y14781D01*
X14612Y14805D01*
X14636Y14841D01*
X14644Y14884D01*
Y15115D01*
X14636Y15158D01*
X14612Y15194D01*
X14576Y15218D01*
X14533Y15227D01*
D02*
G37*
%LPD*%
D11*
X14959Y14975D02*
G03*
X14850Y14866I0J-109D01*
G01*
X15317Y14975D02*
G03*
X15400Y14950I83J125D01*
G01*
X15317Y15133D02*
G03*
X15250Y15200I-67J0D01*
G01*
X14718Y14550D02*
G03*
X14850Y14682I0J132D01*
G01*
X13726Y14674D02*
G03*
X13850Y14550I124J0D01*
G01*
X19449Y14658D02*
G03*
X19433Y14651I26J-75D01*
G01*
D02*
G03*
X19357Y14550I95J-151D01*
G01*
X19449Y14658D02*
G03*
X19461Y14663I-49J142D01*
G01*
X18850Y14900D02*
G03*
X18795Y14955I-55J0D01*
G01*
X18429D02*
G03*
X18336Y14862I0J-93D01*
G01*
X15150Y14800D02*
G03*
X15050Y14700I0J-100D01*
G01*
X11575Y10675D02*
Y14725D01*
Y10675D02*
X11950Y10300D01*
X11575Y14725D02*
X11700Y14850D01*
X10499Y10296D02*
X10501Y10298D01*
X10748D02*
X10750Y10300D01*
X10501Y10298D02*
X10748D01*
X19350Y14100D02*
X19569D01*
X19865Y13804D01*
X19946D01*
X19950Y13800D01*
X17217Y15110D02*
X19110D01*
X16270Y15270D02*
X17050D01*
X15950Y14950D02*
X16270Y15270D01*
X17050D02*
X17190Y15130D01*
Y15083D02*
X17217Y15110D01*
X17155Y14811D02*
X17190Y14846D01*
X17155Y14678D02*
Y14811D01*
X17190Y15083D02*
Y15130D01*
Y14846D02*
Y15083D01*
X15400Y14950D02*
X15950D01*
X14850Y14682D02*
Y14866D01*
X15317Y14975D02*
Y15133D01*
X14959Y14975D02*
X15317D01*
X13850Y14550D02*
X14718D01*
X13150Y15000D02*
X13726D01*
Y14674D02*
Y14999D01*
X19461Y14663D02*
X19759Y14678D01*
X19350Y14500D02*
X19357Y14550D01*
Y14550D01*
X19759Y14678D02*
X19985D01*
X19350Y13850D02*
X19360Y13840D01*
Y13640D02*
Y13840D01*
X14347Y13153D02*
X14540Y12960D01*
X14347Y13153D02*
Y13546D01*
X14988Y13050D02*
X15612D01*
X14898Y12960D02*
X14988Y13050D01*
X15612D02*
X15700Y12962D01*
X14540Y12960D02*
X14898D01*
X15700Y12883D02*
Y12962D01*
X18429Y14955D02*
X18795D01*
X19360Y13640D02*
X19405Y13595D01*
X18828D02*
X19405D01*
X19311Y12650D02*
X20400D01*
X19153Y12808D02*
X19311Y12650D01*
X19200Y13250D02*
Y13400D01*
Y12855D02*
Y13250D01*
X19153Y12808D02*
X19200Y12855D01*
X18828Y12808D02*
X19153D01*
X18828Y13202D02*
X19152D01*
X19200Y13250D01*
X17050Y11471D02*
X17479D01*
X17700Y11250D01*
Y10950D02*
Y11250D01*
X20327Y10600D02*
X20550D01*
X20197Y10730D02*
X20327Y10600D01*
X17920Y10730D02*
X20197D01*
X17700Y10950D02*
X17920Y10730D01*
X16958Y11563D02*
X17050Y11471D01*
X16958Y11563D02*
Y11922D01*
X20550Y10600D02*
Y11000D01*
X20750Y11200D01*
X15775Y12808D02*
X16072D01*
X15700Y12883D02*
X15775Y12808D01*
X15050Y14500D02*
Y14700D01*
X18336Y14678D02*
Y14862D01*
X15150Y14800D02*
X15250D01*
X19405Y13595D02*
X19600Y13400D01*
X20750Y11900D02*
X21000Y12150D01*
X20800Y12700D02*
X21000Y12500D01*
Y12150D02*
Y12500D01*
X20750Y11200D02*
Y11900D01*
X19600Y13050D02*
Y13400D01*
X13726Y15000D02*
X14000D01*
X13726Y14999D02*
X13726Y15000D01*
X14000D02*
X14000Y15000D01*
X11700Y14850D02*
X12050D01*
X12750Y15000D02*
X13150D01*
X13726Y14999D02*
Y15000D01*
D12*
X21300Y13450D02*
G03*
X21500Y13250I200J0D01*
G01*
X14700Y13800D02*
G03*
X15250Y14350I0J550D01*
G01*
X21300Y14950D02*
G03*
X20950Y15300I-350J0D01*
G01*
X12650D02*
G03*
X12450Y15100I0J-200D01*
G01*
X21300Y14650D02*
G03*
X21528Y14422I228J0D01*
G01*
X12450Y15000D02*
G03*
X12300Y15150I-150J0D01*
G01*
X14474Y13976D02*
G03*
X14100Y14350I-374J0D01*
G01*
X12450Y14050D02*
G03*
X12650Y13850I200J0D01*
G01*
X14100Y14350D02*
G03*
X13726Y13976I0J-374D01*
G01*
X11900Y14100D02*
X12150D01*
X11750Y10750D02*
Y13950D01*
X11900Y10600D02*
X12300D01*
X11750Y13950D02*
X11900Y14100D01*
X11750Y10750D02*
X11900Y10600D01*
X17572Y13422D02*
Y13611D01*
X17450Y13300D02*
X17572Y13422D01*
Y13611D02*
X17649Y13688D01*
Y13696D01*
X17655Y13952D02*
X17952D01*
X17649Y13946D02*
X17655Y13952D01*
X17952D02*
X18139Y14139D01*
Y14678D01*
X16852Y10627D02*
X17013Y10465D01*
X16187Y11135D02*
X16206D01*
X16368Y10973D01*
Y10953D02*
Y10973D01*
X16694Y10627D02*
X16852D01*
X16368Y10953D02*
X16694Y10627D01*
X10501Y15148D02*
X10748D01*
X10750Y15150D01*
X10499Y15146D02*
X10501Y15148D01*
X12899Y13346D02*
X13996D01*
X14100Y13450D01*
Y13859D01*
X21300Y13450D02*
Y14650D01*
Y14950D01*
X21500Y13250D02*
X21650D01*
X14517Y13800D02*
X14700D01*
X14474Y13859D02*
X14517Y13800D01*
X12350Y10550D02*
X12509Y10709D01*
X12350Y10300D02*
Y10550D01*
X12300Y10600D02*
X12350Y10550D01*
X12509Y10709D02*
X13065D01*
X13085D01*
X21650Y13250D02*
X22050D01*
X21528Y14422D02*
X21915D01*
X12450Y15000D02*
Y15100D01*
Y14050D02*
Y15000D01*
X11950Y15150D02*
X12300D01*
X14474Y13859D02*
Y13976D01*
X12650Y13850D02*
X12750D01*
X13726Y13859D02*
Y13976D01*
X13155Y13855D02*
X13721D01*
X13726Y13859D01*
X13150Y13850D02*
X13155Y13855D01*
X12750Y13850D02*
X13150D01*
X13050Y10694D02*
X13065Y10709D01*
X13050Y10500D02*
Y10694D01*
X13165Y10385D02*
X13409D01*
X13050Y10500D02*
X13165Y10385D01*
D15*
X21135Y12815D02*
G03*
X21300Y12650I165J0D01*
G01*
X21975D02*
G03*
X22050Y12725I0J75D01*
G01*
X21119Y14129D02*
G03*
X21034Y14166I-85J-79D01*
G01*
X21135Y14089D02*
G03*
X21119Y14129I-60J-0D01*
G01*
X19790Y12920D02*
Y13560D01*
Y12920D02*
X19860Y12850D01*
X19600Y13750D02*
X19790Y13560D01*
X20400Y13050D02*
X20406Y13056D01*
X20525D02*
X20530Y13061D01*
X20406Y13056D02*
X20525D01*
X16682Y15050D02*
X16782Y15150D01*
X16650Y15050D02*
X16682D01*
X16782Y15150D02*
X17000D01*
X17070Y15080D01*
X16958Y14806D02*
X17070Y14918D01*
X16958Y14678D02*
Y14806D01*
X17070Y14918D02*
Y15080D01*
X19550Y11500D02*
Y11900D01*
X21300Y12650D02*
X21975D01*
X22050Y12700D02*
Y12725D01*
Y12550D02*
Y12700D01*
Y12725D02*
Y12900D01*
X18828Y13792D02*
X18835Y13785D01*
X19111D01*
X19121Y13775D01*
X21400Y11850D02*
X21850D01*
X22050Y12050D01*
X18170Y11430D02*
X19480D01*
X17999Y11601D02*
X18170Y11430D01*
X19480D02*
X19550Y11500D01*
X17200Y11601D02*
X17999D01*
X19985Y14166D02*
X21034D01*
X21135Y12815D02*
Y14089D01*
X20400Y13050D02*
Y13400D01*
X20350Y11900D02*
X20550Y12100D01*
X20600Y12450D02*
Y12750D01*
X20550Y12400D02*
X20600Y12450D01*
X20550Y12100D02*
Y12400D01*
X19860Y12850D02*
X20500D01*
X20600Y12750D01*
X17155Y11646D02*
X17200Y11601D01*
X17155Y11646D02*
Y11922D01*
X19950Y11900D02*
X20350D01*
X19550D02*
X19950D01*
D19*
X16094Y14383D02*
D03*
Y12217D02*
D03*
X18850D02*
D03*
Y14383D02*
D03*
D20*
X16094Y14186D02*
D03*
Y13989D02*
D03*
Y13792D02*
D03*
Y13595D02*
D03*
Y13398D02*
D03*
Y13202D02*
D03*
Y13005D02*
D03*
Y12808D02*
D03*
Y12611D02*
D03*
Y12414D02*
D03*
X18850D02*
D03*
Y12611D02*
D03*
Y12808D02*
D03*
Y13005D02*
D03*
Y13202D02*
D03*
Y13398D02*
D03*
Y13595D02*
D03*
Y13792D02*
D03*
Y13989D02*
D03*
Y14186D02*
D03*
D21*
X18555Y14678D02*
D03*
D22*
X18358D02*
D03*
X18161D02*
D03*
X17964D02*
D03*
X17767D02*
D03*
X17570D02*
D03*
X17374D02*
D03*
X17177D02*
D03*
X16980D02*
D03*
X16783D02*
D03*
X16586D02*
D03*
X18358Y11922D02*
D03*
X18161D02*
D03*
X17964D02*
D03*
X17767D02*
D03*
X17570D02*
D03*
X17374D02*
D03*
X17177D02*
D03*
X16980D02*
D03*
X16783D02*
D03*
X16586D02*
D03*
D23*
X16389Y14678D02*
D03*
X18555Y11922D02*
D03*
X16389D02*
D03*
D24*
X17472Y13300D02*
D03*
D25*
X11050Y12400D02*
D03*
Y13100D02*
D03*
D26*
X15250Y15200D02*
D03*
Y14800D02*
D03*
Y14350D02*
D03*
D27*
X16187Y11135D02*
D03*
X17013D02*
D03*
Y10465D02*
D03*
X16187D02*
D03*
D28*
X17600Y10650D02*
D03*
Y10250D02*
D03*
X15550D02*
D03*
Y10650D02*
D03*
X19950Y11900D02*
D03*
Y12300D02*
D03*
X19550Y11900D02*
D03*
Y12300D02*
D03*
X20550Y11000D02*
D03*
Y11400D02*
D03*
Y10200D02*
D03*
Y10600D02*
D03*
X20750Y12300D02*
D03*
Y11900D02*
D03*
X20350Y12300D02*
D03*
Y11900D02*
D03*
X15550Y11400D02*
D03*
Y11000D02*
D03*
X19350Y14850D02*
D03*
Y15250D02*
D03*
X21650Y13650D02*
D03*
Y13250D02*
D03*
X22050Y13650D02*
D03*
Y13250D02*
D03*
X19350Y14100D02*
D03*
Y14500D02*
D03*
X12750Y14600D02*
D03*
Y15000D02*
D03*
X13150Y14600D02*
D03*
Y15000D02*
D03*
Y13850D02*
D03*
Y14250D02*
D03*
X12750Y12400D02*
D03*
Y12800D02*
D03*
Y14250D02*
D03*
Y13850D02*
D03*
D29*
X19600Y13750D02*
D03*
X20000D02*
D03*
X16250Y15250D02*
D03*
X15850D02*
D03*
X20000Y13050D02*
D03*
X19600D02*
D03*
X20400Y12650D02*
D03*
X20800D02*
D03*
X20000Y13400D02*
D03*
X19600D02*
D03*
X20400D02*
D03*
X20800D02*
D03*
X20400Y13050D02*
D03*
X20800D02*
D03*
X15100Y12850D02*
D03*
X15500D02*
D03*
X15100Y12500D02*
D03*
X15500D02*
D03*
X20400Y13750D02*
D03*
X20800D02*
D03*
X21650Y12850D02*
D03*
X22050D02*
D03*
X21650Y12450D02*
D03*
X22050D02*
D03*
X12750Y10300D02*
D03*
X12350D02*
D03*
X22050Y12050D02*
D03*
X21650D02*
D03*
X10750Y10300D02*
D03*
X11150D02*
D03*
X11550D02*
D03*
X11950D02*
D03*
X10750Y15150D02*
D03*
X11150D02*
D03*
X11550D02*
D03*
X11950D02*
D03*
D30*
X18250Y10480D02*
D03*
X19950D02*
D03*
X18250Y11120D02*
D03*
X19950D02*
D03*
D31*
X19985Y14422D02*
D03*
X21915Y14934D02*
D03*
Y14678D02*
D03*
Y14422D02*
D03*
Y14166D02*
D03*
X19985D02*
D03*
Y14678D02*
D03*
D32*
Y14934D02*
D03*
D33*
X14000Y11300D02*
D03*
D34*
X13409Y12215D02*
D03*
X13606D02*
D03*
X13803D02*
D03*
X14000D02*
D03*
X14197D02*
D03*
X14394D02*
D03*
X14591D02*
D03*
Y10385D02*
D03*
X14394D02*
D03*
X14197D02*
D03*
X14000D02*
D03*
X13803D02*
D03*
X13606D02*
D03*
X13409D02*
D03*
D35*
X14915Y11891D02*
D03*
Y11694D02*
D03*
Y11497D02*
D03*
Y11300D02*
D03*
Y11103D02*
D03*
Y10906D02*
D03*
Y10709D02*
D03*
X13085D02*
D03*
Y10906D02*
D03*
Y11103D02*
D03*
Y11300D02*
D03*
Y11497D02*
D03*
Y11694D02*
D03*
Y11891D02*
D03*
D36*
X21700Y11350D02*
D03*
Y10450D02*
D03*
D37*
X14474Y14999D02*
D03*
X13726D02*
D03*
Y13859D02*
D03*
X14100D02*
D03*
X14474D02*
D03*
D58*
X19100Y12100D02*
G03*
X18983Y12217I-117J0D01*
G01*
X11050Y13100D02*
X11350D01*
X11350Y13100D01*
X11050Y13100D02*
X11050Y13100D01*
X11340Y12378D02*
X11362Y12356D01*
X11050Y12400D02*
X11072Y12378D01*
X11340D01*
X12450Y12750D02*
X12570Y12630D01*
X12850D01*
X14970Y10170D02*
X15210Y10410D01*
X14950Y10170D02*
X14970D01*
X15210Y10410D02*
Y11330D01*
X15500Y11620D01*
Y12500D01*
X15300Y10670D02*
X15489Y10858D01*
Y10939D02*
X15550Y11000D01*
X15300Y10350D02*
Y10670D01*
X15489Y10858D02*
Y10939D01*
X15400Y10250D02*
X15550D01*
X15971D01*
X15300Y10350D02*
X15400Y10250D01*
X12910Y12690D02*
X12955D01*
X13000Y12735D01*
X12850Y12630D02*
X12910Y12690D01*
X12950Y12600D02*
X13700D01*
X12750Y12400D02*
X12950Y12600D01*
X13000Y12735D02*
X14138D01*
X13700Y12600D02*
X13803Y12497D01*
Y12215D02*
Y12497D01*
X12775Y12825D02*
X15075D01*
X12750Y12800D02*
X12775Y12825D01*
X15075D02*
X15100Y12850D01*
X14138Y12735D02*
X14193Y12680D01*
X15330D01*
X15500Y12850D01*
X18850Y12217D02*
X18983D01*
X19100Y12000D02*
Y12100D01*
X15665Y13950D02*
X15813Y13802D01*
Y13687D02*
Y13802D01*
X21650Y13650D02*
Y13850D01*
X21700Y13900D01*
X21650Y13650D02*
X22050D01*
X20800Y13050D02*
Y13400D01*
X19950Y12300D02*
X20350D01*
X20800Y13400D02*
Y13750D01*
X20000Y13400D02*
Y13750D01*
Y13050D02*
Y13400D01*
X19550Y12300D02*
X19743Y12107D01*
X19775D01*
X19550Y12300D02*
X19550D01*
X17548Y14678D02*
Y14898D01*
X15813Y13686D02*
X15813Y13687D01*
X19260Y11860D02*
Y12340D01*
X18828Y12414D02*
X19186D01*
X19260Y12340D01*
X19350Y11800D02*
Y12450D01*
X18828Y12611D02*
X19189D01*
X19350Y12450D01*
X19150Y11600D02*
X19350Y11800D01*
X18950D02*
X19200D01*
X19260Y11860D01*
X14680Y13170D02*
X15270D01*
X14670Y13160D02*
X14680Y13170D01*
X15565Y13535D02*
Y13545D01*
Y13535D02*
X15887Y13213D01*
X15335Y13235D02*
Y13800D01*
X15812Y13564D02*
X15813Y13686D01*
X15812Y13531D02*
X15812Y13564D01*
X15270Y13170D02*
X15335Y13235D01*
X15812Y13531D02*
X15944Y13398D01*
X16072D01*
X15887Y13213D02*
X16061D01*
X16072Y13202D01*
X15845Y13005D02*
X16072D01*
X15600Y13250D02*
X15845Y13005D01*
X15802Y10779D02*
Y11348D01*
X15750Y11400D02*
X15802Y11348D01*
X15550Y11400D02*
X15750D01*
X17495Y11135D02*
X17580Y11050D01*
X17013Y11135D02*
X17495D01*
X17580Y10670D02*
Y11050D01*
Y10670D02*
X17600Y10650D01*
X15971Y10250D02*
X16187Y10465D01*
X13560Y10110D02*
X13606Y10156D01*
Y10385D01*
X13140Y10110D02*
X13560D01*
X12750Y10300D02*
X12950D01*
X13140Y10110D01*
X14034Y12398D02*
X14136Y12500D01*
X14034Y12249D02*
Y12398D01*
X14136Y12500D02*
X15100D01*
X14000Y12215D02*
X14034Y12249D01*
X15700Y12500D02*
X15786Y12414D01*
X16072D01*
X15500Y12500D02*
X15700D01*
X16061Y12600D02*
X16072Y12611D01*
X15750Y12600D02*
X16061D01*
X15500Y12850D02*
X15750Y12600D01*
D59*
X11910Y12960D02*
X12050Y13100D01*
X11910Y11250D02*
Y12960D01*
Y11250D02*
X12057Y11103D01*
X12200Y12200D02*
X12500D01*
X12057Y11103D02*
X13085D01*
X12500Y12200D02*
X12650Y12050D01*
X19374Y15126D02*
Y15224D01*
Y15126D02*
X19398Y15102D01*
X19374Y15224D02*
X19375Y15225D01*
X16564Y10969D02*
X16746Y10787D01*
X17313D01*
X16564Y10969D02*
Y11456D01*
X17313Y10787D02*
X17400Y10700D01*
X12650Y11450D02*
Y12050D01*
Y11450D02*
X12800Y11300D01*
X19350Y15250D02*
X19375Y15225D01*
X11150Y10300D02*
X11550D01*
X11150Y15150D02*
X11550D01*
X19900Y14962D02*
Y15150D01*
X19350Y15250D02*
X19800D01*
X19900Y15150D01*
X22275Y10575D02*
X22350Y10650D01*
Y12950D01*
X18828Y14186D02*
X18830Y14184D01*
X19104D02*
X19106Y14182D01*
X18830Y14184D02*
X19104D01*
X18900Y14405D02*
X18902D01*
Y14600D01*
X18828Y14383D02*
X18878D01*
X18900Y14405D01*
X22250Y13850D02*
X22350Y13750D01*
X22305Y14016D02*
Y14895D01*
X22266Y14934D02*
X22305Y14895D01*
X22000Y13850D02*
X22250D01*
X22350Y12950D02*
Y13750D01*
X21900Y13950D02*
X22000Y13850D01*
X21900Y13950D02*
Y14152D01*
X21915Y14166D01*
Y14934D02*
X22266D01*
X21650Y12850D02*
Y13000D01*
X21700Y13050D01*
X22250D01*
X22350Y12950D01*
X21700Y10450D02*
X21825Y10575D01*
X22275D01*
X12800Y11300D02*
X13085D01*
X21650Y12100D02*
Y12500D01*
X20270Y10480D02*
X20550Y10200D01*
X19950Y10480D02*
X20270D01*
X18250D02*
X19950D01*
X18235Y10465D02*
X18250Y10480D01*
X17494Y10465D02*
X18235D01*
X17400Y10559D02*
X17494Y10465D01*
X17400Y10559D02*
Y10700D01*
X16367Y11652D02*
X16564Y11456D01*
X16367Y11652D02*
Y11922D01*
X19657Y14500D02*
X19735Y14422D01*
X19985D01*
X19350Y14500D02*
X19657D01*
D60*
X10900Y13600D02*
D03*
Y11860D02*
D03*
D61*
X20400Y13870D02*
D03*
X11350Y13100D02*
D03*
X11362Y12356D02*
D03*
X12450Y12750D02*
D03*
X15545Y10680D02*
D03*
X14950Y10170D02*
D03*
X17835Y13050D02*
D03*
X12030Y13111D02*
D03*
X12200Y11450D02*
D03*
X12180Y12211D02*
D03*
X19398Y15102D02*
D03*
X16999Y10615D02*
D03*
X11000Y11350D02*
D03*
Y11100D02*
D03*
X10950Y14300D02*
D03*
X12850Y11500D02*
D03*
X19950Y11100D02*
D03*
X19350D02*
D03*
X21350Y13050D02*
D03*
X20530Y13061D02*
D03*
X10499Y10296D02*
D03*
Y15146D02*
D03*
X19110Y15110D02*
D03*
X16650Y15050D02*
D03*
X16884Y14980D02*
D03*
X17649Y13946D02*
D03*
Y13696D02*
D03*
X16241Y14960D02*
D03*
X15665Y13950D02*
D03*
X10950Y14050D02*
D03*
X12899Y13346D02*
D03*
X14749Y15096D02*
D03*
X19850Y12450D02*
D03*
X19950Y13800D02*
D03*
X19550Y11900D02*
D03*
X19400Y14850D02*
D03*
X15950Y14750D02*
D03*
X15499Y14496D02*
D03*
X13149Y14246D02*
D03*
X20550Y11400D02*
D03*
X13600Y10800D02*
D03*
X21700Y14700D02*
D03*
Y13900D02*
D03*
X20800Y13050D02*
D03*
X20750Y12300D02*
D03*
X21350Y12450D02*
D03*
X21849Y12246D02*
D03*
X19106Y14182D02*
D03*
X19121Y13775D02*
D03*
X19007Y13975D02*
D03*
X21400Y11850D02*
D03*
X19775Y12107D02*
D03*
X18950Y13400D02*
D03*
X19350Y13850D02*
D03*
X17547Y14835D02*
D03*
X19150Y11600D02*
D03*
X18950Y11800D02*
D03*
X19100Y12000D02*
D03*
X14670Y13160D02*
D03*
X15565Y13545D02*
D03*
X15335Y13800D02*
D03*
X14347Y13546D02*
D03*
X15600Y13250D02*
D03*
X17599Y10746D02*
D03*
X18902Y14600D02*
D03*
X18543Y14505D02*
D03*
X15802Y10779D02*
D03*
X21680Y11361D02*
D03*
X22305Y14016D02*
D03*
X21680Y10561D02*
D03*
X18838Y14888D02*
D03*
X19200Y13400D02*
D03*
X15050Y14500D02*
D03*
X20550Y10600D02*
D03*
X11950Y10300D02*
D03*
X14000Y15000D02*
D03*
X12050Y14850D02*
D03*
D62*
X20949Y15303D02*
D03*
X12650Y15300D02*
D03*
D63*
X12150Y14100D02*
D03*
M02*
